<svg width="610" height="565" viewBox="0 0 610 565" fill="none" xmlns="http://www.w3.org/2000/svg">
<path opacity="0.7" d="M567.137 175.779C567.137 175.779 602.635 267.507 552.75 359.872C502.865 452.237 400.115 501.031 317.877 542.755C235.639 584.479 150.244 564.158 109.666 495.821C69.0881 427.483 124.741 378.702 124.817 281.254C124.894 183.806 110.239 158.007 163.014 75.6811C215.79 -6.64475 345.163 -24.8757 442.998 36.1871C540.833 97.25 567.137 175.779 567.137 175.779Z" fill="white"/>
<path d="M510.262 79.414C504.913 75.7065 499.281 72.4264 493.417 69.6042C450.993 49.2966 398.918 55.9851 358.137 79.4394C317.355 102.894 286.836 141.228 264.643 182.71C254.458 201.667 245.43 222.026 229.12 236.04C208.112 254.105 179.732 258.194 154.687 268.03C63.6259 303.816 62.5819 435 142.401 483.985C173.862 503.299 212.721 509.121 248.868 511.822C298.957 515.555 349.95 513.644 398.32 500.114C446.69 486.584 492.437 460.837 524.802 422.4C567.176 372.077 583.511 303.651 581.372 237.874C580.29 204.584 574.688 171.015 560.682 140.834C549.312 116.564 532.162 94.5746 510.262 79.414Z" fill="#CBD4E3"/>
<path opacity="0.7" d="M510.262 79.414C504.913 75.7065 499.281 72.4264 493.417 69.6042C450.993 49.2966 398.918 55.9851 358.137 79.4394C317.355 102.894 286.836 141.228 264.643 182.71C254.458 201.667 245.43 222.026 229.12 236.04C208.112 254.105 179.732 258.194 154.687 268.03C63.6259 303.816 62.5819 435 142.401 483.985C173.862 503.299 212.721 509.121 248.868 511.822C298.957 515.555 349.95 513.644 398.32 500.114C446.69 486.584 492.437 460.837 524.802 422.4C567.176 372.077 583.511 303.651 581.372 237.874C580.29 204.584 574.688 171.015 560.682 140.834C549.312 116.564 532.162 94.5746 510.262 79.414Z" fill="white"/>
<path d="M481.284 134.795C480.832 132.865 480.606 130.89 480.609 128.909C480.609 121.971 483.362 115.317 488.264 110.41C493.166 105.503 499.814 102.744 506.748 102.741C509.054 102.739 511.349 103.048 513.573 103.658C516.226 98.9425 520.331 95.2116 525.277 93.0224C530.223 90.8332 535.744 90.3031 541.016 91.5111C546.287 92.7191 551.027 95.6005 554.528 99.7253C558.029 103.85 560.103 108.997 560.44 114.398C561.699 114.157 562.978 114.033 564.26 114.029C569.299 114.025 574.162 115.88 577.92 119.239C581.679 122.597 584.068 127.224 584.632 132.234C587.47 132.531 590.095 133.877 591.993 136.009C593.892 138.141 594.927 140.904 594.897 143.759C594.867 146.614 593.773 149.355 591.83 151.446C589.886 153.537 587.233 154.827 584.39 155.064H488.49C486.147 155.037 483.869 154.291 481.963 152.928C480.057 151.565 478.614 149.651 477.828 147.442C477.043 145.233 476.953 142.837 477.571 140.575C478.189 138.314 479.485 136.297 481.284 134.795Z" stroke="#263238" stroke-linecap="round" stroke-linejoin="round"/>
<path d="M551.006 174.467V200.903" stroke="#263238" stroke-linecap="round" stroke-linejoin="round"/>
<path d="M551.006 158.606V169.18" stroke="#263238" stroke-linecap="round" stroke-linejoin="round"/>
<path d="M551.006 148.732V154.389" stroke="#263238" stroke-linecap="round" stroke-linejoin="round"/>
<path d="M555.997 197.807L551.018 203.986L546.027 197.807" stroke="#263238" stroke-linecap="round" stroke-linejoin="round"/>
<path d="M533.982 185.793V212.229" stroke="#263238" stroke-linecap="round" stroke-linejoin="round"/>
<path d="M533.983 169.932V180.506" stroke="#263238" stroke-linecap="round" stroke-linejoin="round"/>
<path d="M533.982 160.058V165.714" stroke="#263238" stroke-linecap="round" stroke-linejoin="round"/>
<path d="M538.974 209.133L533.983 215.312L528.992 209.133" stroke="#263238" stroke-linecap="round" stroke-linejoin="round"/>
<path d="M518.08 163.574V190.01" stroke="#263238" stroke-linecap="round" stroke-linejoin="round"/>
<path d="M518.08 147.713V158.287" stroke="#263238" stroke-linecap="round" stroke-linejoin="round"/>
<path d="M518.08 137.84V143.496" stroke="#263238" stroke-linecap="round" stroke-linejoin="round"/>
<path d="M523.071 186.914L518.08 193.093L513.089 186.914" stroke="#263238" stroke-linecap="round" stroke-linejoin="round"/>
<path d="M265.14 313.371C266.154 308.967 266.01 304.376 264.724 300.044C263.437 295.712 261.052 291.788 257.799 288.652C254.546 285.517 250.538 283.278 246.164 282.153C241.789 281.029 237.199 281.057 232.838 282.235C230.185 277.518 226.078 273.787 221.131 271.599C216.184 269.41 210.662 268.881 205.39 270.09C200.117 271.3 195.378 274.183 191.878 278.31C188.378 282.437 186.306 287.585 185.971 292.987C184.712 292.746 183.433 292.622 182.151 292.618C177.114 292.614 172.252 294.467 168.494 297.823C164.736 301.179 162.346 305.803 161.779 310.811C158.941 311.108 156.316 312.454 154.418 314.586C152.519 316.717 151.484 319.481 151.514 322.336C151.544 325.191 152.638 327.932 154.581 330.023C156.525 332.113 159.178 333.404 162.021 333.641H257.921C260.265 333.616 262.544 332.872 264.453 331.51C266.361 330.148 267.806 328.234 268.593 326.024C269.38 323.815 269.471 321.418 268.853 319.155C268.236 316.893 266.94 314.874 265.14 313.371Z" stroke="#263238" stroke-linecap="round" stroke-linejoin="round"/>
<path d="M199.48 343.361V316.926" stroke="#263238" stroke-linecap="round" stroke-linejoin="round"/>
<path d="M199.48 359.223V348.648" stroke="#263238" stroke-linecap="round" stroke-linejoin="round"/>
<path d="M199.48 369.096V363.452" stroke="#263238" stroke-linecap="round" stroke-linejoin="round"/>
<path d="M194.489 320.022L199.48 313.843L204.471 320.022" stroke="#263238" stroke-linecap="round" stroke-linejoin="round"/>
<path d="M216.503 332.035V305.613" stroke="#263238" stroke-linecap="round" stroke-linejoin="round"/>
<path d="M216.503 347.897V337.323" stroke="#263238" stroke-linecap="round" stroke-linejoin="round"/>
<path d="M216.503 357.783V352.126" stroke="#263238" stroke-linecap="round" stroke-linejoin="round"/>
<path d="M211.512 308.696L216.503 302.517L221.494 308.696" stroke="#263238" stroke-linecap="round" stroke-linejoin="round"/>
<path d="M232.418 354.254V327.818" stroke="#263238" stroke-linecap="round" stroke-linejoin="round"/>
<path d="M232.418 370.115V359.541" stroke="#263238" stroke-linecap="round" stroke-linejoin="round"/>
<path d="M232.418 379.989V374.332" stroke="#263238" stroke-linecap="round" stroke-linejoin="round"/>
<path d="M227.427 330.914L232.418 324.735L237.396 330.914" stroke="#263238" stroke-linecap="round" stroke-linejoin="round"/>
<path d="M609.918 530.448H57.3744" stroke="#263238" stroke-miterlimit="10"/>
<path d="M0.999969 67.2046V283.536C0.999969 286.169 2.04529 288.694 3.90594 290.556C5.7666 292.418 8.29016 293.464 10.9215 293.464H429.596C432.229 293.464 434.754 292.418 436.617 290.557C438.48 288.696 439.529 286.171 439.532 283.536V67.2046C439.529 64.5703 438.48 62.0452 436.617 60.1838C434.754 58.3225 432.229 57.277 429.596 57.277H10.9215C8.29016 57.277 5.7666 58.323 3.90594 60.1847C2.04529 62.0465 0.999969 64.5716 0.999969 67.2046Z" fill="white"/>
<mask id="mask0_4915_220" style="mask-type:luminance" maskUnits="userSpaceOnUse" x="1" y="57" width="439" height="237">
<path d="M0.999969 67.2046V283.536C0.999969 286.169 2.04529 288.694 3.90594 290.556C5.7666 292.418 8.29016 293.464 10.9215 293.464H429.596C432.229 293.464 434.754 292.418 436.617 290.557C438.48 288.696 439.529 286.171 439.532 283.536V67.2046C439.529 64.5703 438.48 62.0452 436.617 60.1838C434.754 58.3225 432.229 57.277 429.596 57.277H10.9215C8.29016 57.277 5.7666 58.323 3.90594 60.1847C2.04529 62.0465 0.999969 64.5716 0.999969 67.2046Z" fill="white"/>
</mask>
<g mask="url(#mask0_4915_220)">
<path opacity="0.2" d="M1.00064 78.7026V283.581C1.00064 286.214 2.04593 288.739 3.90656 290.6C5.76721 292.462 8.2908 293.508 10.9221 293.508H274.347V78.6582L1.00064 78.7026Z" fill="#172D5E"/>
</g>
<path d="M0.999961 67.2046V283.536C0.999961 286.169 2.04529 288.694 3.90594 290.556C5.76659 292.418 8.29017 293.464 10.9215 293.464H429.596C432.229 293.464 434.754 292.418 436.617 290.557C438.48 288.696 439.529 286.171 439.532 283.536V67.2046C439.529 64.5703 438.48 62.0452 436.617 60.1838C434.754 58.3225 432.229 57.277 429.596 57.277H10.9215C8.29017 57.277 5.76659 58.323 3.90594 60.1847C2.04529 62.0465 0.999961 64.5716 0.999961 67.2046Z" stroke="#263238" stroke-linecap="round" stroke-linejoin="round"/>
<path d="M37.6803 166.243H92.1599C95.078 166.243 97.8765 167.403 99.9399 169.467C102.003 171.532 103.162 174.332 103.162 177.252C103.159 180.169 101.998 182.966 99.9347 185.027C97.8717 187.088 95.0754 188.246 92.1599 188.246H37.6803C36.2361 188.248 34.8057 187.965 33.4709 187.414C32.1361 186.862 30.923 186.053 29.9012 185.031C28.8793 184.01 28.0686 182.798 27.5155 181.463C26.9624 180.128 26.6777 178.697 26.6777 177.252C26.6758 175.806 26.959 174.373 27.5113 173.037C28.0635 171.7 28.8738 170.486 29.8959 169.463C30.918 168.44 32.1317 167.629 33.4675 167.077C34.8032 166.524 36.2348 166.241 37.6803 166.243Z" fill="#172D5E" stroke="#263238" stroke-linecap="round" stroke-linejoin="round"/>
<path d="M0.999939 67.2046V87.4746H439.562V67.2046C439.558 64.5703 438.509 62.0452 436.646 60.1838C434.783 58.3225 432.258 57.277 429.626 57.277H10.9214C8.29007 57.277 5.76648 58.323 3.90582 60.1847C2.0452 62.0465 0.999939 64.5716 0.999939 67.2046Z" fill="#33363B" stroke="#263238" stroke-linecap="round" stroke-linejoin="round"/>
<path d="M419.497 78.7028C415.719 78.7028 412.656 75.6379 412.656 71.8572C412.656 68.0765 415.719 65.0116 419.497 65.0116C423.275 65.0116 426.339 68.0765 426.339 71.8572C426.339 75.6379 423.275 78.7028 419.497 78.7028Z" fill="#757575" stroke="#263238" stroke-linecap="round" stroke-linejoin="round"/>
<path d="M400.987 78.7028C397.208 78.7028 394.145 75.6379 394.145 71.8572C394.145 68.0765 397.208 65.0116 400.987 65.0116C404.765 65.0116 407.828 68.0765 407.828 71.8572C407.828 75.6379 404.765 78.7028 400.987 78.7028Z" fill="white" stroke="#263238" stroke-linecap="round" stroke-linejoin="round"/>
<path d="M274.346 87.4747V293.701" stroke="#263238" stroke-linecap="round" stroke-linejoin="round"/>
<path d="M15.9266 78.703H111.81C113.622 78.6991 115.358 77.9762 116.638 76.6928C117.918 75.4094 118.637 73.6705 118.637 71.8575C118.633 70.047 117.912 68.3119 116.633 67.0317C115.354 65.7516 113.62 65.0306 111.81 65.0267H15.9266C14.1147 65.0267 12.3768 65.7459 11.0942 67.0265C9.81158 68.3071 9.08907 70.0445 9.08515 71.8575C9.08515 72.7564 9.26212 73.6466 9.60593 74.4772C9.94975 75.3077 10.4537 76.0623 11.089 76.698C11.7243 77.3337 12.4784 77.8379 13.3085 78.1819C14.1385 78.526 15.0281 78.703 15.9266 78.703Z" fill="white" stroke="#263238" stroke-linecap="round" stroke-linejoin="round"/>
<path d="M33.4154 150.996H240.909C242.696 150.996 244.41 150.286 245.673 149.021C246.937 147.757 247.647 146.042 247.647 144.254C247.647 143.369 247.473 142.492 247.134 141.674C246.795 140.856 246.299 140.113 245.673 139.487C245.048 138.861 244.305 138.364 243.487 138.025C242.67 137.687 241.794 137.512 240.909 137.512H33.4154C32.5306 137.512 31.6544 137.687 30.8369 138.025C30.0195 138.364 29.2767 138.861 28.6511 139.487C28.0254 140.113 27.5291 140.856 27.1905 141.674C26.8519 142.492 26.6776 143.369 26.6776 144.254C26.6776 146.042 27.3875 147.757 28.6511 149.021C29.9147 150.286 31.6284 150.996 33.4154 150.996Z" fill="#BFBFBF" stroke="#263238" stroke-miterlimit="10"/>
<path d="M129.669 150.996H240.909C242.696 150.996 244.41 150.286 245.673 149.021C246.937 147.757 247.647 146.042 247.647 144.254C247.647 143.369 247.473 142.492 247.134 141.674C246.795 140.856 246.299 140.113 245.673 139.487C245.048 138.861 244.305 138.364 243.487 138.025C242.67 137.687 241.794 137.512 240.909 137.512H129.669C128.784 137.512 127.908 137.687 127.091 138.025C126.273 138.364 125.531 138.861 124.905 139.487C124.279 140.113 123.783 140.856 123.444 141.674C123.106 142.492 122.931 143.369 122.931 144.254C122.931 146.042 123.641 147.757 124.905 149.021C126.169 150.286 127.882 150.996 129.669 150.996Z" fill="#172D5E" stroke="#263238" stroke-linecap="round" stroke-linejoin="round"/>
<path d="M232.379 246.745H241.516V255.888H232.379V246.745Z" stroke="#263238" stroke-linecap="round" stroke-linejoin="round"/>
<path d="M235.148 250.686L236.496 252.524L238.732 249.338" stroke="#263238" stroke-linecap="round" stroke-linejoin="round"/>
<path opacity="0.3" d="M153.14 248.657H215.365C216.837 248.657 218.03 249.848 218.03 251.316C218.03 252.785 216.837 253.976 215.365 253.976H153.14C151.668 253.976 150.475 252.785 150.475 251.316C150.475 249.848 151.668 248.657 153.14 248.657Z" fill="black"/>
<path d="M205.014 120.858V128.133C205.014 128.815 205.31 129.052 205.784 129.052C206.258 129.052 206.554 128.815 206.554 128.133V120.858H207.961V128.044C208.006 128.353 207.982 128.669 207.888 128.967C207.795 129.265 207.636 129.538 207.422 129.766C207.209 129.994 206.946 130.171 206.655 130.283C206.364 130.396 206.051 130.441 205.739 130.415C204.258 130.415 203.533 129.555 203.533 128.044V120.858H205.014Z" fill="#263238"/>
<path d="M213.351 123.169V124.399C213.351 125.881 212.625 126.74 211.144 126.74H210.448V130.282H208.968V120.858H211.144C212.625 120.858 213.351 121.673 213.351 123.169ZM210.389 122.191V125.392H211.085C211.559 125.392 211.811 125.17 211.811 124.503V123.021C211.811 122.354 211.559 122.132 211.085 122.132L210.389 122.191Z" fill="#263238"/>
<path d="M218.651 130.282H217.171L216.919 128.563H215.097L214.846 130.282H213.483L214.964 120.843H217.126L218.651 130.282ZM215.275 127.318H216.756L216.06 122.547L215.275 127.318Z" fill="#263238"/>
<path d="M219.333 120.858H221.687C223.168 120.858 223.894 121.688 223.894 123.184V127.955C223.894 129.437 223.168 130.296 221.687 130.296H219.333V120.858ZM220.813 122.206V128.948H221.657C222.131 128.948 222.413 128.696 222.413 128.029V123.125C222.413 122.443 222.131 122.206 221.657 122.206H220.813Z" fill="#263238"/>
<path d="M229.609 130.282H228.129L227.877 128.563H226.056L225.804 130.282H224.441L225.922 120.843H228.084L229.609 130.282ZM226.233 127.318H227.714L227.018 122.547L226.233 127.318Z" fill="#263238"/>
<path d="M229.358 120.858H233.934V122.206H232.379V130.296H230.898V122.191H229.417L229.358 120.858Z" fill="#263238"/>
<path d="M234.571 120.858H236.052V130.296H234.571V120.858Z" fill="#263238"/>
<path d="M238.48 123.451V130.282H237.147V120.858H239.013L240.493 126.503V120.858H241.752V130.296H240.271L238.48 123.451Z" fill="#263238"/>
<path d="M245.1 125.022H247.173V127.985C247.173 129.467 246.418 130.356 244.967 130.356C243.515 130.356 242.76 129.496 242.76 127.985V123.081C242.76 121.599 243.515 120.71 244.967 120.71C246.418 120.71 247.173 121.569 247.173 123.081V123.999H245.692V122.992C245.692 122.31 245.396 122.058 244.937 122.058C244.478 122.058 244.167 122.31 244.167 122.992V128.074C244.167 128.756 244.463 128.993 244.937 128.993C245.411 128.993 245.692 128.756 245.692 128.074V126.34H245.026L245.1 125.022Z" fill="#263238"/>
<path d="M30.2904 202.486L35.5753 180.293L17.0071 193.541L22.4983 194.691L24.6776 195.148L23.4357 196.996L19.6215 202.672L20.8503 203.5L24.6625 197.827L25.9062 195.976L27.1517 197.825L30.2904 202.486Z" stroke="white" stroke-width="3"/>
<rect x="304.128" y="114.693" width="107.834" height="140.459" rx="8.5" fill="white" stroke="#172D5F" stroke-width="3"/>
<path d="M380.415 121.841H394.31C399.833 121.841 404.31 126.318 404.31 131.841V142.444" stroke="#172D5F"/>
<line x1="316.863" y1="139.155" x2="379.398" y2="139.155" stroke="#172D5F" stroke-width="2"/>
<line x1="316.863" y1="152.89" x2="388.549" y2="152.89" stroke="#172D5F" stroke-width="2"/>
<line x1="316.863" y1="166.117" x2="396.175" y2="166.117" stroke="#172D5F" stroke-width="2"/>
<line x1="316.863" y1="183.922" x2="396.175" y2="183.922" stroke="#172D5F" stroke-width="2"/>
<line x1="316.863" y1="199.183" x2="396.175" y2="199.183" stroke="#172D5F" stroke-width="2"/>
<line x1="316.863" y1="213.428" x2="372.788" y2="213.428" stroke="#172D5F" stroke-width="2"/>
<line x1="316.863" y1="225.128" x2="372.788" y2="225.128" stroke="#172D5F" stroke-width="2"/>
<g clip-path="url(#clip0_4915_220)">
<rect width="41.1668" height="17.4272" transform="translate(365.17 232.015)" fill="white"/>
<path d="M389.924 240.449C390.574 240.449 391.17 240.449 391.766 240.449C391.928 240.449 392.073 240.467 392.235 240.484C392.849 240.571 393.319 240.258 393.77 239.961C394.673 239.386 395.539 238.776 396.406 238.184C396.533 238.097 396.695 238.027 396.839 237.975C397.11 237.87 397.345 237.94 397.562 238.114C397.76 238.288 397.959 238.445 398.176 238.585C398.645 238.916 398.844 238.846 399.259 238.585C399.584 238.393 399.873 238.131 400.216 237.975C400.396 237.887 400.667 237.905 400.866 237.975C401.516 238.149 402.148 238.271 402.798 237.94C402.96 237.853 403.141 237.835 403.321 237.8C403.574 237.748 403.845 237.678 404.098 237.626C404.369 237.574 404.621 237.521 404.892 237.504C405.127 237.487 405.38 237.504 405.615 237.521C405.38 237.556 405.145 237.626 404.91 237.626C404.603 237.626 404.315 237.696 404.026 237.8C403.773 237.887 403.502 237.905 403.249 237.975C403.105 238.009 402.96 238.044 402.834 238.114C402.437 238.323 402.021 238.375 401.588 238.323C401.245 238.288 400.938 238.219 400.613 238.114C400.487 238.079 400.27 238.184 400.126 238.253C399.837 238.41 399.566 238.602 399.313 238.811C398.789 239.195 398.284 239.003 397.887 238.707C397.688 238.567 397.526 238.41 397.327 238.253C397.164 238.114 396.948 238.114 396.731 238.271C396.28 238.585 395.828 238.898 395.359 239.212C394.709 239.63 394.059 240.048 393.427 240.467C393.409 240.467 393.409 240.484 393.391 240.519C394.167 240.571 394.944 240.624 395.702 240.658C395.702 240.676 395.702 240.711 395.702 240.728C395.503 240.728 395.287 240.728 395.088 240.728C394.673 240.711 394.258 240.711 393.842 240.693C393.68 240.693 393.517 240.658 393.355 240.658C393.21 240.658 393.048 240.676 392.921 240.728C392.181 241.059 391.441 241.408 390.646 241.599C390.484 241.634 390.303 241.652 390.123 241.687C389.798 241.739 389.708 241.53 389.816 241.216C389.852 241.094 389.924 240.955 389.978 240.815C389.563 240.78 389.256 240.955 388.985 241.216C388.48 241.687 388.083 242.244 387.739 242.819C387.288 243.569 386.891 244.353 386.458 245.12C386.421 245.189 386.385 245.259 386.367 245.329C386.06 245.224 386.042 245.224 386.187 244.945C386.801 243.691 387.433 242.436 388.046 241.181C388.155 240.972 388.263 240.78 388.389 240.589C388.353 240.571 388.335 240.571 388.335 240.571C386.403 240.554 384.453 240.536 382.521 240.536C381.853 240.536 381.167 240.554 380.499 240.571C380.138 240.589 379.777 240.589 379.416 240.624C379.362 240.624 379.289 240.693 379.271 240.746C378.73 241.634 378.206 242.523 377.664 243.394C377.628 243.464 377.574 243.516 377.484 243.551C378.026 242.575 378.585 241.599 379.145 240.624C379.019 240.641 378.928 240.641 378.838 240.641C378.134 240.676 377.43 240.693 376.726 240.728C376.653 240.728 376.545 240.798 376.509 240.868C375.985 241.721 375.48 242.593 374.92 243.429C374.288 244.405 373.638 245.364 372.934 246.287C372.41 246.967 371.742 247.525 370.93 247.908C370.514 248.1 370.063 248.222 369.594 248.204C368.727 248.187 368.041 247.804 367.553 247.124C367.066 246.479 366.831 245.747 366.687 244.963C366.56 244.336 366.632 243.726 367.03 243.203C367.337 242.785 367.752 242.488 368.221 242.244C369.359 241.669 370.605 241.321 371.869 241.059C372.519 240.92 373.187 240.798 373.837 240.693C374.288 240.624 374.758 240.606 375.227 240.554C375.57 240.519 375.931 240.502 376.274 240.467C376.328 240.467 376.383 240.414 376.419 240.362C376.689 239.909 376.96 239.473 377.231 239.02C377.755 238.131 378.278 237.243 378.838 236.371C379.217 235.779 379.614 235.204 380.012 234.629C380.138 234.454 380.301 234.297 380.463 234.123C380.608 233.966 380.806 233.879 380.969 233.966C381.095 234.036 381.239 234.21 381.239 234.332C381.276 234.733 381.276 235.151 381.258 235.57C381.203 236.302 380.987 236.999 380.716 237.661C380.427 238.358 380.084 239.055 379.777 239.735C379.705 239.909 379.614 240.083 379.506 240.292C379.885 240.24 380.264 240.414 380.571 240.188C380.896 239.961 381.149 239.648 381.438 239.369C381.619 239.195 381.763 238.985 381.926 238.794C382.07 238.863 382.052 238.846 381.998 238.968C381.835 239.299 381.673 239.648 381.51 239.979C381.492 240.031 381.51 240.153 381.546 240.17C381.601 240.205 381.709 240.188 381.763 240.136C382.034 239.874 382.305 239.613 382.558 239.334C382.72 239.16 382.864 238.951 383.027 238.741C383.081 238.794 383.135 238.829 383.135 238.846C382.973 239.229 382.792 239.595 382.648 239.961C382.612 240.031 382.648 240.118 382.666 240.205C382.774 240.188 382.919 240.223 382.991 240.153C383.244 239.892 383.478 239.63 383.713 239.351C383.858 239.177 383.948 238.968 384.056 238.759C384.291 238.811 384.309 238.829 384.201 239.038C384.092 239.264 383.984 239.508 383.894 239.752C383.876 239.804 383.876 239.874 383.876 239.944C383.876 240.101 384.002 240.188 384.128 240.083C384.381 239.892 384.634 239.665 384.869 239.438C385.031 239.264 385.158 239.038 385.32 238.846C385.356 238.811 385.464 238.776 385.501 238.794C385.555 238.829 385.609 238.916 385.591 238.968C385.537 239.229 385.464 239.491 385.41 239.77C385.392 239.857 385.41 239.944 385.41 240.048C385.771 239.961 385.916 239.682 386.096 239.473C386.313 239.247 386.494 239.003 386.674 238.759C386.746 238.672 386.837 238.619 386.927 238.707C386.981 238.759 387.017 238.863 386.999 238.933C386.927 239.177 386.837 239.421 386.764 239.665C386.728 239.77 386.728 239.874 386.71 239.979C386.728 239.996 386.746 240.014 386.783 240.031C387.017 239.804 387.27 239.56 387.505 239.334C387.631 239.212 387.739 239.073 387.884 238.985C387.974 238.916 388.173 238.846 388.227 238.898C388.335 238.968 388.389 239.125 388.426 239.264C388.462 239.473 388.426 239.682 388.462 239.892C388.48 239.996 388.57 240.083 388.624 240.188C388.696 240.118 388.769 240.031 388.805 239.961C389.184 239.316 389.545 238.672 389.942 238.044C390.52 237.156 391.152 236.284 391.766 235.43C392.019 235.064 392.326 234.733 392.633 234.419C393.283 233.757 394.041 233.269 395.034 233.304C395.648 233.322 396.045 233.67 396.081 234.315C396.117 235.029 395.828 235.639 395.503 236.249C395.142 236.912 394.655 237.504 394.077 238.009C393.481 238.55 392.849 239.003 392.145 239.369C391.405 239.77 390.701 240.083 389.924 240.449ZM376.184 240.78C375.751 240.815 375.353 240.868 374.938 240.902C374.523 240.937 374.107 240.972 373.71 241.042C372.952 241.181 372.194 241.321 371.453 241.495C370.298 241.756 369.16 242.087 368.131 242.697C367.589 243.011 367.156 243.429 366.994 244.039C366.903 244.44 366.957 244.824 367.066 245.207C367.282 245.991 367.535 246.74 368.185 247.316C368.763 247.804 369.395 247.978 370.153 247.821C370.912 247.647 371.544 247.246 372.049 246.706C372.591 246.165 373.078 245.555 373.512 244.945C374.162 244.004 374.757 243.028 375.389 242.07C375.678 241.652 375.913 241.233 376.184 240.78ZM388.985 240.24C388.985 240.258 389.003 240.275 389.003 240.292C389.184 240.24 389.364 240.205 389.545 240.153C390.321 239.926 391.062 239.595 391.766 239.212C392.741 238.672 393.662 238.044 394.384 237.19C395.052 236.406 395.558 235.535 395.72 234.507C395.774 234.193 395.539 233.792 395.214 233.705C394.673 233.566 394.167 233.74 393.716 234.001C393.228 234.263 392.849 234.646 392.506 235.082C392.091 235.604 391.639 236.11 391.26 236.668C390.755 237.365 390.303 238.079 389.834 238.811C389.545 239.264 389.274 239.752 388.985 240.24ZM376.744 240.467C376.978 240.449 377.159 240.414 377.358 240.414C377.917 240.397 378.459 240.38 379.019 240.38C379.199 240.38 379.289 240.327 379.362 240.17C379.47 239.926 379.614 239.682 379.723 239.421C380.048 238.654 380.409 237.905 380.662 237.121C380.878 236.476 380.987 235.796 381.095 235.117C381.131 234.873 381.059 234.611 381.005 234.367C380.969 234.193 380.86 234.175 380.716 234.28C380.68 234.297 380.644 234.332 380.626 234.367C380.301 234.803 379.939 235.221 379.651 235.674C379.199 236.371 378.766 237.103 378.333 237.818C377.791 238.689 377.285 239.56 376.744 240.467ZM390.105 241.443C391.224 241.181 392.163 240.85 392.362 240.641C391.658 240.641 390.971 240.641 390.339 240.641C390.267 240.902 390.195 241.164 390.105 241.443ZM388.119 240.31C388.083 239.961 388.064 239.63 388.028 239.316C387.703 239.648 387.36 239.979 387.035 240.31C387.396 240.31 387.776 240.31 388.119 240.31ZM389.455 240.571C389.346 240.571 389.238 240.571 389.148 240.571C389.021 240.589 388.841 240.571 388.787 240.641C388.624 240.868 388.498 241.129 388.371 241.373C388.733 241.094 389.003 240.728 389.455 240.571ZM386.403 239.613C386.187 239.839 385.988 240.048 385.753 240.275C386.006 240.292 386.223 240.31 386.403 240.327C386.403 240.083 386.403 239.857 386.403 239.613ZM381.276 240.258C381.348 240.014 381.402 239.787 381.456 239.578C381.438 239.56 381.438 239.56 381.42 239.543C381.185 239.804 380.951 240.066 380.752 240.31C380.896 240.292 381.113 240.275 381.276 240.258ZM385.049 239.7C384.869 239.892 384.688 240.066 384.508 240.258C384.724 240.258 384.941 240.258 385.139 240.258C385.103 240.083 385.085 239.892 385.049 239.7ZM382.413 239.892C382.269 240.014 382.142 240.136 381.998 240.258C382.142 240.258 382.269 240.258 382.377 240.258C382.395 240.153 382.413 240.031 382.413 239.892ZM383.587 240.014C383.514 240.083 383.442 240.17 383.352 240.275C383.478 240.275 383.587 240.275 383.677 240.275C383.641 240.17 383.605 240.101 383.587 240.014Z" fill="#172D5F"/>
</g>
<path d="M346.281 227.969C346.191 227.834 346.056 227.744 345.92 227.653L345.965 227.699C346.101 228.014 346.236 228.284 346.371 228.6C346.416 228.465 346.461 228.329 346.461 228.194C346.371 228.104 346.326 228.014 346.281 227.969Z" fill="#CDD6E5"/>
<path d="M348.127 234.097C348.127 233.962 348.172 233.827 348.172 233.691C348.172 233.511 348.172 233.331 348.172 233.151C348.217 232.97 348.352 232.7 348.532 232.61C348.622 230.808 348.217 228.87 347.317 227.068C345.83 224.049 343.174 221.841 340.246 220.804C340.201 220.849 340.156 220.94 340.156 221.03C340.066 221.255 339.706 221.165 339.706 220.895C339.706 220.804 339.706 220.714 339.661 220.624C337.274 219.903 334.708 219.948 332.366 220.94C331.916 221.12 331.465 221.345 331.06 221.615C331.06 221.796 331.105 221.976 331.105 222.156C330.925 222.111 330.79 222.021 330.655 221.886C326.512 224.68 325.116 230.267 327.638 235.268C327.998 235.989 328.448 236.665 328.898 237.296C328.898 237.071 328.943 236.891 329.033 236.665C329.079 236.485 329.124 236.35 329.169 236.215C328.898 235.809 328.628 235.359 328.403 234.908C325.836 229.726 327.773 223.823 332.771 221.706C337.77 219.633 343.939 222.156 346.506 227.338C348.307 230.988 347.902 235.043 345.695 237.792C345.695 237.882 345.695 238.017 345.695 238.062C345.695 238.287 345.695 238.513 345.695 238.738C345.695 238.873 345.695 239.053 345.695 239.189C347.001 237.882 347.902 236.215 348.307 234.367H348.262C348.172 234.367 348.127 234.232 348.127 234.097Z" fill="#CDD6E5"/>
<path d="M342.183 240.586C337.68 242.433 332.231 240.586 329.304 236.395C329.349 236.666 329.394 236.891 329.484 237.116C329.529 237.386 329.484 237.657 329.394 237.837C330.88 239.549 332.816 240.811 334.888 241.532C334.978 241.442 335.068 241.352 335.203 241.307C335.383 241.262 335.563 241.262 335.744 241.307C335.789 241.307 335.834 241.307 335.879 241.352C335.924 241.397 335.969 241.442 335.969 241.487C336.059 241.622 336.104 241.757 336.194 241.892C338.31 242.343 340.562 242.208 342.588 241.352C343.714 240.901 344.705 240.225 345.515 239.459C345.47 239.009 345.47 238.603 345.47 238.152C344.615 239.234 343.534 240.045 342.183 240.586Z" fill="#CDD6E5"/>
<path d="M346.46 228.96C346.37 228.915 346.325 228.734 346.325 228.599C346.19 228.284 346.055 228.013 345.92 227.698L345.875 227.653C345.875 227.653 345.875 227.653 345.83 227.653C345.695 227.563 345.56 227.473 345.47 227.338C345.38 227.202 345.38 227.067 345.29 226.932C345.2 226.842 345.019 226.887 344.974 226.797C344.839 226.572 344.839 226.391 345.019 226.346C342.272 222.516 337.274 220.804 333.131 222.516C332.095 222.967 331.15 223.598 330.429 224.364C330.429 224.454 330.429 224.589 330.384 224.679C330.339 224.904 330.204 225.085 330.069 225.22C329.754 225.58 329.528 226.031 329.438 226.481C329.483 226.211 329.528 225.715 329.664 225.22C328.943 226.166 328.493 227.293 328.222 228.464L328.268 228.509C328.313 228.554 328.268 228.644 328.268 228.689C328.268 228.87 328.268 229.05 328.313 229.185C328.358 229.275 328.358 229.32 328.403 229.41C328.448 229.636 328.222 229.771 328.042 229.861C327.952 231.438 328.268 233.105 329.078 234.727C329.123 234.772 329.168 234.862 329.168 234.908C329.168 234.862 329.168 234.772 329.213 234.727C329.258 234.547 329.303 234.367 329.303 234.187C329.438 234.457 329.348 234.727 329.258 234.998C329.258 235.043 329.258 235.043 329.258 235.088C330.474 237.296 332.365 238.963 334.527 239.864C334.662 239.864 334.797 239.864 334.932 239.909C335.067 239.909 335.202 239.954 335.247 240.089C335.247 240.134 335.247 240.134 335.247 240.179C337.409 240.9 339.706 240.9 341.822 240.044C343.398 239.413 344.614 238.332 345.47 237.07C345.47 236.935 345.515 236.8 345.56 236.665C345.605 236.665 345.65 236.71 345.695 236.8C347.046 234.457 347.361 231.663 346.46 228.96ZM333.987 224.048C335.833 223.282 337.859 223.372 339.661 224.048C339.706 224.003 339.751 224.003 339.796 223.958C339.841 223.913 339.841 223.823 339.886 223.778C339.976 223.643 340.066 223.508 340.246 223.508C340.246 223.688 340.201 223.868 340.201 224.048C340.246 224.093 340.291 224.138 340.291 224.183C340.336 224.228 340.336 224.319 340.336 224.364C340.922 224.679 341.507 225.04 342.047 225.445L338.31 227.022C338.31 227.067 338.265 227.112 338.22 227.202C338.175 227.247 338.175 227.292 338.13 227.383C337.994 227.608 337.814 227.878 337.544 227.968C337.409 228.013 337.229 227.923 337.229 227.788C337.229 227.743 337.229 227.653 337.184 227.608V227.563V227.518L332.861 229.32C332.636 229.591 332.41 229.906 332.05 229.861C331.96 229.861 331.87 229.816 331.735 229.816L329.844 230.582C329.799 227.743 331.285 225.175 333.987 224.048ZM342.002 237.836C342.002 237.972 341.957 238.062 341.957 238.197C341.912 238.602 341.822 239.053 341.552 239.323C341.552 238.873 341.597 238.467 341.642 238.062C341.462 238.152 341.282 238.242 341.102 238.332C338.445 239.459 335.293 238.783 333.041 236.935L338.085 234.862C338.22 234.727 338.4 234.592 338.58 234.457C338.67 234.367 338.805 234.277 338.895 234.232C339.075 234.142 339.345 234.187 339.571 234.187C339.616 234.187 339.616 234.187 339.661 234.187L342.768 232.925C342.768 232.925 342.768 232.925 342.768 232.88C342.813 232.745 342.858 232.564 342.858 232.429C342.813 232.249 342.768 232.024 342.723 231.843C342.678 231.618 342.633 231.303 342.633 230.987L335.293 234.051C335.247 234.096 335.247 234.096 335.202 234.142C334.977 234.322 333.716 235.133 333.491 234.817L331.735 235.538C331.375 235.088 331.06 234.592 330.789 234.051C330.519 233.511 330.339 232.97 330.204 232.429L335.338 230.266C335.473 230.041 335.563 229.726 335.788 229.636C335.878 229.726 335.878 229.906 335.878 230.041L343.533 226.842C343.894 227.292 344.209 227.788 344.479 228.329C344.749 228.87 344.929 229.41 345.064 229.951L343.398 230.627C343.353 231.168 343.353 231.708 343.263 232.249C343.263 232.294 343.263 232.339 343.218 232.429C343.218 232.429 343.218 232.429 343.218 232.474C343.218 232.474 343.263 232.564 343.263 232.519C343.263 232.519 343.308 232.564 343.353 232.609C343.353 232.609 343.353 232.655 343.398 232.655L345.29 231.889C345.245 234.277 344.074 236.575 342.002 237.836Z" fill="#CDD6E5"/>
<line x1="372.789" y1="242.666" x2="400.751" y2="242.666" stroke="#172D5F" stroke-width="0.5"/>
<path d="M330.228 321.716C327.617 318.034 310.429 328.277 312.542 335.552C314.656 342.826 321.531 342.036 325.555 338.176C329.578 334.316 333.016 325.653 330.228 321.716Z" fill="#6A77B8"/>
<mask id="mask1_4915_220" style="mask-type:luminance" maskUnits="userSpaceOnUse" x="312" y="320" width="20" height="22">
<path d="M330.228 321.716C327.617 318.034 310.429 328.277 312.542 335.552C314.656 342.826 321.531 342.036 325.555 338.176C329.578 334.316 333.016 325.653 330.228 321.716Z" fill="white"/>
</mask>
<g mask="url(#mask1_4915_220)">
<path opacity="0.3" d="M330.228 321.716C327.617 318.034 310.429 328.277 312.542 335.552C314.656 342.826 321.531 342.036 325.555 338.176C329.578 334.316 333.016 325.653 330.228 321.716Z" fill="black" fill-opacity="0.7"/>
</g>
<path d="M330.228 321.716C327.617 318.034 310.429 328.277 312.542 335.552C314.656 342.826 321.531 342.036 325.555 338.176C329.578 334.316 333.016 325.653 330.228 321.716Z" stroke="#263238" stroke-linecap="round" stroke-linejoin="round"/>
<path d="M322.066 293.472C322.066 293.472 319.52 293.472 315.293 303.294C313.531 307.586 313.088 312.305 314.019 316.85L320.22 346.75L335.32 337.667L326.548 315.728C326.548 315.728 331.144 301.549 322.066 293.472Z" fill="white" stroke="#263238" stroke-linecap="round" stroke-linejoin="round"/>
<path d="M328.178 312.709L337.854 315.919C338.886 316.187 340.91 314.48 340.821 313.371L337.943 279.509C337.886 278.842 337.624 278.21 337.193 277.699C336.762 277.188 336.184 276.823 335.537 276.655L324.804 274.323C323.785 274.056 321.2 275.279 321.29 276.336L325.759 309.804C325.808 310.481 326.068 311.124 326.502 311.645C326.936 312.166 327.522 312.538 328.178 312.709Z" fill="#6A77B8"/>
<mask id="mask2_4915_220" style="mask-type:luminance" maskUnits="userSpaceOnUse" x="321" y="274" width="20" height="42">
<path d="M328.178 312.709L337.854 315.919C338.886 316.187 340.91 314.48 340.821 313.371L337.943 279.509C337.886 278.842 337.624 278.21 337.193 277.699C336.762 277.188 336.184 276.823 335.537 276.655L324.804 274.323C323.785 274.056 321.2 275.279 321.29 276.336L325.759 309.804C325.808 310.481 326.068 311.124 326.502 311.645C326.936 312.166 327.522 312.538 328.178 312.709Z" fill="white"/>
</mask>
<g mask="url(#mask2_4915_220)">
<path opacity="0.3" d="M328.178 312.709L337.854 315.919C338.886 316.187 340.91 314.48 340.821 313.371L337.943 279.509C337.886 278.842 337.624 278.21 337.193 277.699C336.762 277.188 336.184 276.823 335.537 276.655L324.804 274.323C323.785 274.056 321.2 275.279 321.29 276.336L325.759 309.804C325.808 310.481 326.068 311.124 326.502 311.645C326.936 312.166 327.522 312.538 328.178 312.709Z" fill="black" fill-opacity="0.7"/>
</g>
<path d="M328.178 312.709L337.854 315.919C338.886 316.187 340.91 314.48 340.821 313.371L337.943 279.509C337.886 278.842 337.624 278.21 337.193 277.699C336.762 277.188 336.184 276.823 335.537 276.655L324.804 274.323C323.785 274.056 321.2 275.279 321.29 276.336L325.759 309.804C325.808 310.481 326.068 311.124 326.502 311.645C326.936 312.166 327.522 312.538 328.178 312.709Z" stroke="#263238" stroke-linecap="round" stroke-linejoin="round"/>
<path d="M326.586 313.55L337.307 315.881C337.544 315.941 337.792 315.943 338.03 315.887C338.268 315.832 338.49 315.72 338.676 315.562C338.863 315.404 339.009 315.204 339.103 314.978C339.197 314.752 339.236 314.507 339.217 314.263L336.352 280.388C336.294 279.72 336.03 279.087 335.596 278.575C335.163 278.064 334.582 277.7 333.933 277.534L323.212 275.202C322.975 275.143 322.727 275.141 322.489 275.196C322.251 275.252 322.029 275.363 321.842 275.521C321.656 275.679 321.51 275.88 321.416 276.106C321.322 276.332 321.283 276.577 321.302 276.82L324.167 310.709C324.228 311.374 324.493 312.005 324.926 312.513C325.359 313.022 325.939 313.384 326.586 313.55Z" fill="#6A77B8" stroke="#263238" stroke-linecap="round" stroke-linejoin="round"/>
<path opacity="0.3" d="M332.532 286.656L334.264 287.038C334.302 287.046 334.342 287.045 334.38 287.035C334.418 287.025 334.453 287.006 334.483 286.98C334.513 286.954 334.536 286.922 334.551 286.885C334.566 286.849 334.572 286.81 334.569 286.77L334.098 281.318C334.092 281.209 334.051 281.105 333.983 281.021C333.914 280.936 333.821 280.875 333.716 280.846L331.985 280.477C331.947 280.466 331.907 280.465 331.869 280.473C331.831 280.482 331.795 280.499 331.765 280.524C331.735 280.549 331.712 280.581 331.697 280.617C331.682 280.653 331.676 280.693 331.679 280.732L332.137 286.197C332.149 286.304 332.193 286.406 332.264 286.488C332.334 286.569 332.428 286.628 332.532 286.656Z" fill="black" fill-opacity="0.7"/>
<path d="M317.495 303.638C317.075 298.886 321.391 291.764 324.269 291.764C327.146 291.764 335.893 298.504 335.893 298.504C339.267 300.963 337.6 303.294 337.6 303.294C339.586 304.568 340.146 306.39 339.229 307.218C338.313 308.046 335.41 307.218 335.41 307.218C335.41 307.218 338.313 309.346 337.587 310.378C335.881 312.849 330.253 309.6 330.253 309.6C330.253 309.6 333.513 311.754 333.334 312.148C332.061 314.837 326.764 311.703 326.764 311.703L323.021 313.626C323.024 314.066 322.936 314.502 322.763 314.906C322.59 315.31 322.335 315.675 322.015 315.976C321.694 316.277 321.315 316.509 320.901 316.657C320.487 316.806 320.047 316.867 319.609 316.837" fill="white"/>
<path d="M317.495 303.638C317.075 298.886 321.391 291.764 324.269 291.764C327.146 291.764 335.893 298.504 335.893 298.504C339.267 300.963 337.6 303.294 337.6 303.294C339.586 304.568 340.146 306.39 339.229 307.218C338.313 308.046 335.41 307.218 335.41 307.218C335.41 307.218 338.313 309.346 337.587 310.378C335.881 312.849 330.253 309.6 330.253 309.6C330.253 309.6 333.513 311.754 333.334 312.148C332.061 314.837 326.764 311.703 326.764 311.703L323.021 313.626C323.024 314.066 322.936 314.502 322.763 314.906C322.59 315.31 322.335 315.675 322.015 315.976C321.694 316.277 321.315 316.509 320.901 316.657C320.487 316.806 320.047 316.867 319.609 316.837" stroke="#263238" stroke-linecap="round" stroke-linejoin="round"/>
<path d="M337.549 303.294C337.549 303.294 329.362 297.994 328.318 297.854C327.274 297.714 323.492 296.886 323.492 296.886" fill="white"/>
<path d="M337.549 303.294C337.549 303.294 329.362 297.994 328.318 297.854C327.274 297.714 323.492 296.886 323.492 296.886" stroke="#263238" stroke-linecap="round" stroke-linejoin="round"/>
<path d="M335.32 307.218C335.32 307.218 328.661 303.778 327.439 303.778C325.614 303.578 323.803 303.267 322.015 302.848" fill="white"/>
<path d="M335.32 307.218C335.32 307.218 328.661 303.778 327.439 303.778C325.614 303.578 323.803 303.267 322.015 302.848" stroke="#263238" stroke-linecap="round" stroke-linejoin="round"/>
<path d="M330.228 309.6C329.453 309.044 328.631 308.558 327.77 308.148C326.181 308.032 324.585 308.032 322.996 308.148" fill="white"/>
<path d="M330.228 309.6C329.453 309.044 328.631 308.558 327.77 308.148C326.181 308.032 324.585 308.032 322.996 308.148" stroke="#263238" stroke-linecap="round" stroke-linejoin="round"/>
<path d="M395.735 309.435C383.003 309.626 353.719 355.299 353.719 355.299L335.321 332.367L330.228 321.742C330.228 321.742 327.681 340.852 312.542 335.577C312.542 335.577 325.873 385.747 340.834 391.799C355.794 397.85 397.276 355.299 397.276 355.299L395.735 309.435Z" fill="#6A77B8"/>
<mask id="mask3_4915_220" style="mask-type:luminance" maskUnits="userSpaceOnUse" x="312" y="309" width="86" height="84">
<path d="M395.735 309.435C383.003 309.626 353.719 355.299 353.719 355.299L335.321 332.367L330.228 321.742C330.228 321.742 327.681 340.852 312.542 335.577C312.542 335.577 325.873 385.747 340.834 391.799C355.794 397.85 397.276 355.299 397.276 355.299L395.735 309.435Z" fill="white"/>
</mask>
<g mask="url(#mask3_4915_220)">
<path opacity="0.2" d="M394.691 357.847C389.433 363.007 376.981 374.804 364.847 383.174C368.412 371.237 378.177 358.522 378.177 358.522C381.208 357.516 385.486 348.432 385.486 348.432C387.498 349.196 390.35 342.89 390.35 342.89C392.692 344.878 394.004 350.751 394.691 357.847Z" fill="black" fill-opacity="0.7"/>
<path opacity="0.2" d="M354.597 366.956C355.087 362.934 354.727 358.854 353.541 354.98L353.757 355.261C353.757 355.261 355.743 352.165 358.85 347.617C359.728 353.528 360.149 363.44 354.597 366.956Z" fill="black" fill-opacity="0.7"/>
</g>
<path d="M395.735 309.435C383.003 309.626 353.719 355.299 353.719 355.299L335.321 332.367L330.228 321.742C330.228 321.742 327.681 340.852 312.542 335.577C312.542 335.577 325.873 385.747 340.834 391.799C355.794 397.85 397.276 355.299 397.276 355.299L395.735 309.435Z" stroke="#263238" stroke-linecap="round" stroke-linejoin="round"/>
<path d="M527.693 505.949C527.693 505.949 535.752 522.193 535.752 526.015C535.752 529.837 537.102 531.556 544.156 531.556C551.209 531.556 568.665 531.709 571.352 530.461H587.675C591.494 530.461 593.048 526.792 590.705 527.289C588.362 527.785 571.034 522.995 566.323 521.059C561.612 519.122 553.87 516.829 549.694 512.79C545.518 508.752 540.463 493.68 540.463 493.68L527.693 505.949Z" fill="white" stroke="#263238" stroke-linecap="round" stroke-linejoin="round"/>
<path d="M571.352 530.448C571.352 525.709 566.259 527.977 558.62 526.002C553.692 524.728 553.17 523.008 553.17 523.008" stroke="#263238" stroke-linecap="round" stroke-linejoin="round"/>
<path d="M390.553 338.737C390.044 348.012 389.827 357.643 389.458 364.828C388.542 382.193 376.93 432.949 376.93 432.949C376.93 432.949 364.197 440.593 363.561 454.607C362.924 468.621 440.731 508.115 461.599 496.853C482.468 485.591 479.667 452.875 479.667 452.875C479.667 452.875 510.555 328.023 497.912 317.983C485.269 307.944 481.003 309.193 448.638 304.708C416.272 300.224 395.735 309.435 395.735 309.435C393.898 311.212 392.612 313.481 392.03 315.97" fill="#6A77B8"/>
<mask id="mask4_4915_220" style="mask-type:luminance" maskUnits="userSpaceOnUse" x="363" y="303" width="138" height="196">
<path d="M390.553 338.737C390.044 348.012 389.827 357.643 389.458 364.828C388.542 382.193 376.93 432.949 376.93 432.949C376.93 432.949 364.197 440.593 363.561 454.607C362.924 468.621 440.731 508.115 461.599 496.853C482.468 485.591 479.667 452.875 479.667 452.875C479.667 452.875 510.555 328.023 497.912 317.983C485.269 307.944 481.003 309.193 448.638 304.708C416.272 300.224 395.735 309.435 395.735 309.435C393.898 311.212 392.612 313.481 392.03 315.97" fill="white"/>
</mask>
<g mask="url(#mask4_4915_220)">
<path opacity="0.2" d="M479.679 452.798C479.679 452.798 482.493 485.514 461.612 496.777C440.731 508.039 362.886 468.532 363.574 454.531C364.261 440.529 376.93 432.873 376.93 432.873C376.93 432.873 378.076 427.84 379.693 420.413C390.731 427.573 415.891 442.428 432.264 440.797C432.264 440.797 405.004 450.467 387.574 442.16C370.143 433.854 394.819 453.091 399.848 452.785C404.877 452.48 442.412 445.689 449.211 449.218C456.01 452.747 471.123 478.698 471.123 478.698C471.123 478.698 480.29 458.085 478.253 445.434C478.253 445.434 477.986 406.042 482.366 383.008C482.366 383.008 471.887 364.918 483.474 350.865C487.752 345.68 492.386 356.356 496.613 371.886C490.374 409.546 479.679 452.798 479.679 452.798Z" fill="black" fill-opacity="0.7"/>
</g>
<path d="M390.553 338.737C390.044 348.012 389.828 357.643 389.458 364.828C388.542 382.193 376.93 432.949 376.93 432.949C376.93 432.949 364.197 440.593 363.561 454.607C362.924 468.621 440.731 508.115 461.599 496.853C482.468 485.591 479.667 452.875 479.667 452.875C479.667 452.875 510.555 328.023 497.912 317.983C485.269 307.944 481.003 309.193 448.638 304.708C416.272 300.224 395.735 309.435 395.735 309.435C393.898 311.212 392.612 313.481 392.03 315.97" stroke="#263238" stroke-linecap="round" stroke-linejoin="round"/>
<path d="M374.905 444.861C372.945 444.606 367.635 447.969 367.635 447.969C367.635 447.969 281.769 425.904 268.858 432.911C242.948 446.925 256.762 474.66 262.135 482.597C267.508 490.534 346.78 528.104 374.294 528.817C401.809 529.531 452.28 521.925 462.147 505.707C472.015 489.489 461.918 471.5 448.142 458.302C434.136 444.861 406.66 456.62 397.212 453.932C385.142 450.466 380.902 445.612 374.905 444.861Z" fill="#263238"/>
<path d="M446.728 520.346L448.001 525.887C448.001 525.887 444.627 535.481 429.769 537.035C414.91 538.589 406.125 541.902 398.995 542.322C395.233 542.614 391.452 542.555 387.701 542.144L386.25 540.029L446.728 520.346Z" fill="white" stroke="#263238" stroke-linecap="round" stroke-linejoin="round"/>
<path d="M360.518 519.759L386.25 540.029C398.662 538.974 410.995 537.131 423.173 534.512C435.358 531.684 446.002 527.633 446.588 522.091C447.479 513.644 438.478 511.338 427.757 511.67C425.758 511.67 423.708 511.861 421.633 512.077C404.482 513.925 382.697 504.433 382.697 504.433L360.518 519.759Z" fill="#6A77B8"/>
<mask id="mask5_4915_220" style="mask-type:luminance" maskUnits="userSpaceOnUse" x="360" y="504" width="87" height="37">
<path d="M360.518 519.759L386.25 540.029C398.662 538.974 410.995 537.131 423.173 534.512C435.358 531.684 446.002 527.633 446.588 522.091C447.479 513.644 438.478 511.338 427.757 511.67C425.758 511.67 423.708 511.861 421.633 512.077C404.482 513.925 382.697 504.433 382.697 504.433L360.518 519.759Z" fill="white"/>
</mask>
<g mask="url(#mask5_4915_220)">
<path opacity="0.2" d="M446.563 521.823C441.567 523.683 436.772 526.044 432.251 528.869C432.251 528.869 408.353 541.175 371.633 528.499L360.505 519.759L382.659 504.357C382.659 504.357 404.444 513.835 421.595 512.001C423.67 511.784 425.72 511.631 427.719 511.593C438.35 511.262 447.301 513.53 446.563 521.823Z" fill="black" fill-opacity="0.7"/>
</g>
<path d="M360.518 519.759L386.25 540.029C398.662 538.974 410.995 537.131 423.173 534.512C435.358 531.684 446.002 527.633 446.588 522.091C447.479 513.644 438.478 511.338 427.757 511.67C425.758 511.67 423.708 511.861 421.633 512.077C404.482 513.925 382.697 504.433 382.697 504.433L360.518 519.759Z" stroke="#263238" stroke-linecap="round" stroke-linejoin="round"/>
<path d="M384.493 527.722C379.858 528.474 384.951 537.978 391.241 535.086C397.531 532.194 389.14 526.97 384.493 527.722Z" fill="white"/>
<mask id="mask6_4915_220" style="mask-type:luminance" maskUnits="userSpaceOnUse" x="382" y="527" width="12" height="9">
<path d="M384.493 527.722C379.858 528.474 384.951 537.978 391.241 535.086C397.531 532.194 389.14 526.97 384.493 527.722Z" fill="white"/>
</mask>
<g mask="url(#mask6_4915_220)">
<path opacity="0.2" d="M393.202 533.557C389.842 533.146 386.506 532.564 383.207 531.811C382.315 529.951 382.519 527.989 384.48 527.722C388.389 527.085 394.933 530.678 393.202 533.557Z" fill="black" fill-opacity="0.7"/>
</g>
<path d="M384.493 527.722C379.858 528.474 384.951 537.978 391.241 535.086C397.531 532.194 389.14 526.97 384.493 527.722Z" stroke="#263238" stroke-linecap="round" stroke-linejoin="round"/>
<path d="M423.173 534.436C435.358 531.608 446.002 527.556 446.588 522.014C447.479 513.568 438.478 511.262 427.757 511.593C427.248 512.001 416.807 522.091 423.173 534.436Z" fill="white"/>
<mask id="mask7_4915_220" style="mask-type:luminance" maskUnits="userSpaceOnUse" x="421" y="511" width="26" height="24">
<path d="M423.173 534.436C435.358 531.608 446.002 527.556 446.588 522.014C447.479 513.568 438.478 511.262 427.757 511.593C427.248 512.001 416.807 522.091 423.173 534.436Z" fill="white"/>
</mask>
<g mask="url(#mask7_4915_220)">
<path opacity="0.2" d="M446.563 521.823C441.567 523.683 436.772 526.044 432.251 528.869C429.033 530.357 425.659 531.485 422.193 532.232C418.08 520.919 427.286 512.014 427.719 511.593C438.35 511.262 447.301 513.53 446.563 521.823Z" fill="black" fill-opacity="0.7"/>
</g>
<path d="M423.173 534.436C435.358 531.608 446.002 527.556 446.588 522.014C447.479 513.568 438.478 511.262 427.757 511.593C427.248 512.001 416.807 522.091 423.173 534.436Z" stroke="#263238" stroke-linecap="round" stroke-linejoin="round"/>
<path d="M414.439 523.951H414.515C414.842 523.951 415.157 523.826 415.394 523.601C415.631 523.375 415.772 523.067 415.789 522.741C416.043 517.415 420.143 513.096 420.181 513.046C420.386 512.798 420.489 512.481 420.47 512.16C420.451 511.839 420.312 511.537 420.08 511.315C419.848 511.092 419.541 510.966 419.219 510.961C418.898 510.956 418.587 511.072 418.348 511.287C418.144 511.491 413.548 516.32 413.255 522.613C413.237 522.947 413.352 523.274 413.573 523.525C413.795 523.775 414.106 523.928 414.439 523.951Z" fill="white" stroke="#263238" stroke-linecap="round" stroke-linejoin="round"/>
<path d="M409.346 524.257H409.448C409.786 524.257 410.109 524.122 410.348 523.884C410.587 523.645 410.721 523.321 410.721 522.983C410.836 517.606 414.541 512.956 414.617 512.905C414.807 512.643 414.89 512.318 414.849 511.996C414.808 511.675 414.646 511.381 414.396 511.175C414.147 510.968 413.827 510.865 413.504 510.886C413.181 510.907 412.878 511.051 412.656 511.287C410.029 514.631 408.467 518.688 408.175 522.932C408.16 523.261 408.275 523.584 408.493 523.831C408.712 524.078 409.017 524.231 409.346 524.257Z" fill="white" stroke="#263238" stroke-linecap="round" stroke-linejoin="round"/>
<path d="M403.247 523.62C403.583 523.648 403.917 523.542 404.174 523.325C404.432 523.107 404.593 522.796 404.622 522.46C405.017 518.001 408.811 512.268 408.85 512.268C408.954 512.13 409.028 511.972 409.069 511.803C409.11 511.635 409.116 511.46 409.087 511.289C409.058 511.118 408.995 510.955 408.901 510.81C408.806 510.665 408.684 510.54 408.54 510.444C408.396 510.347 408.234 510.281 408.063 510.25C407.893 510.218 407.718 510.222 407.549 510.26C407.381 510.299 407.221 510.371 407.082 510.473C406.942 510.576 406.824 510.705 406.736 510.854C406.558 511.109 402.534 517.148 402.089 522.32C402.081 522.644 402.196 522.958 402.411 523.199C402.627 523.44 402.925 523.591 403.247 523.62Z" fill="white" stroke="#263238" stroke-linecap="round" stroke-linejoin="round"/>
<path d="M397.492 523.008C397.606 523.027 397.722 523.027 397.836 523.008C398.169 522.952 398.465 522.766 398.661 522.492C398.857 522.217 398.935 521.876 398.88 521.543C397.976 516.129 402.993 511.491 403.044 511.453C403.295 511.227 403.447 510.909 403.465 510.571C403.482 510.233 403.365 509.902 403.139 509.65C402.913 509.399 402.596 509.247 402.258 509.229C401.92 509.211 401.589 509.328 401.338 509.555C401.096 509.784 395.226 515.16 396.359 521.964C396.408 522.238 396.545 522.488 396.75 522.677C396.955 522.865 397.215 522.982 397.492 523.008Z" fill="white" stroke="#263238" stroke-linecap="round" stroke-linejoin="round"/>
<path d="M391.228 521.505C391.367 521.524 391.509 521.524 391.648 521.505C391.811 521.467 391.965 521.398 392.102 521.301C392.238 521.204 392.354 521.081 392.442 520.939C392.531 520.797 392.591 520.638 392.618 520.473C392.646 520.308 392.641 520.139 392.603 519.976C391.495 515.148 396.244 509.695 396.295 509.644C396.417 509.521 396.513 509.375 396.576 509.214C396.639 509.053 396.669 508.881 396.664 508.708C396.659 508.535 396.618 508.365 396.545 508.209C396.472 508.052 396.368 507.912 396.239 507.796C396.11 507.681 395.959 507.594 395.795 507.539C395.631 507.484 395.458 507.463 395.286 507.477C395.114 507.492 394.946 507.541 394.794 507.622C394.641 507.703 394.506 507.815 394.398 507.95C394.156 508.217 388.72 514.434 390.12 520.549C390.184 520.803 390.325 521.031 390.523 521.202C390.722 521.373 390.968 521.479 391.228 521.505Z" fill="white" stroke="#263238" stroke-linecap="round" stroke-linejoin="round"/>
<path d="M258.927 512.001L257.08 517.377C257.08 517.377 259.436 527.276 274.04 530.397C288.644 533.519 297.047 537.71 304.101 538.882C307.808 539.571 311.573 539.908 315.343 539.889L317.024 537.876L258.927 512.001Z" fill="white" stroke="#263238" stroke-linecap="round" stroke-linejoin="round"/>
<path d="M344.691 520.537L316.986 537.927C304.764 535.573 292.703 532.445 280.877 528.563C269.049 524.474 258.888 519.327 258.888 513.746C258.888 505.262 268.094 503.911 278.713 505.364C280.699 505.618 282.723 505.988 284.76 506.421C301.618 510.052 324.231 502.917 324.231 502.917L344.691 520.537Z" fill="#6A77B8"/>
<mask id="mask8_4915_220" style="mask-type:luminance" maskUnits="userSpaceOnUse" x="258" y="502" width="87" height="36">
<path d="M344.691 520.537L316.986 537.927C304.764 535.573 292.703 532.445 280.877 528.563C269.049 524.474 258.888 519.327 258.888 513.746C258.888 505.262 268.094 503.911 278.713 505.364C280.699 505.618 282.723 505.988 284.76 506.421C301.618 510.052 324.231 502.917 324.231 502.917L344.691 520.537Z" fill="white"/>
</mask>
<g mask="url(#mask8_4915_220)">
<path opacity="0.2" d="M344.691 520.537L328.394 530.729C315.18 526.634 303.595 518.471 295.29 507.402C305.109 507.191 314.855 505.666 324.269 502.867L344.691 520.537Z" fill="black" fill-opacity="0.7"/>
</g>
<path d="M344.691 520.537L316.986 537.927C304.764 535.573 292.703 532.445 280.877 528.563C269.049 524.474 258.888 519.327 258.888 513.746C258.888 505.262 268.094 503.911 278.713 505.364C280.699 505.618 282.723 505.988 284.76 506.421C301.618 510.052 324.231 502.917 324.231 502.917L344.691 520.537Z" stroke="#263238" stroke-linecap="round" stroke-linejoin="round"/>
<path d="M280.877 528.563C269.049 524.473 258.888 519.326 258.888 513.746C258.888 505.261 268.094 503.911 278.713 505.363C279.133 505.847 288.402 516.931 280.877 528.563Z" fill="white" stroke="#263238" stroke-linecap="round" stroke-linejoin="round"/>
<path d="M290.63 519.046H290.554C290.386 519.036 290.223 518.994 290.072 518.92C289.921 518.847 289.786 518.745 289.675 518.619C289.564 518.494 289.479 518.348 289.424 518.189C289.369 518.031 289.346 517.863 289.357 517.696C289.662 512.383 286.046 507.644 286.008 507.605C285.905 507.473 285.83 507.322 285.785 507.161C285.741 506.999 285.728 506.831 285.749 506.664C285.77 506.498 285.823 506.338 285.906 506.192C285.988 506.046 286.099 505.918 286.231 505.816C286.363 505.713 286.514 505.637 286.676 505.592C286.837 505.548 287.006 505.536 287.172 505.556C287.338 505.577 287.498 505.63 287.644 505.713C287.789 505.796 287.917 505.906 288.02 506.038C288.198 506.255 292.26 511.555 291.84 517.836C291.824 518.152 291.692 518.451 291.468 518.674C291.245 518.898 290.946 519.031 290.63 519.046Z" fill="white" stroke="#263238" stroke-linecap="round" stroke-linejoin="round"/>
<path d="M295.659 519.887H295.557C295.222 519.858 294.911 519.696 294.694 519.439C294.477 519.181 294.371 518.847 294.399 518.511C294.497 514.835 293.515 511.211 291.572 508.09C291.48 507.949 291.416 507.792 291.384 507.627C291.353 507.462 291.354 507.292 291.388 507.127C291.423 506.963 291.489 506.806 291.584 506.668C291.679 506.529 291.801 506.41 291.942 506.319C292.224 506.136 292.567 506.072 292.896 506.141C293.225 506.21 293.514 506.407 293.699 506.688C295.962 510.285 297.089 514.48 296.933 518.728C296.904 519.045 296.757 519.341 296.521 519.555C296.286 519.77 295.978 519.888 295.659 519.887Z" fill="white" stroke="#263238" stroke-linecap="round" stroke-linejoin="round"/>
<path d="M301.796 519.887C301.459 519.887 301.135 519.753 300.896 519.514C300.657 519.275 300.523 518.951 300.523 518.613C300.599 514.128 297.429 508.051 297.391 507.988C297.308 507.839 297.257 507.676 297.238 507.507C297.22 507.338 297.235 507.167 297.284 507.005C297.332 506.842 297.413 506.691 297.521 506.559C297.628 506.428 297.761 506.32 297.912 506.241C298.062 506.162 298.226 506.114 298.396 506.099C298.565 506.085 298.735 506.105 298.896 506.157C299.058 506.209 299.207 506.293 299.336 506.404C299.464 506.515 299.569 506.651 299.645 506.803C299.785 507.07 303.159 513.517 303.07 518.651C303.06 518.982 302.921 519.297 302.683 519.527C302.446 519.758 302.127 519.887 301.796 519.887Z" fill="white" stroke="#263238" stroke-linecap="round" stroke-linejoin="round"/>
<path d="M307.589 519.887C307.475 519.899 307.36 519.899 307.246 519.887C307.084 519.843 306.933 519.767 306.801 519.664C306.669 519.562 306.558 519.434 306.475 519.288C306.393 519.143 306.339 518.982 306.319 518.816C306.298 518.65 306.31 518.481 306.354 518.32C307.819 513.033 303.311 507.899 303.273 507.848C303.048 507.597 302.93 507.268 302.947 506.931C302.964 506.594 303.113 506.278 303.362 506.051C303.486 505.937 303.632 505.849 303.79 505.792C303.949 505.735 304.117 505.71 304.285 505.718C304.453 505.727 304.618 505.768 304.77 505.841C304.922 505.913 305.058 506.015 305.17 506.14C305.387 506.395 310.658 512.358 308.812 518.995C308.73 519.255 308.567 519.482 308.347 519.642C308.127 519.803 307.862 519.889 307.589 519.887Z" fill="white" stroke="#263238" stroke-linecap="round" stroke-linejoin="round"/>
<path d="M313.968 519.046C313.825 519.044 313.683 519.019 313.548 518.97C313.229 518.86 312.967 518.627 312.819 518.324C312.671 518.021 312.649 517.671 312.759 517.352C314.363 512.676 310.212 506.752 310.212 506.688C310.05 506.414 309.996 506.089 310.062 505.777C310.128 505.465 310.308 505.189 310.567 505.003C310.826 504.818 311.145 504.736 311.461 504.774C311.777 504.813 312.068 504.968 312.275 505.21C312.479 505.503 317.241 512.256 315.204 518.18C315.117 518.437 314.95 518.66 314.728 518.816C314.506 518.971 314.24 519.052 313.968 519.046Z" fill="white" stroke="#263238" stroke-linecap="round" stroke-linejoin="round"/>
<path d="M320.042 525.938C324.574 527.212 318.514 536.13 312.568 532.55C306.622 528.97 315.471 524.741 320.042 525.938Z" fill="white" stroke="#263238" stroke-linecap="round" stroke-linejoin="round"/>
<path d="M440.999 451.575C424.217 448.632 379.642 472.099 352.331 487.731C349.65 486.244 347.095 484.539 344.692 482.635C338.402 477.03 314.401 446.16 297.849 439.103L267.623 478.673C274.435 488.215 294.59 498.751 314.732 507.44C318.321 513.374 322.548 518.898 327.337 523.913C339.7 536.653 344.742 529.506 344.742 529.506C344.742 529.506 352.56 528.627 364.096 527.047C364.566 528.164 365.393 529.094 366.449 529.689C367.505 530.284 368.728 530.511 369.927 530.334C371.429 530.092 374.32 527.951 377.566 525.11C406.698 520.728 446.219 513.415 456.901 504.803C474.306 490.763 455.883 454.174 440.999 451.575Z" fill="#263238"/>
<path d="M486.045 338.737C482.888 348.929 482.633 363.529 485.218 374.918C485.218 374.918 496.524 424.961 497.95 435.854C499.376 446.747 518.462 489.069 519.468 502.904L528.266 515.568C528.266 515.568 541.125 514.6 549.694 504.841L543.646 491.426C543.646 491.426 538.108 470.8 536.096 467.933C534.084 465.067 527.464 426.159 525.235 419.801C523.007 413.444 509.613 328.71 497.925 317.881C497.925 317.881 494.805 317.627 493.532 320.085" fill="#6A77B8"/>
<path d="M486.045 338.737C482.888 348.929 482.633 363.529 485.218 374.918C485.218 374.918 496.524 424.961 497.95 435.854C499.376 446.747 518.462 489.069 519.468 502.904L528.266 515.568C528.266 515.568 541.125 514.6 549.694 504.841L543.646 491.426C543.646 491.426 538.108 470.8 536.096 467.933C534.084 465.067 527.464 426.159 525.235 419.801C523.007 413.444 509.613 328.71 497.925 317.881C497.925 317.881 494.805 317.627 493.532 320.085" stroke="#263238" stroke-linecap="round" stroke-linejoin="round"/>
<path d="M316.069 499.834C322.028 497.363 330.584 499.834 330.584 499.834C330.584 499.834 358.684 487.591 377.936 475.934C397.187 464.277 424.778 455.55 424.778 455.55C435.358 454.798 440.387 455.04 445.429 460.646" stroke="white" stroke-linecap="round" stroke-linejoin="round"/>
<path d="M458.276 493.668C458.276 493.668 458.416 502.204 446.321 508.128" stroke="white" stroke-linecap="round" stroke-linejoin="round"/>
<path d="M324.791 458.047C324.791 458.047 343.889 471.87 347.709 480.979C351.465 482.558 355.092 484.428 358.557 486.572" stroke="white" stroke-linecap="round" stroke-linejoin="round"/>
<path d="M349.097 469.538C350.507 473.507 350.742 477.798 349.772 481.896" stroke="white" stroke-linecap="round" stroke-linejoin="round"/>
<path d="M344.692 460.569C345.731 462.085 346.647 463.683 347.429 465.347" stroke="white" stroke-linecap="round" stroke-linejoin="round"/>
<path d="M371.888 459.308C371.888 459.308 378.254 467.844 379.871 474.787" stroke="white" stroke-linecap="round" stroke-linejoin="round"/>
<path d="M407.474 510.969C409.855 510.833 412.223 510.544 414.566 510.103" stroke="white" stroke-linecap="round" stroke-linejoin="round"/>
<path d="M347.543 504.841C365.646 508.449 384.011 510.579 402.458 511.211" stroke="white" stroke-linecap="round" stroke-linejoin="round"/>
<path d="M353.757 355.299C354.846 357.396 355.415 359.725 355.415 362.089C355.415 364.453 354.846 366.782 353.757 368.88" stroke="#263238" stroke-linecap="round" stroke-linejoin="round"/>
<path d="M454.673 317.079C445.888 322.532 433.563 327.143 424.345 320.06" stroke="#263238" stroke-linecap="round" stroke-linejoin="round"/>
<path d="M461.612 312.136C460.415 313.155 459.168 314.098 457.894 315.002" stroke="#263238" stroke-linecap="round" stroke-linejoin="round"/>
<path d="M386.046 346.126C386.568 350.98 387.014 356.764 389.624 361.019" stroke="#263238" stroke-linecap="round" stroke-linejoin="round"/>
<path d="M385.486 339.106C385.486 340.38 385.651 341.743 385.753 343.068" stroke="#263238" stroke-linecap="round" stroke-linejoin="round"/>
<path d="M380.749 361.019C380.749 361.019 383.792 364.242 389.547 362.764" stroke="#263238" stroke-linecap="round" stroke-linejoin="round"/>
<path d="M478.673 348.419C478.673 348.419 479.055 369.338 486.045 378.537" stroke="#263238" stroke-linecap="round" stroke-linejoin="round"/>
<path d="M438.885 439.383L443.851 438.198" stroke="#263238" stroke-linecap="round" stroke-linejoin="round"/>
<path d="M376.93 432.911C384.072 433.013 390.439 438.109 396.805 443.205C409.537 450.849 422.269 440.657 435.511 440.083" stroke="#263238" stroke-linecap="round" stroke-linejoin="round"/>
<path d="M475.656 428.885C476.764 436.899 477.986 444.899 479.679 452.798" stroke="#263238" stroke-linecap="round" stroke-linejoin="round"/>
<path d="M474.395 418.999C474.612 420.935 474.854 422.821 475.108 424.796" stroke="#263238" stroke-linecap="round" stroke-linejoin="round"/>
<path d="M404.559 391.111C412.593 404.768 424.128 420.349 440.387 424.235" stroke="#263238" stroke-linecap="round" stroke-linejoin="round"/>
<path d="M395.812 373.619C397.796 378.445 400.07 383.146 402.623 387.697" stroke="#263238" stroke-linecap="round" stroke-linejoin="round"/>
<path d="M499.975 365.848C506.073 380.779 512.299 398.615 523.249 410.82" stroke="#263238" stroke-linecap="round" stroke-linejoin="round"/>
<path d="M495.747 355.299C496.588 357.528 497.466 359.758 498.294 361.987" stroke="#263238" stroke-linecap="round" stroke-linejoin="round"/>
<path d="M515.444 455.219C515.444 455.219 530.048 467.232 536.096 467.959" stroke="#263238" stroke-linecap="round" stroke-linejoin="round"/>
<path d="M540.018 506.23C542.781 504.714 546.04 502.803 547.441 499.86" stroke="#263238" stroke-linecap="round" stroke-linejoin="round"/>
<path d="M529.959 510.651C532.149 509.886 534.301 509.007 536.415 508.039" stroke="#263238" stroke-linecap="round" stroke-linejoin="round"/>
<path d="M328.84 341.871C327.257 343.507 325.214 344.623 322.983 345.069" stroke="#263238" stroke-linecap="round" stroke-linejoin="round"/>
<path d="M335.32 332.367C334.324 334.531 333.117 336.592 331.717 338.52" stroke="#263238" stroke-linecap="round" stroke-linejoin="round"/>
<path d="M459.728 306.645C459.728 306.645 450.815 319.499 435.536 317.741C427.108 316.76 427.973 310.263 427.973 310.263C429.17 309.499 430.068 308.348 430.52 307.001C431.424 304.696 431.793 300.937 429.667 295.064C429.667 294.898 429.552 294.72 429.489 294.555C427.095 288.185 455.934 279.177 455.934 279.177C455.934 279.177 452.458 295.816 459.728 306.645Z" fill="white" stroke="#263238" stroke-linecap="round" stroke-linejoin="round"/>
<path d="M445.76 290.631C445.76 290.631 440.413 303.969 430.482 307.001C431.386 304.696 431.755 300.937 429.629 295.064L445.76 290.631Z" fill="#263238"/>
<path d="M448.396 287.497C449.071 293.217 434.505 301.867 425.974 301.842C422.078 301.842 416.68 294.312 414.388 283.216C413.242 277.61 416.667 272.119 413.892 264.31C411.523 257.634 416.158 237.721 435.804 236.091C463.879 233.759 467.151 263.877 454.711 284.197" fill="white"/>
<path d="M448.396 287.497C449.071 293.217 434.505 301.867 425.974 301.842C422.078 301.842 416.68 294.312 414.388 283.216C413.242 277.61 416.667 272.119 413.892 264.31C411.523 257.634 416.158 237.721 435.804 236.091C463.879 233.759 467.151 263.877 454.711 284.197" stroke="#263238" stroke-linecap="round" stroke-linejoin="round"/>
<path d="M413.319 262.806C414.083 261.751 415.143 260.946 416.364 260.492C417.586 260.039 418.914 259.957 420.181 260.258" stroke="#263238" stroke-linecap="round" stroke-linejoin="round"/>
<path d="M429.539 260.106C429.539 260.106 435.333 259.52 438.859 262.806" stroke="#263238" stroke-linecap="round" stroke-linejoin="round"/>
<path d="M421.696 264.055C422.206 269.852 415.649 279.56 417.291 280.948C418.934 282.337 422.83 280.439 424.345 279.674" stroke="#263238" stroke-linecap="round" stroke-linejoin="round"/>
<path d="M431.895 270.743C431.269 270.743 430.762 270.036 430.762 269.164C430.762 268.291 431.269 267.584 431.895 267.584C432.521 267.584 433.028 268.291 433.028 269.164C433.028 270.036 432.521 270.743 431.895 270.743Z" fill="#263238"/>
<path d="M418.157 270.743C417.531 270.743 417.024 270.036 417.024 269.164C417.024 268.291 417.531 267.584 418.157 267.584C418.783 267.584 419.29 268.291 419.29 269.164C419.29 270.036 418.783 270.743 418.157 270.743Z" fill="#263238"/>
<path d="M421.824 287.114C421.824 287.114 428.495 288.006 431.895 284.477" stroke="#263238" stroke-linecap="round" stroke-linejoin="round"/>
<path d="M430.813 285.42C430.639 286.41 430.176 287.327 429.483 288.054C428.79 288.782 427.897 289.288 426.917 289.509C423.39 290.389 423.517 287.216 423.517 287.216" stroke="#263238" stroke-linecap="round" stroke-linejoin="round"/>
<path d="M440.718 248.945C440.718 248.945 409.486 257.507 406.214 244.282C406.214 244.282 411.893 244.958 418.157 238.104C425.796 229.695 438.197 227.517 448.651 231.3C459.104 235.084 458.467 240.562 458.467 240.562C458.467 240.562 464.642 241.378 467.38 248.818C470.117 256.258 465.776 282.541 455.297 288.121L452.394 284.477C452.394 284.477 453.553 276.973 448.574 271.368L445.799 272.081C445.799 272.081 448.816 265.584 445.671 262.042C442.378 258.489 440.601 253.79 440.718 248.945Z" fill="#263238"/>
<path d="M448.638 270.743C448.638 270.743 451.783 261.673 455.806 264.055C459.83 266.437 455.437 283.84 448.638 279.942" fill="white"/>
<path d="M448.638 270.743C448.638 270.743 451.783 261.673 455.806 264.055C459.83 266.437 455.437 283.84 448.638 279.942" stroke="#263238" stroke-linecap="round" stroke-linejoin="round"/>
<path opacity="0.3" d="M448.638 241.582C448.638 241.582 429.221 244.856 423.453 237.046" stroke="white" stroke-linecap="round" stroke-linejoin="round"/>
<path opacity="0.3" d="M436.058 246.117C436.058 246.117 422.562 250.652 413.319 246.117" stroke="white" stroke-linecap="round" stroke-linejoin="round"/>
<path opacity="0.3" d="M453.005 248.13C453.005 248.13 453.196 259.328 463.522 262.806" stroke="white" stroke-linecap="round" stroke-linejoin="round"/>
<path d="M344.13 125.482V131.006H344.952V133.682H343.937V131.907H339.691V133.682H338.676V131.006H339.173C339.366 130.651 339.549 130.265 339.722 129.846C339.895 129.424 340.053 128.978 340.197 128.51C340.34 128.041 340.462 127.553 340.562 127.046C340.664 126.537 340.74 126.015 340.79 125.482H344.13ZM343.08 126.383H341.66C341.625 126.72 341.565 127.089 341.48 127.49C341.398 127.889 341.295 128.296 341.172 128.712C341.049 129.128 340.912 129.532 340.759 129.925C340.61 130.317 340.452 130.678 340.285 131.006H343.08V126.383ZM350.194 129.463C350.194 129.868 350.142 130.227 350.036 130.54C349.931 130.853 349.777 131.119 349.575 131.335C349.373 131.549 349.129 131.713 348.845 131.828C348.561 131.939 348.24 131.995 347.883 131.995C347.549 131.995 347.243 131.939 346.964 131.828C346.686 131.713 346.444 131.549 346.239 131.335C346.037 131.119 345.88 130.853 345.769 130.54C345.658 130.227 345.602 129.868 345.602 129.463C345.602 128.927 345.694 128.473 345.879 128.101C346.066 127.726 346.333 127.44 346.679 127.244C347.024 127.048 347.436 126.95 347.914 126.95C348.362 126.95 348.757 127.048 349.1 127.244C349.443 127.44 349.711 127.726 349.904 128.101C350.098 128.476 350.194 128.93 350.194 129.463ZM346.666 129.463C346.666 129.818 346.708 130.121 346.793 130.373C346.881 130.625 347.016 130.818 347.197 130.953C347.379 131.085 347.613 131.151 347.9 131.151C348.188 131.151 348.422 131.085 348.604 130.953C348.785 130.818 348.918 130.625 349.003 130.373C349.088 130.121 349.131 129.818 349.131 129.463C349.131 129.109 349.088 128.809 349.003 128.562C348.918 128.313 348.785 128.124 348.604 127.996C348.422 127.864 348.186 127.798 347.896 127.798C347.468 127.798 347.156 127.941 346.96 128.228C346.764 128.516 346.666 128.927 346.666 129.463ZM354.536 127.042V127.855H352.418V131.907H351.381V127.042H354.536ZM359.783 129.463C359.783 129.868 359.73 130.227 359.625 130.54C359.52 130.853 359.366 131.119 359.164 131.335C358.961 131.549 358.718 131.713 358.434 131.828C358.15 131.939 357.829 131.995 357.472 131.995C357.138 131.995 356.832 131.939 356.553 131.828C356.275 131.713 356.033 131.549 355.828 131.335C355.626 131.119 355.469 130.853 355.358 130.54C355.247 130.227 355.191 129.868 355.191 129.463C355.191 128.927 355.283 128.473 355.468 128.101C355.655 127.726 355.922 127.44 356.268 127.244C356.613 127.048 357.025 126.95 357.502 126.95C357.951 126.95 358.346 127.048 358.689 127.244C359.032 127.44 359.3 127.726 359.493 128.101C359.687 128.476 359.783 128.93 359.783 129.463ZM356.254 129.463C356.254 129.818 356.297 130.121 356.382 130.373C356.47 130.625 356.604 130.818 356.786 130.953C356.968 131.085 357.202 131.151 357.489 131.151C357.776 131.151 358.011 131.085 358.192 130.953C358.374 130.818 358.507 130.625 358.592 130.373C358.677 130.121 358.72 129.818 358.72 129.463C358.72 129.109 358.677 128.809 358.592 128.562C358.507 128.313 358.374 128.124 358.192 127.996C358.011 127.864 357.775 127.798 357.485 127.798C357.057 127.798 356.745 127.941 356.549 128.228C356.353 128.516 356.254 128.927 356.254 129.463ZM365.061 128.29C365.061 128.571 364.975 128.801 364.802 128.98C364.632 129.156 364.397 129.271 364.099 129.327V129.362C364.418 129.403 364.685 129.516 364.898 129.701C365.112 129.885 365.219 130.142 365.219 130.47C365.219 130.748 365.149 130.996 365.008 131.212C364.871 131.426 364.651 131.596 364.349 131.722C364.05 131.845 363.659 131.907 363.176 131.907H360.97V127.042H363.167C363.53 127.042 363.854 127.081 364.138 127.161C364.425 127.24 364.651 127.37 364.815 127.552C364.979 127.733 365.061 127.979 365.061 128.29ZM364.143 130.435C364.143 130.194 364.05 130.021 363.866 129.916C363.684 129.81 363.417 129.758 363.066 129.758H362.007V131.146H363.088C363.416 131.146 363.674 131.092 363.861 130.984C364.049 130.872 364.143 130.689 364.143 130.435ZM364.011 128.382C364.011 128.192 363.939 128.051 363.795 127.96C363.652 127.867 363.426 127.82 363.119 127.82H362.007V128.997H362.978C363.318 128.997 363.574 128.949 363.747 128.852C363.923 128.753 364.011 128.596 364.011 128.382ZM370.69 129.463C370.69 129.868 370.638 130.227 370.532 130.54C370.427 130.853 370.273 131.119 370.071 131.335C369.869 131.549 369.625 131.713 369.341 131.828C369.057 131.939 368.736 131.995 368.379 131.995C368.045 131.995 367.739 131.939 367.46 131.828C367.182 131.713 366.94 131.549 366.735 131.335C366.533 131.119 366.376 130.853 366.265 130.54C366.154 130.227 366.098 129.868 366.098 129.463C366.098 128.927 366.19 128.473 366.375 128.101C366.562 127.726 366.829 127.44 367.175 127.244C367.521 127.048 367.932 126.95 368.41 126.95C368.858 126.95 369.253 127.048 369.596 127.244C369.939 127.44 370.207 127.726 370.4 128.101C370.594 128.476 370.69 128.93 370.69 129.463ZM367.162 129.463C367.162 129.818 367.204 130.121 367.289 130.373C367.377 130.625 367.512 130.818 367.693 130.953C367.875 131.085 368.109 131.151 368.396 131.151C368.684 131.151 368.918 131.085 369.1 130.953C369.281 130.818 369.415 130.625 369.5 130.373C369.584 130.121 369.627 129.818 369.627 129.463C369.627 129.109 369.584 128.809 369.5 128.562C369.415 128.313 369.281 128.124 369.1 127.996C368.918 127.864 368.682 127.798 368.392 127.798C367.964 127.798 367.652 127.941 367.456 128.228C367.26 128.516 367.162 128.927 367.162 129.463ZM374.373 126.95C374.95 126.95 375.413 127.161 375.762 127.582C376.113 128.004 376.289 128.631 376.289 129.463C376.289 130.014 376.207 130.478 376.043 130.856C375.882 131.231 375.655 131.516 375.362 131.709C375.072 131.899 374.733 131.995 374.347 131.995C374.101 131.995 373.887 131.962 373.705 131.898C373.523 131.833 373.368 131.75 373.239 131.647C373.11 131.542 373.002 131.428 372.914 131.305H372.853C372.867 131.422 372.88 131.552 372.892 131.696C372.907 131.836 372.914 131.965 372.914 132.082V134.064H371.877V127.042H372.721L372.866 127.714H372.914C373.005 127.577 373.115 127.449 373.244 127.332C373.375 127.215 373.534 127.122 373.718 127.055C373.906 126.985 374.124 126.95 374.373 126.95ZM374.096 127.793C373.812 127.793 373.583 127.851 373.411 127.965C373.241 128.076 373.116 128.245 373.037 128.47C372.961 128.696 372.92 128.978 372.914 129.318V129.463C372.914 129.824 372.951 130.13 373.024 130.382C373.1 130.631 373.225 130.821 373.397 130.953C373.573 131.082 373.811 131.146 374.109 131.146C374.361 131.146 374.569 131.078 374.733 130.94C374.9 130.802 375.025 130.606 375.107 130.351C375.189 130.096 375.23 129.796 375.23 129.45C375.23 128.926 375.136 128.518 374.949 128.228C374.764 127.938 374.48 127.793 374.096 127.793Z" fill="#172D5F"/>
<defs>
<clipPath id="clip0_4915_220">
<rect width="41.1668" height="17.4272" fill="white" transform="translate(365.17 232.015)"/>
</clipPath>
</defs>
</svg>
