<svg width="346" height="265" viewBox="0 0 346 265" fill="none" xmlns="http://www.w3.org/2000/svg">
<g clip-path="url(#clip0_124_22)">
<path opacity="0.7" d="M316.471 69.722C316.471 69.722 335.691 115.901 308.682 162.401C281.672 208.901 226.04 233.465 181.514 254.471C136.988 275.476 90.7524 265.246 68.7823 230.842C46.8122 196.439 76.9444 171.88 76.9858 122.822C77.0271 73.7626 69.0925 60.7748 97.6668 19.329C126.241 -22.1168 196.287 -31.2949 249.258 -0.553692C302.229 30.1875 316.471 69.722 316.471 69.722Z" fill="white"/>
<path d="M285.677 21.2082C282.781 19.3417 279.732 17.6904 276.557 16.2696C253.587 6.04608 225.392 9.4133 203.312 21.2211C181.232 33.0288 164.708 52.3278 152.692 73.2111C147.177 82.7547 142.289 93.0039 133.459 100.059C122.084 109.154 106.718 111.213 93.1583 116.164C43.8549 134.18 43.2896 200.223 86.5059 224.884C103.54 234.607 124.58 237.538 144.151 238.898C171.27 240.777 198.879 239.815 225.068 233.004C251.257 226.192 276.026 213.23 293.55 193.88C316.492 168.545 325.337 134.097 324.179 100.983C323.593 84.2235 320.559 67.3232 312.976 52.129C306.82 39.9108 297.535 28.8406 285.677 21.2082Z" fill="#CBD4E3"/>
<path opacity="0.7" d="M285.677 21.2082C282.781 19.3417 279.732 17.6904 276.557 16.2696C253.587 6.04608 225.392 9.4133 203.312 21.2211C181.232 33.0288 164.708 52.3278 152.692 73.2111C147.177 82.7547 142.289 93.0039 133.459 100.059C122.084 109.154 106.718 111.213 93.1583 116.164C43.8549 134.18 43.2896 200.223 86.5059 224.884C103.54 234.607 124.58 237.538 144.151 238.898C171.27 240.777 198.879 239.815 225.068 233.004C251.257 226.192 276.026 213.23 293.55 193.88C316.492 168.545 325.337 134.097 324.179 100.983C323.593 84.2235 320.559 67.3232 312.976 52.129C306.82 39.9108 297.535 28.8406 285.677 21.2082Z" fill="white"/>
<path d="M269.988 49.0889C269.743 48.1176 269.621 47.1233 269.622 46.1258C269.622 42.6329 271.113 39.2831 273.767 36.8127C276.421 34.3423 280.021 32.9536 283.775 32.9519C285.023 32.9511 286.266 33.1064 287.47 33.4137C288.906 31.0396 291.129 29.1614 293.807 28.0592C296.485 26.9571 299.474 26.6902 302.328 27.2984C305.183 27.9066 307.749 29.3572 309.645 31.4337C311.54 33.5103 312.663 36.1015 312.846 38.8205C313.527 38.6991 314.22 38.6368 314.914 38.6345C317.642 38.6327 320.275 39.5665 322.31 41.2574C324.345 42.9482 325.638 45.2774 325.943 47.7998C327.48 47.9494 328.901 48.6271 329.929 49.7002C330.957 50.7733 331.518 52.1646 331.501 53.602C331.485 55.0393 330.893 56.4192 329.841 57.4718C328.789 58.5244 327.352 59.1739 325.813 59.2932H273.889C272.621 59.2794 271.388 58.9041 270.356 58.218C269.323 57.5319 268.542 56.5679 268.117 55.456C267.692 54.344 267.643 53.1376 267.978 51.9991C268.312 50.8607 269.014 49.845 269.988 49.0889Z" stroke="#263238" stroke-linecap="round" stroke-linejoin="round"/>
<path d="M307.737 69.0614V82.37" stroke="#263238" stroke-linecap="round" stroke-linejoin="round"/>
<path d="M307.737 61.0763V66.3997" stroke="#263238" stroke-linecap="round" stroke-linejoin="round"/>
<path d="M307.737 56.1056V58.9533" stroke="#263238" stroke-linecap="round" stroke-linejoin="round"/>
<path d="M310.44 80.8114L307.744 83.9221L305.042 80.8114" stroke="#263238" stroke-linecap="round" stroke-linejoin="round"/>
<path d="M298.521 74.7634V88.0719" stroke="#263238" stroke-linecap="round" stroke-linejoin="round"/>
<path d="M298.521 66.7781V72.1015" stroke="#263238" stroke-linecap="round" stroke-linejoin="round"/>
<path d="M298.521 61.8073V64.655" stroke="#263238" stroke-linecap="round" stroke-linejoin="round"/>
<path d="M301.223 86.5133L298.52 89.6239L295.818 86.5133" stroke="#263238" stroke-linecap="round" stroke-linejoin="round"/>
<path d="M289.91 63.5776V76.8862" stroke="#263238" stroke-linecap="round" stroke-linejoin="round"/>
<path d="M289.91 55.5925V60.9159" stroke="#263238" stroke-linecap="round" stroke-linejoin="round"/>
<path d="M289.91 50.6218V53.4695" stroke="#263238" stroke-linecap="round" stroke-linejoin="round"/>
<path d="M292.613 75.3276L289.91 78.4383L287.208 75.3276" stroke="#263238" stroke-linecap="round" stroke-linejoin="round"/>
<path d="M175.521 139.109C176.07 136.892 175.992 134.58 175.296 132.399C174.599 130.219 173.308 128.243 171.547 126.664C169.786 125.086 167.615 123.959 165.247 123.393C162.878 122.826 160.393 122.841 158.032 123.434C156.595 121.059 154.372 119.181 151.693 118.079C149.015 116.977 146.025 116.711 143.17 117.32C140.316 117.929 137.75 119.38 135.855 121.458C133.96 123.535 132.838 126.127 132.656 128.847C131.975 128.725 131.282 128.663 130.588 128.661C127.861 128.659 125.229 129.592 123.194 131.281C121.16 132.971 119.865 135.298 119.559 137.82C118.022 137.969 116.601 138.647 115.573 139.72C114.545 140.793 113.984 142.185 114.001 143.622C114.017 145.059 114.609 146.439 115.661 147.492C116.713 148.544 118.15 149.194 119.689 149.313H171.612C172.882 149.301 174.116 148.926 175.149 148.241C176.182 147.555 176.965 146.591 177.391 145.479C177.817 144.367 177.866 143.16 177.532 142.021C177.197 140.881 176.496 139.865 175.521 139.109Z" stroke="#263238" stroke-linecap="round" stroke-linejoin="round"/>
<path d="M139.97 154.207V140.898" stroke="#263238" stroke-linecap="round" stroke-linejoin="round"/>
<path d="M139.97 162.192V156.868" stroke="#263238" stroke-linecap="round" stroke-linejoin="round"/>
<path d="M139.97 167.162V164.321" stroke="#263238" stroke-linecap="round" stroke-linejoin="round"/>
<path d="M137.268 142.457L139.97 139.346L142.673 142.457" stroke="#263238" stroke-linecap="round" stroke-linejoin="round"/>
<path d="M149.188 148.505V135.203" stroke="#263238" stroke-linecap="round" stroke-linejoin="round"/>
<path d="M149.188 156.49V151.166" stroke="#263238" stroke-linecap="round" stroke-linejoin="round"/>
<path d="M149.188 161.467V158.619" stroke="#263238" stroke-linecap="round" stroke-linejoin="round"/>
<path d="M146.485 136.755L149.188 133.644L151.89 136.755" stroke="#263238" stroke-linecap="round" stroke-linejoin="round"/>
<path d="M157.804 159.691V146.382" stroke="#263238" stroke-linecap="round" stroke-linejoin="round"/>
<path d="M157.804 167.675V162.352" stroke="#263238" stroke-linecap="round" stroke-linejoin="round"/>
<path d="M157.804 172.646V169.799" stroke="#263238" stroke-linecap="round" stroke-linejoin="round"/>
<path d="M155.102 147.94L157.804 144.83L160.5 147.94" stroke="#263238" stroke-linecap="round" stroke-linejoin="round"/>
<path d="M340 248L39 248" stroke="#263238" stroke-miterlimit="10"/>
<path d="M9.94713 15.0616V123.971C9.94713 125.296 10.5131 126.567 11.5205 127.505C12.5279 128.442 13.8943 128.969 15.319 128.969H242.002C243.428 128.969 244.795 128.442 245.804 127.505C246.812 126.568 247.38 125.297 247.382 123.971V15.0616C247.38 13.7354 246.812 12.4642 245.804 11.5271C244.795 10.59 243.428 10.0637 242.002 10.0637H15.319C13.8943 10.0637 12.5279 10.5903 11.5205 11.5276C10.5131 12.4648 9.94713 13.7361 9.94713 15.0616Z" fill="white"/>
<mask id="mask0_124_22" style="mask-type:luminance" maskUnits="userSpaceOnUse" x="9" y="10" width="239" height="119">
<path d="M9.94713 15.0616V123.971C9.94713 125.296 10.5131 126.567 11.5205 127.505C12.5279 128.442 13.8943 128.969 15.319 128.969H242.002C243.428 128.969 244.795 128.442 245.804 127.505C246.812 126.568 247.38 125.297 247.382 123.971V15.0616C247.38 13.7354 246.812 12.4642 245.804 11.5271C244.795 10.59 243.428 10.0637 242.002 10.0637H15.319C13.8943 10.0637 12.5279 10.5903 11.5205 11.5276C10.5131 12.4648 9.94713 13.7361 9.94713 15.0616Z" fill="white"/>
</mask>
<g mask="url(#mask0_124_22)">
<path opacity="0.2" d="M9.94781 20.8501V123.993C9.94781 125.319 10.5138 126.59 11.5212 127.527C12.5286 128.464 13.8949 128.991 15.3196 128.991H157.946V20.8277L9.94781 20.8501Z" fill="#172D5E"/>
</g>
<path d="M9.94713 15.0616V123.971C9.94713 125.296 10.5131 126.567 11.5205 127.505C12.5279 128.442 13.8943 128.969 15.319 128.969H242.002C243.428 128.969 244.795 128.442 245.804 127.505C246.812 126.568 247.38 125.297 247.382 123.971V15.0616C247.38 13.7354 246.812 12.4642 245.804 11.5271C244.795 10.59 243.428 10.0637 242.002 10.0637H15.319C13.8943 10.0637 12.5279 10.5903 11.5205 11.5276C10.5131 12.4648 9.94713 13.7361 9.94713 15.0616Z" stroke="#263238" stroke-linecap="round" stroke-linejoin="round"/>
<path d="M29.8071 64.9209H59.3041C60.884 64.9209 62.3992 65.5048 63.5164 66.5443C64.6336 67.5837 65.2612 68.9934 65.2612 70.4633C65.2591 71.932 64.6306 73.3398 63.5136 74.3776C62.3967 75.4154 60.8827 75.9983 59.3041 75.9983H29.8071C29.0252 75.9993 28.2508 75.8568 27.528 75.5791C26.8053 75.3014 26.1486 74.8939 25.5953 74.3798C25.042 73.8657 24.6031 73.2552 24.3036 72.5832C24.0042 71.9112 23.85 71.1908 23.85 70.4633C23.849 69.7352 24.0023 69.0141 24.3013 68.3412C24.6003 67.6683 25.0391 67.0569 25.5925 66.5421C26.1458 66.0272 26.803 65.619 27.5262 65.3408C28.2494 65.0626 29.0245 64.9199 29.8071 64.9209Z" fill="#172D5E" stroke="#263238" stroke-linecap="round" stroke-linejoin="round"/>
<path d="M9.94736 15.0616V25.2662H247.398V15.0616C247.396 13.7354 246.828 12.4642 245.82 11.5271C244.811 10.59 243.444 10.0637 242.018 10.0637H15.3192C13.8945 10.0637 12.5281 10.5903 11.5207 11.5276C10.5133 12.4648 9.94736 13.7361 9.94736 15.0616Z" fill="#33363B" stroke="#263238" stroke-linecap="round" stroke-linejoin="round"/>
<path d="M237.33 20.8502C235.285 20.8502 233.626 19.3072 233.626 17.4039C233.626 15.5006 235.285 13.9576 237.33 13.9576C239.376 13.9576 241.034 15.5006 241.034 17.4039C241.034 19.3072 239.376 20.8502 237.33 20.8502Z" fill="#757575" stroke="#263238" stroke-linecap="round" stroke-linejoin="round"/>
<path d="M227.308 20.8502C225.262 20.8502 223.604 19.3072 223.604 17.4039C223.604 15.5006 225.262 13.9576 227.308 13.9576C229.354 13.9576 231.012 15.5006 231.012 17.4039C231.012 19.3072 229.354 20.8502 227.308 20.8502Z" fill="white" stroke="#263238" stroke-linecap="round" stroke-linejoin="round"/>
<path d="M157.945 25.2662V129.088" stroke="#263238" stroke-linecap="round" stroke-linejoin="round"/>
<path d="M18.0292 20.8503H69.9435C70.9245 20.8483 71.8646 20.4844 72.5576 19.8383C73.2505 19.1922 73.6397 18.3167 73.6396 17.404C73.6375 16.4926 73.2474 15.6191 72.5547 14.9746C71.862 14.3301 70.9231 13.9672 69.9435 13.9652H18.0292C17.0481 13.9652 16.1072 14.3272 15.4127 14.9719C14.7183 15.6166 14.3271 16.4913 14.325 17.404C14.325 17.8566 14.4208 18.3047 14.607 18.7229C14.7931 19.141 15.066 19.5209 15.4099 19.8409C15.7539 20.1609 16.1622 20.4148 16.6116 20.588C17.061 20.7612 17.5427 20.8503 18.0292 20.8503Z" fill="white" stroke="#263238" stroke-linecap="round" stroke-linejoin="round"/>
<path d="M27.498 57.2451H139.841C140.809 57.2451 141.737 56.8875 142.421 56.251C143.105 55.6145 143.49 54.7512 143.49 53.851C143.49 53.4053 143.395 52.964 143.212 52.5522C143.028 52.1404 142.76 51.7662 142.421 51.451C142.082 51.1359 141.68 50.8859 141.237 50.7153C140.795 50.5447 140.321 50.4569 139.841 50.4569H27.498C27.0189 50.4569 26.5446 50.5447 26.102 50.7153C25.6594 50.8859 25.2572 51.1359 24.9185 51.451C24.5797 51.7662 24.311 52.1404 24.1277 52.5522C23.9443 52.964 23.85 53.4053 23.85 53.851C23.85 54.7512 24.2343 55.6145 24.9185 56.251C25.6026 56.8875 26.5305 57.2451 27.498 57.2451Z" fill="#BFBFBF" stroke="#263238" stroke-miterlimit="10"/>
<path d="M79.6128 57.2451H139.841C140.809 57.2451 141.737 56.8875 142.421 56.251C143.105 55.6145 143.49 54.7512 143.49 53.851C143.49 53.4053 143.395 52.964 143.212 52.5522C143.028 52.1404 142.76 51.7662 142.421 51.451C142.082 51.1359 141.68 50.8859 141.237 50.7153C140.795 50.5447 140.321 50.4569 139.841 50.4569H79.6128C79.1337 50.4569 78.6594 50.5447 78.2168 50.7153C77.7742 50.8859 77.372 51.1359 77.0333 51.451C76.6945 51.7662 76.4258 52.1404 76.2425 52.5522C76.0591 52.964 75.9648 53.4053 75.9648 53.851C75.9648 54.7512 76.3491 55.6145 77.0333 56.251C77.7174 56.8875 78.6453 57.2451 79.6128 57.2451Z" fill="#172D5E" stroke="#263238" stroke-linecap="round" stroke-linejoin="round"/>
<path d="M135.223 105.449H140.17V110.051H135.223V105.449Z" stroke="#263238" stroke-linecap="round" stroke-linejoin="round"/>
<path d="M136.723 107.433L137.452 108.358L138.663 106.754" stroke="#263238" stroke-linecap="round" stroke-linejoin="round"/>
<path opacity="0.3" d="M92.321 106.411H126.011C126.808 106.411 127.454 107.011 127.454 107.75C127.454 108.49 126.808 109.089 126.011 109.089H92.321C91.5239 109.089 90.8778 108.49 90.8778 107.75C90.8778 107.011 91.5239 106.411 92.321 106.411Z" fill="black"/>
<path d="M120.407 42.0725V45.7351C120.407 46.0783 120.567 46.1976 120.824 46.1976C121.08 46.1976 121.24 46.0783 121.24 45.7351V42.0725H122.002V45.6904C122.027 45.846 122.013 46.0048 121.963 46.1549C121.913 46.305 121.826 46.4426 121.711 46.5574C121.595 46.6721 121.453 46.7611 121.295 46.8176C121.137 46.8742 120.968 46.8968 120.799 46.8839C119.998 46.8839 119.605 46.4513 119.605 45.6904V42.0725H120.407Z" fill="#263238"/>
<path d="M124.921 43.2362V43.8553C124.921 44.6013 124.528 45.0339 123.726 45.0339H123.349V46.8168H122.547V42.0725H123.726C124.528 42.0725 124.921 42.4828 124.921 43.2362ZM123.317 42.7439V44.3551H123.694C123.95 44.3551 124.087 44.2432 124.087 43.9076V43.1616C124.087 42.8259 123.95 42.714 123.694 42.714L123.317 42.7439Z" fill="#263238"/>
<path d="M127.791 46.8169H126.989L126.853 45.9516H125.866L125.73 46.8169H124.992L125.794 42.0652H126.965L127.791 46.8169ZM125.963 45.325H126.764L126.387 42.923L125.963 45.325Z" fill="#263238"/>
<path d="M128.159 42.0725H129.434C130.236 42.0725 130.629 42.4902 130.629 43.2437V45.6456C130.629 46.3916 130.236 46.8242 129.434 46.8242H128.159V42.0725ZM128.961 42.7513V46.1454H129.418C129.675 46.1454 129.827 46.0186 129.827 45.6829V43.2138C129.827 42.8707 129.675 42.7513 129.418 42.7513H128.961Z" fill="#263238"/>
<path d="M133.724 46.8169H132.922L132.786 45.9516H131.8L131.663 46.8169H130.926L131.727 42.0652H132.898L133.724 46.8169ZM131.896 45.325H132.698L132.321 42.923L131.896 45.325Z" fill="#263238"/>
<path d="M133.587 42.0725H136.065V42.7513H135.223V46.8242H134.421V42.7439H133.619L133.587 42.0725Z" fill="#263238"/>
<path d="M136.41 42.0725H137.212V46.8242H136.41V42.0725Z" fill="#263238"/>
<path d="M138.526 43.3779V46.8168H137.805V42.0725H138.815L139.617 44.9146V42.0725H140.298V46.8242H139.496L138.526 43.3779Z" fill="#263238"/>
<path d="M142.111 44.1688H143.233V45.6607C143.233 46.4066 142.824 46.8542 142.038 46.8542C141.253 46.8542 140.844 46.4215 140.844 45.6607V43.1916C140.844 42.4456 141.253 41.998 142.038 41.998C142.824 41.998 143.233 42.4307 143.233 43.1916V43.654H142.431V43.1468C142.431 42.8037 142.271 42.6769 142.022 42.6769C141.774 42.6769 141.605 42.8037 141.605 43.1468V45.7054C141.605 46.0486 141.766 46.1679 142.022 46.1679C142.279 46.1679 142.431 46.0486 142.431 45.7054V44.8327H142.07L142.111 44.1688Z" fill="#263238"/>
<path d="M25.9471 83.8609L29.1526 71.3452L17.9269 78.7919L21.5163 79.4911L22.2841 79.6407L21.8259 80.2748L19.6213 83.3254L20.7844 84.054L23.0279 80.9497L23.4327 80.3896L23.838 80.9492L25.9471 83.8609Z" stroke="white"/>
<rect x="173.5" y="38.7136" width="59.0087" height="71.2222" rx="6.5" fill="white" stroke="#172D5F"/>
<path d="M215.116 42.5675H224.054C226.263 42.5675 228.054 44.3584 228.054 46.5675V52.9399" stroke="#172D5F"/>
<line x1="180.707" y1="51.4875" x2="214.566" y2="51.4875" stroke="#172D5F" stroke-width="0.6"/>
<line x1="180.707" y1="58.4021" x2="219.52" y2="58.4021" stroke="#172D5F" stroke-width="0.6"/>
<line x1="180.707" y1="65.0609" x2="223.649" y2="65.0609" stroke="#172D5F" stroke-width="0.6"/>
<line x1="180.707" y1="74.0248" x2="223.649" y2="74.0248" stroke="#172D5F" stroke-width="0.6"/>
<line x1="180.707" y1="81.7077" x2="223.649" y2="81.7077" stroke="#172D5F" stroke-width="0.6"/>
<line x1="180.707" y1="88.8789" x2="210.987" y2="88.8789" stroke="#172D5F" stroke-width="0.6"/>
<line x1="180.707" y1="94.769" x2="210.987" y2="94.769" stroke="#172D5F" stroke-width="0.6"/>
<g clip-path="url(#clip1_124_22)">
<rect width="22.289" height="8.77349" transform="translate(206.862 98.0327)" fill="white"/>
<path d="M220.265 102.279C220.617 102.279 220.939 102.279 221.262 102.279C221.35 102.279 221.428 102.288 221.516 102.297C221.849 102.34 222.103 102.182 222.347 102.033C222.836 101.744 223.305 101.437 223.774 101.138C223.843 101.095 223.931 101.059 224.009 101.033C224.156 100.981 224.283 101.016 224.4 101.103C224.508 101.191 224.615 101.27 224.732 101.34C224.987 101.507 225.094 101.472 225.319 101.34C225.495 101.244 225.651 101.112 225.837 101.033C225.935 100.989 226.081 100.998 226.189 101.033C226.541 101.121 226.883 101.182 227.235 101.016C227.323 100.972 227.421 100.963 227.519 100.945C227.655 100.919 227.802 100.884 227.939 100.858C228.086 100.831 228.222 100.805 228.369 100.796C228.496 100.788 228.633 100.796 228.76 100.805C228.633 100.823 228.506 100.858 228.379 100.858C228.213 100.858 228.056 100.893 227.9 100.945C227.763 100.989 227.616 100.998 227.479 101.033C227.401 101.051 227.323 101.068 227.255 101.103C227.04 101.209 226.815 101.235 226.58 101.209C226.394 101.191 226.228 101.156 226.052 101.103C225.984 101.086 225.866 101.138 225.788 101.174C225.632 101.253 225.485 101.349 225.348 101.454C225.065 101.647 224.791 101.551 224.576 101.402C224.468 101.331 224.38 101.253 224.273 101.174C224.185 101.103 224.068 101.103 223.95 101.182C223.706 101.34 223.462 101.498 223.207 101.656C222.855 101.867 222.504 102.077 222.161 102.288C222.152 102.288 222.152 102.297 222.142 102.314C222.562 102.34 222.983 102.367 223.393 102.384C223.393 102.393 223.393 102.411 223.393 102.419C223.286 102.419 223.168 102.419 223.061 102.419C222.836 102.411 222.611 102.411 222.386 102.402C222.298 102.402 222.21 102.384 222.122 102.384C222.044 102.384 221.956 102.393 221.888 102.419C221.487 102.586 221.086 102.762 220.656 102.858C220.568 102.876 220.47 102.884 220.372 102.902C220.196 102.928 220.148 102.823 220.206 102.665C220.226 102.604 220.265 102.533 220.294 102.463C220.069 102.446 219.903 102.533 219.757 102.665C219.483 102.902 219.268 103.183 219.082 103.472C218.838 103.849 218.623 104.244 218.388 104.63C218.368 104.665 218.349 104.7 218.339 104.736C218.173 104.683 218.163 104.683 218.241 104.543C218.574 103.911 218.916 103.279 219.248 102.647C219.307 102.542 219.365 102.446 219.434 102.349C219.414 102.34 219.405 102.34 219.405 102.34C218.359 102.332 217.303 102.323 216.257 102.323C215.895 102.323 215.524 102.332 215.162 102.34C214.966 102.349 214.771 102.349 214.575 102.367C214.546 102.367 214.507 102.402 214.497 102.428C214.204 102.876 213.92 103.323 213.627 103.762C213.607 103.797 213.578 103.823 213.529 103.841C213.823 103.349 214.126 102.858 214.429 102.367C214.36 102.376 214.311 102.376 214.262 102.376C213.881 102.393 213.5 102.402 213.119 102.419C213.08 102.419 213.021 102.454 213.001 102.49C212.718 102.919 212.444 103.358 212.141 103.779C211.799 104.271 211.447 104.753 211.066 105.218C210.782 105.56 210.421 105.841 209.981 106.034C209.756 106.131 209.511 106.192 209.257 106.183C208.788 106.174 208.417 105.981 208.153 105.639C207.889 105.315 207.762 104.946 207.683 104.551C207.615 104.235 207.654 103.928 207.869 103.665C208.035 103.455 208.26 103.306 208.514 103.183C209.13 102.893 209.805 102.718 210.489 102.586C210.841 102.516 211.203 102.454 211.555 102.402C211.799 102.367 212.053 102.358 212.307 102.332C212.493 102.314 212.689 102.305 212.874 102.288C212.904 102.288 212.933 102.261 212.953 102.235C213.099 102.007 213.246 101.788 213.392 101.56C213.676 101.112 213.959 100.665 214.262 100.226C214.468 99.9277 214.683 99.6382 214.898 99.3487C214.966 99.2609 215.054 99.182 215.142 99.0942C215.221 99.0153 215.328 98.9714 215.416 99.0153C215.484 99.0504 215.563 99.1381 215.563 99.1995C215.582 99.4013 215.582 99.6119 215.572 99.8224C215.543 100.191 215.426 100.542 215.279 100.875C215.123 101.226 214.937 101.577 214.771 101.919C214.732 102.007 214.683 102.095 214.624 102.2C214.829 102.174 215.035 102.261 215.201 102.147C215.377 102.033 215.514 101.875 215.67 101.735C215.768 101.647 215.846 101.542 215.934 101.446C216.012 101.481 216.003 101.472 215.973 101.533C215.885 101.7 215.797 101.875 215.709 102.042C215.7 102.068 215.709 102.13 215.729 102.139C215.758 102.156 215.817 102.147 215.846 102.121C215.993 101.989 216.139 101.858 216.276 101.717C216.364 101.63 216.442 101.524 216.53 101.419C216.56 101.446 216.589 101.463 216.589 101.472C216.501 101.665 216.403 101.849 216.325 102.033C216.306 102.068 216.325 102.112 216.335 102.156C216.394 102.147 216.472 102.165 216.511 102.13C216.648 101.998 216.775 101.867 216.902 101.726C216.98 101.639 217.029 101.533 217.088 101.428C217.215 101.454 217.225 101.463 217.166 101.568C217.107 101.682 217.049 101.805 217 101.928C216.99 101.954 216.99 101.989 216.99 102.025C216.99 102.104 217.058 102.147 217.127 102.095C217.264 101.998 217.401 101.884 217.528 101.77C217.616 101.682 217.684 101.568 217.772 101.472C217.792 101.454 217.85 101.437 217.87 101.446C217.899 101.463 217.928 101.507 217.919 101.533C217.889 101.665 217.85 101.796 217.821 101.937C217.811 101.981 217.821 102.025 217.821 102.077C218.016 102.033 218.095 101.893 218.192 101.788C218.31 101.674 218.407 101.551 218.505 101.428C218.544 101.384 218.593 101.358 218.642 101.402C218.671 101.428 218.691 101.481 218.681 101.516C218.642 101.639 218.593 101.761 218.554 101.884C218.535 101.937 218.535 101.989 218.525 102.042C218.535 102.051 218.544 102.06 218.564 102.068C218.691 101.954 218.828 101.832 218.955 101.717C219.023 101.656 219.082 101.586 219.16 101.542C219.209 101.507 219.317 101.472 219.346 101.498C219.405 101.533 219.434 101.612 219.453 101.682C219.473 101.788 219.453 101.893 219.473 101.998C219.483 102.051 219.532 102.095 219.561 102.147C219.6 102.112 219.639 102.068 219.659 102.033C219.864 101.709 220.06 101.384 220.275 101.068C220.587 100.621 220.93 100.182 221.262 99.7522C221.399 99.568 221.565 99.4013 221.731 99.2434C222.083 98.91 222.494 98.6643 223.031 98.6819C223.364 98.6906 223.579 98.8661 223.598 99.1907C223.618 99.5504 223.462 99.8575 223.286 100.165C223.09 100.498 222.826 100.796 222.513 101.051C222.191 101.323 221.849 101.551 221.467 101.735C221.066 101.937 220.685 102.095 220.265 102.279ZM212.825 102.446C212.591 102.463 212.376 102.49 212.151 102.507C211.926 102.525 211.701 102.542 211.486 102.577C211.076 102.647 210.665 102.718 210.264 102.805C209.638 102.937 209.023 103.104 208.465 103.411C208.172 103.569 207.937 103.779 207.85 104.086C207.801 104.288 207.83 104.481 207.889 104.674C208.006 105.069 208.143 105.446 208.495 105.736C208.808 105.981 209.15 106.069 209.56 105.99C209.971 105.902 210.313 105.701 210.587 105.429C210.88 105.157 211.144 104.85 211.379 104.543C211.731 104.069 212.053 103.577 212.395 103.095C212.552 102.884 212.679 102.674 212.825 102.446ZM219.757 102.174C219.757 102.182 219.766 102.191 219.766 102.2C219.864 102.174 219.962 102.156 220.06 102.13C220.48 102.016 220.881 101.849 221.262 101.656C221.79 101.384 222.288 101.068 222.679 100.638C223.041 100.244 223.315 99.8049 223.403 99.2872C223.432 99.1293 223.305 98.9275 223.129 98.8837C222.836 98.8135 222.562 98.9012 222.318 99.0328C222.054 99.1644 221.849 99.3574 221.663 99.5768C221.438 99.84 221.194 100.094 220.988 100.375C220.715 100.726 220.47 101.086 220.216 101.454C220.06 101.682 219.913 101.928 219.757 102.174ZM213.128 102.288C213.256 102.279 213.353 102.261 213.461 102.261C213.764 102.253 214.057 102.244 214.36 102.244C214.458 102.244 214.507 102.218 214.546 102.139C214.605 102.016 214.683 101.893 214.741 101.761C214.917 101.375 215.113 100.998 215.25 100.603C215.367 100.279 215.426 99.9365 215.484 99.5943C215.504 99.4715 215.465 99.3399 215.436 99.2171C215.416 99.1293 215.357 99.1205 215.279 99.1732C215.26 99.182 215.24 99.1995 215.23 99.2171C215.054 99.4364 214.859 99.647 214.702 99.8751C214.458 100.226 214.223 100.594 213.989 100.954C213.695 101.393 213.422 101.832 213.128 102.288ZM220.363 102.779C220.969 102.647 221.477 102.481 221.585 102.376C221.203 102.376 220.832 102.376 220.49 102.376C220.451 102.507 220.411 102.639 220.363 102.779ZM219.287 102.209C219.268 102.033 219.258 101.867 219.238 101.709C219.062 101.875 218.877 102.042 218.701 102.209C218.896 102.209 219.102 102.209 219.287 102.209ZM220.011 102.34C219.952 102.34 219.893 102.34 219.844 102.34C219.776 102.349 219.678 102.34 219.649 102.376C219.561 102.49 219.493 102.621 219.424 102.744C219.62 102.604 219.766 102.419 220.011 102.34ZM218.359 101.858C218.241 101.972 218.134 102.077 218.007 102.191C218.143 102.2 218.261 102.209 218.359 102.218C218.359 102.095 218.359 101.981 218.359 101.858ZM215.582 102.182C215.621 102.06 215.651 101.946 215.68 101.84C215.67 101.832 215.67 101.832 215.66 101.823C215.533 101.954 215.406 102.086 215.299 102.209C215.377 102.2 215.494 102.191 215.582 102.182ZM217.625 101.902C217.528 101.998 217.43 102.086 217.332 102.182C217.449 102.182 217.567 102.182 217.674 102.182C217.655 102.095 217.645 101.998 217.625 101.902ZM216.198 101.998C216.12 102.06 216.051 102.121 215.973 102.182C216.051 102.182 216.12 102.182 216.179 102.182C216.188 102.13 216.198 102.068 216.198 101.998ZM216.834 102.06C216.794 102.095 216.755 102.139 216.706 102.191C216.775 102.191 216.834 102.191 216.882 102.191C216.863 102.139 216.843 102.104 216.834 102.06Z" fill="#172D5F"/>
</g>
<path d="M196.635 95.9959C196.586 95.9279 196.513 95.8825 196.44 95.8371L196.464 95.8598C196.537 96.0186 196.611 96.1547 196.684 96.3135C196.708 96.2454 196.733 96.1774 196.733 96.1093C196.684 96.064 196.659 96.0186 196.635 95.9959Z" fill="#CDD6E5"/>
<path d="M197.635 99.081C197.635 99.0129 197.659 98.9449 197.659 98.8768C197.659 98.7861 197.659 98.6953 197.659 98.6046C197.683 98.5139 197.757 98.3778 197.854 98.3324C197.903 97.425 197.683 96.4496 197.196 95.5422C196.391 94.0223 194.953 92.9108 193.368 92.3891C193.343 92.4118 193.319 92.4571 193.319 92.5025C193.27 92.6159 193.075 92.5705 193.075 92.4344C193.075 92.3891 193.075 92.3437 193.051 92.2983C191.759 91.9354 190.369 91.9581 189.101 92.4571C188.857 92.5479 188.613 92.6613 188.394 92.7974C188.394 92.8881 188.418 92.9789 188.418 93.0696C188.321 93.0469 188.248 93.0015 188.175 92.9335C185.931 94.3399 185.176 97.1528 186.541 99.6708C186.736 100.034 186.98 100.374 187.224 100.692C187.224 100.578 187.248 100.487 187.297 100.374C187.321 100.283 187.346 100.215 187.37 100.147C187.224 99.943 187.077 99.7161 186.955 99.4893C185.566 96.8806 186.614 93.9089 189.32 92.8428C192.027 91.7993 195.367 93.0696 196.757 95.6783C197.732 97.5158 197.513 99.5573 196.318 100.941C196.318 100.986 196.318 101.055 196.318 101.077C196.318 101.191 196.318 101.304 196.318 101.417C196.318 101.486 196.318 101.576 196.318 101.644C197.025 100.986 197.513 100.147 197.732 99.2171H197.708C197.659 99.2171 197.635 99.149 197.635 99.081Z" fill="#CDD6E5"/>
<path d="M194.416 102.348C191.978 103.278 189.028 102.348 187.443 100.238C187.468 100.374 187.492 100.488 187.541 100.601C187.565 100.737 187.541 100.873 187.492 100.964C188.297 101.826 189.345 102.461 190.467 102.824C190.515 102.779 190.564 102.733 190.637 102.711C190.735 102.688 190.832 102.688 190.93 102.711C190.954 102.711 190.979 102.711 191.003 102.733C191.027 102.756 191.052 102.779 191.052 102.801C191.1 102.869 191.125 102.937 191.174 103.006C192.32 103.232 193.539 103.164 194.636 102.733C195.245 102.506 195.782 102.166 196.221 101.781C196.196 101.554 196.196 101.35 196.196 101.123C195.733 101.667 195.148 102.075 194.416 102.348Z" fill="#CDD6E5"/>
<path d="M196.732 96.4947C196.684 96.472 196.659 96.3813 196.659 96.3133C196.586 96.1545 196.513 96.0184 196.44 95.8596L196.415 95.8369C196.415 95.8369 196.415 95.8369 196.391 95.8369C196.318 95.7915 196.245 95.7461 196.196 95.6781C196.147 95.61 196.147 95.542 196.098 95.4739C196.05 95.4286 195.952 95.4512 195.928 95.4059C195.855 95.2925 195.855 95.2017 195.952 95.179C194.465 93.2509 191.758 92.3888 189.515 93.2509C188.954 93.4777 188.442 93.7953 188.052 94.1809C188.052 94.2263 188.052 94.2943 188.028 94.3397C188.004 94.4531 187.93 94.5439 187.857 94.6119C187.687 94.7934 187.565 95.0202 187.516 95.2471C187.54 95.111 187.565 94.8614 187.638 94.6119C187.248 95.0883 187.004 95.6554 186.858 96.2452L186.882 96.2679C186.906 96.2906 186.882 96.3359 186.882 96.3586C186.882 96.4494 186.882 96.5401 186.906 96.6081C186.931 96.6535 186.931 96.6762 186.955 96.7216C186.98 96.835 186.858 96.903 186.76 96.9484C186.711 97.7424 186.882 98.5817 187.321 99.3983C187.345 99.421 187.37 99.4664 187.37 99.4891C187.37 99.4664 187.37 99.421 187.394 99.3983C187.418 99.3076 187.443 99.2169 187.443 99.1261C187.516 99.2622 187.467 99.3983 187.418 99.5344C187.418 99.5571 187.418 99.5571 187.418 99.5798C188.077 100.691 189.101 101.531 190.271 101.984C190.344 101.984 190.417 101.984 190.491 102.007C190.564 102.007 190.637 102.03 190.661 102.098C190.661 102.12 190.661 102.12 190.661 102.143C191.832 102.506 193.075 102.506 194.221 102.075C195.074 101.758 195.733 101.213 196.196 100.578C196.196 100.51 196.22 100.442 196.245 100.374C196.269 100.374 196.293 100.396 196.318 100.442C197.049 99.2622 197.22 97.8558 196.732 96.4947ZM189.979 94.0221C190.978 93.6365 192.075 93.6819 193.051 94.0221C193.075 93.9994 193.099 93.9994 193.124 93.9768C193.148 93.9541 193.148 93.9087 193.173 93.886C193.221 93.818 193.27 93.7499 193.368 93.7499C193.368 93.8406 193.343 93.9314 193.343 94.0221C193.368 94.0448 193.392 94.0675 193.392 94.0902C193.416 94.1129 193.416 94.1582 193.416 94.1809C193.733 94.3397 194.05 94.5212 194.343 94.7253L192.319 95.5193C192.319 95.542 192.295 95.5647 192.27 95.61C192.246 95.6327 192.246 95.6554 192.222 95.7008C192.149 95.8142 192.051 95.9503 191.905 95.9957C191.832 96.0184 191.734 95.973 191.734 95.9049C191.734 95.8822 191.734 95.8369 191.71 95.8142V95.7915V95.7688L189.369 96.6762C189.247 96.8123 189.125 96.9711 188.93 96.9484C188.881 96.9484 188.833 96.9257 188.759 96.9257L187.735 97.3114C187.711 95.8822 188.516 94.5892 189.979 94.0221ZM194.318 100.964C194.318 101.032 194.294 101.077 194.294 101.145C194.27 101.349 194.221 101.576 194.075 101.712C194.075 101.485 194.099 101.281 194.123 101.077C194.026 101.122 193.928 101.168 193.831 101.213C192.392 101.78 190.686 101.44 189.467 100.51L192.197 99.4664C192.27 99.3983 192.368 99.3303 192.465 99.2622C192.514 99.2169 192.587 99.1715 192.636 99.1488C192.734 99.1034 192.88 99.1261 193.002 99.1261C193.026 99.1261 193.026 99.1261 193.051 99.1261L194.733 98.491C194.733 98.491 194.733 98.491 194.733 98.4683C194.757 98.4002 194.782 98.3095 194.782 98.2414C194.757 98.1507 194.733 98.0373 194.709 97.9465C194.684 97.8331 194.66 97.6743 194.66 97.5155L190.686 99.0581C190.661 99.0808 190.661 99.0807 190.637 99.1034C190.515 99.1942 189.832 99.6025 189.71 99.4437L188.759 99.8067C188.564 99.5798 188.394 99.3303 188.247 99.0581C188.101 98.7859 188.004 98.5136 187.93 98.2414L190.71 97.1526C190.783 97.0392 190.832 96.8804 190.954 96.835C191.003 96.8804 191.003 96.9711 191.003 97.0392L195.147 95.4286C195.343 95.6554 195.513 95.9049 195.659 96.1771C195.806 96.4494 195.903 96.7216 195.976 96.9938L195.074 97.3341C195.05 97.6063 195.05 97.8785 195.001 98.1507C195.001 98.1734 195.001 98.1961 194.977 98.2414C194.977 98.2414 194.977 98.2414 194.977 98.2641C194.977 98.2641 195.001 98.3095 195.001 98.2868C195.001 98.2868 195.026 98.3095 195.05 98.3322C195.05 98.3322 195.05 98.3549 195.074 98.3549L196.098 97.9692C196.074 99.1715 195.44 100.328 194.318 100.964Z" fill="#CDD6E5"/>
<line x1="210.987" y1="103.271" x2="226.127" y2="103.271" stroke="#172D5F" stroke-width="0.5"/>
<path d="M198.773 143.192C197.36 141.338 188.054 146.495 189.198 150.157C190.342 153.819 194.065 153.422 196.243 151.478C198.422 149.535 200.283 145.173 198.773 143.192Z" fill="#6A77B8"/>
<mask id="mask1_124_22" style="mask-type:luminance" maskUnits="userSpaceOnUse" x="189" y="142" width="11" height="11">
<path d="M198.773 143.192C197.36 141.338 188.054 146.495 189.198 150.157C190.342 153.819 194.065 153.422 196.243 151.478C198.422 149.535 200.283 145.173 198.773 143.192Z" fill="white"/>
</mask>
<g mask="url(#mask1_124_22)">
<path opacity="0.3" d="M198.773 143.192C197.36 141.338 188.054 146.495 189.198 150.157C190.342 153.819 194.065 153.422 196.243 151.478C198.422 149.535 200.283 145.173 198.773 143.192Z" fill="black" fill-opacity="0.7"/>
</g>
<path d="M198.773 143.192C197.36 141.338 188.054 146.495 189.198 150.157C190.342 153.819 194.065 153.422 196.243 151.478C198.422 149.535 200.283 145.173 198.773 143.192Z" stroke="#263238" stroke-linecap="round" stroke-linejoin="round"/>
<path d="M194.354 128.972C194.354 128.972 192.976 128.972 190.687 133.917C189.733 136.078 189.493 138.454 189.998 140.742L193.355 155.795L201.531 151.222L196.781 140.177C196.781 140.177 199.27 133.039 194.354 128.972Z" fill="white" stroke="#263238" stroke-linecap="round" stroke-linejoin="round"/>
<path d="M197.663 138.657L202.902 140.273C203.461 140.408 204.557 139.549 204.509 138.991L202.951 121.943C202.92 121.607 202.778 121.289 202.544 121.032C202.311 120.775 201.998 120.591 201.648 120.506L195.836 119.332C195.285 119.198 193.886 119.813 193.934 120.346L196.354 137.195C196.38 137.535 196.521 137.859 196.756 138.121C196.991 138.384 197.308 138.571 197.663 138.657Z" fill="#6A77B8"/>
<mask id="mask2_124_22" style="mask-type:luminance" maskUnits="userSpaceOnUse" x="193" y="119" width="12" height="22">
<path d="M197.663 138.657L202.902 140.273C203.461 140.408 204.557 139.549 204.509 138.991L202.951 121.943C202.92 121.607 202.778 121.289 202.544 121.032C202.311 120.775 201.998 120.591 201.648 120.506L195.836 119.332C195.285 119.198 193.886 119.813 193.934 120.346L196.354 137.195C196.38 137.535 196.521 137.859 196.756 138.121C196.991 138.384 197.308 138.571 197.663 138.657Z" fill="white"/>
</mask>
<g mask="url(#mask2_124_22)">
<path opacity="0.3" d="M197.663 138.657L202.902 140.273C203.461 140.408 204.557 139.549 204.509 138.991L202.951 121.943C202.92 121.607 202.778 121.289 202.544 121.032C202.311 120.775 201.998 120.591 201.648 120.506L195.836 119.332C195.285 119.198 193.886 119.813 193.934 120.346L196.354 137.195C196.38 137.535 196.521 137.859 196.756 138.121C196.991 138.384 197.308 138.571 197.663 138.657Z" fill="black" fill-opacity="0.7"/>
</g>
<path d="M197.663 138.657L202.902 140.273C203.461 140.408 204.557 139.549 204.509 138.991L202.951 121.943C202.92 121.607 202.778 121.289 202.544 121.032C202.311 120.775 201.998 120.591 201.648 120.506L195.836 119.332C195.285 119.198 193.886 119.813 193.934 120.346L196.354 137.195C196.38 137.535 196.521 137.859 196.756 138.121C196.991 138.384 197.308 138.571 197.663 138.657Z" stroke="#263238" stroke-linecap="round" stroke-linejoin="round"/>
<path d="M196.802 139.08L202.606 140.254C202.734 140.284 202.869 140.285 202.998 140.257C203.127 140.229 203.247 140.173 203.348 140.094C203.449 140.014 203.528 139.913 203.579 139.799C203.63 139.686 203.651 139.562 203.64 139.44L202.089 122.385C202.057 122.049 201.915 121.73 201.68 121.473C201.445 121.216 201.131 121.032 200.779 120.949L194.975 119.775C194.846 119.745 194.712 119.744 194.583 119.772C194.454 119.8 194.334 119.856 194.233 119.935C194.132 120.015 194.053 120.116 194.002 120.23C193.951 120.343 193.93 120.467 193.941 120.589L195.492 137.65C195.525 137.985 195.668 138.303 195.903 138.559C196.137 138.815 196.451 138.997 196.802 139.08Z" fill="#6A77B8" stroke="#263238" stroke-linecap="round" stroke-linejoin="round"/>
<path opacity="0.3" d="M200.021 125.541L200.958 125.733C200.979 125.737 201.001 125.737 201.022 125.732C201.042 125.727 201.061 125.717 201.077 125.704C201.093 125.691 201.106 125.675 201.114 125.657C201.122 125.638 201.125 125.618 201.124 125.599L200.869 122.854C200.865 122.799 200.843 122.747 200.806 122.704C200.769 122.662 200.719 122.631 200.662 122.616L199.725 122.43C199.704 122.425 199.683 122.424 199.662 122.429C199.641 122.433 199.622 122.441 199.606 122.454C199.589 122.467 199.577 122.483 199.569 122.501C199.56 122.519 199.557 122.539 199.559 122.559L199.807 125.31C199.814 125.364 199.837 125.415 199.876 125.456C199.914 125.497 199.964 125.527 200.021 125.541Z" fill="black" fill-opacity="0.7"/>
<path d="M191.88 134.09C191.652 131.698 193.989 128.113 195.547 128.113C197.105 128.113 201.841 131.506 201.841 131.506C203.668 132.744 202.765 133.917 202.765 133.917C203.84 134.559 204.143 135.476 203.647 135.893C203.151 136.31 201.579 135.893 201.579 135.893C201.579 135.893 203.151 136.964 202.758 137.483C201.834 138.728 198.787 137.092 198.787 137.092C198.787 137.092 200.552 138.176 200.455 138.375C199.766 139.728 196.898 138.15 196.898 138.15L194.871 139.119C194.873 139.34 194.825 139.56 194.731 139.763C194.638 139.967 194.5 140.15 194.326 140.302C194.153 140.453 193.948 140.57 193.724 140.645C193.5 140.719 193.261 140.75 193.024 140.735" fill="white"/>
<path d="M191.88 134.09C191.652 131.698 193.989 128.113 195.547 128.113C197.105 128.113 201.841 131.506 201.841 131.506C203.668 132.744 202.765 133.917 202.765 133.917C203.84 134.559 204.143 135.476 203.647 135.893C203.151 136.31 201.579 135.893 201.579 135.893C201.579 135.893 203.151 136.964 202.758 137.483C201.834 138.728 198.787 137.092 198.787 137.092C198.787 137.092 200.552 138.176 200.455 138.375C199.766 139.728 196.898 138.15 196.898 138.15L194.871 139.119C194.873 139.34 194.825 139.56 194.731 139.763C194.638 139.967 194.5 140.15 194.326 140.302C194.153 140.453 193.948 140.57 193.724 140.645C193.5 140.719 193.261 140.75 193.024 140.735" stroke="#263238" stroke-linecap="round" stroke-linejoin="round"/>
<path d="M202.737 133.917C202.737 133.917 198.304 131.249 197.739 131.179C197.174 131.108 195.126 130.691 195.126 130.691" fill="white"/>
<path d="M202.737 133.917C202.737 133.917 198.304 131.249 197.739 131.179C197.174 131.108 195.126 130.691 195.126 130.691" stroke="#263238" stroke-linecap="round" stroke-linejoin="round"/>
<path d="M201.531 135.893C201.531 135.893 197.925 134.161 197.263 134.161C196.275 134.06 195.295 133.904 194.327 133.693" fill="white"/>
<path d="M201.531 135.893C201.531 135.893 197.925 134.161 197.263 134.161C196.275 134.06 195.295 133.904 194.327 133.693" stroke="#263238" stroke-linecap="round" stroke-linejoin="round"/>
<path d="M198.773 137.092C198.354 136.812 197.909 136.568 197.443 136.361C196.582 136.303 195.718 136.303 194.858 136.361" fill="white"/>
<path d="M198.773 137.092C198.354 136.812 197.909 136.568 197.443 136.361C196.582 136.303 195.718 136.303 194.858 136.361" stroke="#263238" stroke-linecap="round" stroke-linejoin="round"/>
<path d="M234.241 137.009C227.347 137.105 211.492 160.098 211.492 160.098L201.531 148.554L198.773 143.204C198.773 143.204 197.394 152.825 189.198 150.17C189.198 150.17 196.416 175.427 204.516 178.474C212.616 181.52 235.075 160.098 235.075 160.098L234.241 137.009Z" fill="#6A77B8"/>
<mask id="mask3_124_22" style="mask-type:luminance" maskUnits="userSpaceOnUse" x="189" y="137" width="47" height="42">
<path d="M234.241 137.009C227.347 137.105 211.492 160.098 211.492 160.098L201.531 148.554L198.773 143.204C198.773 143.204 197.394 152.825 189.198 150.17C189.198 150.17 196.416 175.427 204.516 178.474C212.616 181.52 235.075 160.098 235.075 160.098L234.241 137.009Z" fill="white"/>
</mask>
<g mask="url(#mask3_124_22)">
<path opacity="0.2" d="M233.676 161.381C230.829 163.979 224.087 169.918 217.517 174.132C219.447 168.122 224.735 161.721 224.735 161.721C226.375 161.214 228.692 156.641 228.692 156.641C229.781 157.026 231.325 153.851 231.325 153.851C232.593 154.852 233.304 157.809 233.676 161.381Z" fill="black" fill-opacity="0.7"/>
<path opacity="0.2" d="M211.968 165.967C212.232 163.942 212.038 161.888 211.395 159.938L211.513 160.079C211.513 160.079 212.588 158.521 214.27 156.231C214.746 159.207 214.973 164.197 211.968 165.967Z" fill="black" fill-opacity="0.7"/>
</g>
<path d="M234.241 137.009C227.347 137.105 211.492 160.098 211.492 160.098L201.531 148.554L198.773 143.204C198.773 143.204 197.394 152.825 189.198 150.17C189.198 150.17 196.416 175.427 204.516 178.474C212.616 181.52 235.075 160.098 235.075 160.098L234.241 137.009Z" stroke="#263238" stroke-linecap="round" stroke-linejoin="round"/>
<path d="M305.687 235.941C305.687 235.941 310.051 244.119 310.051 246.043C310.051 247.967 310.781 248.833 314.6 248.833C318.419 248.833 327.871 248.91 329.325 248.281H338.163C340.231 248.281 341.072 246.434 339.804 246.684C338.535 246.934 329.153 244.523 326.602 243.548C324.052 242.573 319.86 241.418 317.599 239.385C315.338 237.352 312.601 229.765 312.601 229.765L305.687 235.941Z" fill="white" stroke="#263238" stroke-linecap="round" stroke-linejoin="round"/>
<path d="M329.325 248.275C329.325 245.889 326.568 247.031 322.432 246.036C319.764 245.395 319.481 244.529 319.481 244.529" stroke="#263238" stroke-linecap="round" stroke-linejoin="round"/>
<path d="M231.435 151.76C231.16 156.43 231.042 161.278 230.842 164.896C230.346 173.638 224.059 199.19 224.059 199.19C224.059 199.19 217.165 203.038 216.821 210.094C216.476 217.149 258.603 237.031 269.902 231.362C281.201 225.692 279.684 209.221 279.684 209.221C279.684 209.221 296.408 146.366 289.563 141.312C282.717 136.258 280.408 136.887 262.884 134.629C245.36 132.372 234.241 137.009 234.241 137.009C233.246 137.903 232.55 139.046 232.235 140.299" fill="#6A77B8"/>
<mask id="mask4_124_22" style="mask-type:luminance" maskUnits="userSpaceOnUse" x="216" y="134" width="76" height="99">
<path d="M231.435 151.76C231.16 156.43 231.042 161.278 230.842 164.896C230.346 173.638 224.059 199.19 224.059 199.19C224.059 199.19 217.165 203.038 216.821 210.094C216.476 217.149 258.603 237.031 269.902 231.362C281.201 225.692 279.684 209.221 279.684 209.221C279.684 209.221 296.408 146.366 289.563 141.312C282.717 136.258 280.408 136.887 262.884 134.629C245.36 132.372 234.241 137.009 234.241 137.009C233.246 137.903 232.55 139.046 232.235 140.299" fill="white"/>
</mask>
<g mask="url(#mask4_124_22)">
<path opacity="0.2" d="M279.691 209.183C279.691 209.183 281.214 225.653 269.909 231.323C258.603 236.993 216.455 217.104 216.828 210.055C217.2 203.006 224.059 199.152 224.059 199.152C224.059 199.152 224.68 196.618 225.555 192.879C231.532 196.484 245.154 203.962 254.019 203.141C254.019 203.141 239.26 208.009 229.822 203.827C220.385 199.646 233.745 209.33 236.468 209.176C239.191 209.023 259.513 205.604 263.194 207.381C266.876 209.157 275.058 222.222 275.058 222.222C275.058 222.222 280.022 211.845 278.919 205.476C278.919 205.476 278.774 185.644 281.145 174.048C281.145 174.048 275.472 164.941 281.745 157.866C284.062 155.256 286.571 160.631 288.859 168.449C285.482 187.408 279.691 209.183 279.691 209.183Z" fill="black" fill-opacity="0.7"/>
</g>
<path d="M231.435 151.76C231.16 156.43 231.042 161.278 230.842 164.896C230.346 173.638 224.059 199.19 224.059 199.19C224.059 199.19 217.165 203.038 216.821 210.094C216.476 217.149 258.603 237.031 269.902 231.362C281.201 225.692 279.684 209.221 279.684 209.221C279.684 209.221 296.408 146.366 289.563 141.312C282.717 136.258 280.408 136.887 262.884 134.629C245.36 132.372 234.241 137.009 234.241 137.009C233.246 137.903 232.55 139.046 232.235 140.299" stroke="#263238" stroke-linecap="round" stroke-linejoin="round"/>
<path d="M222.963 205.187C221.902 205.059 219.027 206.752 219.027 206.752C219.027 206.752 172.536 195.643 165.546 199.171C151.517 206.226 158.997 220.189 161.906 224.185C164.815 228.18 207.735 247.095 222.632 247.454C237.529 247.813 264.856 243.984 270.199 235.819C275.541 227.654 270.074 218.598 262.615 211.953C255.032 205.187 240.156 211.107 235.041 209.754C228.506 208.009 226.21 205.565 222.963 205.187Z" fill="#263238"/>
<path d="M261.85 243.189L262.54 245.979C262.54 245.979 260.713 250.808 252.668 251.591C244.623 252.373 239.866 254.041 236.006 254.252C233.969 254.4 231.922 254.37 229.891 254.163L229.105 253.098L261.85 243.189Z" fill="white" stroke="#263238" stroke-linecap="round" stroke-linejoin="round"/>
<path d="M215.173 242.894L229.105 253.098C235.826 252.567 242.503 251.639 249.097 250.321C255.694 248.897 261.457 246.857 261.774 244.067C262.257 239.815 257.383 238.654 251.579 238.821C250.496 238.821 249.386 238.917 248.263 239.026C238.977 239.956 227.182 235.178 227.182 235.178L215.173 242.894Z" fill="#6A77B8"/>
<mask id="mask5_124_22" style="mask-type:luminance" maskUnits="userSpaceOnUse" x="215" y="235" width="47" height="19">
<path d="M215.173 242.894L229.105 253.098C235.826 252.567 242.503 251.639 249.097 250.321C255.694 248.897 261.457 246.857 261.774 244.067C262.257 239.815 257.383 238.654 251.579 238.821C250.496 238.821 249.386 238.917 248.263 239.026C238.977 239.956 227.182 235.178 227.182 235.178L215.173 242.894Z" fill="white"/>
</mask>
<g mask="url(#mask5_124_22)">
<path opacity="0.2" d="M261.761 243.933C259.056 244.869 256.46 246.057 254.012 247.48C254.012 247.48 241.073 253.675 221.191 247.294L215.166 242.894L227.161 235.139C227.161 235.139 238.956 239.911 248.242 238.988C249.366 238.879 250.476 238.802 251.558 238.783C257.314 238.616 262.16 239.757 261.761 243.933Z" fill="black" fill-opacity="0.7"/>
</g>
<path d="M215.173 242.894L229.105 253.098C235.826 252.567 242.503 251.639 249.097 250.321C255.694 248.897 261.457 246.857 261.774 244.067C262.257 239.815 257.383 238.654 251.579 238.821C250.496 238.821 249.386 238.917 248.263 239.026C238.977 239.956 227.182 235.178 227.182 235.178L215.173 242.894Z" stroke="#263238" stroke-linecap="round" stroke-linejoin="round"/>
<path d="M228.154 246.902C225.645 247.281 228.402 252.065 231.808 250.609C235.213 249.153 230.67 246.524 228.154 246.902Z" fill="white"/>
<mask id="mask6_124_22" style="mask-type:luminance" maskUnits="userSpaceOnUse" x="227" y="246" width="7" height="5">
<path d="M228.154 246.902C225.645 247.281 228.402 252.065 231.808 250.609C235.213 249.153 230.67 246.524 228.154 246.902Z" fill="white"/>
</mask>
<g mask="url(#mask6_124_22)">
<path opacity="0.2" d="M232.869 249.84C231.05 249.633 229.244 249.34 227.457 248.961C226.975 248.025 227.085 247.037 228.147 246.902C230.263 246.581 233.806 248.39 232.869 249.84Z" fill="black" fill-opacity="0.7"/>
</g>
<path d="M228.154 246.902C225.645 247.281 228.402 252.065 231.808 250.609C235.213 249.153 230.67 246.524 228.154 246.902Z" stroke="#263238" stroke-linecap="round" stroke-linejoin="round"/>
<path d="M249.097 250.282C255.694 248.858 261.457 246.819 261.774 244.029C262.257 239.777 257.383 238.616 251.579 238.782C251.303 238.988 245.65 244.067 249.097 250.282Z" fill="white"/>
<mask id="mask7_124_22" style="mask-type:luminance" maskUnits="userSpaceOnUse" x="247" y="238" width="15" height="13">
<path d="M249.097 250.282C255.694 248.858 261.457 246.819 261.774 244.029C262.257 239.777 257.383 238.616 251.579 238.782C251.303 238.988 245.65 244.067 249.097 250.282Z" fill="white"/>
</mask>
<g mask="url(#mask7_124_22)">
<path opacity="0.2" d="M261.761 243.933C259.056 244.869 256.46 246.057 254.012 247.479C252.269 248.229 250.443 248.797 248.566 249.173C246.339 243.477 251.324 238.994 251.558 238.782C257.314 238.616 262.16 239.757 261.761 243.933Z" fill="black" fill-opacity="0.7"/>
</g>
<path d="M249.097 250.282C255.694 248.858 261.457 246.819 261.774 244.029C262.257 239.777 257.383 238.616 251.579 238.782C251.303 238.988 245.65 244.067 249.097 250.282Z" stroke="#263238" stroke-linecap="round" stroke-linejoin="round"/>
<path d="M244.368 245.004H244.409C244.586 245.004 244.757 244.941 244.885 244.827C245.013 244.714 245.09 244.559 245.099 244.394C245.236 241.714 247.456 239.539 247.477 239.514C247.588 239.389 247.643 239.23 247.633 239.068C247.623 238.906 247.548 238.754 247.422 238.642C247.297 238.53 247.13 238.467 246.956 238.464C246.782 238.462 246.614 238.52 246.484 238.628C246.374 238.731 243.885 241.162 243.727 244.33C243.717 244.498 243.779 244.663 243.899 244.789C244.019 244.915 244.187 244.992 244.368 245.004Z" fill="white" stroke="#263238" stroke-linecap="round" stroke-linejoin="round"/>
<path d="M241.61 245.158H241.665C241.848 245.158 242.024 245.09 242.153 244.97C242.282 244.85 242.355 244.686 242.355 244.516C242.417 241.81 244.423 239.469 244.464 239.443C244.567 239.311 244.612 239.147 244.59 238.985C244.568 238.823 244.48 238.676 244.345 238.572C244.209 238.468 244.037 238.416 243.862 238.427C243.687 238.437 243.523 238.509 243.403 238.628C241.98 240.312 241.135 242.354 240.976 244.491C240.968 244.657 241.03 244.819 241.149 244.943C241.267 245.068 241.432 245.145 241.61 245.158Z" fill="white" stroke="#263238" stroke-linecap="round" stroke-linejoin="round"/>
<path d="M238.308 244.837C238.49 244.851 238.671 244.798 238.81 244.688C238.95 244.579 239.037 244.423 239.053 244.253C239.267 242.009 241.321 239.122 241.342 239.122C241.398 239.053 241.438 238.973 241.46 238.888C241.483 238.803 241.486 238.715 241.47 238.629C241.455 238.543 241.42 238.461 241.369 238.388C241.318 238.315 241.252 238.252 241.174 238.204C241.096 238.155 241.008 238.122 240.916 238.106C240.824 238.09 240.729 238.092 240.638 238.111C240.546 238.131 240.46 238.167 240.384 238.219C240.309 238.27 240.245 238.335 240.197 238.41C240.101 238.539 237.922 241.579 237.681 244.183C237.677 244.346 237.739 244.504 237.856 244.625C237.972 244.747 238.134 244.822 238.308 244.837Z" fill="white" stroke="#263238" stroke-linecap="round" stroke-linejoin="round"/>
<path d="M235.192 244.529C235.254 244.539 235.317 244.539 235.379 244.529C235.559 244.501 235.719 244.407 235.825 244.269C235.931 244.131 235.974 243.959 235.944 243.792C235.454 241.066 238.17 238.731 238.198 238.712C238.334 238.598 238.416 238.438 238.426 238.268C238.436 238.098 238.372 237.931 238.25 237.804C238.127 237.678 237.956 237.601 237.773 237.592C237.59 237.583 237.411 237.642 237.274 237.756C237.143 237.872 233.965 240.578 234.579 244.003C234.605 244.141 234.68 244.267 234.79 244.362C234.901 244.457 235.042 244.516 235.192 244.529Z" fill="white" stroke="#263238" stroke-linecap="round" stroke-linejoin="round"/>
<path d="M231.801 243.772C231.876 243.782 231.953 243.782 232.028 243.772C232.117 243.753 232.2 243.719 232.274 243.67C232.347 243.621 232.41 243.559 232.458 243.487C232.506 243.416 232.539 243.336 232.554 243.253C232.568 243.17 232.566 243.085 232.545 243.003C231.945 240.572 234.517 237.827 234.544 237.801C234.61 237.739 234.662 237.666 234.696 237.585C234.731 237.504 234.747 237.417 234.744 237.33C234.741 237.243 234.719 237.157 234.68 237.078C234.64 237 234.584 236.929 234.514 236.871C234.444 236.813 234.362 236.769 234.274 236.741C234.185 236.714 234.091 236.703 233.998 236.71C233.905 236.718 233.814 236.742 233.731 236.783C233.649 236.824 233.576 236.88 233.517 236.948C233.386 237.083 230.443 240.213 231.201 243.291C231.236 243.419 231.312 243.534 231.419 243.62C231.527 243.706 231.66 243.759 231.801 243.772Z" fill="white" stroke="#263238" stroke-linecap="round" stroke-linejoin="round"/>
<path d="M160.169 238.988L159.169 241.694C159.169 241.694 160.444 246.678 168.351 248.249C176.258 249.82 180.808 251.931 184.627 252.521C186.635 252.868 188.673 253.037 190.714 253.027L191.624 252.014L160.169 238.988Z" fill="white" stroke="#263238" stroke-linecap="round" stroke-linejoin="round"/>
<path d="M206.604 243.285L191.604 252.04C184.986 250.854 178.456 249.28 172.053 247.326C165.649 245.267 160.148 242.676 160.148 239.866C160.148 235.595 165.132 234.915 170.881 235.646C171.957 235.774 173.053 235.96 174.156 236.179C183.283 238.006 195.526 234.415 195.526 234.415L206.604 243.285Z" fill="#6A77B8"/>
<mask id="mask8_124_22" style="mask-type:luminance" maskUnits="userSpaceOnUse" x="160" y="234" width="47" height="19">
<path d="M206.604 243.285L191.604 252.04C184.986 250.854 178.456 249.28 172.053 247.326C165.649 245.267 160.148 242.676 160.148 239.866C160.148 235.595 165.132 234.915 170.881 235.646C171.957 235.774 173.053 235.96 174.156 236.179C183.283 238.006 195.526 234.415 195.526 234.415L206.604 243.285Z" fill="white"/>
</mask>
<g mask="url(#mask8_124_22)">
<path opacity="0.2" d="M206.604 243.285L197.78 248.416C190.626 246.354 184.354 242.245 179.857 236.672C185.173 236.566 190.45 235.798 195.547 234.389L206.604 243.285Z" fill="black" fill-opacity="0.7"/>
</g>
<path d="M206.604 243.285L191.604 252.04C184.986 250.854 178.456 249.28 172.053 247.326C165.649 245.267 160.148 242.676 160.148 239.866C160.148 235.595 165.132 234.915 170.881 235.646C171.957 235.774 173.053 235.96 174.156 236.179C183.283 238.006 195.526 234.415 195.526 234.415L206.604 243.285Z" stroke="#263238" stroke-linecap="round" stroke-linejoin="round"/>
<path d="M172.053 247.326C165.649 245.267 160.148 242.676 160.148 239.866C160.148 235.595 165.132 234.915 170.881 235.646C171.109 235.89 176.127 241.47 172.053 247.326Z" fill="white" stroke="#263238" stroke-linecap="round" stroke-linejoin="round"/>
<path d="M177.334 242.534H177.292C177.202 242.53 177.113 242.508 177.032 242.471C176.95 242.434 176.877 242.383 176.817 242.32C176.757 242.257 176.71 242.183 176.681 242.103C176.651 242.023 176.639 241.939 176.644 241.855C176.81 239.18 174.852 236.794 174.831 236.775C174.776 236.708 174.735 236.632 174.711 236.551C174.687 236.47 174.68 236.385 174.691 236.301C174.702 236.217 174.731 236.137 174.776 236.063C174.821 235.99 174.881 235.926 174.952 235.874C175.024 235.822 175.105 235.784 175.193 235.761C175.28 235.739 175.371 235.733 175.461 235.743C175.551 235.754 175.638 235.78 175.717 235.822C175.796 235.864 175.865 235.919 175.921 235.986C176.017 236.095 178.216 238.763 177.989 241.925C177.98 242.084 177.909 242.235 177.788 242.347C177.667 242.46 177.505 242.527 177.334 242.534Z" fill="white" stroke="#263238" stroke-linecap="round" stroke-linejoin="round"/>
<path d="M180.057 242.958H180.002C179.82 242.943 179.652 242.862 179.534 242.732C179.417 242.602 179.359 242.434 179.374 242.265C179.428 240.415 178.896 238.59 177.844 237.019C177.794 236.948 177.759 236.869 177.742 236.786C177.725 236.703 177.726 236.617 177.744 236.534C177.763 236.451 177.799 236.373 177.85 236.303C177.902 236.233 177.968 236.173 178.044 236.127C178.197 236.035 178.383 236.003 178.561 236.038C178.739 236.073 178.895 236.172 178.995 236.313C180.221 238.124 180.831 240.236 180.746 242.374C180.731 242.534 180.651 242.683 180.524 242.791C180.396 242.899 180.229 242.959 180.057 242.958Z" fill="white" stroke="#263238" stroke-linecap="round" stroke-linejoin="round"/>
<path d="M183.38 242.958C183.197 242.958 183.022 242.89 182.892 242.77C182.763 242.65 182.691 242.486 182.691 242.316C182.732 240.059 181.015 236.999 180.995 236.967C180.95 236.893 180.922 236.81 180.912 236.725C180.902 236.64 180.91 236.554 180.937 236.472C180.963 236.39 181.007 236.314 181.065 236.248C181.123 236.182 181.195 236.128 181.277 236.088C181.358 236.048 181.447 236.024 181.539 236.017C181.63 236.009 181.722 236.019 181.81 236.046C181.897 236.072 181.978 236.114 182.048 236.17C182.117 236.226 182.174 236.294 182.215 236.371C182.291 236.505 184.118 239.751 184.069 242.336C184.064 242.502 183.989 242.661 183.86 242.777C183.731 242.893 183.559 242.958 183.38 242.958Z" fill="white" stroke="#263238" stroke-linecap="round" stroke-linejoin="round"/>
<path d="M186.516 242.958C186.454 242.964 186.392 242.964 186.33 242.958C186.243 242.935 186.161 242.897 186.089 242.846C186.018 242.794 185.958 242.73 185.913 242.656C185.868 242.583 185.839 242.502 185.828 242.419C185.817 242.335 185.823 242.25 185.847 242.169C186.64 239.507 184.2 236.922 184.179 236.897C184.057 236.771 183.993 236.605 184.003 236.435C184.012 236.266 184.092 236.107 184.227 235.992C184.295 235.935 184.373 235.891 184.459 235.862C184.545 235.833 184.636 235.821 184.727 235.825C184.818 235.829 184.907 235.85 184.99 235.886C185.072 235.923 185.146 235.974 185.206 236.037C185.324 236.166 188.178 239.167 187.178 242.509C187.134 242.64 187.046 242.754 186.926 242.835C186.807 242.915 186.664 242.959 186.516 242.958Z" fill="white" stroke="#263238" stroke-linecap="round" stroke-linejoin="round"/>
<path d="M189.97 242.534C189.892 242.534 189.815 242.521 189.742 242.496C189.57 242.441 189.428 242.324 189.348 242.171C189.268 242.018 189.256 241.842 189.315 241.681C190.184 239.328 187.936 236.345 187.936 236.313C187.848 236.175 187.819 236.011 187.855 235.854C187.89 235.697 187.988 235.558 188.128 235.465C188.268 235.371 188.441 235.33 188.612 235.35C188.784 235.369 188.941 235.447 189.053 235.569C189.163 235.717 191.742 239.116 190.639 242.098C190.592 242.228 190.501 242.34 190.381 242.418C190.261 242.497 190.117 242.538 189.97 242.534Z" fill="white" stroke="#263238" stroke-linecap="round" stroke-linejoin="round"/>
<path d="M193.258 246.004C195.712 246.646 192.431 251.135 189.212 249.333C185.992 247.531 190.783 245.401 193.258 246.004Z" fill="white" stroke="#263238" stroke-linecap="round" stroke-linejoin="round"/>
<path d="M258.748 208.567C249.662 207.086 225.527 218.9 210.741 226.769C209.289 226.021 207.906 225.163 206.604 224.204C203.199 221.382 190.204 205.841 181.243 202.288L164.877 222.209C168.565 227.013 179.478 232.317 190.384 236.692C192.327 239.679 194.615 242.46 197.208 244.985C203.902 251.398 206.632 247.8 206.632 247.8C206.632 247.8 210.865 247.358 217.11 246.562C217.365 247.125 217.813 247.593 218.385 247.892C218.956 248.192 219.619 248.306 220.268 248.217C221.081 248.095 222.646 247.018 224.404 245.587C240.176 243.381 261.574 239.7 267.358 235.364C276.782 228.296 266.807 209.876 258.748 208.567Z" fill="#263238"/>
<path d="M283.138 151.76C281.428 156.891 281.29 164.242 282.69 169.976C282.69 169.976 288.811 195.169 289.583 200.653C290.355 206.136 300.689 227.443 301.234 234.408L305.997 240.784C305.997 240.784 312.96 240.296 317.599 235.383L314.325 228.629C314.325 228.629 311.326 218.246 310.237 216.802C309.147 215.359 305.563 195.772 304.356 192.571C303.15 189.371 295.898 146.713 289.57 141.261C289.57 141.261 287.881 141.133 287.191 142.371" fill="#6A77B8"/>
<path d="M283.138 151.76C281.428 156.891 281.29 164.242 282.69 169.976C282.69 169.976 288.811 195.169 289.583 200.653C290.355 206.136 300.689 227.443 301.234 234.408L305.997 240.783C305.997 240.783 312.96 240.296 317.599 235.383L314.325 228.629C314.325 228.629 311.326 218.246 310.237 216.802C309.147 215.359 305.563 195.772 304.356 192.571C303.15 189.371 295.898 146.713 289.57 141.261C289.57 141.261 287.881 141.133 287.191 142.371" stroke="#263238" stroke-linecap="round" stroke-linejoin="round"/>
<path d="M191.107 232.863C194.334 231.618 198.966 232.863 198.966 232.863C198.966 232.863 214.18 226.699 224.604 220.83C235.027 214.962 249.965 210.568 249.965 210.568C255.694 210.19 258.417 210.312 261.147 213.134" stroke="white" stroke-linecap="round" stroke-linejoin="round"/>
<path d="M268.103 229.758C268.103 229.758 268.179 234.055 261.63 237.038" stroke="white" stroke-linecap="round" stroke-linejoin="round"/>
<path d="M195.83 211.825C195.83 211.825 206.17 218.784 208.238 223.37C210.272 224.165 212.236 225.106 214.112 226.186" stroke="white" stroke-linecap="round" stroke-linejoin="round"/>
<path d="M208.99 217.611C209.753 219.608 209.88 221.769 209.355 223.832" stroke="white" stroke-linecap="round" stroke-linejoin="round"/>
<path d="M206.604 213.095C207.167 213.858 207.663 214.663 208.087 215.5" stroke="white" stroke-linecap="round" stroke-linejoin="round"/>
<path d="M221.329 212.46C221.329 212.46 224.776 216.758 225.651 220.253" stroke="white" stroke-linecap="round" stroke-linejoin="round"/>
<path d="M240.597 238.468C241.886 238.4 243.168 238.254 244.437 238.032" stroke="white" stroke-linecap="round" stroke-linejoin="round"/>
<path d="M208.149 235.383C217.95 237.199 227.893 238.272 237.881 238.59" stroke="white" stroke-linecap="round" stroke-linejoin="round"/>
<path d="M211.513 160.099C212.102 161.155 212.41 162.327 212.41 163.517C212.41 164.707 212.102 165.88 211.513 166.936" stroke="#263238" stroke-linecap="round" stroke-linejoin="round"/>
<path d="M266.152 140.857C261.395 143.602 254.722 145.924 249.731 142.358" stroke="#263238" stroke-linecap="round" stroke-linejoin="round"/>
<path d="M269.909 138.368C269.261 138.882 268.585 139.356 267.896 139.812" stroke="#263238" stroke-linecap="round" stroke-linejoin="round"/>
<path d="M228.995 155.48C229.278 157.924 229.519 160.836 230.932 162.978" stroke="#263238" stroke-linecap="round" stroke-linejoin="round"/>
<path d="M228.692 151.946C228.692 152.588 228.781 153.274 228.836 153.941" stroke="#263238" stroke-linecap="round" stroke-linejoin="round"/>
<path d="M226.127 162.978C226.127 162.978 227.775 164.601 230.891 163.857" stroke="#263238" stroke-linecap="round" stroke-linejoin="round"/>
<path d="M279.146 156.635C279.146 156.635 279.353 167.166 283.138 171.797" stroke="#263238" stroke-linecap="round" stroke-linejoin="round"/>
<path d="M257.604 202.429L260.292 201.833" stroke="#263238" stroke-linecap="round" stroke-linejoin="round"/>
<path d="M224.059 199.171C227.926 199.222 231.373 201.788 234.82 204.353C241.714 208.202 248.607 203.071 255.777 202.782" stroke="#263238" stroke-linecap="round" stroke-linejoin="round"/>
<path d="M277.513 197.144C278.112 201.178 278.774 205.206 279.691 209.183" stroke="#263238" stroke-linecap="round" stroke-linejoin="round"/>
<path d="M276.83 192.167C276.947 193.142 277.078 194.091 277.216 195.085" stroke="#263238" stroke-linecap="round" stroke-linejoin="round"/>
<path d="M239.018 178.127C243.368 185.003 249.614 192.847 258.417 194.803" stroke="#263238" stroke-linecap="round" stroke-linejoin="round"/>
<path d="M234.282 169.321C235.357 171.751 236.588 174.118 237.97 176.408" stroke="#263238" stroke-linecap="round" stroke-linejoin="round"/>
<path d="M290.679 165.409C293.981 172.926 297.352 181.905 303.281 188.05" stroke="#263238" stroke-linecap="round" stroke-linejoin="round"/>
<path d="M288.391 160.099C288.846 161.221 289.321 162.343 289.769 163.466" stroke="#263238" stroke-linecap="round" stroke-linejoin="round"/>
<path d="M299.055 210.401C299.055 210.401 306.962 216.45 310.237 216.815" stroke="#263238" stroke-linecap="round" stroke-linejoin="round"/>
<path d="M312.36 236.082C313.856 235.319 315.621 234.357 316.379 232.875" stroke="#263238" stroke-linecap="round" stroke-linejoin="round"/>
<path d="M306.914 238.308C308.1 237.923 309.265 237.481 310.409 236.993" stroke="#263238" stroke-linecap="round" stroke-linejoin="round"/>
<path d="M198.022 153.338C197.165 154.162 196.059 154.723 194.851 154.948" stroke="#263238" stroke-linecap="round" stroke-linejoin="round"/>
<path d="M201.531 148.554C200.991 149.643 200.338 150.681 199.58 151.651" stroke="#263238" stroke-linecap="round" stroke-linejoin="round"/>
<path d="M268.889 135.604C268.889 135.604 264.063 142.076 255.791 141.191C251.227 140.697 251.696 137.426 251.696 137.426C252.343 137.041 252.83 136.461 253.074 135.784C253.564 134.623 253.764 132.731 252.613 129.774C252.613 129.691 252.551 129.601 252.516 129.517C251.22 126.311 266.834 121.776 266.834 121.776C266.834 121.776 264.952 130.152 268.889 135.604Z" fill="white" stroke="#263238" stroke-linecap="round" stroke-linejoin="round"/>
<path d="M261.326 127.542C261.326 127.542 258.431 134.257 253.054 135.784C253.543 134.623 253.743 132.731 252.592 129.774L261.326 127.542Z" fill="#263238"/>
<path d="M262.753 125.964C263.119 128.844 255.232 133.199 250.613 133.186C248.504 133.186 245.581 129.396 244.34 123.809C243.72 120.987 245.574 118.223 244.071 114.291C242.789 110.93 245.298 100.906 255.935 100.085C271.136 98.911 272.908 114.073 266.172 124.303" fill="white"/>
<path d="M262.753 125.964C263.119 128.844 255.232 133.199 250.613 133.186C248.504 133.186 245.581 129.396 244.34 123.809C243.72 120.987 245.574 118.223 244.071 114.291C242.789 110.93 245.298 100.906 255.935 100.085C271.136 98.911 272.908 114.073 266.172 124.303" stroke="#263238" stroke-linecap="round" stroke-linejoin="round"/>
<path d="M243.761 113.534C244.175 113.003 244.749 112.598 245.41 112.369C246.071 112.141 246.791 112.1 247.477 112.252" stroke="#263238" stroke-linecap="round" stroke-linejoin="round"/>
<path d="M252.544 112.175C252.544 112.175 255.68 111.88 257.59 113.534" stroke="#263238" stroke-linecap="round" stroke-linejoin="round"/>
<path d="M248.297 114.163C248.573 117.081 245.023 121.968 245.912 122.668C246.801 123.367 248.911 122.411 249.731 122.026" stroke="#263238" stroke-linecap="round" stroke-linejoin="round"/>
<path d="M253.819 117.53C253.48 117.53 253.206 117.174 253.206 116.735C253.206 116.296 253.48 115.939 253.819 115.939C254.158 115.939 254.433 116.296 254.433 116.735C254.433 117.174 254.158 117.53 253.819 117.53Z" fill="#263238"/>
<path d="M246.381 117.53C246.042 117.53 245.767 117.174 245.767 116.735C245.767 116.296 246.042 115.939 246.381 115.939C246.72 115.939 246.994 116.296 246.994 116.735C246.994 117.174 246.72 117.53 246.381 117.53Z" fill="#263238"/>
<path d="M248.366 125.772C248.366 125.772 251.978 126.221 253.819 124.444" stroke="#263238" stroke-linecap="round" stroke-linejoin="round"/>
<path d="M253.233 124.919C253.139 125.417 252.888 125.879 252.513 126.245C252.138 126.611 251.654 126.866 251.124 126.978C249.214 127.42 249.283 125.823 249.283 125.823" stroke="#263238" stroke-linecap="round" stroke-linejoin="round"/>
<path d="M258.596 106.556C258.596 106.556 241.686 110.866 239.914 104.209C239.914 104.209 242.989 104.549 246.381 101.098C250.517 96.865 257.231 95.7682 262.891 97.6731C268.551 99.578 268.206 102.336 268.206 102.336C268.206 102.336 271.549 102.746 273.032 106.492C274.514 110.238 272.163 123.469 266.49 126.278L264.918 124.444C264.918 124.444 265.545 120.666 262.85 117.844L261.347 118.204C261.347 118.204 262.981 114.933 261.278 113.15C259.495 111.361 258.533 108.995 258.596 106.556Z" fill="#263238"/>
<path d="M262.884 117.53C262.884 117.53 264.587 112.964 266.765 114.163C268.944 115.362 266.565 124.123 262.884 122.161" fill="white"/>
<path d="M262.884 117.53C262.884 117.53 264.587 112.964 266.765 114.163C268.944 115.362 266.565 124.123 262.884 122.161" stroke="#263238" stroke-linecap="round" stroke-linejoin="round"/>
<path opacity="0.3" d="M262.884 102.849C262.884 102.849 252.371 104.497 249.249 100.566" stroke="white" stroke-linecap="round" stroke-linejoin="round"/>
<path opacity="0.3" d="M256.073 105.132C256.073 105.132 248.766 107.416 243.761 105.132" stroke="white" stroke-linecap="round" stroke-linejoin="round"/>
<path opacity="0.3" d="M265.249 106.146C265.249 106.146 265.352 111.783 270.943 113.534" stroke="white" stroke-linecap="round" stroke-linejoin="round"/>
<path d="M195.057 43.4307V46.4995H195.513V47.9863H194.949V47H192.591V47.9863H192.027V46.4995H192.303C192.41 46.3026 192.512 46.0877 192.608 45.855C192.704 45.6206 192.792 45.3732 192.872 45.1128C192.951 44.8524 193.019 44.5814 193.074 44.2998C193.131 44.0166 193.174 43.7269 193.201 43.4307H195.057ZM194.473 43.9312H193.685C193.665 44.1183 193.632 44.3234 193.584 44.5464C193.539 44.7677 193.482 44.994 193.414 45.2251C193.345 45.4562 193.269 45.6808 193.184 45.8989C193.101 46.117 193.013 46.3172 192.92 46.4995H194.473V43.9312ZM198.426 45.6426C198.426 45.8672 198.396 46.0666 198.338 46.2407C198.279 46.4149 198.194 46.5622 198.082 46.6826C197.969 46.8014 197.834 46.8926 197.676 46.9561C197.518 47.0179 197.34 47.0488 197.142 47.0488C196.956 47.0488 196.786 47.0179 196.631 46.9561C196.477 46.8926 196.342 46.8014 196.229 46.6826C196.116 46.5622 196.029 46.4149 195.967 46.2407C195.905 46.0666 195.875 45.8672 195.875 45.6426C195.875 45.3447 195.926 45.0924 196.028 44.8857C196.132 44.6774 196.281 44.5187 196.473 44.4097C196.665 44.3006 196.893 44.2461 197.159 44.2461C197.408 44.2461 197.627 44.3006 197.818 44.4097C198.008 44.5187 198.157 44.6774 198.265 44.8857C198.372 45.0941 198.426 45.3464 198.426 45.6426ZM196.465 45.6426C196.465 45.8395 196.489 46.008 196.536 46.1479C196.585 46.2879 196.66 46.3953 196.761 46.4702C196.862 46.5435 196.992 46.5801 197.151 46.5801C197.311 46.5801 197.441 46.5435 197.542 46.4702C197.643 46.3953 197.717 46.2879 197.764 46.1479C197.811 46.008 197.835 45.8395 197.835 45.6426C197.835 45.4456 197.811 45.2788 197.764 45.1421C197.717 45.0037 197.643 44.8988 197.542 44.8271C197.441 44.7539 197.31 44.7173 197.149 44.7173C196.911 44.7173 196.738 44.797 196.629 44.9565C196.52 45.116 196.465 45.3447 196.465 45.6426ZM200.838 44.2974V44.749H199.661V47H199.085V44.2974H200.838ZM203.753 45.6426C203.753 45.8672 203.724 46.0666 203.665 46.2407C203.606 46.4149 203.521 46.5622 203.409 46.6826C203.296 46.8014 203.161 46.8926 203.003 46.9561C202.846 47.0179 202.667 47.0488 202.469 47.0488C202.283 47.0488 202.113 47.0179 201.958 46.9561C201.804 46.8926 201.67 46.8014 201.556 46.6826C201.443 46.5622 201.356 46.4149 201.294 46.2407C201.233 46.0666 201.202 45.8672 201.202 45.6426C201.202 45.3447 201.253 45.0924 201.355 44.8857C201.46 44.6774 201.608 44.5187 201.8 44.4097C201.992 44.3006 202.221 44.2461 202.486 44.2461C202.735 44.2461 202.955 44.3006 203.145 44.4097C203.335 44.5187 203.484 44.6774 203.592 44.8857C203.699 45.0941 203.753 45.3464 203.753 45.6426ZM201.792 45.6426C201.792 45.8395 201.816 46.008 201.863 46.1479C201.912 46.2879 201.987 46.3953 202.088 46.4702C202.189 46.5435 202.319 46.5801 202.479 46.5801C202.638 46.5801 202.768 46.5435 202.869 46.4702C202.97 46.3953 203.044 46.2879 203.091 46.1479C203.139 46.008 203.162 45.8395 203.162 45.6426C203.162 45.4456 203.139 45.2788 203.091 45.1421C203.044 45.0037 202.97 44.8988 202.869 44.8271C202.768 44.7539 202.637 44.7173 202.476 44.7173C202.238 44.7173 202.065 44.797 201.956 44.9565C201.847 45.116 201.792 45.3447 201.792 45.6426ZM206.685 44.9907C206.685 45.147 206.637 45.2747 206.541 45.374C206.447 45.4717 206.316 45.536 206.15 45.5669V45.5864C206.328 45.6092 206.476 45.6719 206.595 45.7744C206.714 45.877 206.773 46.0194 206.773 46.2017C206.773 46.3563 206.734 46.4938 206.656 46.6143C206.579 46.7331 206.457 46.8275 206.29 46.8975C206.124 46.9658 205.906 47 205.638 47H204.412V44.2974H205.633C205.835 44.2974 206.014 44.3193 206.172 44.3633C206.332 44.4072 206.457 44.4797 206.548 44.5806C206.639 44.6815 206.685 44.8182 206.685 44.9907ZM206.175 46.1821C206.175 46.0487 206.124 45.9526 206.021 45.894C205.92 45.8354 205.772 45.8062 205.577 45.8062H204.988V46.5776H205.589C205.771 46.5776 205.914 46.5475 206.019 46.4873C206.123 46.4255 206.175 46.3237 206.175 46.1821ZM206.102 45.042C206.102 44.9362 206.062 44.8581 205.982 44.8076C205.902 44.7555 205.777 44.7295 205.606 44.7295H204.988V45.3838H205.528C205.717 45.3838 205.859 45.3569 205.955 45.3032C206.053 45.2479 206.102 45.1608 206.102 45.042ZM209.812 45.6426C209.812 45.8672 209.783 46.0666 209.725 46.2407C209.666 46.4149 209.581 46.5622 209.468 46.6826C209.356 46.8014 209.221 46.8926 209.063 46.9561C208.905 47.0179 208.727 47.0488 208.528 47.0488C208.343 47.0488 208.173 47.0179 208.018 46.9561C207.863 46.8926 207.729 46.8014 207.615 46.6826C207.503 46.5622 207.416 46.4149 207.354 46.2407C207.292 46.0666 207.261 45.8672 207.261 45.6426C207.261 45.3447 207.312 45.0924 207.415 44.8857C207.519 44.6774 207.667 44.5187 207.859 44.4097C208.051 44.3006 208.28 44.2461 208.545 44.2461C208.794 44.2461 209.014 44.3006 209.205 44.4097C209.395 44.5187 209.544 44.6774 209.651 44.8857C209.759 45.0941 209.812 45.3464 209.812 45.6426ZM207.852 45.6426C207.852 45.8395 207.876 46.008 207.923 46.1479C207.972 46.2879 208.047 46.3953 208.147 46.4702C208.248 46.5435 208.379 46.5801 208.538 46.5801C208.698 46.5801 208.828 46.5435 208.929 46.4702C209.03 46.3953 209.104 46.2879 209.151 46.1479C209.198 46.008 209.222 45.8395 209.222 45.6426C209.222 45.4456 209.198 45.2788 209.151 45.1421C209.104 45.0037 209.03 44.8988 208.929 44.8271C208.828 44.7539 208.697 44.7173 208.536 44.7173C208.298 44.7173 208.125 44.797 208.016 44.9565C207.907 45.116 207.852 45.3447 207.852 45.6426ZM211.858 44.2461C212.179 44.2461 212.436 44.3633 212.63 44.5977C212.825 44.832 212.923 45.1803 212.923 45.6426C212.923 45.9486 212.877 46.2065 212.786 46.4165C212.697 46.6248 212.57 46.7827 212.408 46.8901C212.247 46.9959 212.059 47.0488 211.844 47.0488C211.707 47.0488 211.588 47.0309 211.487 46.9951C211.386 46.9593 211.3 46.9129 211.229 46.856C211.157 46.7974 211.097 46.7339 211.048 46.6655H211.014C211.022 46.7306 211.029 46.8031 211.036 46.8828C211.044 46.9609 211.048 47.0326 211.048 47.0977V48.1987H210.472V44.2974H210.94L211.021 44.6709H211.048C211.098 44.5944 211.159 44.5236 211.231 44.4585C211.304 44.3934 211.392 44.3421 211.495 44.3047C211.599 44.2656 211.72 44.2461 211.858 44.2461ZM211.705 44.7148C211.547 44.7148 211.42 44.7466 211.324 44.8101C211.229 44.8719 211.16 44.9655 211.116 45.0908C211.074 45.2161 211.051 45.3732 211.048 45.562V45.6426C211.048 45.8428 211.068 46.0129 211.109 46.1528C211.151 46.2912 211.22 46.397 211.316 46.4702C211.414 46.5418 211.546 46.5776 211.712 46.5776C211.852 46.5776 211.967 46.5394 212.059 46.4629C212.151 46.3864 212.221 46.2773 212.266 46.1357C212.312 45.9941 212.334 45.8273 212.334 45.6353C212.334 45.3439 212.282 45.1177 212.178 44.9565C212.076 44.7954 211.918 44.7148 211.705 44.7148Z" fill="#172D5F"/>
</g>
<defs>
<clipPath id="clip0_124_22">
<rect width="346" height="265" fill="white" transform="matrix(-1 0 0 1 346 0)"/>
</clipPath>
<clipPath id="clip1_124_22">
<rect width="22.289" height="8.77349" fill="white" transform="translate(206.862 98.0327)"/>
</clipPath>
</defs>
</svg>
