<svg width="80" height="75" viewBox="0 0 80 75" fill="none" xmlns="http://www.w3.org/2000/svg">
<path fill-rule="evenodd" clip-rule="evenodd" d="M6 0C2.68629 0 0 2.68629 0 6V69C0 72.3137 2.68629 75 6 75H74C77.3137 75 80 72.3137 80 69V24.7763C80 20.358 76.4183 16.7763 72 16.7763H71C66.5817 16.7763 63 13.1946 63 8.77632V8C63 3.58173 59.4183 0 55 0H6Z" fill="#CDD6E5"/>
<path d="M48.6317 37.468C49.7655 37.468 50.8048 37.468 51.8441 37.468C52.1276 37.468 52.3795 37.4985 52.663 37.5289C53.7338 37.6809 54.5526 37.1336 55.34 36.6168C56.9147 35.6135 58.4264 34.5494 59.9381 33.5157C60.1585 33.3637 60.442 33.2421 60.6939 33.1509C61.1663 32.9685 61.5758 33.0901 61.9537 33.3941C62.3001 33.6982 62.6466 33.9718 63.0245 34.215C63.8433 34.7926 64.1898 34.671 64.9141 34.215C65.481 33.8806 65.9849 33.4245 66.5833 33.1509C66.8982 32.9989 67.3707 33.0293 67.7171 33.1509C68.8509 33.4549 69.9532 33.6677 71.0869 33.0901C71.3704 32.9381 71.6853 32.9077 72.0003 32.8469C72.4412 32.7557 72.9136 32.6341 73.3545 32.5429C73.8269 32.4517 74.2678 32.3604 74.7402 32.33C75.1497 32.2996 75.5906 32.33 76 32.3604C75.5906 32.4213 75.1812 32.5429 74.7717 32.5429C74.2363 32.5429 73.7324 32.6645 73.2285 32.8469C72.7876 32.9989 72.3152 33.0293 71.8743 33.1509C71.6223 33.2117 71.3704 33.2725 71.1499 33.3941C70.4571 33.759 69.7327 33.8502 68.9768 33.759C68.3785 33.6982 67.8431 33.5765 67.2762 33.3941C67.0557 33.3333 66.6778 33.5157 66.4258 33.6373C65.9219 33.911 65.4495 34.2454 65.0086 34.6102C64.0953 35.2791 63.2135 34.9446 62.5206 34.4278C62.1742 34.1846 61.8907 33.911 61.5443 33.6373C61.2608 33.3941 60.8829 33.3941 60.505 33.6677C59.7176 34.215 58.9303 34.7622 58.1114 35.3095C56.9776 36.0391 55.8439 36.7688 54.7416 37.4985C54.7101 37.4985 54.7101 37.5289 54.6786 37.5897C56.0328 37.6809 57.3871 37.7721 58.7098 37.8329C58.7098 37.8633 58.7098 37.9241 58.7098 37.9545C58.3634 37.9545 57.9855 37.9545 57.639 37.9545C56.9147 37.9241 56.1903 37.9241 55.4659 37.8937C55.1825 37.8937 54.899 37.8329 54.6156 37.8329C54.3636 37.8329 54.0802 37.8633 53.8597 37.9545C52.5685 38.5321 51.2772 39.1402 49.8915 39.4746C49.608 39.5354 49.2931 39.5658 48.9782 39.6266C48.4113 39.7178 48.2538 39.353 48.4428 38.8058C48.5058 38.5929 48.6318 38.3497 48.7262 38.1065C48.0019 38.0457 47.4665 38.3497 46.9941 38.8058C46.1122 39.6266 45.4194 40.5995 44.821 41.6028C44.0336 42.9101 43.3408 44.2782 42.5849 45.6159C42.5219 45.7375 42.4589 45.8591 42.4274 45.9807C41.892 45.7983 41.8605 45.7983 42.1125 45.3119C43.1833 43.1229 44.2856 40.9339 45.3564 38.745C45.5453 38.3801 45.7343 38.0457 45.9548 37.7113C45.8918 37.6809 45.8603 37.6809 45.8603 37.6809C42.4904 37.6505 39.0891 37.6201 35.7192 37.6201C34.5539 37.6201 33.3572 37.6505 32.1919 37.6809C31.562 37.7113 30.9321 37.7113 30.3023 37.7721C30.2078 37.7721 30.0818 37.8937 30.0503 37.9849C29.1055 39.5354 28.1922 41.0859 27.2473 42.6061C27.1844 42.7277 27.0899 42.8189 26.9324 42.8797C27.8772 41.1771 28.8535 39.4746 29.8299 37.7721C29.6094 37.8025 29.4519 37.8025 29.2945 37.8025C28.0662 37.8633 26.8379 37.8937 25.6097 37.9545C25.4837 37.9545 25.2947 38.0761 25.2317 38.1977C24.3184 39.6874 23.4366 41.2075 22.4603 42.6669C21.358 44.3694 20.2242 46.0415 18.9959 47.6529C18.0826 48.8385 16.9173 49.8114 15.5001 50.4803C14.7757 50.8147 13.9884 51.0275 13.1695 50.9971C11.6578 50.9667 10.4611 50.2979 9.61073 49.1122C8.76039 47.9873 8.35097 46.7104 8.09902 45.3423C7.87856 44.2478 8.00453 43.1837 8.69739 42.2716C9.23279 41.542 9.95716 41.0251 10.776 40.5995C12.7601 39.5962 14.9332 38.9882 17.1378 38.5321C18.2716 38.2889 19.4368 38.0761 20.5706 37.8937C21.358 37.7721 22.1768 37.7417 22.9957 37.6505C23.594 37.5897 24.2239 37.5593 24.8223 37.4985C24.9168 37.4985 25.0113 37.4072 25.0743 37.316C25.5467 36.5256 26.0191 35.7655 26.4915 34.9751C27.4048 33.4245 28.3181 31.874 29.2945 30.3539C29.9558 29.3202 30.6487 28.3169 31.3416 27.3136C31.562 27.0096 31.8455 26.736 32.1289 26.432C32.3809 26.1584 32.7273 26.0063 33.0107 26.1584C33.2312 26.28 33.4831 26.584 33.4831 26.7968C33.5461 27.4961 33.5461 28.2257 33.5146 28.9554C33.4202 30.2323 33.0422 31.4484 32.5698 32.6037C32.0659 33.8198 31.4675 35.0359 30.9321 36.2215C30.8062 36.5256 30.6487 36.8296 30.4597 37.1944C31.1211 37.1032 31.7825 37.4072 32.3179 37.012C32.8848 36.6168 33.3257 36.0695 33.8296 35.5831C34.1445 35.2791 34.3965 34.9142 34.6799 34.5798C34.9319 34.7014 34.9004 34.671 34.8059 34.8838C34.5225 35.4615 34.239 36.0695 33.9556 36.6472C33.9241 36.7384 33.9556 36.9512 34.0185 36.9816C34.113 37.0424 34.302 37.012 34.3965 36.9208C34.8689 36.4648 35.3413 36.0087 35.7822 35.5223C36.0656 35.2183 36.3176 34.8534 36.6011 34.4886C36.6955 34.5798 36.79 34.6406 36.79 34.671C36.5066 35.3399 36.1916 35.9783 35.9397 36.6168C35.8767 36.7384 35.9397 36.8904 35.9712 37.0424C36.1601 37.012 36.4121 37.0728 36.5381 36.9512C36.979 36.4952 37.3884 36.0391 37.7978 35.5527C38.0498 35.2487 38.2072 34.8839 38.3962 34.519C38.8056 34.6102 38.8371 34.6406 38.6482 35.0055C38.4592 35.4007 38.2702 35.8263 38.1128 36.252C38.0813 36.3432 38.0813 36.4648 38.0813 36.5864C38.0813 36.86 38.3017 37.012 38.5222 36.8296C38.9631 36.4952 39.404 36.0999 39.8134 35.7047C40.0969 35.4007 40.3173 35.0055 40.6008 34.671C40.6638 34.6102 40.8527 34.5494 40.9157 34.5798C41.0102 34.6406 41.1047 34.7926 41.0732 34.8838C40.9787 35.3399 40.8527 35.7959 40.7582 36.2824C40.7267 36.4344 40.7582 36.5864 40.7582 36.7688C41.3881 36.6168 41.6401 36.1303 41.955 35.7655C42.333 35.3703 42.6479 34.9447 42.9628 34.519C43.0888 34.367 43.2463 34.2758 43.4037 34.4278C43.4982 34.519 43.5612 34.7014 43.5297 34.823C43.4038 35.2487 43.2463 35.6743 43.1203 36.0999C43.0573 36.2824 43.0573 36.4648 43.0258 36.6472C43.0573 36.6776 43.0888 36.708 43.1518 36.7384C43.5612 36.3432 44.0021 35.9175 44.4116 35.5223C44.632 35.3095 44.821 35.0663 45.0729 34.9142C45.2304 34.7926 45.5768 34.671 45.6713 34.7622C45.8603 34.8838 45.9548 35.1575 46.0177 35.4007C46.0807 35.7655 46.0177 36.1303 46.0807 36.4952C46.1122 36.6776 46.2697 36.8296 46.3642 37.012C46.4902 36.8904 46.6161 36.7384 46.6791 36.6168C47.3405 35.4919 47.9704 34.367 48.6632 33.2725C49.6711 31.722 50.7733 30.2019 51.8441 28.7122C52.285 28.0737 52.8204 27.4961 53.3558 26.9488C54.4896 25.7935 55.8124 24.9423 57.5445 25.0031C58.6153 25.0335 59.3082 25.6415 59.3712 26.7664C59.4342 28.0129 58.9303 29.077 58.3634 30.1411C57.7335 31.2964 56.8832 32.33 55.8753 33.2117C54.836 34.1542 53.7338 34.9447 52.5055 35.5831C51.2143 36.2824 49.986 36.8296 48.6317 37.468ZM24.6648 38.0457C23.909 38.1065 23.2161 38.1977 22.4917 38.2585C21.7674 38.3193 21.043 38.3801 20.3502 38.5017C19.0274 38.7449 17.7047 38.9882 16.4134 39.2922C14.3978 39.7482 12.4137 40.3259 10.6185 41.39C9.67372 41.9372 8.91785 42.6669 8.6344 43.7309C8.47693 44.4302 8.57142 45.0991 8.76039 45.7679C9.13831 47.136 9.57923 48.4433 10.713 49.4466C11.7208 50.2979 12.8231 50.6019 14.1458 50.3283C15.4686 50.0242 16.5709 49.325 17.4527 48.3825C18.3975 47.44 19.2479 46.376 20.0037 45.3119C21.1375 43.6701 22.1768 41.9676 23.2791 40.2955C23.783 39.5658 24.1924 38.8362 24.6648 38.0457ZM46.9941 37.1032C46.9941 37.1336 47.0256 37.164 47.0256 37.1944C47.3405 37.1032 47.6554 37.0424 47.9704 36.9512C49.3246 36.556 50.6159 35.9783 51.8441 35.3095C53.5448 34.367 55.151 33.2725 56.4108 31.7828C57.576 30.4147 58.4579 28.8946 58.7413 27.1008C58.8358 26.5536 58.4264 25.8543 57.8595 25.7023C56.9147 25.4591 56.0328 25.7631 55.2455 26.2192C54.3951 26.6752 53.7338 27.3441 53.1354 28.1041C52.411 29.0162 51.6237 29.8979 50.9623 30.8707C50.0805 32.0868 49.2931 33.3333 48.4743 34.6102C47.9704 35.4007 47.498 36.252 46.9941 37.1032ZM25.6411 37.4985C26.0506 37.4681 26.3655 37.4072 26.7119 37.4072C27.6883 37.3768 28.6331 37.3464 29.6094 37.3464C29.9243 37.3464 30.0818 37.2552 30.2078 36.9816C30.3967 36.556 30.6487 36.1303 30.8376 35.6743C31.4045 34.3366 32.0344 33.0293 32.4753 31.6612C32.8533 30.5363 33.0422 29.3506 33.2312 28.1649C33.2942 27.7393 33.1682 27.2832 33.0737 26.8576C33.0107 26.5536 32.8218 26.5232 32.5698 26.7056C32.5068 26.736 32.4438 26.7968 32.4123 26.8576C31.8455 27.6177 31.2156 28.3473 30.7117 29.1378C29.9243 30.3539 29.1685 31.6308 28.4126 32.8773C27.4678 34.3974 26.586 35.9175 25.6411 37.4985ZM48.9467 39.201C50.8993 38.745 52.537 38.1673 52.8834 37.8025C51.6552 37.8025 50.4584 37.8025 49.3561 37.8025C49.2301 38.2585 49.1041 38.7146 48.9467 39.201ZM45.4823 37.2248C45.4194 36.6168 45.3879 36.0391 45.3249 35.4919C44.758 36.0695 44.1596 36.6472 43.5927 37.2248C44.2226 37.2248 44.884 37.2248 45.4823 37.2248ZM47.8129 37.6809C47.6239 37.6809 47.435 37.6809 47.2775 37.6809C47.057 37.7113 46.7421 37.6809 46.6476 37.8025C46.3642 38.1977 46.1437 38.6537 45.9233 39.0794C46.5531 38.5929 47.0256 37.9545 47.8129 37.6809ZM42.4904 36.0087C42.1125 36.404 41.7661 36.7688 41.3566 37.164C41.7976 37.1944 42.1755 37.2248 42.4904 37.2552C42.4904 36.8296 42.4904 36.4344 42.4904 36.0087ZM33.5461 37.1336C33.6721 36.708 33.7666 36.3128 33.8611 35.9479C33.8296 35.9175 33.8296 35.9175 33.7981 35.8871C33.3887 36.3432 32.9792 36.7992 32.6328 37.2248C32.8848 37.1944 33.2627 37.164 33.5461 37.1336ZM40.1284 36.1607C39.8134 36.4952 39.4985 36.7992 39.1835 37.1336C39.5615 37.1336 39.9394 37.1336 40.2858 37.1336C40.2228 36.8296 40.1914 36.4952 40.1284 36.1607ZM35.5303 36.4952C35.2783 36.708 35.0578 36.9208 34.8059 37.1336C35.0578 37.1336 35.2783 37.1336 35.4673 37.1336C35.4988 36.9512 35.5303 36.7384 35.5303 36.4952ZM37.5774 36.708C37.4514 36.8296 37.3254 36.9816 37.1679 37.164C37.3884 37.164 37.5774 37.164 37.7348 37.164C37.6718 36.9816 37.6089 36.86 37.5774 36.708Z" fill="#172D5F"/>
<g clip-path="url(#clip0_156_1836)">
<path fill-rule="evenodd" clip-rule="evenodd" d="M68.8873 3.83614C69.0704 3.65549 69.3671 3.65549 69.5502 3.83614L76.1127 10.3123C76.2958 10.4929 76.2958 10.7858 76.1127 10.9665C75.9296 11.1471 75.6329 11.1471 75.4498 10.9665L68.8873 4.49033C68.7042 4.30968 68.7042 4.01679 68.8873 3.83614Z" fill="#21272A" stroke="#33363B" stroke-width="32" stroke-linecap="round" stroke-linejoin="round"/>
<path fill-rule="evenodd" clip-rule="evenodd" d="M76.1127 3.83614C76.2958 4.01679 76.2958 4.30968 76.1127 4.49033L69.5502 10.9665C69.3671 11.1471 69.0704 11.1471 68.8873 10.9665C68.7042 10.7858 68.7042 10.4929 68.8873 10.3123L75.4498 3.83614C75.6329 3.65549 75.9296 3.65549 76.1127 3.83614Z" fill="#21272A" stroke="#33363B" stroke-width="32" stroke-linecap="round" stroke-linejoin="round"/>
<circle cx="72.5" cy="7.5" r="7.25" stroke="#33363B" stroke-width="0.5"/>
</g>
<defs>
<clipPath id="clip0_156_1836">
<rect width="15" height="15" fill="white" transform="translate(65)"/>
</clipPath>
</defs>
</svg>
