<svg width="80" height="75" viewBox="0 0 80 75" fill="none" xmlns="http://www.w3.org/2000/svg">
<path fill-rule="evenodd" clip-rule="evenodd" d="M6 0C2.68629 0 0 2.68629 0 6V69C0 72.3137 2.68629 75 6 75H74C77.3137 75 80 72.3137 80 69V24.7763C80 20.358 76.4183 16.7763 72 16.7763H71C66.5817 16.7763 63 13.1946 63 8.77632V8C63 3.58173 59.4183 0 55 0H6Z" fill="#CDD6E5"/>
<g clip-path="url(#clip0_156_1822)">
<path fill-rule="evenodd" clip-rule="evenodd" d="M68.8873 3.83614C69.0704 3.65549 69.3671 3.65549 69.5502 3.83614L76.1127 10.3123C76.2958 10.4929 76.2958 10.7858 76.1127 10.9665C75.9296 11.1471 75.6329 11.1471 75.4498 10.9665L68.8873 4.49033C68.7042 4.30968 68.7042 4.01679 68.8873 3.83614Z" fill="#21272A" stroke="#33363B" stroke-width="32" stroke-linecap="round" stroke-linejoin="round"/>
<path fill-rule="evenodd" clip-rule="evenodd" d="M76.1127 3.83614C76.2958 4.01679 76.2958 4.30968 76.1127 4.49033L69.5502 10.9665C69.3671 11.1471 69.0704 11.1471 68.8873 10.9665C68.7042 10.7858 68.7042 10.4929 68.8873 10.3123L75.4498 3.83614C75.6329 3.65549 75.9296 3.65549 76.1127 3.83614Z" fill="#21272A" stroke="#33363B" stroke-width="32" stroke-linecap="round" stroke-linejoin="round"/>
<circle cx="72.5" cy="7.5" r="7.25" stroke="#33363B" stroke-width="0.5"/>
</g>
<path d="M37.9113 36.5094C37.7532 35.3102 37.5951 34.3717 37.437 33.381C37.3316 32.7553 37.3316 32.4947 37.437 32.5468C37.5951 33.2246 38.0167 34.6324 38.2275 35.5187C42.7597 28.2193 48.5566 22.3797 55.8818 18C53.563 20.8155 51.4551 23.7874 49.7687 27.0722C48.2404 30.0963 46.9756 33.1725 45.8162 36.4051L49.3998 35.5187C49.5579 35.4666 49.5579 35.4666 49.4525 35.5709C48.2931 36.5094 46.9756 37.2914 46.2378 38.8035C46.4486 38.7513 46.6067 38.7513 46.7121 38.6471C47.2918 38.2821 47.9242 37.9171 48.5039 37.5C48.662 37.3957 48.8201 37.2914 48.9255 37.135C49.5052 36.0922 50.1903 35.7794 50.5592 35.988C50.8754 36.5615 49.6106 36.8743 49.3471 37.6043C50.2957 37.865 49.9268 37.2393 51.7185 36.7179C51.7712 36.9786 51.6132 37.0829 51.5605 37.2914C51.4551 37.6564 51.5078 37.3436 51.3497 38.3342C51.3497 38.3864 51.982 38.3864 52.0874 38.3342C52.509 38.1778 52.6671 38.0735 52.8252 37.5521C53.036 37.0307 53.4049 36.5094 53.6684 36.3008C53.7738 36.1965 53.8792 36.1444 54.09 36.1444C54.1954 36.1444 54.2481 36.1965 54.2481 36.2487C53.9846 36.7701 53.7211 37.3436 53.5103 37.865C53.2995 38.1778 53.4049 38.1257 53.563 37.9171C54.1954 37.3957 54.8278 36.9265 55.4602 36.4051C56.9358 35.2059 57.8844 33.5896 58.7803 32.0254C59.4653 30.8262 60.3085 29.7313 61.099 28.6364C61.2044 28.4799 61.3625 28.3757 61.626 28.3235C61.5733 28.5321 61.5733 28.7928 61.4152 28.9492C60.2558 30.7741 58.991 32.4947 57.9371 34.3717C57.0412 35.988 56.4088 37.7086 55.671 39.377C55.4602 39.8463 55.3021 40.3155 55.1967 40.8369C56.6196 38.4385 58.2006 36.0922 60.1504 34.111C60.3612 33.9545 60.4666 33.9024 60.3612 34.2674C59.9923 34.9452 59.6234 35.7794 59.2018 36.6136L60.8882 35.7273C60.8882 35.7273 60.9409 35.6751 60.9409 35.7273L60.4666 37.135C60.3085 37.3957 60.3085 37.5 60.6247 37.2393C61.2044 36.8222 61.7314 36.4572 62.3638 35.988C62.6273 35.9358 62.4692 36.1444 62.4165 36.2487C62.0476 37.3957 62.68 37.9171 63.5759 37.9171C65.1042 37.9171 66.6324 37.7607 68.108 37.6564C68.7404 37.6043 69.3201 37.5 69.9525 37.4479C71.4281 37.1872 71.2173 37.1872 70.1106 37.5521C69.8471 37.6564 69.6363 37.7086 69.1093 37.7607C68.3188 37.9171 65.4731 38.2299 63.734 38.3342C62.7854 38.3864 62.2057 37.9171 61.8895 36.9786C61.8895 36.8743 61.7841 36.8743 61.5206 37.0829C61.3098 37.2393 60.4666 37.7607 60.2031 37.7607C60.1504 37.7607 60.045 37.7086 60.045 37.6564L60.4139 36.4572L58.9384 37.2914C58.8857 37.3436 58.7803 37.2914 58.7803 37.2393C58.6749 36.8222 59.2018 36.1965 59.1491 35.9358C57.1993 38.2299 55.5129 41.3583 54.1954 43.9652C54.09 43.9131 53.9846 43.9131 53.9319 43.861C54.1427 43.0267 54.4062 42.1925 54.617 41.3583C54.8805 40.4719 55.1967 39.6377 55.5129 38.7513C55.8291 37.9171 56.198 37.0829 56.5669 36.2487C55.7237 36.9265 54.9332 37.5521 54.09 38.1778C53.7738 38.3864 53.4576 38.6471 53.1414 38.7513C52.5617 38.9078 51.982 39.012 51.4024 38.9599C51.0862 38.9078 50.6119 39.012 50.9281 37.6564C49.0309 38.5428 49.3998 38.0735 48.8201 38.0214C48.7147 38.0214 48.5566 38.1257 48.4512 38.1778C47.6607 38.6471 46.8702 39.1684 46.0797 39.5856C45.9216 39.6898 45.7108 39.6377 45.5 39.6377C45.5 39.4813 45.5 39.2727 45.6054 39.1163C46.027 38.4385 46.027 38.3342 46.5013 37.7086C46.6594 37.5 47.3972 36.8222 47.608 36.7179C48.2931 36.2487 47.6607 36.5094 47.3445 36.6136C46.8175 36.7701 46.2905 36.8743 45.7635 37.135C45.5527 37.2393 45.3419 37.5521 45.2892 37.8128C44.2352 40.9412 43.234 44.1217 42.1273 47.25C40.9679 50.3783 39.8085 53.8195 38.491 56.5829C38.4383 56.7393 38.2802 56.8436 38.1748 57C38.1221 57 38.0167 56.9479 37.964 56.9479C38.0694 54.3409 37.6478 51.7861 36.8047 49.3356C35.9615 46.885 34.8021 44.5909 33.2211 42.5053C31.5347 43.2353 29.901 43.9652 28.2147 44.5909C25.527 45.6337 22.7866 46.5201 19.8882 46.8329C19.2031 46.9372 17.1478 47.1457 15.7776 47.0414C13.7751 46.9372 11.7725 46.5722 10.2969 45.008C9.13752 43.8088 8.76863 42.2968 9.13752 40.7326C9.92801 36.9786 12.563 34.9452 16.0938 34.0067C19.9409 32.9639 23.5244 33.7981 26.7918 35.8837C28.2147 36.7701 29.1633 37.4479 30.3226 38.5949C30.955 39.2206 32.1144 40.4719 32.7995 41.3062C32.8522 41.3583 33.3265 41.8797 33.3792 41.8797C33.4319 41.8797 34.0116 41.619 34.0643 41.5668C37.5951 39.7941 41.1787 38.1257 44.9203 36.8222C45.0784 36.7701 45.2892 36.5094 45.3419 36.3008C46.4486 33.6938 47.5026 31.0348 48.6093 28.4799C50.0322 25.2995 51.9293 22.3797 54.0373 19.6163C52.8779 20.5027 51.6132 21.389 50.5065 22.2754C49.5052 23.0575 48.4512 23.8917 47.5026 24.7781C46.554 25.6644 45.6581 26.6029 44.8149 27.5414C43.9718 28.4799 43.1813 29.4706 42.3381 30.4612M33.1684 41.7233C31.9036 40.4719 29.0579 37.4479 25.4216 35.6751C25.3689 35.6751 23.7352 34.6845 23.1028 34.5281C21.6273 34.111 20.6787 33.6417 16.3046 34.3717C13.3535 35.3102 10.7712 36.7701 9.76991 39.8463C9.08482 41.984 9.87531 44.1217 11.7725 45.2166C13.09 45.9987 14.5655 46.2594 16.0938 46.3636C16.7789 46.4158 17.464 46.3636 18.1491 46.3115C19.4139 46.2072 20.6787 46.0508 21.9434 45.7901C24.0514 45.373 26.1067 44.5909 28.162 43.861C29.901 43.2353 31.3239 42.5053 33.1684 41.7233ZM45.2365 36.8743C41.1787 38.2299 37.5424 40.107 33.8008 41.8275C35.2237 43.9131 36.3831 45.9987 37.1735 48.2406C37.964 50.5348 38.5437 52.8289 38.5437 55.4358C41.2314 49.3877 43.0232 43.131 45.2365 36.8743Z" fill="#0A50F0"/>
<defs>
<clipPath id="clip0_156_1822">
<rect width="15" height="15" fill="white" transform="translate(65)"/>
</clipPath>
</defs>
</svg>
