<svg width="40" height="31" viewBox="0 0 40 31" fill="none" xmlns="http://www.w3.org/2000/svg">
<path d="M0 29C0 12.9837 12.9837 0 29 0H35C37.7614 0 40 2.23858 40 5V26C40 28.7614 37.7614 31 35 31H0V29Z" fill="#CDD6E5"/>
<path d="M13 15C12.4477 15 12 15.4477 12 16C12 16.5523 12.4477 17 13 17V15ZM32.7071 16.7071C33.0976 16.3166 33.0976 15.6834 32.7071 15.2929L26.3431 8.92893C25.9526 8.53841 25.3195 8.53841 24.9289 8.92893C24.5384 9.31946 24.5384 9.95262 24.9289 10.3431L30.5858 16L24.9289 21.6569C24.5384 22.0474 24.5384 22.6805 24.9289 23.0711C25.3195 23.4616 25.9526 23.4616 26.3431 23.0711L32.7071 16.7071ZM13 17L32 17V15L13 15V17Z" fill="#172D5F"/>
</svg>
