<svg width="20" height="20" viewBox="0 0 20 20" fill="none" xmlns="http://www.w3.org/2000/svg">
<path d="M19.75 10C19.75 4.61547 15.3845 0.25 10 0.25C4.61547 0.25 0.25 4.61547 0.25 10C0.25 15.3845 4.61547 19.75 10 19.75C15.3845 19.75 19.75 15.3845 19.75 10ZM8.78125 5.78125C8.78125 5.5402 8.85273 5.30457 8.98665 5.10415C9.12056 4.90373 9.31091 4.74752 9.5336 4.65527C9.7563 4.56303 10.0014 4.53889 10.2378 4.58592C10.4742 4.63294 10.6913 4.74902 10.8618 4.91946C11.0322 5.08991 11.1483 5.30707 11.1953 5.54348C11.2424 5.7799 11.2182 6.02495 11.126 6.24765C11.0337 6.47034 10.8775 6.66069 10.6771 6.7946C10.4767 6.92852 10.241 7 10 7C9.67677 7 9.36677 6.8716 9.13821 6.64304C8.90965 6.41448 8.78125 6.10448 8.78125 5.78125ZM8.78125 10C8.78125 9.75895 8.85273 9.52332 8.98665 9.3229C9.12056 9.12248 9.31091 8.96627 9.5336 8.87402C9.7563 8.78178 10.0014 8.75764 10.2378 8.80467C10.4742 8.85169 10.6913 8.96777 10.8618 9.13821C11.0322 9.30866 11.1483 9.52582 11.1953 9.76223C11.2424 9.99865 11.2182 10.2437 11.126 10.4664C11.0337 10.6891 10.8775 10.8794 10.6771 11.0134C10.4767 11.1473 10.241 11.2188 10 11.2188C9.67677 11.2188 9.36677 11.0903 9.13821 10.8618C8.90965 10.6332 8.78125 10.3232 8.78125 10ZM8.78125 14.2188C8.78125 13.9777 8.85273 13.7421 8.98665 13.5416C9.12056 13.3412 9.31091 13.185 9.5336 13.0928C9.7563 13.0005 10.0014 12.9764 10.2378 13.0234C10.4742 13.0704 10.6913 13.1865 10.8618 13.357C11.0322 13.5274 11.1483 13.7446 11.1953 13.981C11.2424 14.2174 11.2182 14.4624 11.126 14.6851C11.0337 14.9078 10.8775 15.0982 10.6771 15.2321C10.4767 15.366 10.241 15.4375 10 15.4375C9.67677 15.4375 9.36677 15.3091 9.13821 15.0805C8.90965 14.852 8.78125 14.542 8.78125 14.2188Z" fill="#172D5F"/>
</svg>
