<svg width="40" height="31" viewBox="0 0 40 31" fill="none" xmlns="http://www.w3.org/2000/svg">
<path d="M40 29C40 12.9837 27.0163 0 11 0H5C2.23857 0 0 2.23858 0 5V26C0 28.7614 2.23857 31 5 31H40V29Z" fill="#CDD6E5"/>
<path d="M27 15C27.5523 15 28 15.4477 28 16C28 16.5523 27.5523 17 27 17V15ZM7.29289 16.7071C6.90237 16.3166 6.90237 15.6834 7.29289 15.2929L13.6569 8.92893C14.0474 8.53841 14.6805 8.53841 15.0711 8.92893C15.4616 9.31946 15.4616 9.95262 15.0711 10.3431L9.41421 16L15.0711 21.6569C15.4616 22.0474 15.4616 22.6805 15.0711 23.0711C14.6805 23.4616 14.0474 23.4616 13.6569 23.0711L7.29289 16.7071ZM27 17L8 17V15L27 15V17Z" fill="#172D5F"/>
</svg>
