<svg width="22" height="22" viewBox="0 0 22 22" fill="none" xmlns="http://www.w3.org/2000/svg">
<rect width="22" height="22" rx="4" fill="#33363B"/>
<path d="M13.3838 7.67792C12.8534 7.67792 12.333 7.67792 11.8076 7.67792C11.8076 9.88951 11.8076 12.0959 11.8076 14.3075C11.8626 14.3231 11.9176 14.3335 11.9677 14.3491C12.348 14.4376 12.6232 14.807 12.5982 15.2025C12.5681 15.6292 12.2529 15.9779 11.8526 15.9883C11.2872 16.0039 10.7167 16.0039 10.1463 15.9883C9.74098 15.9779 9.43074 15.6292 9.40072 15.2025C9.3757 14.807 9.64591 14.4376 10.0312 14.3491C10.0862 14.3387 10.1413 14.3231 10.1913 14.3127C10.1913 12.1011 10.1913 9.89991 10.1913 7.68312C9.66592 7.68312 9.15053 7.68312 8.62012 7.68312C8.60511 7.75077 8.5901 7.82362 8.57008 7.89647C8.47001 8.27114 8.13976 8.51572 7.76947 8.50011C7.40419 8.4845 7.06894 8.2087 7.02891 7.82362C6.99388 7.45936 6.98887 7.07949 7.0239 6.71522C7.05893 6.28331 7.39919 6.00231 7.82451 6.00231C8.78024 5.99711 9.73598 6.00231 10.6917 6.00231C11.8276 6.00231 12.9634 6.00231 14.0993 6.00231C14.6697 6.00231 14.995 6.33535 15 6.92858C15 7.14714 15 7.3709 15 7.58945C14.995 8.09422 14.7048 8.45327 14.2694 8.4949C13.8341 8.53653 13.4888 8.23472 13.3988 7.74036C13.3988 7.71955 13.3938 7.70394 13.3838 7.67792Z" fill="white"/>
</svg>
