<svg width="22" height="16" viewBox="0 0 22 16" fill="none" xmlns="http://www.w3.org/2000/svg">
<path d="M20.6249 16H1.37501C0.615584 16 0 15.403 0 14.6667C0 13.9303 0.615584 13.3333 1.37501 13.3333H20.625C21.3844 13.3333 22 13.9303 22 14.6667C22 15.403 21.3844 16 20.6249 16ZM20.6249 9.33331H1.37501C0.615584 9.33331 0 8.73638 0 8.00002C0 7.26366 0.615584 6.66669 1.37501 6.66669H20.625C21.3844 6.66669 22 7.26362 22 8.00002C22 8.73643 21.3844 9.33331 20.6249 9.33331ZM20.6249 2.66667H1.37501C0.615584 2.66667 0 2.06974 0 1.33334C0 0.59693 0.615584 0 1.37501 0H20.625C21.3844 0 22 0.59693 22 1.33334C22 2.06974 21.3844 2.66667 20.6249 2.66667Z" fill="#172D5F"/>
</svg>
