<svg width="22" height="17" viewBox="0 0 22 17" fill="none" xmlns="http://www.w3.org/2000/svg">
<path d="M19.6401 0H6.68803C6.35267 0.000417722 6.02124 0.0729787 5.71581 0.212853C5.41037 0.352728 5.13794 0.556708 4.91663 0.811219C4.87829 0.855369 4.84462 0.903442 4.81617 0.954656L0.120493 8.06172C0.0416561 8.19404 0 8.34556 0 8.5C0 8.65444 0.0416561 8.80596 0.120493 8.93828L4.80934 16.0342C4.83883 16.0889 4.8741 16.1402 4.91453 16.1872C5.13578 16.4422 5.40832 16.6465 5.71396 16.7867C6.0196 16.9268 6.35131 16.9996 6.68698 17H19.6401C20.2657 16.9993 20.8656 16.7479 21.308 16.301C21.7504 15.8542 21.9993 15.2483 22 14.6163V2.38372C21.9993 1.75173 21.7504 1.14583 21.308 0.698952C20.8656 0.25207 20.2657 0.000703066 19.6401 0ZM16.7405 11.4219C16.8205 11.5004 16.8843 11.5942 16.928 11.6978C16.9718 11.8014 16.9948 11.9128 16.9956 12.0255C16.9964 12.1381 16.975 12.2498 16.9326 12.3541C16.8903 12.4583 16.8279 12.553 16.749 12.6327C16.6701 12.7123 16.5763 12.7753 16.4731 12.8181C16.3699 12.8608 16.2593 12.8823 16.1478 12.8815C16.0362 12.8806 15.9259 12.8574 15.8234 12.8131C15.7208 12.7688 15.628 12.7044 15.5503 12.6236L12.7259 9.775L9.90316 12.6252C9.74518 12.7847 9.53093 12.8744 9.30752 12.8744C9.08411 12.8744 8.86985 12.7847 8.71188 12.6252C8.55391 12.4656 8.46516 12.2492 8.46516 12.0235C8.46516 11.7979 8.55391 11.5814 8.71188 11.4219L11.5336 8.57066L8.70978 5.71838C8.55188 5.55853 8.4633 5.34187 8.46355 5.11606C8.4638 4.89025 8.55284 4.67379 8.71109 4.5143C8.86935 4.3548 9.08384 4.26534 9.3074 4.26559C9.53095 4.26584 9.74525 4.35578 9.90316 4.51562L12.727 7.36844L15.5498 4.51562C15.7077 4.35613 15.9218 4.26653 16.1451 4.26653C16.3684 4.26653 16.5826 4.35613 16.7405 4.51562C16.8984 4.67512 16.9871 4.89144 16.9871 5.117C16.9871 5.34256 16.8984 5.55888 16.7405 5.71838L13.9162 8.57066L16.7405 11.4219Z" fill="#33363B"/>
</svg>
