<svg width="20" height="20" viewBox="0 0 20 20" fill="none" xmlns="http://www.w3.org/2000/svg">
<path fill-rule="evenodd" clip-rule="evenodd" d="M17.0711 17.0711C20.9764 13.1658 20.9764 6.83418 17.0711 2.92893C13.1659 -0.97631 6.83422 -0.976311 2.92898 2.92893C-0.976265 6.83417 -0.976265 13.1658 2.92898 17.0711C6.83422 20.9763 13.1659 20.9763 17.0711 17.0711ZM8.23228 6.46447C7.74412 5.97631 6.95267 5.97631 6.46451 6.46447C5.97636 6.95262 5.97636 7.74408 6.46451 8.23223L8.23228 10L6.46451 11.7678C5.97636 12.2559 5.97636 13.0474 6.46451 13.5355C6.95267 14.0237 7.74412 14.0237 8.23228 13.5355L10 11.7678L11.7678 13.5355C12.256 14.0237 13.0474 14.0237 13.5356 13.5355C14.0237 13.0474 14.0237 12.2559 13.5356 11.7678L11.7678 10L13.5356 8.23223C14.0237 7.74408 14.0237 6.95262 13.5356 6.46447C13.0474 5.97631 12.256 5.97631 11.7678 6.46447L10 8.23223L8.23228 6.46447Z" fill="#21272A"/>
</svg>
