<svg width="22" height="22" viewBox="0 0 22 22" fill="none" xmlns="http://www.w3.org/2000/svg">
<path d="M12.8214 10.6563C12.8553 10.6563 12.8884 10.6463 12.9166 10.6276C12.9448 10.6089 12.9669 10.5822 12.98 10.551C12.9932 10.5198 12.9968 10.4854 12.9904 10.4522C12.9841 10.4189 12.968 10.3883 12.9443 10.3641L9.57559 6.9386C9.55165 6.9143 9.52101 6.89766 9.48759 6.89082C9.45416 6.88398 9.41946 6.88724 9.38789 6.90019C9.35633 6.91314 9.32933 6.93519 9.31034 6.96353C9.29135 6.99187 9.28122 7.02523 9.28125 7.05935V10.1406C9.28125 10.2774 9.33557 10.4085 9.43227 10.5052C9.52897 10.6019 9.66012 10.6563 9.79688 10.6563H12.8214Z" fill="#33363B"/>
<path d="M8.46484 11.4727C8.28836 11.2985 8.14812 11.0912 8.05224 10.8625C7.95637 10.6339 7.90675 10.3885 7.90625 10.1406V6.1875H4.8125C4.08382 6.18965 3.38559 6.48008 2.87034 6.99534C2.35508 7.51059 2.06465 8.20882 2.0625 8.9375V18.5625C2.0625 19.2918 2.35223 19.9913 2.86796 20.507C3.38368 21.0228 4.08315 21.3125 4.8125 21.3125H11C11.7293 21.3125 12.4288 21.0228 12.9445 20.507C13.4603 19.9913 13.75 19.2918 13.75 18.5625V12.0312H9.79688C9.54893 12.0309 9.30353 11.9813 9.07487 11.8855C8.84622 11.7896 8.63888 11.6493 8.46484 11.4727Z" fill="#33363B"/>
<path d="M15.9844 5.15626H19.0089C19.0428 5.15629 19.0759 5.14632 19.1041 5.12759C19.1323 5.10887 19.1544 5.08223 19.1675 5.05102C19.1807 5.01981 19.1843 4.98541 19.1779 4.95216C19.1716 4.9189 19.1555 4.88825 19.1318 4.86407L15.7631 1.4386C15.7391 1.4143 15.7085 1.39766 15.6751 1.39082C15.6417 1.38398 15.607 1.38724 15.5754 1.40019C15.5438 1.41314 15.5168 1.43519 15.4978 1.46353C15.4788 1.49187 15.4687 1.52523 15.4688 1.55935V4.64064C15.4688 4.77739 15.5231 4.90854 15.6198 5.00524C15.7165 5.10194 15.8476 5.15626 15.9844 5.15626Z" fill="#33363B"/>
<path d="M15.9844 6.53125C15.4841 6.52743 15.0055 6.32701 14.6517 5.97328C14.298 5.61954 14.0976 5.14087 14.0938 4.64062V0.6875H9.45312C8.76961 0.688296 8.11431 0.960175 7.63099 1.44349C7.14767 1.92681 6.8758 2.58211 6.875 3.26562V4.8125H8.68484C8.91585 4.81342 9.1444 4.85998 9.35736 4.9495C9.57032 5.03902 9.76349 5.16974 9.92578 5.33414L14.6163 10.1037C14.9435 10.4357 15.1262 10.8836 15.1246 11.3498V17.1875H17.4041C18.801 17.1875 19.9371 16.0308 19.9371 14.6094V6.53125H15.9844Z" fill="#33363B"/>
</svg>
