<svg width="22" height="22" viewBox="0 0 22 22" fill="none" xmlns="http://www.w3.org/2000/svg">
<path d="M10.2339 16.0993C10.3343 16.2002 10.4536 16.2803 10.5851 16.335C10.7165 16.3897 10.8575 16.4178 10.9998 16.4178C11.1422 16.4178 11.2832 16.3897 11.4146 16.335C11.546 16.2803 11.6654 16.2002 11.7658 16.0993L16.3623 11.5027C16.4658 11.4027 16.5483 11.2832 16.6051 11.151C16.6619 11.0189 16.6918 10.8767 16.693 10.7329C16.6943 10.589 16.6669 10.4464 16.6124 10.3132C16.5579 10.1801 16.4775 10.0591 16.3758 9.95741C16.274 9.85569 16.1531 9.77525 16.02 9.72078C15.8868 9.66631 15.7442 9.6389 15.6003 9.64015C15.4565 9.6414 15.3143 9.67129 15.1821 9.72806C15.05 9.78484 14.9304 9.86737 14.8305 9.97084L12.0832 12.7182V6.66667C12.0832 6.37935 11.969 6.1038 11.7659 5.90064C11.5627 5.69748 11.2872 5.58334 10.9998 5.58334C10.7125 5.58334 10.437 5.69748 10.2338 5.90064C10.0306 6.1038 9.9165 6.37935 9.9165 6.66667V12.7182L7.16917 9.97084C7.06924 9.86737 6.9497 9.78484 6.81753 9.72806C6.68535 9.67129 6.5432 9.6414 6.39936 9.64015C6.25551 9.6389 6.11286 9.66631 5.97972 9.72078C5.84658 9.77525 5.72563 9.85569 5.62391 9.95741C5.52219 10.0591 5.44175 10.1801 5.38728 10.3132C5.33281 10.4464 5.3054 10.589 5.30665 10.7329C5.3079 10.8767 5.33778 11.0189 5.39456 11.151C5.45134 11.2832 5.53387 11.4027 5.63734 11.5027L10.2339 16.0993ZM4.49984 0.166672H17.4998C18.6491 0.166672 19.7513 0.623218 20.564 1.43588C21.3766 2.24853 21.8332 3.35073 21.8332 4.50001V17.5C21.8332 18.6493 21.3766 19.7515 20.564 20.5641C19.7513 21.3768 18.6491 21.8333 17.4998 21.8333H4.49984C3.35057 21.8333 2.24837 21.3768 1.43571 20.5641C0.62305 19.7515 0.166504 18.6493 0.166504 17.5V4.50001C0.166504 3.35073 0.62305 2.24853 1.43571 1.43588C2.24837 0.623218 3.35057 0.166672 4.49984 0.166672V0.166672Z" fill="#33363B"/>
</svg>
