<svg width="31" height="31" viewBox="0 0 31 31" fill="none" xmlns="http://www.w3.org/2000/svg">
<path d="M30.3454 13.1402L30.1909 12.4847H15.9421V18.5153H24.4556C23.5717 22.7126 19.4701 24.922 16.1198 24.922C13.6821 24.922 11.1125 23.8966 9.41172 22.2484C8.51439 21.365 7.80012 20.3132 7.3098 19.1533C6.81948 17.9935 6.56275 16.7483 6.5543 15.4891C6.5543 12.9488 7.6959 10.4079 9.35703 8.73652C11.0182 7.06514 13.527 6.12998 16.0214 6.12998C18.8781 6.12998 20.9255 7.64688 21.6911 8.33867L25.9766 4.07578C24.7194 2.97109 21.2659 0.1875 15.8833 0.1875C11.7305 0.1875 7.74854 1.77822 4.83779 4.67939C1.96533 7.53613 0.478516 11.6671 0.478516 15.5C0.478516 19.3329 1.88535 23.2574 4.66895 26.1367C7.64326 29.2074 11.8556 30.8125 16.193 30.8125C20.1394 30.8125 23.88 29.2662 26.546 26.4607C29.1669 23.699 30.5225 19.8777 30.5225 15.8719C30.5225 14.1854 30.3529 13.184 30.3454 13.1402Z" fill="#172D5F"/>
</svg>
