<svg width="19" height="21" viewBox="0 0 19 21" fill="none" xmlns="http://www.w3.org/2000/svg">
<path d="M9.49997 19.5937C14.7467 19.5937 18.9999 15.3404 18.9999 10.0937C18.9999 4.84703 14.7467 0.59375 9.49997 0.59375C4.25328 0.59375 0 4.84703 0 10.0937C0 15.3404 4.25328 19.5937 9.49997 19.5937Z" fill="#AABDE9"/>
<path d="M9.50017 10.0937C12.3502 10.0937 14.6064 7.83748 14.6064 4.98749C14.6064 2.13749 12.3502 0 9.50017 0C6.65018 0 4.39393 2.25624 4.39393 5.10624C4.39393 7.95623 6.65018 10.0937 9.50017 10.0937ZM18.8814 19C17.5751 13.8937 12.3502 10.5687 7.12518 11.9937C3.68143 12.9437 0.950192 15.5562 0.118944 19C0.000194353 19.4749 0.356444 20.0687 0.950192 20.1874H17.9314C18.5251 20.1874 19.0001 19.8312 19.0001 19.1187C18.8814 19.1187 18.8814 19 18.8814 19Z" fill="#172D5F"/>
</svg>
