<svg width="33" height="21" viewBox="0 0 33 21" fill="none" xmlns="http://www.w3.org/2000/svg">
<path fill-rule="evenodd" clip-rule="evenodd" d="M32.1338 2.02344C32.3771 1.25234 32.1338 0.691797 31.0571 0.691797H27.4771C26.5741 0.691797 26.1571 1.18262 25.9138 1.70762C25.9138 1.70762 24.0722 6.19199 21.5005 9.09932C20.6665 9.94014 20.2844 10.2204 19.8325 10.2204C19.5892 10.2204 19.2761 9.94014 19.2761 9.16973V1.98721C19.2761 1.07666 18.9985 0.65625 18.2336 0.65625H12.6035C12.0471 0.65625 11.6998 1.07666 11.6998 1.49707C11.6998 2.37275 12.9856 2.5833 13.1244 5.03535V10.3633C13.1244 11.5192 12.9193 11.7305 12.4641 11.7305C11.2479 11.7305 8.29414 7.21123 6.52226 2.06172C6.17773 1.0418 5.82773 0.65625 4.92402 0.65625H1.30986C0.267383 0.65625 0.09375 1.14639 0.09375 1.67207C0.09375 2.61816 1.30986 7.38213 5.75801 13.6876C8.71182 17.9942 12.9166 20.3089 16.7044 20.3089C18.9985 20.3089 19.2761 19.7832 19.2761 18.9075V15.6495C19.2761 14.5988 19.4846 14.4238 20.2146 14.4238C20.7355 14.4238 21.6741 14.7034 23.7939 16.7706C26.2262 19.2227 26.6432 20.3438 27.9987 20.3438H31.578C32.6205 20.3438 33.1072 19.8181 32.829 18.8022C32.5166 17.7864 31.3347 16.3153 29.8055 14.564C28.9715 13.5837 27.7205 12.4975 27.3384 11.9718C26.8175 11.2711 26.9562 10.9908 27.3384 10.3605C27.3035 10.3605 31.6826 4.12481 32.1338 2.0207" fill="#757575"/>
</svg>
