<svg width="193" height="182" viewBox="0 0 193 182" fill="none" xmlns="http://www.w3.org/2000/svg">
<rect x="55" y="2" width="136" height="177.101" rx="8" fill="white" stroke="#172D5F" stroke-width="4"/>
<path d="M151.257 10.918H171.44C176.963 10.918 181.44 15.3951 181.44 20.918V36.9271" stroke="#172D5F"/>
<line x1="70.9817" y1="33.0371" x2="149.973" y2="33.0371" stroke="#172D5F" stroke-width="2"/>
<line x1="70.9817" y1="50.376" x2="161.532" y2="50.376" stroke="#172D5F" stroke-width="2"/>
<line x1="70.9817" y1="67.0732" x2="171.165" y2="67.0732" stroke="#172D5F" stroke-width="2"/>
<line x1="70.9817" y1="89.5508" x2="171.165" y2="89.5508" stroke="#172D5F" stroke-width="2"/>
<line x1="70.9817" y1="108.816" x2="171.165" y2="108.816" stroke="#172D5F" stroke-width="2"/>
<line x1="70.9817" y1="126.798" x2="141.624" y2="126.798" stroke="#172D5F" stroke-width="2"/>
<line x1="70.9817" y1="141.568" x2="141.624" y2="141.568" stroke="#172D5F" stroke-width="2"/>
<g clip-path="url(#clip0_112_936)">
<rect width="52" height="22" transform="translate(132 150)" fill="white"/>
<path d="M163.268 160.648C164.089 160.648 164.842 160.648 165.595 160.648C165.8 160.648 165.982 160.67 166.188 160.692C166.963 160.802 167.556 160.406 168.126 160.032C169.267 159.306 170.361 158.536 171.456 157.788C171.616 157.678 171.821 157.59 172.004 157.524C172.346 157.392 172.642 157.48 172.916 157.7C173.167 157.92 173.418 158.118 173.691 158.294C174.284 158.712 174.535 158.624 175.06 158.294C175.47 158.052 175.835 157.722 176.268 157.524C176.497 157.414 176.839 157.436 177.09 157.524C177.911 157.744 178.709 157.898 179.53 157.48C179.735 157.37 179.963 157.348 180.191 157.304C180.511 157.238 180.853 157.15 181.172 157.084C181.514 157.018 181.833 156.952 182.175 156.93C182.472 156.908 182.791 156.93 183.088 156.952C182.791 156.996 182.495 157.084 182.198 157.084C181.811 157.084 181.446 157.172 181.081 157.304C180.761 157.414 180.419 157.436 180.1 157.524C179.918 157.568 179.735 157.612 179.575 157.7C179.074 157.964 178.549 158.03 178.002 157.964C177.568 157.92 177.181 157.832 176.77 157.7C176.611 157.656 176.337 157.788 176.154 157.876C175.789 158.074 175.447 158.316 175.128 158.58C174.467 159.064 173.828 158.822 173.326 158.448C173.075 158.272 172.87 158.074 172.619 157.876C172.414 157.7 172.14 157.7 171.867 157.898C171.297 158.294 170.726 158.69 170.133 159.086C169.312 159.614 168.491 160.142 167.693 160.67C167.67 160.67 167.67 160.692 167.647 160.736C168.628 160.802 169.609 160.868 170.567 160.912C170.567 160.934 170.567 160.978 170.567 161C170.316 161 170.042 161 169.791 161C169.267 160.978 168.742 160.978 168.218 160.956C168.012 160.956 167.807 160.912 167.602 160.912C167.419 160.912 167.214 160.934 167.054 161C166.119 161.418 165.184 161.858 164.181 162.1C163.975 162.144 163.747 162.166 163.519 162.21C163.109 162.276 162.995 162.012 163.132 161.616C163.177 161.462 163.268 161.286 163.337 161.11C162.812 161.066 162.425 161.286 162.082 161.616C161.444 162.21 160.942 162.914 160.509 163.64C159.939 164.586 159.437 165.576 158.89 166.544C158.844 166.632 158.798 166.72 158.775 166.808C158.388 166.676 158.365 166.676 158.547 166.324C159.323 164.74 160.121 163.156 160.897 161.572C161.033 161.308 161.17 161.066 161.33 160.824C161.284 160.802 161.261 160.802 161.261 160.802C158.821 160.78 156.358 160.758 153.918 160.758C153.074 160.758 152.207 160.78 151.363 160.802C150.907 160.824 150.451 160.824 149.995 160.868C149.926 160.868 149.835 160.956 149.812 161.022C149.128 162.144 148.467 163.266 147.782 164.366C147.737 164.454 147.668 164.52 147.554 164.564C148.239 163.332 148.946 162.1 149.653 160.868C149.493 160.89 149.379 160.89 149.265 160.89C148.375 160.934 147.486 160.956 146.597 161C146.505 161 146.368 161.088 146.323 161.176C145.661 162.254 145.023 163.354 144.316 164.41C143.518 165.642 142.697 166.852 141.807 168.018C141.146 168.876 140.302 169.58 139.275 170.064C138.751 170.306 138.181 170.46 137.588 170.438C136.493 170.416 135.626 169.932 135.011 169.074C134.395 168.26 134.098 167.336 133.916 166.346C133.756 165.554 133.847 164.784 134.349 164.124C134.737 163.596 135.261 163.222 135.854 162.914C137.291 162.188 138.865 161.748 140.461 161.418C141.282 161.242 142.126 161.088 142.947 160.956C143.518 160.868 144.111 160.846 144.704 160.78C145.137 160.736 145.593 160.714 146.026 160.67C146.095 160.67 146.163 160.604 146.209 160.538C146.551 159.966 146.893 159.416 147.235 158.844C147.897 157.722 148.558 156.6 149.265 155.5C149.744 154.752 150.246 154.026 150.747 153.3C150.907 153.08 151.112 152.882 151.318 152.662C151.5 152.464 151.751 152.354 151.956 152.464C152.116 152.552 152.298 152.772 152.298 152.926C152.344 153.432 152.344 153.96 152.321 154.488C152.253 155.412 151.979 156.292 151.637 157.128C151.272 158.008 150.839 158.888 150.451 159.746C150.36 159.966 150.246 160.186 150.109 160.45C150.588 160.384 151.067 160.604 151.454 160.318C151.865 160.032 152.184 159.636 152.549 159.284C152.777 159.064 152.96 158.8 153.165 158.558C153.347 158.646 153.325 158.624 153.256 158.778C153.051 159.196 152.846 159.636 152.64 160.054C152.618 160.12 152.64 160.274 152.686 160.296C152.754 160.34 152.891 160.318 152.96 160.252C153.302 159.922 153.644 159.592 153.963 159.24C154.168 159.02 154.351 158.756 154.556 158.492C154.625 158.558 154.693 158.602 154.693 158.624C154.488 159.108 154.26 159.57 154.077 160.032C154.032 160.12 154.077 160.23 154.1 160.34C154.237 160.318 154.419 160.362 154.511 160.274C154.83 159.944 155.126 159.614 155.423 159.262C155.605 159.042 155.719 158.778 155.856 158.514C156.153 158.58 156.175 158.602 156.039 158.866C155.902 159.152 155.765 159.46 155.651 159.768C155.628 159.834 155.628 159.922 155.628 160.01C155.628 160.208 155.788 160.318 155.947 160.186C156.267 159.944 156.586 159.658 156.882 159.372C157.088 159.152 157.247 158.866 157.453 158.624C157.498 158.58 157.635 158.536 157.681 158.558C157.749 158.602 157.818 158.712 157.795 158.778C157.726 159.108 157.635 159.438 157.567 159.79C157.544 159.9 157.567 160.01 157.567 160.142C158.023 160.032 158.205 159.68 158.433 159.416C158.707 159.13 158.935 158.822 159.163 158.514C159.254 158.404 159.368 158.338 159.482 158.448C159.551 158.514 159.597 158.646 159.574 158.734C159.482 159.042 159.368 159.35 159.277 159.658C159.232 159.79 159.232 159.922 159.209 160.054C159.232 160.076 159.254 160.098 159.3 160.12C159.597 159.834 159.916 159.526 160.212 159.24C160.372 159.086 160.509 158.91 160.691 158.8C160.805 158.712 161.056 158.624 161.125 158.69C161.261 158.778 161.33 158.976 161.375 159.152C161.421 159.416 161.375 159.68 161.421 159.944C161.444 160.076 161.558 160.186 161.626 160.318C161.718 160.23 161.809 160.12 161.854 160.032C162.333 159.218 162.79 158.404 163.291 157.612C164.021 156.49 164.819 155.39 165.595 154.312C165.914 153.85 166.302 153.432 166.689 153.036C167.511 152.2 168.468 151.584 169.723 151.628C170.498 151.65 171 152.09 171.046 152.904C171.091 153.806 170.726 154.576 170.316 155.346C169.86 156.182 169.244 156.93 168.514 157.568C167.761 158.25 166.963 158.822 166.074 159.284C165.139 159.79 164.249 160.186 163.268 160.648ZM145.912 161.066C145.365 161.11 144.863 161.176 144.339 161.22C143.814 161.264 143.289 161.308 142.788 161.396C141.83 161.572 140.872 161.748 139.937 161.968C138.477 162.298 137.04 162.716 135.74 163.486C135.056 163.882 134.509 164.41 134.304 165.18C134.189 165.686 134.258 166.17 134.395 166.654C134.668 167.644 134.988 168.59 135.809 169.316C136.539 169.932 137.337 170.152 138.295 169.954C139.253 169.734 140.051 169.228 140.689 168.546C141.374 167.864 141.99 167.094 142.537 166.324C143.358 165.136 144.111 163.904 144.909 162.694C145.274 162.166 145.57 161.638 145.912 161.066ZM162.082 160.384C162.082 160.406 162.105 160.428 162.105 160.45C162.333 160.384 162.561 160.34 162.789 160.274C163.77 159.988 164.705 159.57 165.595 159.086C166.826 158.404 167.989 157.612 168.902 156.534C169.746 155.544 170.384 154.444 170.59 153.146C170.658 152.75 170.361 152.244 169.951 152.134C169.267 151.958 168.628 152.178 168.058 152.508C167.442 152.838 166.963 153.322 166.53 153.872C166.005 154.532 165.435 155.17 164.956 155.874C164.318 156.754 163.747 157.656 163.154 158.58C162.789 159.152 162.447 159.768 162.082 160.384ZM146.619 160.67C146.916 160.648 147.144 160.604 147.395 160.604C148.102 160.582 148.786 160.56 149.493 160.56C149.721 160.56 149.835 160.494 149.926 160.296C150.063 159.988 150.246 159.68 150.382 159.35C150.793 158.382 151.249 157.436 151.568 156.446C151.842 155.632 151.979 154.774 152.116 153.916C152.161 153.608 152.07 153.278 152.002 152.97C151.956 152.75 151.819 152.728 151.637 152.86C151.591 152.882 151.546 152.926 151.523 152.97C151.112 153.52 150.656 154.048 150.291 154.62C149.721 155.5 149.174 156.424 148.626 157.326C147.942 158.426 147.304 159.526 146.619 160.67ZM163.497 161.902C164.911 161.572 166.097 161.154 166.347 160.89C165.458 160.89 164.591 160.89 163.793 160.89C163.702 161.22 163.611 161.55 163.497 161.902ZM160.988 160.472C160.942 160.032 160.919 159.614 160.874 159.218C160.463 159.636 160.03 160.054 159.619 160.472C160.075 160.472 160.554 160.472 160.988 160.472ZM162.675 160.802C162.539 160.802 162.402 160.802 162.288 160.802C162.128 160.824 161.9 160.802 161.832 160.89C161.626 161.176 161.467 161.506 161.307 161.814C161.763 161.462 162.105 161 162.675 160.802ZM158.821 159.592C158.547 159.878 158.297 160.142 158 160.428C158.319 160.45 158.593 160.472 158.821 160.494C158.821 160.186 158.821 159.9 158.821 159.592ZM152.344 160.406C152.435 160.098 152.504 159.812 152.572 159.548C152.549 159.526 152.549 159.526 152.526 159.504C152.23 159.834 151.933 160.164 151.682 160.472C151.865 160.45 152.139 160.428 152.344 160.406ZM157.111 159.702C156.882 159.944 156.654 160.164 156.426 160.406C156.7 160.406 156.974 160.406 157.225 160.406C157.179 160.186 157.156 159.944 157.111 159.702ZM153.781 159.944C153.598 160.098 153.439 160.252 153.256 160.406C153.439 160.406 153.598 160.406 153.735 160.406C153.758 160.274 153.781 160.12 153.781 159.944ZM155.263 160.098C155.172 160.186 155.081 160.296 154.967 160.428C155.126 160.428 155.263 160.428 155.377 160.428C155.332 160.296 155.286 160.208 155.263 160.098Z" fill="#172D5F"/>
</g>
<path d="M108.14 144.893C108.027 144.722 107.856 144.608 107.685 144.494L107.742 144.551C107.913 144.949 108.083 145.291 108.254 145.689C108.311 145.518 108.368 145.348 108.368 145.177C108.254 145.063 108.197 144.949 108.14 144.893Z" fill="#CDD6E5"/>
<path d="M110.473 152.628C110.473 152.458 110.529 152.287 110.529 152.116C110.529 151.889 110.529 151.661 110.529 151.434C110.586 151.206 110.757 150.865 110.984 150.751C111.098 148.476 110.586 146.03 109.449 143.755C107.572 139.944 104.215 137.156 100.518 135.848C100.461 135.905 100.404 136.019 100.404 136.132C100.291 136.417 99.8355 136.303 99.8355 135.962C99.8355 135.848 99.8355 135.734 99.7786 135.62C96.7639 134.71 93.5216 134.767 90.5637 136.019C89.9949 136.246 89.426 136.531 88.9141 136.872C88.9141 137.099 88.971 137.327 88.971 137.555C88.7435 137.498 88.5728 137.384 88.4022 137.213C83.169 140.74 81.4056 147.793 84.591 154.107C85.0461 155.017 85.6149 155.871 86.1837 156.667C86.1837 156.383 86.2406 156.155 86.3544 155.871C86.4113 155.643 86.4682 155.472 86.525 155.302C86.1837 154.79 85.8424 154.221 85.558 153.652C82.3157 147.111 84.7617 139.659 91.0756 136.986C97.3896 134.369 105.182 137.555 108.425 144.096C110.7 148.703 110.188 153.823 107.401 157.293C107.401 157.406 107.401 157.577 107.401 157.634C107.401 157.918 107.401 158.203 107.401 158.487C107.401 158.658 107.401 158.885 107.401 159.056C109.05 157.406 110.188 155.302 110.7 152.97H110.643C110.529 152.97 110.473 152.799 110.473 152.628Z" fill="#CDD6E5"/>
<path d="M102.964 160.82C97.2759 163.152 90.3931 160.82 86.6957 155.53C86.7526 155.871 86.8095 156.155 86.9233 156.44C86.9802 156.781 86.9233 157.122 86.8095 157.35C88.6866 159.511 91.1326 161.104 93.7492 162.014C93.8629 161.9 93.9767 161.787 94.1473 161.73C94.3749 161.673 94.6024 161.673 94.8299 161.73C94.8868 161.73 94.9437 161.73 95.0006 161.787C95.0575 161.843 95.1143 161.9 95.1143 161.957C95.2281 162.128 95.285 162.299 95.3988 162.469C98.0722 163.038 100.916 162.867 103.476 161.787C104.898 161.218 106.15 160.365 107.173 159.398C107.117 158.829 107.117 158.317 107.117 157.748C106.036 159.113 104.671 160.137 102.964 160.82Z" fill="#CDD6E5"/>
<path d="M108.368 146.144C108.254 146.087 108.197 145.859 108.197 145.689C108.027 145.29 107.856 144.949 107.685 144.551L107.628 144.494C107.628 144.494 107.628 144.494 107.571 144.494C107.401 144.38 107.23 144.267 107.116 144.096C107.003 143.925 107.003 143.755 106.889 143.584C106.775 143.47 106.548 143.527 106.491 143.413C106.32 143.129 106.32 142.901 106.548 142.845C103.078 138.01 96.7638 135.848 91.5306 138.01C90.2223 138.578 89.0278 139.375 88.1177 140.342C88.1177 140.455 88.1177 140.626 88.0608 140.74C88.0039 141.024 87.8333 141.252 87.6626 141.422C87.2644 141.878 86.98 142.446 86.8663 143.015C86.9232 142.674 86.98 142.048 87.1507 141.422C86.2406 142.617 85.6717 144.039 85.3304 145.518L85.3873 145.575C85.4442 145.632 85.3873 145.746 85.3873 145.802C85.3873 146.03 85.3873 146.257 85.4442 146.428C85.5011 146.542 85.5011 146.599 85.558 146.713C85.6149 146.997 85.3304 147.168 85.1029 147.281C84.9891 149.272 85.3873 151.377 86.4112 153.425C86.4681 153.482 86.525 153.595 86.525 153.652C86.525 153.595 86.525 153.482 86.5819 153.425C86.6387 153.197 86.6956 152.97 86.6956 152.742C86.8663 153.083 86.7525 153.425 86.6387 153.766C86.6387 153.823 86.6387 153.823 86.6387 153.88C88.1746 156.667 90.5636 158.772 93.294 159.909C93.4646 159.909 93.6353 159.909 93.8059 159.966C93.9766 159.966 94.1472 160.023 94.2041 160.194C94.2041 160.251 94.2041 160.251 94.2041 160.307C96.9345 161.218 99.8355 161.218 102.509 160.137C104.5 159.34 106.036 157.975 107.116 156.383C107.116 156.212 107.173 156.041 107.23 155.871C107.287 155.871 107.344 155.928 107.401 156.041C109.107 153.083 109.505 149.557 108.368 146.144ZM92.6114 139.944C94.9436 138.977 97.5033 139.09 99.7786 139.944C99.8355 139.887 99.8924 139.887 99.9492 139.83C100.006 139.773 100.006 139.659 100.063 139.602C100.177 139.432 100.291 139.261 100.518 139.261C100.518 139.488 100.461 139.716 100.461 139.944C100.518 140 100.575 140.057 100.575 140.114C100.632 140.171 100.632 140.285 100.632 140.342C101.371 140.74 102.111 141.195 102.793 141.707L98.0721 143.698C98.0721 143.755 98.0152 143.812 97.9584 143.925C97.9015 143.982 97.9015 144.039 97.8446 144.153C97.6739 144.437 97.4464 144.779 97.1051 144.892C96.9345 144.949 96.7069 144.835 96.7069 144.665C96.7069 144.608 96.7069 144.494 96.6501 144.437V144.38V144.323L91.1893 146.599C90.9049 146.94 90.6205 147.338 90.1655 147.281C90.0517 147.281 89.9379 147.224 89.7673 147.224L87.3782 148.191C87.3213 144.608 89.1985 141.366 92.6114 139.944ZM102.736 157.35C102.736 157.52 102.68 157.634 102.68 157.805C102.623 158.317 102.509 158.885 102.168 159.227C102.168 158.658 102.225 158.146 102.281 157.634C102.054 157.748 101.826 157.862 101.599 157.975C98.2428 159.397 94.261 158.544 91.4169 156.212L97.7877 153.595C97.9584 153.425 98.1859 153.254 98.4134 153.083C98.5272 152.97 98.6978 152.856 98.8116 152.799C99.0391 152.685 99.3804 152.742 99.6648 152.742C99.7217 152.742 99.7217 152.742 99.7786 152.742L103.703 151.149C103.703 151.149 103.703 151.149 103.703 151.092C103.76 150.922 103.817 150.694 103.817 150.524C103.76 150.296 103.703 150.012 103.647 149.784C103.59 149.5 103.533 149.102 103.533 148.703L94.261 152.571C94.2041 152.628 94.2041 152.628 94.1472 152.685C93.8628 152.913 92.2701 153.937 91.9857 153.538L89.7673 154.449C89.3122 153.88 88.914 153.254 88.5727 152.571C88.2315 151.889 88.0039 151.206 87.8333 150.524L94.3179 147.793C94.4885 147.509 94.6023 147.111 94.8867 146.997C95.0005 147.111 95.0005 147.338 95.0005 147.509L104.67 143.47C105.126 144.039 105.524 144.665 105.865 145.347C106.206 146.03 106.434 146.713 106.604 147.395L104.5 148.248C104.443 148.931 104.443 149.614 104.329 150.296C104.329 150.353 104.329 150.41 104.272 150.524C104.272 150.524 104.272 150.524 104.272 150.581C104.272 150.581 104.329 150.694 104.329 150.637C104.329 150.637 104.386 150.694 104.443 150.751C104.443 150.751 104.443 150.808 104.5 150.808L106.889 149.841C106.832 152.856 105.353 155.757 102.736 157.35Z" fill="#CDD6E5"/>
<line x1="141.624" y1="163.512" x2="176.945" y2="163.512" stroke="#172D5F" stroke-width="0.5"/>
<rect x="28" y="2" width="136" height="177.101" rx="8" fill="white" stroke="#172D5F" stroke-width="4"/>
<path d="M124.257 10.918H144.44C149.963 10.918 154.44 15.3951 154.44 20.918V36.9271" stroke="#172D5F"/>
<line x1="43.9817" y1="33.0371" x2="122.973" y2="33.0371" stroke="#172D5F" stroke-width="2"/>
<line x1="43.9817" y1="50.376" x2="134.532" y2="50.376" stroke="#172D5F" stroke-width="2"/>
<line x1="43.9817" y1="67.0732" x2="144.165" y2="67.0732" stroke="#172D5F" stroke-width="2"/>
<line x1="43.9817" y1="89.5508" x2="144.165" y2="89.5508" stroke="#172D5F" stroke-width="2"/>
<line x1="43.9817" y1="108.816" x2="144.165" y2="108.816" stroke="#172D5F" stroke-width="2"/>
<line x1="43.9817" y1="126.798" x2="114.624" y2="126.798" stroke="#172D5F" stroke-width="2"/>
<line x1="43.9817" y1="141.568" x2="114.624" y2="141.568" stroke="#172D5F" stroke-width="2"/>
<g clip-path="url(#clip1_112_936)">
<rect width="52" height="22" transform="translate(105 150)" fill="white"/>
<path d="M136.268 160.648C137.089 160.648 137.842 160.648 138.595 160.648C138.8 160.648 138.982 160.67 139.188 160.692C139.963 160.802 140.556 160.406 141.126 160.032C142.267 159.306 143.361 158.536 144.456 157.788C144.616 157.678 144.821 157.59 145.004 157.524C145.346 157.392 145.642 157.48 145.916 157.7C146.167 157.92 146.418 158.118 146.691 158.294C147.284 158.712 147.535 158.624 148.06 158.294C148.47 158.052 148.835 157.722 149.268 157.524C149.497 157.414 149.839 157.436 150.09 157.524C150.911 157.744 151.709 157.898 152.53 157.48C152.735 157.37 152.963 157.348 153.191 157.304C153.511 157.238 153.853 157.15 154.172 157.084C154.514 157.018 154.833 156.952 155.175 156.93C155.472 156.908 155.791 156.93 156.088 156.952C155.791 156.996 155.495 157.084 155.198 157.084C154.811 157.084 154.446 157.172 154.081 157.304C153.761 157.414 153.419 157.436 153.1 157.524C152.918 157.568 152.735 157.612 152.575 157.7C152.074 157.964 151.549 158.03 151.002 157.964C150.568 157.92 150.181 157.832 149.77 157.7C149.611 157.656 149.337 157.788 149.154 157.876C148.789 158.074 148.447 158.316 148.128 158.58C147.467 159.064 146.828 158.822 146.326 158.448C146.075 158.272 145.87 158.074 145.619 157.876C145.414 157.7 145.14 157.7 144.867 157.898C144.297 158.294 143.726 158.69 143.133 159.086C142.312 159.614 141.491 160.142 140.693 160.67C140.67 160.67 140.67 160.692 140.647 160.736C141.628 160.802 142.609 160.868 143.567 160.912C143.567 160.934 143.567 160.978 143.567 161C143.316 161 143.042 161 142.791 161C142.267 160.978 141.742 160.978 141.218 160.956C141.012 160.956 140.807 160.912 140.602 160.912C140.419 160.912 140.214 160.934 140.054 161C139.119 161.418 138.184 161.858 137.181 162.1C136.975 162.144 136.747 162.166 136.519 162.21C136.109 162.276 135.995 162.012 136.132 161.616C136.177 161.462 136.268 161.286 136.337 161.11C135.812 161.066 135.425 161.286 135.082 161.616C134.444 162.21 133.942 162.914 133.509 163.64C132.939 164.586 132.437 165.576 131.89 166.544C131.844 166.632 131.798 166.72 131.775 166.808C131.388 166.676 131.365 166.676 131.547 166.324C132.323 164.74 133.121 163.156 133.897 161.572C134.033 161.308 134.17 161.066 134.33 160.824C134.284 160.802 134.261 160.802 134.261 160.802C131.821 160.78 129.358 160.758 126.918 160.758C126.074 160.758 125.207 160.78 124.363 160.802C123.907 160.824 123.451 160.824 122.995 160.868C122.926 160.868 122.835 160.956 122.812 161.022C122.128 162.144 121.467 163.266 120.782 164.366C120.737 164.454 120.668 164.52 120.554 164.564C121.239 163.332 121.946 162.1 122.653 160.868C122.493 160.89 122.379 160.89 122.265 160.89C121.375 160.934 120.486 160.956 119.597 161C119.505 161 119.368 161.088 119.323 161.176C118.661 162.254 118.023 163.354 117.316 164.41C116.518 165.642 115.697 166.852 114.807 168.018C114.146 168.876 113.302 169.58 112.275 170.064C111.751 170.306 111.181 170.46 110.588 170.438C109.493 170.416 108.626 169.932 108.011 169.074C107.395 168.26 107.098 167.336 106.916 166.346C106.756 165.554 106.847 164.784 107.349 164.124C107.737 163.596 108.261 163.222 108.854 162.914C110.291 162.188 111.865 161.748 113.461 161.418C114.282 161.242 115.126 161.088 115.947 160.956C116.518 160.868 117.111 160.846 117.704 160.78C118.137 160.736 118.593 160.714 119.026 160.67C119.095 160.67 119.163 160.604 119.209 160.538C119.551 159.966 119.893 159.416 120.235 158.844C120.897 157.722 121.558 156.6 122.265 155.5C122.744 154.752 123.246 154.026 123.747 153.3C123.907 153.08 124.112 152.882 124.318 152.662C124.5 152.464 124.751 152.354 124.956 152.464C125.116 152.552 125.298 152.772 125.298 152.926C125.344 153.432 125.344 153.96 125.321 154.488C125.253 155.412 124.979 156.292 124.637 157.128C124.272 158.008 123.839 158.888 123.451 159.746C123.36 159.966 123.246 160.186 123.109 160.45C123.588 160.384 124.067 160.604 124.454 160.318C124.865 160.032 125.184 159.636 125.549 159.284C125.777 159.064 125.96 158.8 126.165 158.558C126.347 158.646 126.325 158.624 126.256 158.778C126.051 159.196 125.846 159.636 125.64 160.054C125.618 160.12 125.64 160.274 125.686 160.296C125.754 160.34 125.891 160.318 125.96 160.252C126.302 159.922 126.644 159.592 126.963 159.24C127.168 159.02 127.351 158.756 127.556 158.492C127.625 158.558 127.693 158.602 127.693 158.624C127.488 159.108 127.26 159.57 127.077 160.032C127.032 160.12 127.077 160.23 127.1 160.34C127.237 160.318 127.419 160.362 127.511 160.274C127.83 159.944 128.126 159.614 128.423 159.262C128.605 159.042 128.719 158.778 128.856 158.514C129.153 158.58 129.175 158.602 129.039 158.866C128.902 159.152 128.765 159.46 128.651 159.768C128.628 159.834 128.628 159.922 128.628 160.01C128.628 160.208 128.788 160.318 128.947 160.186C129.267 159.944 129.586 159.658 129.882 159.372C130.088 159.152 130.247 158.866 130.453 158.624C130.498 158.58 130.635 158.536 130.681 158.558C130.749 158.602 130.818 158.712 130.795 158.778C130.726 159.108 130.635 159.438 130.567 159.79C130.544 159.9 130.567 160.01 130.567 160.142C131.023 160.032 131.205 159.68 131.433 159.416C131.707 159.13 131.935 158.822 132.163 158.514C132.254 158.404 132.368 158.338 132.482 158.448C132.551 158.514 132.597 158.646 132.574 158.734C132.482 159.042 132.368 159.35 132.277 159.658C132.232 159.79 132.232 159.922 132.209 160.054C132.232 160.076 132.254 160.098 132.3 160.12C132.597 159.834 132.916 159.526 133.212 159.24C133.372 159.086 133.509 158.91 133.691 158.8C133.805 158.712 134.056 158.624 134.125 158.69C134.261 158.778 134.33 158.976 134.375 159.152C134.421 159.416 134.375 159.68 134.421 159.944C134.444 160.076 134.558 160.186 134.626 160.318C134.718 160.23 134.809 160.12 134.854 160.032C135.333 159.218 135.79 158.404 136.291 157.612C137.021 156.49 137.819 155.39 138.595 154.312C138.914 153.85 139.302 153.432 139.689 153.036C140.511 152.2 141.468 151.584 142.723 151.628C143.498 151.65 144 152.09 144.046 152.904C144.091 153.806 143.726 154.576 143.316 155.346C142.86 156.182 142.244 156.93 141.514 157.568C140.761 158.25 139.963 158.822 139.074 159.284C138.139 159.79 137.249 160.186 136.268 160.648ZM118.912 161.066C118.365 161.11 117.863 161.176 117.339 161.22C116.814 161.264 116.289 161.308 115.788 161.396C114.83 161.572 113.872 161.748 112.937 161.968C111.477 162.298 110.04 162.716 108.74 163.486C108.056 163.882 107.509 164.41 107.304 165.18C107.189 165.686 107.258 166.17 107.395 166.654C107.668 167.644 107.988 168.59 108.809 169.316C109.539 169.932 110.337 170.152 111.295 169.954C112.253 169.734 113.051 169.228 113.689 168.546C114.374 167.864 114.99 167.094 115.537 166.324C116.358 165.136 117.111 163.904 117.909 162.694C118.274 162.166 118.57 161.638 118.912 161.066ZM135.082 160.384C135.082 160.406 135.105 160.428 135.105 160.45C135.333 160.384 135.561 160.34 135.789 160.274C136.77 159.988 137.705 159.57 138.595 159.086C139.826 158.404 140.989 157.612 141.902 156.534C142.746 155.544 143.384 154.444 143.59 153.146C143.658 152.75 143.361 152.244 142.951 152.134C142.267 151.958 141.628 152.178 141.058 152.508C140.442 152.838 139.963 153.322 139.53 153.872C139.005 154.532 138.435 155.17 137.956 155.874C137.318 156.754 136.747 157.656 136.154 158.58C135.789 159.152 135.447 159.768 135.082 160.384ZM119.619 160.67C119.916 160.648 120.144 160.604 120.395 160.604C121.102 160.582 121.786 160.56 122.493 160.56C122.721 160.56 122.835 160.494 122.926 160.296C123.063 159.988 123.246 159.68 123.382 159.35C123.793 158.382 124.249 157.436 124.568 156.446C124.842 155.632 124.979 154.774 125.116 153.916C125.161 153.608 125.07 153.278 125.002 152.97C124.956 152.75 124.819 152.728 124.637 152.86C124.591 152.882 124.546 152.926 124.523 152.97C124.112 153.52 123.656 154.048 123.291 154.62C122.721 155.5 122.174 156.424 121.626 157.326C120.942 158.426 120.304 159.526 119.619 160.67ZM136.497 161.902C137.911 161.572 139.097 161.154 139.347 160.89C138.458 160.89 137.591 160.89 136.793 160.89C136.702 161.22 136.611 161.55 136.497 161.902ZM133.988 160.472C133.942 160.032 133.919 159.614 133.874 159.218C133.463 159.636 133.03 160.054 132.619 160.472C133.075 160.472 133.554 160.472 133.988 160.472ZM135.675 160.802C135.539 160.802 135.402 160.802 135.288 160.802C135.128 160.824 134.9 160.802 134.832 160.89C134.626 161.176 134.467 161.506 134.307 161.814C134.763 161.462 135.105 161 135.675 160.802ZM131.821 159.592C131.547 159.878 131.297 160.142 131 160.428C131.319 160.45 131.593 160.472 131.821 160.494C131.821 160.186 131.821 159.9 131.821 159.592ZM125.344 160.406C125.435 160.098 125.504 159.812 125.572 159.548C125.549 159.526 125.549 159.526 125.526 159.504C125.23 159.834 124.933 160.164 124.682 160.472C124.865 160.45 125.139 160.428 125.344 160.406ZM130.111 159.702C129.882 159.944 129.654 160.164 129.426 160.406C129.7 160.406 129.974 160.406 130.225 160.406C130.179 160.186 130.156 159.944 130.111 159.702ZM126.781 159.944C126.598 160.098 126.439 160.252 126.256 160.406C126.439 160.406 126.598 160.406 126.735 160.406C126.758 160.274 126.781 160.12 126.781 159.944ZM128.263 160.098C128.172 160.186 128.081 160.296 127.967 160.428C128.126 160.428 128.263 160.428 128.377 160.428C128.332 160.296 128.286 160.208 128.263 160.098Z" fill="#172D5F"/>
</g>
<path d="M81.1404 144.893C81.0266 144.722 80.856 144.608 80.6853 144.494L80.7422 144.551C80.9128 144.949 81.0835 145.291 81.2541 145.689C81.311 145.518 81.3679 145.348 81.3679 145.177C81.2541 145.063 81.1972 144.949 81.1404 144.893Z" fill="#CDD6E5"/>
<path d="M83.4725 152.628C83.4725 152.458 83.5294 152.287 83.5294 152.116C83.5294 151.889 83.5294 151.661 83.5294 151.434C83.5863 151.206 83.757 150.865 83.9845 150.751C84.0983 148.476 83.5863 146.03 82.4487 143.755C80.5715 139.944 77.2155 137.156 73.5181 135.848C73.4612 135.905 73.4044 136.019 73.4044 136.132C73.2906 136.417 72.8355 136.303 72.8355 135.962C72.8355 135.848 72.8355 135.734 72.7786 135.62C69.7639 134.71 66.5216 134.767 63.5637 136.019C62.9949 136.246 62.426 136.531 61.9141 136.872C61.9141 137.099 61.971 137.327 61.971 137.555C61.7435 137.498 61.5728 137.384 61.4022 137.213C56.169 140.74 54.4056 147.793 57.591 154.107C58.0461 155.017 58.6149 155.871 59.1837 156.667C59.1837 156.383 59.2406 156.155 59.3544 155.871C59.4113 155.643 59.4682 155.472 59.525 155.302C59.1837 154.79 58.8424 154.221 58.558 153.652C55.3157 147.111 57.7617 139.659 64.0756 136.986C70.3896 134.369 78.1825 137.555 81.4248 144.096C83.7001 148.703 83.1881 153.823 80.4009 157.293C80.4009 157.406 80.4009 157.577 80.4009 157.634C80.4009 157.918 80.4009 158.203 80.4009 158.487C80.4009 158.658 80.4009 158.885 80.4009 159.056C82.0505 157.406 83.1881 155.302 83.7001 152.97H83.6432C83.5294 152.97 83.4725 152.799 83.4725 152.628Z" fill="#CDD6E5"/>
<path d="M75.9641 160.82C70.2759 163.152 63.3931 160.82 59.6957 155.53C59.7526 155.871 59.8095 156.155 59.9233 156.44C59.9802 156.781 59.9233 157.122 59.8095 157.35C61.6866 159.511 64.1326 161.104 66.7492 162.014C66.8629 161.9 66.9767 161.787 67.1473 161.73C67.3749 161.673 67.6024 161.673 67.8299 161.73C67.8868 161.73 67.9437 161.73 68.0006 161.787C68.0575 161.843 68.1143 161.9 68.1143 161.957C68.2281 162.128 68.285 162.299 68.3988 162.469C71.0722 163.038 73.9164 162.867 76.4761 161.787C77.8981 161.218 79.1495 160.365 80.1734 159.398C80.1165 158.829 80.1165 158.317 80.1165 157.748C79.0358 159.113 77.6706 160.137 75.9641 160.82Z" fill="#CDD6E5"/>
<path d="M81.3678 146.144C81.2541 146.087 81.1972 145.859 81.1972 145.689C81.0265 145.29 80.8559 144.949 80.6853 144.551L80.6284 144.494C80.6284 144.494 80.6284 144.494 80.5715 144.494C80.4008 144.38 80.2302 144.267 80.1164 144.096C80.0027 143.925 80.0027 143.755 79.8889 143.584C79.7751 143.47 79.5476 143.527 79.4907 143.413C79.3201 143.129 79.3201 142.901 79.5476 142.845C76.0778 138.01 69.7638 135.848 64.5306 138.01C63.2223 138.578 62.0278 139.375 61.1177 140.342C61.1177 140.455 61.1177 140.626 61.0608 140.74C61.0039 141.024 60.8333 141.252 60.6626 141.422C60.2644 141.878 59.98 142.446 59.8663 143.015C59.9232 142.674 59.98 142.048 60.1507 141.422C59.2406 142.617 58.6717 144.039 58.3304 145.518L58.3873 145.575C58.4442 145.632 58.3873 145.746 58.3873 145.802C58.3873 146.03 58.3873 146.257 58.4442 146.428C58.5011 146.542 58.5011 146.599 58.558 146.713C58.6149 146.997 58.3304 147.168 58.1029 147.281C57.9891 149.272 58.3873 151.377 59.4112 153.425C59.4681 153.482 59.525 153.595 59.525 153.652C59.525 153.595 59.525 153.482 59.5819 153.425C59.6387 153.197 59.6956 152.97 59.6956 152.742C59.8663 153.083 59.7525 153.425 59.6387 153.766C59.6387 153.823 59.6387 153.823 59.6387 153.88C61.1746 156.667 63.5636 158.772 66.294 159.909C66.4646 159.909 66.6353 159.909 66.8059 159.966C66.9766 159.966 67.1472 160.023 67.2041 160.194C67.2041 160.251 67.2041 160.251 67.2041 160.307C69.9345 161.218 72.8355 161.218 75.5089 160.137C77.4998 159.34 79.0357 157.975 80.1164 156.383C80.1164 156.212 80.1733 156.041 80.2302 155.871C80.2871 155.871 80.344 155.928 80.4008 156.041C82.1073 153.083 82.5055 149.557 81.3678 146.144ZM65.6114 139.944C67.9436 138.977 70.5033 139.09 72.7786 139.944C72.8355 139.887 72.8924 139.887 72.9492 139.83C73.0061 139.773 73.0061 139.659 73.063 139.602C73.1768 139.432 73.2905 139.261 73.5181 139.261C73.5181 139.488 73.4612 139.716 73.4612 139.944C73.5181 140 73.5749 140.057 73.5749 140.114C73.6318 140.171 73.6318 140.285 73.6318 140.342C74.3713 140.74 75.1108 141.195 75.7934 141.707L71.0721 143.698C71.0721 143.755 71.0152 143.812 70.9584 143.925C70.9015 143.982 70.9015 144.039 70.8446 144.153C70.6739 144.437 70.4464 144.779 70.1051 144.892C69.9345 144.949 69.7069 144.835 69.7069 144.665C69.7069 144.608 69.7069 144.494 69.6501 144.437V144.38V144.323L64.1893 146.599C63.9049 146.94 63.6205 147.338 63.1655 147.281C63.0517 147.281 62.9379 147.224 62.7673 147.224L60.3782 148.191C60.3213 144.608 62.1985 141.366 65.6114 139.944ZM75.7365 157.35C75.7365 157.52 75.6796 157.634 75.6796 157.805C75.6227 158.317 75.5089 158.885 75.1677 159.227C75.1677 158.658 75.2245 158.146 75.2814 157.634C75.0539 157.748 74.8264 157.862 74.5988 157.975C71.2428 159.397 67.261 158.544 64.4169 156.212L70.7877 153.595C70.9584 153.425 71.1859 153.254 71.4134 153.083C71.5272 152.97 71.6978 152.856 71.8116 152.799C72.0391 152.685 72.3804 152.742 72.6648 152.742C72.7217 152.742 72.7217 152.742 72.7786 152.742L76.7035 151.149C76.7035 151.149 76.7035 151.149 76.7035 151.092C76.7604 150.922 76.8172 150.694 76.8172 150.524C76.7604 150.296 76.7035 150.012 76.6466 149.784C76.5897 149.5 76.5328 149.102 76.5328 148.703L67.261 152.571C67.2041 152.628 67.2041 152.628 67.1472 152.685C66.8628 152.913 65.2701 153.937 64.9857 153.538L62.7673 154.449C62.3122 153.88 61.914 153.254 61.5727 152.571C61.2315 151.889 61.0039 151.206 60.8333 150.524L67.3179 147.793C67.4885 147.509 67.6023 147.111 67.8867 146.997C68.0005 147.111 68.0005 147.338 68.0005 147.509L77.6705 143.47C78.1255 144.039 78.5237 144.665 78.865 145.347C79.2063 146.03 79.4338 146.713 79.6045 147.395L77.4998 148.248C77.443 148.931 77.4429 149.614 77.3292 150.296C77.3292 150.353 77.3292 150.41 77.2723 150.524C77.2723 150.524 77.2723 150.524 77.2723 150.581C77.2723 150.581 77.3292 150.694 77.3292 150.637C77.3292 150.637 77.3861 150.694 77.4429 150.751C77.4429 150.751 77.443 150.808 77.4998 150.808L79.8889 149.841C79.832 152.856 78.3531 155.757 75.7365 157.35Z" fill="#CDD6E5"/>
<line x1="114.624" y1="163.512" x2="149.945" y2="163.512" stroke="#172D5F" stroke-width="0.5"/>
<rect x="2" y="2" width="136" height="177.101" rx="8" fill="white" stroke="#172D5F" stroke-width="4"/>
<path d="M98.2569 10.918H118.44C123.963 10.918 128.44 15.3951 128.44 20.918V36.9271" stroke="#172D5F"/>
<line x1="17.9817" y1="33.0371" x2="96.9725" y2="33.0371" stroke="#172D5F" stroke-width="2"/>
<line x1="17.9817" y1="50.376" x2="108.532" y2="50.376" stroke="#172D5F" stroke-width="2"/>
<line x1="17.9817" y1="67.0732" x2="118.165" y2="67.0732" stroke="#172D5F" stroke-width="2"/>
<line x1="17.9817" y1="89.5508" x2="118.165" y2="89.5508" stroke="#172D5F" stroke-width="2"/>
<line x1="17.9817" y1="108.816" x2="118.165" y2="108.816" stroke="#172D5F" stroke-width="2"/>
<line x1="17.9817" y1="126.798" x2="88.6239" y2="126.798" stroke="#172D5F" stroke-width="2"/>
<line x1="17.9817" y1="141.568" x2="88.6239" y2="141.568" stroke="#172D5F" stroke-width="2"/>
<g clip-path="url(#clip2_112_936)">
<rect width="52" height="22" transform="translate(79 150)" fill="white"/>
<path d="M110.268 160.648C111.089 160.648 111.842 160.648 112.595 160.648C112.8 160.648 112.982 160.67 113.188 160.692C113.963 160.802 114.556 160.406 115.126 160.032C116.267 159.306 117.361 158.536 118.456 157.788C118.616 157.678 118.821 157.59 119.004 157.524C119.346 157.392 119.642 157.48 119.916 157.7C120.167 157.92 120.418 158.118 120.691 158.294C121.284 158.712 121.535 158.624 122.06 158.294C122.47 158.052 122.835 157.722 123.268 157.524C123.497 157.414 123.839 157.436 124.09 157.524C124.911 157.744 125.709 157.898 126.53 157.48C126.735 157.37 126.963 157.348 127.191 157.304C127.511 157.238 127.853 157.15 128.172 157.084C128.514 157.018 128.833 156.952 129.175 156.93C129.472 156.908 129.791 156.93 130.088 156.952C129.791 156.996 129.495 157.084 129.198 157.084C128.811 157.084 128.446 157.172 128.081 157.304C127.761 157.414 127.419 157.436 127.1 157.524C126.918 157.568 126.735 157.612 126.575 157.7C126.074 157.964 125.549 158.03 125.002 157.964C124.568 157.92 124.181 157.832 123.77 157.7C123.611 157.656 123.337 157.788 123.154 157.876C122.789 158.074 122.447 158.316 122.128 158.58C121.467 159.064 120.828 158.822 120.326 158.448C120.075 158.272 119.87 158.074 119.619 157.876C119.414 157.7 119.14 157.7 118.867 157.898C118.297 158.294 117.726 158.69 117.133 159.086C116.312 159.614 115.491 160.142 114.693 160.67C114.67 160.67 114.67 160.692 114.647 160.736C115.628 160.802 116.609 160.868 117.567 160.912C117.567 160.934 117.567 160.978 117.567 161C117.316 161 117.042 161 116.791 161C116.267 160.978 115.742 160.978 115.218 160.956C115.012 160.956 114.807 160.912 114.602 160.912C114.419 160.912 114.214 160.934 114.054 161C113.119 161.418 112.184 161.858 111.181 162.1C110.975 162.144 110.747 162.166 110.519 162.21C110.109 162.276 109.995 162.012 110.132 161.616C110.177 161.462 110.268 161.286 110.337 161.11C109.812 161.066 109.425 161.286 109.082 161.616C108.444 162.21 107.942 162.914 107.509 163.64C106.939 164.586 106.437 165.576 105.89 166.544C105.844 166.632 105.798 166.72 105.775 166.808C105.388 166.676 105.365 166.676 105.547 166.324C106.323 164.74 107.121 163.156 107.897 161.572C108.033 161.308 108.17 161.066 108.33 160.824C108.284 160.802 108.261 160.802 108.261 160.802C105.821 160.78 103.358 160.758 100.918 160.758C100.074 160.758 99.2071 160.78 98.3632 160.802C97.907 160.824 97.4509 160.824 96.9948 160.868C96.9263 160.868 96.8351 160.956 96.8123 161.022C96.1281 162.144 95.4667 163.266 94.7825 164.366C94.7369 164.454 94.6685 164.52 94.5544 164.564C95.2386 163.332 95.9456 162.1 96.6527 160.868C96.493 160.89 96.379 160.89 96.2649 160.89C95.3755 160.934 94.486 160.956 93.5965 161C93.5053 161 93.3684 161.088 93.3228 161.176C92.6614 162.254 92.0228 163.354 91.3158 164.41C90.5176 165.642 89.6965 166.852 88.807 168.018C88.1456 168.876 87.3018 169.58 86.2755 170.064C85.7509 170.306 85.1807 170.46 84.5877 170.438C83.493 170.416 82.6263 169.932 82.0106 169.074C81.3948 168.26 81.0983 167.336 80.9158 166.346C80.7562 165.554 80.8474 164.784 81.3491 164.124C81.7369 163.596 82.2614 163.222 82.8544 162.914C84.2913 162.188 85.8649 161.748 87.4614 161.418C88.2825 161.242 89.1263 161.088 89.9474 160.956C90.5176 160.868 91.1106 160.846 91.7035 160.78C92.1369 160.736 92.593 160.714 93.0263 160.67C93.0948 160.67 93.1632 160.604 93.2088 160.538C93.5509 159.966 93.893 159.416 94.2351 158.844C94.8965 157.722 95.5579 156.6 96.2649 155.5C96.7439 154.752 97.2456 154.026 97.7474 153.3C97.907 153.08 98.1123 152.882 98.3176 152.662C98.5 152.464 98.7509 152.354 98.9562 152.464C99.1158 152.552 99.2983 152.772 99.2983 152.926C99.3439 153.432 99.3439 153.96 99.3211 154.488C99.2527 155.412 98.979 156.292 98.6369 157.128C98.272 158.008 97.8386 158.888 97.4509 159.746C97.3597 159.966 97.2456 160.186 97.1088 160.45C97.5878 160.384 98.0667 160.604 98.4544 160.318C98.8649 160.032 99.1842 159.636 99.5491 159.284C99.7772 159.064 99.9597 158.8 100.165 158.558C100.347 158.646 100.325 158.624 100.256 158.778C100.051 159.196 99.8456 159.636 99.6404 160.054C99.6176 160.12 99.6404 160.274 99.686 160.296C99.7544 160.34 99.8913 160.318 99.9597 160.252C100.302 159.922 100.644 159.592 100.963 159.24C101.168 159.02 101.351 158.756 101.556 158.492C101.625 158.558 101.693 158.602 101.693 158.624C101.488 159.108 101.26 159.57 101.077 160.032C101.032 160.12 101.077 160.23 101.1 160.34C101.237 160.318 101.419 160.362 101.511 160.274C101.83 159.944 102.126 159.614 102.423 159.262C102.605 159.042 102.719 158.778 102.856 158.514C103.153 158.58 103.175 158.602 103.039 158.866C102.902 159.152 102.765 159.46 102.651 159.768C102.628 159.834 102.628 159.922 102.628 160.01C102.628 160.208 102.788 160.318 102.947 160.186C103.267 159.944 103.586 159.658 103.882 159.372C104.088 159.152 104.247 158.866 104.453 158.624C104.498 158.58 104.635 158.536 104.681 158.558C104.749 158.602 104.818 158.712 104.795 158.778C104.726 159.108 104.635 159.438 104.567 159.79C104.544 159.9 104.567 160.01 104.567 160.142C105.023 160.032 105.205 159.68 105.433 159.416C105.707 159.13 105.935 158.822 106.163 158.514C106.254 158.404 106.368 158.338 106.482 158.448C106.551 158.514 106.597 158.646 106.574 158.734C106.482 159.042 106.368 159.35 106.277 159.658C106.232 159.79 106.232 159.922 106.209 160.054C106.232 160.076 106.254 160.098 106.3 160.12C106.597 159.834 106.916 159.526 107.212 159.24C107.372 159.086 107.509 158.91 107.691 158.8C107.805 158.712 108.056 158.624 108.125 158.69C108.261 158.778 108.33 158.976 108.375 159.152C108.421 159.416 108.375 159.68 108.421 159.944C108.444 160.076 108.558 160.186 108.626 160.318C108.718 160.23 108.809 160.12 108.854 160.032C109.333 159.218 109.79 158.404 110.291 157.612C111.021 156.49 111.819 155.39 112.595 154.312C112.914 153.85 113.302 153.432 113.689 153.036C114.511 152.2 115.468 151.584 116.723 151.628C117.498 151.65 118 152.09 118.046 152.904C118.091 153.806 117.726 154.576 117.316 155.346C116.86 156.182 116.244 156.93 115.514 157.568C114.761 158.25 113.963 158.822 113.074 159.284C112.139 159.79 111.249 160.186 110.268 160.648ZM92.9123 161.066C92.3649 161.11 91.8632 161.176 91.3386 161.22C90.8141 161.264 90.2895 161.308 89.7877 161.396C88.8299 161.572 87.872 161.748 86.9369 161.968C85.4772 162.298 84.0404 162.716 82.7404 163.486C82.0562 163.882 81.5088 164.41 81.3035 165.18C81.1895 165.686 81.2579 166.17 81.3948 166.654C81.6684 167.644 81.9878 168.59 82.8088 169.316C83.5386 169.932 84.3369 170.152 85.2948 169.954C86.2527 169.734 87.0509 169.228 87.6895 168.546C88.3737 167.864 88.9895 167.094 89.5369 166.324C90.3579 165.136 91.1105 163.904 91.9088 162.694C92.2737 162.166 92.5702 161.638 92.9123 161.066ZM109.082 160.384C109.082 160.406 109.105 160.428 109.105 160.45C109.333 160.384 109.561 160.34 109.789 160.274C110.77 159.988 111.705 159.57 112.595 159.086C113.826 158.404 114.989 157.612 115.902 156.534C116.746 155.544 117.384 154.444 117.59 153.146C117.658 152.75 117.361 152.244 116.951 152.134C116.267 151.958 115.628 152.178 115.058 152.508C114.442 152.838 113.963 153.322 113.53 153.872C113.005 154.532 112.435 155.17 111.956 155.874C111.318 156.754 110.747 157.656 110.154 158.58C109.789 159.152 109.447 159.768 109.082 160.384ZM93.6193 160.67C93.9158 160.648 94.1439 160.604 94.3948 160.604C95.1018 160.582 95.786 160.56 96.493 160.56C96.7211 160.56 96.8351 160.494 96.9263 160.296C97.0632 159.988 97.2456 159.68 97.3825 159.35C97.793 158.382 98.2491 157.436 98.5684 156.446C98.8421 155.632 98.979 154.774 99.1158 153.916C99.1614 153.608 99.0702 153.278 99.0018 152.97C98.9562 152.75 98.8193 152.728 98.6369 152.86C98.5912 152.882 98.5456 152.926 98.5228 152.97C98.1123 153.52 97.6562 154.048 97.2913 154.62C96.7211 155.5 96.1737 156.424 95.6263 157.326C94.9421 158.426 94.3035 159.526 93.6193 160.67ZM110.497 161.902C111.911 161.572 113.097 161.154 113.347 160.89C112.458 160.89 111.591 160.89 110.793 160.89C110.702 161.22 110.611 161.55 110.497 161.902ZM107.988 160.472C107.942 160.032 107.919 159.614 107.874 159.218C107.463 159.636 107.03 160.054 106.619 160.472C107.075 160.472 107.554 160.472 107.988 160.472ZM109.675 160.802C109.539 160.802 109.402 160.802 109.288 160.802C109.128 160.824 108.9 160.802 108.832 160.89C108.626 161.176 108.467 161.506 108.307 161.814C108.763 161.462 109.105 161 109.675 160.802ZM105.821 159.592C105.547 159.878 105.297 160.142 105 160.428C105.319 160.45 105.593 160.472 105.821 160.494C105.821 160.186 105.821 159.9 105.821 159.592ZM99.3439 160.406C99.4351 160.098 99.5035 159.812 99.572 159.548C99.5492 159.526 99.5491 159.526 99.5263 159.504C99.2299 159.834 98.9334 160.164 98.6825 160.472C98.8649 160.45 99.1386 160.428 99.3439 160.406ZM104.111 159.702C103.882 159.944 103.654 160.164 103.426 160.406C103.7 160.406 103.974 160.406 104.225 160.406C104.179 160.186 104.156 159.944 104.111 159.702ZM100.781 159.944C100.598 160.098 100.439 160.252 100.256 160.406C100.439 160.406 100.598 160.406 100.735 160.406C100.758 160.274 100.781 160.12 100.781 159.944ZM102.263 160.098C102.172 160.186 102.081 160.296 101.967 160.428C102.126 160.428 102.263 160.428 102.377 160.428C102.332 160.296 102.286 160.208 102.263 160.098Z" fill="#172D5F"/>
</g>
<path d="M55.1404 144.893C55.0266 144.722 54.856 144.608 54.6853 144.494L54.7422 144.551C54.9128 144.949 55.0835 145.291 55.2541 145.689C55.311 145.518 55.3679 145.348 55.3679 145.177C55.2541 145.063 55.1972 144.949 55.1404 144.893Z" fill="#CDD6E5"/>
<path d="M57.4725 152.628C57.4725 152.458 57.5294 152.287 57.5294 152.116C57.5294 151.889 57.5294 151.661 57.5294 151.434C57.5863 151.206 57.757 150.865 57.9845 150.751C58.0983 148.476 57.5863 146.03 56.4487 143.755C54.5715 139.944 51.2155 137.156 47.5181 135.848C47.4612 135.905 47.4044 136.019 47.4044 136.132C47.2906 136.417 46.8355 136.303 46.8355 135.962C46.8355 135.848 46.8355 135.734 46.7786 135.62C43.7639 134.71 40.5216 134.767 37.5637 136.019C36.9949 136.246 36.426 136.531 35.9141 136.872C35.9141 137.099 35.971 137.327 35.971 137.555C35.7435 137.498 35.5728 137.384 35.4022 137.213C30.169 140.74 28.4056 147.793 31.591 154.107C32.0461 155.017 32.6149 155.871 33.1837 156.667C33.1837 156.383 33.2406 156.155 33.3544 155.871C33.4113 155.643 33.4682 155.472 33.525 155.302C33.1837 154.79 32.8424 154.221 32.558 153.652C29.3157 147.111 31.7617 139.659 38.0756 136.986C44.3896 134.369 52.1825 137.555 55.4248 144.096C57.7001 148.703 57.1881 153.823 54.4009 157.293C54.4009 157.406 54.4009 157.577 54.4009 157.634C54.4009 157.918 54.4009 158.203 54.4009 158.487C54.4009 158.658 54.4009 158.885 54.4009 159.056C56.0505 157.406 57.1881 155.302 57.7001 152.97H57.6432C57.5294 152.97 57.4725 152.799 57.4725 152.628Z" fill="#CDD6E5"/>
<path d="M49.9641 160.82C44.2759 163.152 37.3931 160.82 33.6957 155.53C33.7526 155.871 33.8095 156.155 33.9233 156.44C33.9802 156.781 33.9233 157.122 33.8095 157.35C35.6866 159.511 38.1326 161.104 40.7492 162.014C40.8629 161.9 40.9767 161.787 41.1473 161.73C41.3749 161.673 41.6024 161.673 41.8299 161.73C41.8868 161.73 41.9437 161.73 42.0006 161.787C42.0575 161.843 42.1143 161.9 42.1143 161.957C42.2281 162.128 42.285 162.299 42.3988 162.469C45.0722 163.038 47.9164 162.867 50.4761 161.787C51.8981 161.218 53.1495 160.365 54.1734 159.398C54.1165 158.829 54.1165 158.317 54.1165 157.748C53.0358 159.113 51.6706 160.137 49.9641 160.82Z" fill="#CDD6E5"/>
<path d="M55.3678 146.144C55.2541 146.087 55.1972 145.859 55.1972 145.689C55.0265 145.29 54.8559 144.949 54.6853 144.551L54.6284 144.494C54.6284 144.494 54.6284 144.494 54.5715 144.494C54.4008 144.38 54.2302 144.267 54.1164 144.096C54.0027 143.925 54.0027 143.755 53.8889 143.584C53.7751 143.47 53.5476 143.527 53.4907 143.413C53.3201 143.129 53.3201 142.901 53.5476 142.845C50.0778 138.01 43.7638 135.848 38.5306 138.01C37.2223 138.578 36.0278 139.375 35.1177 140.342C35.1177 140.455 35.1177 140.626 35.0608 140.74C35.0039 141.024 34.8333 141.252 34.6626 141.422C34.2644 141.878 33.98 142.446 33.8663 143.015C33.9232 142.674 33.98 142.048 34.1507 141.422C33.2406 142.617 32.6717 144.039 32.3304 145.518L32.3873 145.575C32.4442 145.632 32.3873 145.746 32.3873 145.802C32.3873 146.03 32.3873 146.257 32.4442 146.428C32.5011 146.542 32.5011 146.599 32.558 146.713C32.6149 146.997 32.3304 147.168 32.1029 147.281C31.9891 149.272 32.3873 151.377 33.4112 153.425C33.4681 153.482 33.525 153.595 33.525 153.652C33.525 153.595 33.525 153.482 33.5819 153.425C33.6387 153.197 33.6956 152.97 33.6956 152.742C33.8663 153.083 33.7525 153.425 33.6387 153.766C33.6387 153.823 33.6387 153.823 33.6387 153.88C35.1746 156.667 37.5636 158.772 40.294 159.909C40.4646 159.909 40.6353 159.909 40.8059 159.966C40.9766 159.966 41.1472 160.023 41.2041 160.194C41.2041 160.251 41.2041 160.251 41.2041 160.307C43.9345 161.218 46.8355 161.218 49.5089 160.137C51.4998 159.34 53.0357 157.975 54.1164 156.383C54.1164 156.212 54.1733 156.041 54.2302 155.871C54.2871 155.871 54.344 155.928 54.4008 156.041C56.1073 153.083 56.5055 149.557 55.3678 146.144ZM39.6114 139.944C41.9436 138.977 44.5033 139.09 46.7786 139.944C46.8355 139.887 46.8924 139.887 46.9492 139.83C47.0061 139.773 47.0061 139.659 47.063 139.602C47.1768 139.432 47.2905 139.261 47.5181 139.261C47.5181 139.488 47.4612 139.716 47.4612 139.944C47.5181 140 47.5749 140.057 47.5749 140.114C47.6318 140.171 47.6318 140.285 47.6318 140.342C48.3713 140.74 49.1108 141.195 49.7934 141.707L45.0721 143.698C45.0721 143.755 45.0152 143.812 44.9584 143.925C44.9015 143.982 44.9015 144.039 44.8446 144.153C44.6739 144.437 44.4464 144.779 44.1051 144.892C43.9345 144.949 43.7069 144.835 43.7069 144.665C43.7069 144.608 43.7069 144.494 43.6501 144.437V144.38V144.323L38.1893 146.599C37.9049 146.94 37.6205 147.338 37.1655 147.281C37.0517 147.281 36.9379 147.224 36.7673 147.224L34.3782 148.191C34.3213 144.608 36.1985 141.366 39.6114 139.944ZM49.7365 157.35C49.7365 157.52 49.6796 157.634 49.6796 157.805C49.6227 158.317 49.5089 158.885 49.1677 159.227C49.1677 158.658 49.2245 158.146 49.2814 157.634C49.0539 157.748 48.8264 157.862 48.5988 157.975C45.2428 159.397 41.261 158.544 38.4169 156.212L44.7877 153.595C44.9584 153.425 45.1859 153.254 45.4134 153.083C45.5272 152.97 45.6978 152.856 45.8116 152.799C46.0391 152.685 46.3804 152.742 46.6648 152.742C46.7217 152.742 46.7217 152.742 46.7786 152.742L50.7035 151.149C50.7035 151.149 50.7035 151.149 50.7035 151.092C50.7604 150.922 50.8172 150.694 50.8172 150.524C50.7604 150.296 50.7035 150.012 50.6466 149.784C50.5897 149.5 50.5328 149.102 50.5328 148.703L41.261 152.571C41.2041 152.628 41.2041 152.628 41.1472 152.685C40.8628 152.913 39.2701 153.937 38.9857 153.538L36.7673 154.449C36.3122 153.88 35.914 153.254 35.5727 152.571C35.2315 151.889 35.0039 151.206 34.8333 150.524L41.3179 147.793C41.4885 147.509 41.6023 147.111 41.8867 146.997C42.0005 147.111 42.0005 147.338 42.0005 147.509L51.6705 143.47C52.1255 144.039 52.5237 144.665 52.865 145.347C53.2063 146.03 53.4338 146.713 53.6045 147.395L51.4998 148.248C51.443 148.931 51.4429 149.614 51.3292 150.296C51.3292 150.353 51.3292 150.41 51.2723 150.524C51.2723 150.524 51.2723 150.524 51.2723 150.581C51.2723 150.581 51.3292 150.694 51.3292 150.637C51.3292 150.637 51.3861 150.694 51.4429 150.751C51.4429 150.751 51.443 150.808 51.4998 150.808L53.8889 149.841C53.832 152.856 52.3531 155.757 49.7365 157.35Z" fill="#CDD6E5"/>
<line x1="88.6238" y1="163.512" x2="123.945" y2="163.512" stroke="#172D5F" stroke-width="0.5"/>
<defs>
<clipPath id="clip0_112_936">
<rect width="52" height="22" fill="white" transform="translate(132 150)"/>
</clipPath>
<clipPath id="clip1_112_936">
<rect width="52" height="22" fill="white" transform="translate(105 150)"/>
</clipPath>
<clipPath id="clip2_112_936">
<rect width="52" height="22" fill="white" transform="translate(79 150)"/>
</clipPath>
</defs>
</svg>
