<svg width="246" height="182" viewBox="0 0 246 182" fill="none" xmlns="http://www.w3.org/2000/svg">
<rect x="108" y="2" width="136" height="177.101" rx="8" fill="white" stroke="#172D5F" stroke-width="4"/>
<path d="M204.257 10.918H224.44C229.963 10.918 234.44 15.3951 234.44 20.918V36.9271" stroke="#172D5F"/>
<line x1="123.982" y1="33.0371" x2="202.973" y2="33.0371" stroke="#172D5F" stroke-width="2"/>
<line x1="123.982" y1="50.376" x2="214.532" y2="50.376" stroke="#172D5F" stroke-width="2"/>
<line x1="123.982" y1="67.0732" x2="224.165" y2="67.0732" stroke="#172D5F" stroke-width="2"/>
<line x1="123.982" y1="89.5508" x2="224.165" y2="89.5508" stroke="#172D5F" stroke-width="2"/>
<line x1="123.982" y1="108.816" x2="224.165" y2="108.816" stroke="#172D5F" stroke-width="2"/>
<line x1="123.982" y1="126.798" x2="194.624" y2="126.798" stroke="#172D5F" stroke-width="2"/>
<line x1="123.982" y1="141.568" x2="194.624" y2="141.568" stroke="#172D5F" stroke-width="2"/>
<g clip-path="url(#clip0_112_1007)">
<rect width="52" height="22" transform="translate(185 150)" fill="white"/>
<path d="M216.268 160.648C217.089 160.648 217.842 160.648 218.595 160.648C218.8 160.648 218.982 160.67 219.188 160.692C219.963 160.802 220.556 160.406 221.126 160.032C222.267 159.306 223.361 158.536 224.456 157.788C224.616 157.678 224.821 157.59 225.004 157.524C225.346 157.392 225.642 157.48 225.916 157.7C226.167 157.92 226.418 158.118 226.691 158.294C227.284 158.712 227.535 158.624 228.06 158.294C228.47 158.052 228.835 157.722 229.268 157.524C229.497 157.414 229.839 157.436 230.09 157.524C230.911 157.744 231.709 157.898 232.53 157.48C232.735 157.37 232.963 157.348 233.191 157.304C233.511 157.238 233.853 157.15 234.172 157.084C234.514 157.018 234.833 156.952 235.175 156.93C235.472 156.908 235.791 156.93 236.088 156.952C235.791 156.996 235.495 157.084 235.198 157.084C234.811 157.084 234.446 157.172 234.081 157.304C233.761 157.414 233.419 157.436 233.1 157.524C232.918 157.568 232.735 157.612 232.575 157.7C232.074 157.964 231.549 158.03 231.002 157.964C230.568 157.92 230.181 157.832 229.77 157.7C229.611 157.656 229.337 157.788 229.154 157.876C228.789 158.074 228.447 158.316 228.128 158.58C227.467 159.064 226.828 158.822 226.326 158.448C226.075 158.272 225.87 158.074 225.619 157.876C225.414 157.7 225.14 157.7 224.867 157.898C224.297 158.294 223.726 158.69 223.133 159.086C222.312 159.614 221.491 160.142 220.693 160.67C220.67 160.67 220.67 160.692 220.647 160.736C221.628 160.802 222.609 160.868 223.567 160.912C223.567 160.934 223.567 160.978 223.567 161C223.316 161 223.042 161 222.791 161C222.267 160.978 221.742 160.978 221.218 160.956C221.012 160.956 220.807 160.912 220.602 160.912C220.419 160.912 220.214 160.934 220.054 161C219.119 161.418 218.184 161.858 217.181 162.1C216.975 162.144 216.747 162.166 216.519 162.21C216.109 162.276 215.995 162.012 216.132 161.616C216.177 161.462 216.268 161.286 216.337 161.11C215.812 161.066 215.425 161.286 215.082 161.616C214.444 162.21 213.942 162.914 213.509 163.64C212.939 164.586 212.437 165.576 211.89 166.544C211.844 166.632 211.798 166.72 211.775 166.808C211.388 166.676 211.365 166.676 211.547 166.324C212.323 164.74 213.121 163.156 213.897 161.572C214.033 161.308 214.17 161.066 214.33 160.824C214.284 160.802 214.261 160.802 214.261 160.802C211.821 160.78 209.358 160.758 206.918 160.758C206.074 160.758 205.207 160.78 204.363 160.802C203.907 160.824 203.451 160.824 202.995 160.868C202.926 160.868 202.835 160.956 202.812 161.022C202.128 162.144 201.467 163.266 200.782 164.366C200.737 164.454 200.668 164.52 200.554 164.564C201.239 163.332 201.946 162.1 202.653 160.868C202.493 160.89 202.379 160.89 202.265 160.89C201.375 160.934 200.486 160.956 199.597 161C199.505 161 199.368 161.088 199.323 161.176C198.661 162.254 198.023 163.354 197.316 164.41C196.518 165.642 195.697 166.852 194.807 168.018C194.146 168.876 193.302 169.58 192.275 170.064C191.751 170.306 191.181 170.46 190.588 170.438C189.493 170.416 188.626 169.932 188.011 169.074C187.395 168.26 187.098 167.336 186.916 166.346C186.756 165.554 186.847 164.784 187.349 164.124C187.737 163.596 188.261 163.222 188.854 162.914C190.291 162.188 191.865 161.748 193.461 161.418C194.282 161.242 195.126 161.088 195.947 160.956C196.518 160.868 197.111 160.846 197.704 160.78C198.137 160.736 198.593 160.714 199.026 160.67C199.095 160.67 199.163 160.604 199.209 160.538C199.551 159.966 199.893 159.416 200.235 158.844C200.897 157.722 201.558 156.6 202.265 155.5C202.744 154.752 203.246 154.026 203.747 153.3C203.907 153.08 204.112 152.882 204.318 152.662C204.5 152.464 204.751 152.354 204.956 152.464C205.116 152.552 205.298 152.772 205.298 152.926C205.344 153.432 205.344 153.96 205.321 154.488C205.253 155.412 204.979 156.292 204.637 157.128C204.272 158.008 203.839 158.888 203.451 159.746C203.36 159.966 203.246 160.186 203.109 160.45C203.588 160.384 204.067 160.604 204.454 160.318C204.865 160.032 205.184 159.636 205.549 159.284C205.777 159.064 205.96 158.8 206.165 158.558C206.347 158.646 206.325 158.624 206.256 158.778C206.051 159.196 205.846 159.636 205.64 160.054C205.618 160.12 205.64 160.274 205.686 160.296C205.754 160.34 205.891 160.318 205.96 160.252C206.302 159.922 206.644 159.592 206.963 159.24C207.168 159.02 207.351 158.756 207.556 158.492C207.625 158.558 207.693 158.602 207.693 158.624C207.488 159.108 207.26 159.57 207.077 160.032C207.032 160.12 207.077 160.23 207.1 160.34C207.237 160.318 207.419 160.362 207.511 160.274C207.83 159.944 208.126 159.614 208.423 159.262C208.605 159.042 208.719 158.778 208.856 158.514C209.153 158.58 209.175 158.602 209.039 158.866C208.902 159.152 208.765 159.46 208.651 159.768C208.628 159.834 208.628 159.922 208.628 160.01C208.628 160.208 208.788 160.318 208.947 160.186C209.267 159.944 209.586 159.658 209.882 159.372C210.088 159.152 210.247 158.866 210.453 158.624C210.498 158.58 210.635 158.536 210.681 158.558C210.749 158.602 210.818 158.712 210.795 158.778C210.726 159.108 210.635 159.438 210.567 159.79C210.544 159.9 210.567 160.01 210.567 160.142C211.023 160.032 211.205 159.68 211.433 159.416C211.707 159.13 211.935 158.822 212.163 158.514C212.254 158.404 212.368 158.338 212.482 158.448C212.551 158.514 212.597 158.646 212.574 158.734C212.482 159.042 212.368 159.35 212.277 159.658C212.232 159.79 212.232 159.922 212.209 160.054C212.232 160.076 212.254 160.098 212.3 160.12C212.597 159.834 212.916 159.526 213.212 159.24C213.372 159.086 213.509 158.91 213.691 158.8C213.805 158.712 214.056 158.624 214.125 158.69C214.261 158.778 214.33 158.976 214.375 159.152C214.421 159.416 214.375 159.68 214.421 159.944C214.444 160.076 214.558 160.186 214.626 160.318C214.718 160.23 214.809 160.12 214.854 160.032C215.333 159.218 215.79 158.404 216.291 157.612C217.021 156.49 217.819 155.39 218.595 154.312C218.914 153.85 219.302 153.432 219.689 153.036C220.511 152.2 221.468 151.584 222.723 151.628C223.498 151.65 224 152.09 224.046 152.904C224.091 153.806 223.726 154.576 223.316 155.346C222.86 156.182 222.244 156.93 221.514 157.568C220.761 158.25 219.963 158.822 219.074 159.284C218.139 159.79 217.249 160.186 216.268 160.648ZM198.912 161.066C198.365 161.11 197.863 161.176 197.339 161.22C196.814 161.264 196.289 161.308 195.788 161.396C194.83 161.572 193.872 161.748 192.937 161.968C191.477 162.298 190.04 162.716 188.74 163.486C188.056 163.882 187.509 164.41 187.304 165.18C187.189 165.686 187.258 166.17 187.395 166.654C187.668 167.644 187.988 168.59 188.809 169.316C189.539 169.932 190.337 170.152 191.295 169.954C192.253 169.734 193.051 169.228 193.689 168.546C194.374 167.864 194.99 167.094 195.537 166.324C196.358 165.136 197.111 163.904 197.909 162.694C198.274 162.166 198.57 161.638 198.912 161.066ZM215.082 160.384C215.082 160.406 215.105 160.428 215.105 160.45C215.333 160.384 215.561 160.34 215.789 160.274C216.77 159.988 217.705 159.57 218.595 159.086C219.826 158.404 220.989 157.612 221.902 156.534C222.746 155.544 223.384 154.444 223.59 153.146C223.658 152.75 223.361 152.244 222.951 152.134C222.267 151.958 221.628 152.178 221.058 152.508C220.442 152.838 219.963 153.322 219.53 153.872C219.005 154.532 218.435 155.17 217.956 155.874C217.318 156.754 216.747 157.656 216.154 158.58C215.789 159.152 215.447 159.768 215.082 160.384ZM199.619 160.67C199.916 160.648 200.144 160.604 200.395 160.604C201.102 160.582 201.786 160.56 202.493 160.56C202.721 160.56 202.835 160.494 202.926 160.296C203.063 159.988 203.246 159.68 203.382 159.35C203.793 158.382 204.249 157.436 204.568 156.446C204.842 155.632 204.979 154.774 205.116 153.916C205.161 153.608 205.07 153.278 205.002 152.97C204.956 152.75 204.819 152.728 204.637 152.86C204.591 152.882 204.546 152.926 204.523 152.97C204.112 153.52 203.656 154.048 203.291 154.62C202.721 155.5 202.174 156.424 201.626 157.326C200.942 158.426 200.304 159.526 199.619 160.67ZM216.497 161.902C217.911 161.572 219.097 161.154 219.347 160.89C218.458 160.89 217.591 160.89 216.793 160.89C216.702 161.22 216.611 161.55 216.497 161.902ZM213.988 160.472C213.942 160.032 213.919 159.614 213.874 159.218C213.463 159.636 213.03 160.054 212.619 160.472C213.075 160.472 213.554 160.472 213.988 160.472ZM215.675 160.802C215.539 160.802 215.402 160.802 215.288 160.802C215.128 160.824 214.9 160.802 214.832 160.89C214.626 161.176 214.467 161.506 214.307 161.814C214.763 161.462 215.105 161 215.675 160.802ZM211.821 159.592C211.547 159.878 211.297 160.142 211 160.428C211.319 160.45 211.593 160.472 211.821 160.494C211.821 160.186 211.821 159.9 211.821 159.592ZM205.344 160.406C205.435 160.098 205.504 159.812 205.572 159.548C205.549 159.526 205.549 159.526 205.526 159.504C205.23 159.834 204.933 160.164 204.682 160.472C204.865 160.45 205.139 160.428 205.344 160.406ZM210.111 159.702C209.882 159.944 209.654 160.164 209.426 160.406C209.7 160.406 209.974 160.406 210.225 160.406C210.179 160.186 210.156 159.944 210.111 159.702ZM206.781 159.944C206.598 160.098 206.439 160.252 206.256 160.406C206.439 160.406 206.598 160.406 206.735 160.406C206.758 160.274 206.781 160.12 206.781 159.944ZM208.263 160.098C208.172 160.186 208.081 160.296 207.967 160.428C208.126 160.428 208.263 160.428 208.377 160.428C208.332 160.296 208.286 160.208 208.263 160.098Z" fill="#172D5F"/>
</g>
<path d="M161.14 144.893C161.027 144.722 160.856 144.608 160.685 144.494L160.742 144.551C160.913 144.949 161.083 145.291 161.254 145.689C161.311 145.518 161.368 145.348 161.368 145.177C161.254 145.063 161.197 144.949 161.14 144.893Z" fill="#CDD6E5"/>
<path d="M163.473 152.628C163.473 152.458 163.529 152.287 163.529 152.116C163.529 151.889 163.529 151.661 163.529 151.434C163.586 151.206 163.757 150.865 163.984 150.751C164.098 148.476 163.586 146.03 162.449 143.755C160.572 139.944 157.215 137.156 153.518 135.848C153.461 135.905 153.404 136.019 153.404 136.132C153.291 136.417 152.836 136.303 152.836 135.962C152.836 135.848 152.836 135.734 152.779 135.62C149.764 134.71 146.522 134.767 143.564 136.019C142.995 136.246 142.426 136.531 141.914 136.872C141.914 137.099 141.971 137.327 141.971 137.555C141.743 137.498 141.573 137.384 141.402 137.213C136.169 140.74 134.406 147.793 137.591 154.107C138.046 155.017 138.615 155.871 139.184 156.667C139.184 156.383 139.241 156.155 139.354 155.871C139.411 155.643 139.468 155.472 139.525 155.302C139.184 154.79 138.842 154.221 138.558 153.652C135.316 147.111 137.762 139.659 144.076 136.986C150.39 134.369 158.182 137.555 161.425 144.096C163.7 148.703 163.188 153.823 160.401 157.293C160.401 157.406 160.401 157.577 160.401 157.634C160.401 157.918 160.401 158.203 160.401 158.487C160.401 158.658 160.401 158.885 160.401 159.056C162.05 157.406 163.188 155.302 163.7 152.97H163.643C163.529 152.97 163.473 152.799 163.473 152.628Z" fill="#CDD6E5"/>
<path d="M155.964 160.82C150.276 163.152 143.393 160.82 139.696 155.53C139.753 155.871 139.81 156.155 139.923 156.44C139.98 156.781 139.923 157.122 139.81 157.35C141.687 159.511 144.133 161.104 146.749 162.014C146.863 161.9 146.977 161.787 147.147 161.73C147.375 161.673 147.602 161.673 147.83 161.73C147.887 161.73 147.944 161.73 148.001 161.787C148.058 161.843 148.114 161.9 148.114 161.957C148.228 162.128 148.285 162.299 148.399 162.469C151.072 163.038 153.916 162.867 156.476 161.787C157.898 161.218 159.15 160.365 160.173 159.398C160.117 158.829 160.117 158.317 160.117 157.748C159.036 159.113 157.671 160.137 155.964 160.82Z" fill="#CDD6E5"/>
<path d="M161.368 146.144C161.254 146.087 161.197 145.859 161.197 145.689C161.027 145.29 160.856 144.949 160.685 144.551L160.628 144.494C160.628 144.494 160.628 144.494 160.571 144.494C160.401 144.38 160.23 144.267 160.116 144.096C160.003 143.925 160.003 143.755 159.889 143.584C159.775 143.47 159.548 143.527 159.491 143.413C159.32 143.129 159.32 142.901 159.548 142.845C156.078 138.01 149.764 135.848 144.531 138.01C143.222 138.578 142.028 139.375 141.118 140.342C141.118 140.455 141.118 140.626 141.061 140.74C141.004 141.024 140.833 141.252 140.663 141.422C140.264 141.878 139.98 142.446 139.866 143.015C139.923 142.674 139.98 142.048 140.151 141.422C139.241 142.617 138.672 144.039 138.33 145.518L138.387 145.575C138.444 145.632 138.387 145.746 138.387 145.802C138.387 146.03 138.387 146.257 138.444 146.428C138.501 146.542 138.501 146.599 138.558 146.713C138.615 146.997 138.33 147.168 138.103 147.281C137.989 149.272 138.387 151.377 139.411 153.425C139.468 153.482 139.525 153.595 139.525 153.652C139.525 153.595 139.525 153.482 139.582 153.425C139.639 153.197 139.696 152.97 139.696 152.742C139.866 153.083 139.753 153.425 139.639 153.766C139.639 153.823 139.639 153.823 139.639 153.88C141.175 156.667 143.564 158.772 146.294 159.909C146.465 159.909 146.635 159.909 146.806 159.966C146.977 159.966 147.147 160.023 147.204 160.194C147.204 160.251 147.204 160.251 147.204 160.307C149.934 161.218 152.835 161.218 155.509 160.137C157.5 159.34 159.036 157.975 160.116 156.383C160.116 156.212 160.173 156.041 160.23 155.871C160.287 155.871 160.344 155.928 160.401 156.041C162.107 153.083 162.505 149.557 161.368 146.144ZM145.611 139.944C147.944 138.977 150.503 139.09 152.779 139.944C152.835 139.887 152.892 139.887 152.949 139.83C153.006 139.773 153.006 139.659 153.063 139.602C153.177 139.432 153.291 139.261 153.518 139.261C153.518 139.488 153.461 139.716 153.461 139.944C153.518 140 153.575 140.057 153.575 140.114C153.632 140.171 153.632 140.285 153.632 140.342C154.371 140.74 155.111 141.195 155.793 141.707L151.072 143.698C151.072 143.755 151.015 143.812 150.958 143.925C150.901 143.982 150.901 144.039 150.845 144.153C150.674 144.437 150.446 144.779 150.105 144.892C149.934 144.949 149.707 144.835 149.707 144.665C149.707 144.608 149.707 144.494 149.65 144.437V144.38V144.323L144.189 146.599C143.905 146.94 143.621 147.338 143.165 147.281C143.052 147.281 142.938 147.224 142.767 147.224L140.378 148.191C140.321 144.608 142.198 141.366 145.611 139.944ZM155.736 157.35C155.736 157.52 155.68 157.634 155.68 157.805C155.623 158.317 155.509 158.885 155.168 159.227C155.168 158.658 155.225 158.146 155.281 157.634C155.054 157.748 154.826 157.862 154.599 157.975C151.243 159.397 147.261 158.544 144.417 156.212L150.788 153.595C150.958 153.425 151.186 153.254 151.413 153.083C151.527 152.97 151.698 152.856 151.812 152.799C152.039 152.685 152.38 152.742 152.665 152.742C152.722 152.742 152.722 152.742 152.779 152.742L156.703 151.149C156.703 151.149 156.703 151.149 156.703 151.092C156.76 150.922 156.817 150.694 156.817 150.524C156.76 150.296 156.703 150.012 156.647 149.784C156.59 149.5 156.533 149.102 156.533 148.703L147.261 152.571C147.204 152.628 147.204 152.628 147.147 152.685C146.863 152.913 145.27 153.937 144.986 153.538L142.767 154.449C142.312 153.88 141.914 153.254 141.573 152.571C141.231 151.889 141.004 151.206 140.833 150.524L147.318 147.793C147.489 147.509 147.602 147.111 147.887 146.997C148 147.111 148 147.338 148 147.509L157.67 143.47C158.126 144.039 158.524 144.665 158.865 145.347C159.206 146.03 159.434 146.713 159.604 147.395L157.5 148.248C157.443 148.931 157.443 149.614 157.329 150.296C157.329 150.353 157.329 150.41 157.272 150.524C157.272 150.524 157.272 150.524 157.272 150.581C157.272 150.581 157.329 150.694 157.329 150.637C157.329 150.637 157.386 150.694 157.443 150.751C157.443 150.751 157.443 150.808 157.5 150.808L159.889 149.841C159.832 152.856 158.353 155.757 155.736 157.35Z" fill="#CDD6E5"/>
<line x1="194.624" y1="163.512" x2="229.945" y2="163.512" stroke="#172D5F" stroke-width="0.5"/>
<rect x="88" y="2" width="136" height="177.101" rx="8" fill="white" stroke="#172D5F" stroke-width="4"/>
<path d="M184.257 10.918H204.44C209.963 10.918 214.44 15.3951 214.44 20.918V36.9271" stroke="#172D5F"/>
<line x1="103.982" y1="33.0371" x2="182.973" y2="33.0371" stroke="#172D5F" stroke-width="2"/>
<line x1="103.982" y1="50.376" x2="194.532" y2="50.376" stroke="#172D5F" stroke-width="2"/>
<line x1="103.982" y1="67.0732" x2="204.165" y2="67.0732" stroke="#172D5F" stroke-width="2"/>
<line x1="103.982" y1="89.5508" x2="204.165" y2="89.5508" stroke="#172D5F" stroke-width="2"/>
<line x1="103.982" y1="108.816" x2="204.165" y2="108.816" stroke="#172D5F" stroke-width="2"/>
<line x1="103.982" y1="126.798" x2="174.624" y2="126.798" stroke="#172D5F" stroke-width="2"/>
<line x1="103.982" y1="141.568" x2="174.624" y2="141.568" stroke="#172D5F" stroke-width="2"/>
<g clip-path="url(#clip1_112_1007)">
<rect width="52" height="22" transform="translate(165 150)" fill="white"/>
<path d="M196.268 160.648C197.089 160.648 197.842 160.648 198.595 160.648C198.8 160.648 198.982 160.67 199.188 160.692C199.963 160.802 200.556 160.406 201.126 160.032C202.267 159.306 203.361 158.536 204.456 157.788C204.616 157.678 204.821 157.59 205.004 157.524C205.346 157.392 205.642 157.48 205.916 157.7C206.167 157.92 206.418 158.118 206.691 158.294C207.284 158.712 207.535 158.624 208.06 158.294C208.47 158.052 208.835 157.722 209.268 157.524C209.497 157.414 209.839 157.436 210.09 157.524C210.911 157.744 211.709 157.898 212.53 157.48C212.735 157.37 212.963 157.348 213.191 157.304C213.511 157.238 213.853 157.15 214.172 157.084C214.514 157.018 214.833 156.952 215.175 156.93C215.472 156.908 215.791 156.93 216.088 156.952C215.791 156.996 215.495 157.084 215.198 157.084C214.811 157.084 214.446 157.172 214.081 157.304C213.761 157.414 213.419 157.436 213.1 157.524C212.918 157.568 212.735 157.612 212.575 157.7C212.074 157.964 211.549 158.03 211.002 157.964C210.568 157.92 210.181 157.832 209.77 157.7C209.611 157.656 209.337 157.788 209.154 157.876C208.789 158.074 208.447 158.316 208.128 158.58C207.467 159.064 206.828 158.822 206.326 158.448C206.075 158.272 205.87 158.074 205.619 157.876C205.414 157.7 205.14 157.7 204.867 157.898C204.297 158.294 203.726 158.69 203.133 159.086C202.312 159.614 201.491 160.142 200.693 160.67C200.67 160.67 200.67 160.692 200.647 160.736C201.628 160.802 202.609 160.868 203.567 160.912C203.567 160.934 203.567 160.978 203.567 161C203.316 161 203.042 161 202.791 161C202.267 160.978 201.742 160.978 201.218 160.956C201.012 160.956 200.807 160.912 200.602 160.912C200.419 160.912 200.214 160.934 200.054 161C199.119 161.418 198.184 161.858 197.181 162.1C196.975 162.144 196.747 162.166 196.519 162.21C196.109 162.276 195.995 162.012 196.132 161.616C196.177 161.462 196.268 161.286 196.337 161.11C195.812 161.066 195.425 161.286 195.082 161.616C194.444 162.21 193.942 162.914 193.509 163.64C192.939 164.586 192.437 165.576 191.89 166.544C191.844 166.632 191.798 166.72 191.775 166.808C191.388 166.676 191.365 166.676 191.547 166.324C192.323 164.74 193.121 163.156 193.897 161.572C194.033 161.308 194.17 161.066 194.33 160.824C194.284 160.802 194.261 160.802 194.261 160.802C191.821 160.78 189.358 160.758 186.918 160.758C186.074 160.758 185.207 160.78 184.363 160.802C183.907 160.824 183.451 160.824 182.995 160.868C182.926 160.868 182.835 160.956 182.812 161.022C182.128 162.144 181.467 163.266 180.782 164.366C180.737 164.454 180.668 164.52 180.554 164.564C181.239 163.332 181.946 162.1 182.653 160.868C182.493 160.89 182.379 160.89 182.265 160.89C181.375 160.934 180.486 160.956 179.597 161C179.505 161 179.368 161.088 179.323 161.176C178.661 162.254 178.023 163.354 177.316 164.41C176.518 165.642 175.697 166.852 174.807 168.018C174.146 168.876 173.302 169.58 172.275 170.064C171.751 170.306 171.181 170.46 170.588 170.438C169.493 170.416 168.626 169.932 168.011 169.074C167.395 168.26 167.098 167.336 166.916 166.346C166.756 165.554 166.847 164.784 167.349 164.124C167.737 163.596 168.261 163.222 168.854 162.914C170.291 162.188 171.865 161.748 173.461 161.418C174.282 161.242 175.126 161.088 175.947 160.956C176.518 160.868 177.111 160.846 177.704 160.78C178.137 160.736 178.593 160.714 179.026 160.67C179.095 160.67 179.163 160.604 179.209 160.538C179.551 159.966 179.893 159.416 180.235 158.844C180.897 157.722 181.558 156.6 182.265 155.5C182.744 154.752 183.246 154.026 183.747 153.3C183.907 153.08 184.112 152.882 184.318 152.662C184.5 152.464 184.751 152.354 184.956 152.464C185.116 152.552 185.298 152.772 185.298 152.926C185.344 153.432 185.344 153.96 185.321 154.488C185.253 155.412 184.979 156.292 184.637 157.128C184.272 158.008 183.839 158.888 183.451 159.746C183.36 159.966 183.246 160.186 183.109 160.45C183.588 160.384 184.067 160.604 184.454 160.318C184.865 160.032 185.184 159.636 185.549 159.284C185.777 159.064 185.96 158.8 186.165 158.558C186.347 158.646 186.325 158.624 186.256 158.778C186.051 159.196 185.846 159.636 185.64 160.054C185.618 160.12 185.64 160.274 185.686 160.296C185.754 160.34 185.891 160.318 185.96 160.252C186.302 159.922 186.644 159.592 186.963 159.24C187.168 159.02 187.351 158.756 187.556 158.492C187.625 158.558 187.693 158.602 187.693 158.624C187.488 159.108 187.26 159.57 187.077 160.032C187.032 160.12 187.077 160.23 187.1 160.34C187.237 160.318 187.419 160.362 187.511 160.274C187.83 159.944 188.126 159.614 188.423 159.262C188.605 159.042 188.719 158.778 188.856 158.514C189.153 158.58 189.175 158.602 189.039 158.866C188.902 159.152 188.765 159.46 188.651 159.768C188.628 159.834 188.628 159.922 188.628 160.01C188.628 160.208 188.788 160.318 188.947 160.186C189.267 159.944 189.586 159.658 189.882 159.372C190.088 159.152 190.247 158.866 190.453 158.624C190.498 158.58 190.635 158.536 190.681 158.558C190.749 158.602 190.818 158.712 190.795 158.778C190.726 159.108 190.635 159.438 190.567 159.79C190.544 159.9 190.567 160.01 190.567 160.142C191.023 160.032 191.205 159.68 191.433 159.416C191.707 159.13 191.935 158.822 192.163 158.514C192.254 158.404 192.368 158.338 192.482 158.448C192.551 158.514 192.597 158.646 192.574 158.734C192.482 159.042 192.368 159.35 192.277 159.658C192.232 159.79 192.232 159.922 192.209 160.054C192.232 160.076 192.254 160.098 192.3 160.12C192.597 159.834 192.916 159.526 193.212 159.24C193.372 159.086 193.509 158.91 193.691 158.8C193.805 158.712 194.056 158.624 194.125 158.69C194.261 158.778 194.33 158.976 194.375 159.152C194.421 159.416 194.375 159.68 194.421 159.944C194.444 160.076 194.558 160.186 194.626 160.318C194.718 160.23 194.809 160.12 194.854 160.032C195.333 159.218 195.79 158.404 196.291 157.612C197.021 156.49 197.819 155.39 198.595 154.312C198.914 153.85 199.302 153.432 199.689 153.036C200.511 152.2 201.468 151.584 202.723 151.628C203.498 151.65 204 152.09 204.046 152.904C204.091 153.806 203.726 154.576 203.316 155.346C202.86 156.182 202.244 156.93 201.514 157.568C200.761 158.25 199.963 158.822 199.074 159.284C198.139 159.79 197.249 160.186 196.268 160.648ZM178.912 161.066C178.365 161.11 177.863 161.176 177.339 161.22C176.814 161.264 176.289 161.308 175.788 161.396C174.83 161.572 173.872 161.748 172.937 161.968C171.477 162.298 170.04 162.716 168.74 163.486C168.056 163.882 167.509 164.41 167.304 165.18C167.189 165.686 167.258 166.17 167.395 166.654C167.668 167.644 167.988 168.59 168.809 169.316C169.539 169.932 170.337 170.152 171.295 169.954C172.253 169.734 173.051 169.228 173.689 168.546C174.374 167.864 174.99 167.094 175.537 166.324C176.358 165.136 177.111 163.904 177.909 162.694C178.274 162.166 178.57 161.638 178.912 161.066ZM195.082 160.384C195.082 160.406 195.105 160.428 195.105 160.45C195.333 160.384 195.561 160.34 195.789 160.274C196.77 159.988 197.705 159.57 198.595 159.086C199.826 158.404 200.989 157.612 201.902 156.534C202.746 155.544 203.384 154.444 203.59 153.146C203.658 152.75 203.361 152.244 202.951 152.134C202.267 151.958 201.628 152.178 201.058 152.508C200.442 152.838 199.963 153.322 199.53 153.872C199.005 154.532 198.435 155.17 197.956 155.874C197.318 156.754 196.747 157.656 196.154 158.58C195.789 159.152 195.447 159.768 195.082 160.384ZM179.619 160.67C179.916 160.648 180.144 160.604 180.395 160.604C181.102 160.582 181.786 160.56 182.493 160.56C182.721 160.56 182.835 160.494 182.926 160.296C183.063 159.988 183.246 159.68 183.382 159.35C183.793 158.382 184.249 157.436 184.568 156.446C184.842 155.632 184.979 154.774 185.116 153.916C185.161 153.608 185.07 153.278 185.002 152.97C184.956 152.75 184.819 152.728 184.637 152.86C184.591 152.882 184.546 152.926 184.523 152.97C184.112 153.52 183.656 154.048 183.291 154.62C182.721 155.5 182.174 156.424 181.626 157.326C180.942 158.426 180.304 159.526 179.619 160.67ZM196.497 161.902C197.911 161.572 199.097 161.154 199.347 160.89C198.458 160.89 197.591 160.89 196.793 160.89C196.702 161.22 196.611 161.55 196.497 161.902ZM193.988 160.472C193.942 160.032 193.919 159.614 193.874 159.218C193.463 159.636 193.03 160.054 192.619 160.472C193.075 160.472 193.554 160.472 193.988 160.472ZM195.675 160.802C195.539 160.802 195.402 160.802 195.288 160.802C195.128 160.824 194.9 160.802 194.832 160.89C194.626 161.176 194.467 161.506 194.307 161.814C194.763 161.462 195.105 161 195.675 160.802ZM191.821 159.592C191.547 159.878 191.297 160.142 191 160.428C191.319 160.45 191.593 160.472 191.821 160.494C191.821 160.186 191.821 159.9 191.821 159.592ZM185.344 160.406C185.435 160.098 185.504 159.812 185.572 159.548C185.549 159.526 185.549 159.526 185.526 159.504C185.23 159.834 184.933 160.164 184.682 160.472C184.865 160.45 185.139 160.428 185.344 160.406ZM190.111 159.702C189.882 159.944 189.654 160.164 189.426 160.406C189.7 160.406 189.974 160.406 190.225 160.406C190.179 160.186 190.156 159.944 190.111 159.702ZM186.781 159.944C186.598 160.098 186.439 160.252 186.256 160.406C186.439 160.406 186.598 160.406 186.735 160.406C186.758 160.274 186.781 160.12 186.781 159.944ZM188.263 160.098C188.172 160.186 188.081 160.296 187.967 160.428C188.126 160.428 188.263 160.428 188.377 160.428C188.332 160.296 188.286 160.208 188.263 160.098Z" fill="#172D5F"/>
</g>
<path d="M141.14 144.893C141.027 144.722 140.856 144.608 140.685 144.494L140.742 144.551C140.913 144.949 141.083 145.291 141.254 145.689C141.311 145.518 141.368 145.348 141.368 145.177C141.254 145.063 141.197 144.949 141.14 144.893Z" fill="#CDD6E5"/>
<path d="M143.473 152.628C143.473 152.458 143.529 152.287 143.529 152.116C143.529 151.889 143.529 151.661 143.529 151.434C143.586 151.206 143.757 150.865 143.984 150.751C144.098 148.476 143.586 146.03 142.449 143.755C140.572 139.944 137.215 137.156 133.518 135.848C133.461 135.905 133.404 136.019 133.404 136.132C133.291 136.417 132.836 136.303 132.836 135.962C132.836 135.848 132.836 135.734 132.779 135.62C129.764 134.71 126.522 134.767 123.564 136.019C122.995 136.246 122.426 136.531 121.914 136.872C121.914 137.099 121.971 137.327 121.971 137.555C121.743 137.498 121.573 137.384 121.402 137.213C116.169 140.74 114.406 147.793 117.591 154.107C118.046 155.017 118.615 155.871 119.184 156.667C119.184 156.383 119.241 156.155 119.354 155.871C119.411 155.643 119.468 155.472 119.525 155.302C119.184 154.79 118.842 154.221 118.558 153.652C115.316 147.111 117.762 139.659 124.076 136.986C130.39 134.369 138.182 137.555 141.425 144.096C143.7 148.703 143.188 153.823 140.401 157.293C140.401 157.406 140.401 157.577 140.401 157.634C140.401 157.918 140.401 158.203 140.401 158.487C140.401 158.658 140.401 158.885 140.401 159.056C142.05 157.406 143.188 155.302 143.7 152.97H143.643C143.529 152.97 143.473 152.799 143.473 152.628Z" fill="#CDD6E5"/>
<path d="M135.964 160.82C130.276 163.152 123.393 160.82 119.696 155.53C119.753 155.871 119.81 156.155 119.923 156.44C119.98 156.781 119.923 157.122 119.81 157.35C121.687 159.511 124.133 161.104 126.749 162.014C126.863 161.9 126.977 161.787 127.147 161.73C127.375 161.673 127.602 161.673 127.83 161.73C127.887 161.73 127.944 161.73 128.001 161.787C128.058 161.843 128.114 161.9 128.114 161.957C128.228 162.128 128.285 162.299 128.399 162.469C131.072 163.038 133.916 162.867 136.476 161.787C137.898 161.218 139.15 160.365 140.173 159.398C140.117 158.829 140.117 158.317 140.117 157.748C139.036 159.113 137.671 160.137 135.964 160.82Z" fill="#CDD6E5"/>
<path d="M141.368 146.144C141.254 146.087 141.197 145.859 141.197 145.689C141.027 145.29 140.856 144.949 140.685 144.551L140.628 144.494C140.628 144.494 140.628 144.494 140.571 144.494C140.401 144.38 140.23 144.267 140.116 144.096C140.003 143.925 140.003 143.755 139.889 143.584C139.775 143.47 139.548 143.527 139.491 143.413C139.32 143.129 139.32 142.901 139.548 142.845C136.078 138.01 129.764 135.848 124.531 138.01C123.222 138.578 122.028 139.375 121.118 140.342C121.118 140.455 121.118 140.626 121.061 140.74C121.004 141.024 120.833 141.252 120.663 141.422C120.264 141.878 119.98 142.446 119.866 143.015C119.923 142.674 119.98 142.048 120.151 141.422C119.241 142.617 118.672 144.039 118.33 145.518L118.387 145.575C118.444 145.632 118.387 145.746 118.387 145.802C118.387 146.03 118.387 146.257 118.444 146.428C118.501 146.542 118.501 146.599 118.558 146.713C118.615 146.997 118.33 147.168 118.103 147.281C117.989 149.272 118.387 151.377 119.411 153.425C119.468 153.482 119.525 153.595 119.525 153.652C119.525 153.595 119.525 153.482 119.582 153.425C119.639 153.197 119.696 152.97 119.696 152.742C119.866 153.083 119.753 153.425 119.639 153.766C119.639 153.823 119.639 153.823 119.639 153.88C121.175 156.667 123.564 158.772 126.294 159.909C126.465 159.909 126.635 159.909 126.806 159.966C126.977 159.966 127.147 160.023 127.204 160.194C127.204 160.251 127.204 160.251 127.204 160.307C129.934 161.218 132.835 161.218 135.509 160.137C137.5 159.34 139.036 157.975 140.116 156.383C140.116 156.212 140.173 156.041 140.23 155.871C140.287 155.871 140.344 155.928 140.401 156.041C142.107 153.083 142.505 149.557 141.368 146.144ZM125.611 139.944C127.944 138.977 130.503 139.09 132.779 139.944C132.835 139.887 132.892 139.887 132.949 139.83C133.006 139.773 133.006 139.659 133.063 139.602C133.177 139.432 133.291 139.261 133.518 139.261C133.518 139.488 133.461 139.716 133.461 139.944C133.518 140 133.575 140.057 133.575 140.114C133.632 140.171 133.632 140.285 133.632 140.342C134.371 140.74 135.111 141.195 135.793 141.707L131.072 143.698C131.072 143.755 131.015 143.812 130.958 143.925C130.901 143.982 130.901 144.039 130.845 144.153C130.674 144.437 130.446 144.779 130.105 144.892C129.934 144.949 129.707 144.835 129.707 144.665C129.707 144.608 129.707 144.494 129.65 144.437V144.38V144.323L124.189 146.599C123.905 146.94 123.621 147.338 123.165 147.281C123.052 147.281 122.938 147.224 122.767 147.224L120.378 148.191C120.321 144.608 122.198 141.366 125.611 139.944ZM135.736 157.35C135.736 157.52 135.68 157.634 135.68 157.805C135.623 158.317 135.509 158.885 135.168 159.227C135.168 158.658 135.225 158.146 135.281 157.634C135.054 157.748 134.826 157.862 134.599 157.975C131.243 159.397 127.261 158.544 124.417 156.212L130.788 153.595C130.958 153.425 131.186 153.254 131.413 153.083C131.527 152.97 131.698 152.856 131.812 152.799C132.039 152.685 132.38 152.742 132.665 152.742C132.722 152.742 132.722 152.742 132.779 152.742L136.703 151.149C136.703 151.149 136.703 151.149 136.703 151.092C136.76 150.922 136.817 150.694 136.817 150.524C136.76 150.296 136.703 150.012 136.647 149.784C136.59 149.5 136.533 149.102 136.533 148.703L127.261 152.571C127.204 152.628 127.204 152.628 127.147 152.685C126.863 152.913 125.27 153.937 124.986 153.538L122.767 154.449C122.312 153.88 121.914 153.254 121.573 152.571C121.231 151.889 121.004 151.206 120.833 150.524L127.318 147.793C127.489 147.509 127.602 147.111 127.887 146.997C128 147.111 128 147.338 128 147.509L137.67 143.47C138.126 144.039 138.524 144.665 138.865 145.347C139.206 146.03 139.434 146.713 139.604 147.395L137.5 148.248C137.443 148.931 137.443 149.614 137.329 150.296C137.329 150.353 137.329 150.41 137.272 150.524C137.272 150.524 137.272 150.524 137.272 150.581C137.272 150.581 137.329 150.694 137.329 150.637C137.329 150.637 137.386 150.694 137.443 150.751C137.443 150.751 137.443 150.808 137.5 150.808L139.889 149.841C139.832 152.856 138.353 155.757 135.736 157.35Z" fill="#CDD6E5"/>
<line x1="174.624" y1="163.512" x2="209.945" y2="163.512" stroke="#172D5F" stroke-width="0.5"/>
<rect x="42" y="2" width="136" height="177.101" rx="8" fill="white" stroke="#172D5F" stroke-width="4"/>
<path d="M138.257 10.918H158.44C163.963 10.918 168.44 15.3951 168.44 20.918V36.9271" stroke="#172D5F"/>
<line x1="57.9817" y1="33.0371" x2="136.973" y2="33.0371" stroke="#172D5F" stroke-width="2"/>
<line x1="57.9817" y1="50.376" x2="148.532" y2="50.376" stroke="#172D5F" stroke-width="2"/>
<line x1="57.9817" y1="67.0732" x2="158.165" y2="67.0732" stroke="#172D5F" stroke-width="2"/>
<line x1="57.9817" y1="89.5508" x2="158.165" y2="89.5508" stroke="#172D5F" stroke-width="2"/>
<line x1="57.9817" y1="108.816" x2="158.165" y2="108.816" stroke="#172D5F" stroke-width="2"/>
<line x1="57.9817" y1="126.798" x2="128.624" y2="126.798" stroke="#172D5F" stroke-width="2"/>
<line x1="57.9817" y1="141.568" x2="128.624" y2="141.568" stroke="#172D5F" stroke-width="2"/>
<g clip-path="url(#clip2_112_1007)">
<rect width="52" height="22" transform="translate(119 150)" fill="white"/>
<path d="M150.268 160.648C151.089 160.648 151.842 160.648 152.595 160.648C152.8 160.648 152.982 160.67 153.188 160.692C153.963 160.802 154.556 160.406 155.126 160.032C156.267 159.306 157.361 158.536 158.456 157.788C158.616 157.678 158.821 157.59 159.004 157.524C159.346 157.392 159.642 157.48 159.916 157.7C160.167 157.92 160.418 158.118 160.691 158.294C161.284 158.712 161.535 158.624 162.06 158.294C162.47 158.052 162.835 157.722 163.268 157.524C163.497 157.414 163.839 157.436 164.09 157.524C164.911 157.744 165.709 157.898 166.53 157.48C166.735 157.37 166.963 157.348 167.191 157.304C167.511 157.238 167.853 157.15 168.172 157.084C168.514 157.018 168.833 156.952 169.175 156.93C169.472 156.908 169.791 156.93 170.088 156.952C169.791 156.996 169.495 157.084 169.198 157.084C168.811 157.084 168.446 157.172 168.081 157.304C167.761 157.414 167.419 157.436 167.1 157.524C166.918 157.568 166.735 157.612 166.575 157.7C166.074 157.964 165.549 158.03 165.002 157.964C164.568 157.92 164.181 157.832 163.77 157.7C163.611 157.656 163.337 157.788 163.154 157.876C162.789 158.074 162.447 158.316 162.128 158.58C161.467 159.064 160.828 158.822 160.326 158.448C160.075 158.272 159.87 158.074 159.619 157.876C159.414 157.7 159.14 157.7 158.867 157.898C158.297 158.294 157.726 158.69 157.133 159.086C156.312 159.614 155.491 160.142 154.693 160.67C154.67 160.67 154.67 160.692 154.647 160.736C155.628 160.802 156.609 160.868 157.567 160.912C157.567 160.934 157.567 160.978 157.567 161C157.316 161 157.042 161 156.791 161C156.267 160.978 155.742 160.978 155.218 160.956C155.012 160.956 154.807 160.912 154.602 160.912C154.419 160.912 154.214 160.934 154.054 161C153.119 161.418 152.184 161.858 151.181 162.1C150.975 162.144 150.747 162.166 150.519 162.21C150.109 162.276 149.995 162.012 150.132 161.616C150.177 161.462 150.268 161.286 150.337 161.11C149.812 161.066 149.425 161.286 149.082 161.616C148.444 162.21 147.942 162.914 147.509 163.64C146.939 164.586 146.437 165.576 145.89 166.544C145.844 166.632 145.798 166.72 145.775 166.808C145.388 166.676 145.365 166.676 145.547 166.324C146.323 164.74 147.121 163.156 147.897 161.572C148.033 161.308 148.17 161.066 148.33 160.824C148.284 160.802 148.261 160.802 148.261 160.802C145.821 160.78 143.358 160.758 140.918 160.758C140.074 160.758 139.207 160.78 138.363 160.802C137.907 160.824 137.451 160.824 136.995 160.868C136.926 160.868 136.835 160.956 136.812 161.022C136.128 162.144 135.467 163.266 134.782 164.366C134.737 164.454 134.668 164.52 134.554 164.564C135.239 163.332 135.946 162.1 136.653 160.868C136.493 160.89 136.379 160.89 136.265 160.89C135.375 160.934 134.486 160.956 133.597 161C133.505 161 133.368 161.088 133.323 161.176C132.661 162.254 132.023 163.354 131.316 164.41C130.518 165.642 129.697 166.852 128.807 168.018C128.146 168.876 127.302 169.58 126.275 170.064C125.751 170.306 125.181 170.46 124.588 170.438C123.493 170.416 122.626 169.932 122.011 169.074C121.395 168.26 121.098 167.336 120.916 166.346C120.756 165.554 120.847 164.784 121.349 164.124C121.737 163.596 122.261 163.222 122.854 162.914C124.291 162.188 125.865 161.748 127.461 161.418C128.282 161.242 129.126 161.088 129.947 160.956C130.518 160.868 131.111 160.846 131.704 160.78C132.137 160.736 132.593 160.714 133.026 160.67C133.095 160.67 133.163 160.604 133.209 160.538C133.551 159.966 133.893 159.416 134.235 158.844C134.897 157.722 135.558 156.6 136.265 155.5C136.744 154.752 137.246 154.026 137.747 153.3C137.907 153.08 138.112 152.882 138.318 152.662C138.5 152.464 138.751 152.354 138.956 152.464C139.116 152.552 139.298 152.772 139.298 152.926C139.344 153.432 139.344 153.96 139.321 154.488C139.253 155.412 138.979 156.292 138.637 157.128C138.272 158.008 137.839 158.888 137.451 159.746C137.36 159.966 137.246 160.186 137.109 160.45C137.588 160.384 138.067 160.604 138.454 160.318C138.865 160.032 139.184 159.636 139.549 159.284C139.777 159.064 139.96 158.8 140.165 158.558C140.347 158.646 140.325 158.624 140.256 158.778C140.051 159.196 139.846 159.636 139.64 160.054C139.618 160.12 139.64 160.274 139.686 160.296C139.754 160.34 139.891 160.318 139.96 160.252C140.302 159.922 140.644 159.592 140.963 159.24C141.168 159.02 141.351 158.756 141.556 158.492C141.625 158.558 141.693 158.602 141.693 158.624C141.488 159.108 141.26 159.57 141.077 160.032C141.032 160.12 141.077 160.23 141.1 160.34C141.237 160.318 141.419 160.362 141.511 160.274C141.83 159.944 142.126 159.614 142.423 159.262C142.605 159.042 142.719 158.778 142.856 158.514C143.153 158.58 143.175 158.602 143.039 158.866C142.902 159.152 142.765 159.46 142.651 159.768C142.628 159.834 142.628 159.922 142.628 160.01C142.628 160.208 142.788 160.318 142.947 160.186C143.267 159.944 143.586 159.658 143.882 159.372C144.088 159.152 144.247 158.866 144.453 158.624C144.498 158.58 144.635 158.536 144.681 158.558C144.749 158.602 144.818 158.712 144.795 158.778C144.726 159.108 144.635 159.438 144.567 159.79C144.544 159.9 144.567 160.01 144.567 160.142C145.023 160.032 145.205 159.68 145.433 159.416C145.707 159.13 145.935 158.822 146.163 158.514C146.254 158.404 146.368 158.338 146.482 158.448C146.551 158.514 146.597 158.646 146.574 158.734C146.482 159.042 146.368 159.35 146.277 159.658C146.232 159.79 146.232 159.922 146.209 160.054C146.232 160.076 146.254 160.098 146.3 160.12C146.597 159.834 146.916 159.526 147.212 159.24C147.372 159.086 147.509 158.91 147.691 158.8C147.805 158.712 148.056 158.624 148.125 158.69C148.261 158.778 148.33 158.976 148.375 159.152C148.421 159.416 148.375 159.68 148.421 159.944C148.444 160.076 148.558 160.186 148.626 160.318C148.718 160.23 148.809 160.12 148.854 160.032C149.333 159.218 149.79 158.404 150.291 157.612C151.021 156.49 151.819 155.39 152.595 154.312C152.914 153.85 153.302 153.432 153.689 153.036C154.511 152.2 155.468 151.584 156.723 151.628C157.498 151.65 158 152.09 158.046 152.904C158.091 153.806 157.726 154.576 157.316 155.346C156.86 156.182 156.244 156.93 155.514 157.568C154.761 158.25 153.963 158.822 153.074 159.284C152.139 159.79 151.249 160.186 150.268 160.648ZM132.912 161.066C132.365 161.11 131.863 161.176 131.339 161.22C130.814 161.264 130.289 161.308 129.788 161.396C128.83 161.572 127.872 161.748 126.937 161.968C125.477 162.298 124.04 162.716 122.74 163.486C122.056 163.882 121.509 164.41 121.304 165.18C121.189 165.686 121.258 166.17 121.395 166.654C121.668 167.644 121.988 168.59 122.809 169.316C123.539 169.932 124.337 170.152 125.295 169.954C126.253 169.734 127.051 169.228 127.689 168.546C128.374 167.864 128.99 167.094 129.537 166.324C130.358 165.136 131.111 163.904 131.909 162.694C132.274 162.166 132.57 161.638 132.912 161.066ZM149.082 160.384C149.082 160.406 149.105 160.428 149.105 160.45C149.333 160.384 149.561 160.34 149.789 160.274C150.77 159.988 151.705 159.57 152.595 159.086C153.826 158.404 154.989 157.612 155.902 156.534C156.746 155.544 157.384 154.444 157.59 153.146C157.658 152.75 157.361 152.244 156.951 152.134C156.267 151.958 155.628 152.178 155.058 152.508C154.442 152.838 153.963 153.322 153.53 153.872C153.005 154.532 152.435 155.17 151.956 155.874C151.318 156.754 150.747 157.656 150.154 158.58C149.789 159.152 149.447 159.768 149.082 160.384ZM133.619 160.67C133.916 160.648 134.144 160.604 134.395 160.604C135.102 160.582 135.786 160.56 136.493 160.56C136.721 160.56 136.835 160.494 136.926 160.296C137.063 159.988 137.246 159.68 137.382 159.35C137.793 158.382 138.249 157.436 138.568 156.446C138.842 155.632 138.979 154.774 139.116 153.916C139.161 153.608 139.07 153.278 139.002 152.97C138.956 152.75 138.819 152.728 138.637 152.86C138.591 152.882 138.546 152.926 138.523 152.97C138.112 153.52 137.656 154.048 137.291 154.62C136.721 155.5 136.174 156.424 135.626 157.326C134.942 158.426 134.304 159.526 133.619 160.67ZM150.497 161.902C151.911 161.572 153.097 161.154 153.347 160.89C152.458 160.89 151.591 160.89 150.793 160.89C150.702 161.22 150.611 161.55 150.497 161.902ZM147.988 160.472C147.942 160.032 147.919 159.614 147.874 159.218C147.463 159.636 147.03 160.054 146.619 160.472C147.075 160.472 147.554 160.472 147.988 160.472ZM149.675 160.802C149.539 160.802 149.402 160.802 149.288 160.802C149.128 160.824 148.9 160.802 148.832 160.89C148.626 161.176 148.467 161.506 148.307 161.814C148.763 161.462 149.105 161 149.675 160.802ZM145.821 159.592C145.547 159.878 145.297 160.142 145 160.428C145.319 160.45 145.593 160.472 145.821 160.494C145.821 160.186 145.821 159.9 145.821 159.592ZM139.344 160.406C139.435 160.098 139.504 159.812 139.572 159.548C139.549 159.526 139.549 159.526 139.526 159.504C139.23 159.834 138.933 160.164 138.682 160.472C138.865 160.45 139.139 160.428 139.344 160.406ZM144.111 159.702C143.882 159.944 143.654 160.164 143.426 160.406C143.7 160.406 143.974 160.406 144.225 160.406C144.179 160.186 144.156 159.944 144.111 159.702ZM140.781 159.944C140.598 160.098 140.439 160.252 140.256 160.406C140.439 160.406 140.598 160.406 140.735 160.406C140.758 160.274 140.781 160.12 140.781 159.944ZM142.263 160.098C142.172 160.186 142.081 160.296 141.967 160.428C142.126 160.428 142.263 160.428 142.377 160.428C142.332 160.296 142.286 160.208 142.263 160.098Z" fill="#172D5F"/>
</g>
<path d="M95.1404 144.893C95.0266 144.722 94.856 144.608 94.6853 144.494L94.7422 144.551C94.9128 144.949 95.0835 145.291 95.2541 145.689C95.311 145.518 95.3679 145.348 95.3679 145.177C95.2541 145.063 95.1972 144.949 95.1404 144.893Z" fill="#CDD6E5"/>
<path d="M97.4725 152.628C97.4725 152.458 97.5294 152.287 97.5294 152.116C97.5294 151.889 97.5294 151.661 97.5294 151.434C97.5863 151.206 97.757 150.865 97.9845 150.751C98.0983 148.476 97.5863 146.03 96.4487 143.755C94.5715 139.944 91.2155 137.156 87.5181 135.848C87.4612 135.905 87.4044 136.019 87.4044 136.132C87.2906 136.417 86.8355 136.303 86.8355 135.962C86.8355 135.848 86.8355 135.734 86.7786 135.62C83.7639 134.71 80.5216 134.767 77.5637 136.019C76.9949 136.246 76.426 136.531 75.9141 136.872C75.9141 137.099 75.971 137.327 75.971 137.555C75.7435 137.498 75.5728 137.384 75.4022 137.213C70.169 140.74 68.4056 147.793 71.591 154.107C72.0461 155.017 72.6149 155.871 73.1837 156.667C73.1837 156.383 73.2406 156.155 73.3544 155.871C73.4113 155.643 73.4682 155.472 73.525 155.302C73.1837 154.79 72.8424 154.221 72.558 153.652C69.3157 147.111 71.7617 139.659 78.0756 136.986C84.3896 134.369 92.1825 137.555 95.4248 144.096C97.7001 148.703 97.1881 153.823 94.4009 157.293C94.4009 157.406 94.4009 157.577 94.4009 157.634C94.4009 157.918 94.4009 158.203 94.4009 158.487C94.4009 158.658 94.4009 158.885 94.4009 159.056C96.0505 157.406 97.1881 155.302 97.7001 152.97H97.6432C97.5294 152.97 97.4725 152.799 97.4725 152.628Z" fill="#CDD6E5"/>
<path d="M89.9642 160.82C84.2759 163.152 77.3932 160.82 73.6958 155.53C73.7527 155.871 73.8096 156.155 73.9233 156.44C73.9802 156.781 73.9233 157.122 73.8096 157.35C75.6867 159.511 78.1326 161.104 80.7492 162.014C80.863 161.9 80.9768 161.787 81.1474 161.73C81.3749 161.673 81.6025 161.673 81.83 161.73C81.8869 161.73 81.9438 161.73 82.0006 161.787C82.0575 161.843 82.1144 161.9 82.1144 161.957C82.2282 162.128 82.2851 162.299 82.3988 162.469C85.0723 163.038 87.9164 162.867 90.4761 161.787C91.8982 161.218 93.1496 160.365 94.1735 159.398C94.1166 158.829 94.1166 158.317 94.1166 157.748C93.0358 159.113 91.6707 160.137 89.9642 160.82Z" fill="#CDD6E5"/>
<path d="M95.3678 146.144C95.2541 146.087 95.1972 145.859 95.1972 145.689C95.0265 145.29 94.8559 144.949 94.6853 144.551L94.6284 144.494C94.6284 144.494 94.6284 144.494 94.5715 144.494C94.4008 144.38 94.2302 144.267 94.1164 144.096C94.0027 143.925 94.0027 143.755 93.8889 143.584C93.7751 143.47 93.5476 143.527 93.4907 143.413C93.3201 143.129 93.3201 142.901 93.5476 142.845C90.0778 138.01 83.7638 135.848 78.5306 138.01C77.2223 138.578 76.0278 139.375 75.1177 140.342C75.1177 140.455 75.1177 140.626 75.0608 140.74C75.0039 141.024 74.8333 141.252 74.6626 141.422C74.2644 141.878 73.98 142.446 73.8663 143.015C73.9232 142.674 73.98 142.048 74.1507 141.422C73.2406 142.617 72.6717 144.039 72.3304 145.518L72.3873 145.575C72.4442 145.632 72.3873 145.746 72.3873 145.802C72.3873 146.03 72.3873 146.257 72.4442 146.428C72.5011 146.542 72.5011 146.599 72.558 146.713C72.6149 146.997 72.3304 147.168 72.1029 147.281C71.9891 149.272 72.3873 151.377 73.4112 153.425C73.4681 153.482 73.525 153.595 73.525 153.652C73.525 153.595 73.525 153.482 73.5819 153.425C73.6387 153.197 73.6956 152.97 73.6956 152.742C73.8663 153.083 73.7525 153.425 73.6387 153.766C73.6387 153.823 73.6387 153.823 73.6387 153.88C75.1746 156.667 77.5636 158.772 80.294 159.909C80.4646 159.909 80.6353 159.909 80.8059 159.966C80.9766 159.966 81.1472 160.023 81.2041 160.194C81.2041 160.251 81.2041 160.251 81.2041 160.307C83.9345 161.218 86.8355 161.218 89.5089 160.137C91.4998 159.34 93.0357 157.975 94.1164 156.383C94.1164 156.212 94.1733 156.041 94.2302 155.871C94.2871 155.871 94.344 155.928 94.4008 156.041C96.1073 153.083 96.5055 149.557 95.3678 146.144ZM79.6114 139.944C81.9436 138.977 84.5033 139.09 86.7786 139.944C86.8355 139.887 86.8924 139.887 86.9492 139.83C87.0061 139.773 87.0061 139.659 87.063 139.602C87.1768 139.432 87.2905 139.261 87.5181 139.261C87.5181 139.488 87.4612 139.716 87.4612 139.944C87.5181 140 87.5749 140.057 87.5749 140.114C87.6318 140.171 87.6318 140.285 87.6318 140.342C88.3713 140.74 89.1108 141.195 89.7934 141.707L85.0721 143.698C85.0721 143.755 85.0152 143.812 84.9584 143.925C84.9015 143.982 84.9015 144.039 84.8446 144.153C84.6739 144.437 84.4464 144.779 84.1051 144.892C83.9345 144.949 83.7069 144.835 83.7069 144.665C83.7069 144.608 83.7069 144.494 83.6501 144.437V144.38V144.323L78.1893 146.599C77.9049 146.94 77.6205 147.338 77.1655 147.281C77.0517 147.281 76.9379 147.224 76.7673 147.224L74.3782 148.191C74.3213 144.608 76.1985 141.366 79.6114 139.944ZM89.7365 157.35C89.7365 157.52 89.6796 157.634 89.6796 157.805C89.6227 158.317 89.5089 158.885 89.1677 159.227C89.1677 158.658 89.2245 158.146 89.2814 157.634C89.0539 157.748 88.8264 157.862 88.5988 157.975C85.2428 159.397 81.261 158.544 78.4169 156.212L84.7877 153.595C84.9584 153.425 85.1859 153.254 85.4134 153.083C85.5272 152.97 85.6978 152.856 85.8116 152.799C86.0391 152.685 86.3804 152.742 86.6648 152.742C86.7217 152.742 86.7217 152.742 86.7786 152.742L90.7035 151.149C90.7035 151.149 90.7035 151.149 90.7035 151.092C90.7604 150.922 90.8172 150.694 90.8172 150.524C90.7604 150.296 90.7035 150.012 90.6466 149.784C90.5897 149.5 90.5328 149.102 90.5328 148.703L81.261 152.571C81.2041 152.628 81.2041 152.628 81.1472 152.685C80.8628 152.913 79.2701 153.937 78.9857 153.538L76.7673 154.449C76.3122 153.88 75.914 153.254 75.5727 152.571C75.2315 151.889 75.0039 151.206 74.8333 150.524L81.3179 147.793C81.4885 147.509 81.6023 147.111 81.8867 146.997C82.0005 147.111 82.0005 147.338 82.0005 147.509L91.6705 143.47C92.1255 144.039 92.5237 144.665 92.865 145.347C93.2063 146.03 93.4338 146.713 93.6045 147.395L91.4998 148.248C91.443 148.931 91.4429 149.614 91.3292 150.296C91.3292 150.353 91.3292 150.41 91.2723 150.524C91.2723 150.524 91.2723 150.524 91.2723 150.581C91.2723 150.581 91.3292 150.694 91.3292 150.637C91.3292 150.637 91.3861 150.694 91.4429 150.751C91.4429 150.751 91.443 150.808 91.4998 150.808L93.8889 149.841C93.832 152.856 92.3531 155.757 89.7365 157.35Z" fill="#CDD6E5"/>
<line x1="128.624" y1="163.512" x2="163.945" y2="163.512" stroke="#172D5F" stroke-width="0.5"/>
<rect x="22" y="2" width="136" height="177.101" rx="8" fill="white" stroke="#172D5F" stroke-width="4"/>
<path d="M118.257 10.918H138.44C143.963 10.918 148.44 15.3951 148.44 20.918V36.9271" stroke="#172D5F"/>
<line x1="37.9817" y1="33.0371" x2="116.973" y2="33.0371" stroke="#172D5F" stroke-width="2"/>
<line x1="37.9817" y1="50.376" x2="128.532" y2="50.376" stroke="#172D5F" stroke-width="2"/>
<line x1="37.9817" y1="67.0732" x2="138.165" y2="67.0732" stroke="#172D5F" stroke-width="2"/>
<line x1="37.9817" y1="89.5508" x2="138.165" y2="89.5508" stroke="#172D5F" stroke-width="2"/>
<line x1="37.9817" y1="108.816" x2="138.165" y2="108.816" stroke="#172D5F" stroke-width="2"/>
<line x1="37.9817" y1="126.798" x2="108.624" y2="126.798" stroke="#172D5F" stroke-width="2"/>
<line x1="37.9817" y1="141.568" x2="108.624" y2="141.568" stroke="#172D5F" stroke-width="2"/>
<g clip-path="url(#clip3_112_1007)">
<rect width="52" height="22" transform="translate(99 150)" fill="white"/>
<path d="M130.268 160.648C131.089 160.648 131.842 160.648 132.595 160.648C132.8 160.648 132.982 160.67 133.188 160.692C133.963 160.802 134.556 160.406 135.126 160.032C136.267 159.306 137.361 158.536 138.456 157.788C138.616 157.678 138.821 157.59 139.004 157.524C139.346 157.392 139.642 157.48 139.916 157.7C140.167 157.92 140.418 158.118 140.691 158.294C141.284 158.712 141.535 158.624 142.06 158.294C142.47 158.052 142.835 157.722 143.268 157.524C143.497 157.414 143.839 157.436 144.09 157.524C144.911 157.744 145.709 157.898 146.53 157.48C146.735 157.37 146.963 157.348 147.191 157.304C147.511 157.238 147.853 157.15 148.172 157.084C148.514 157.018 148.833 156.952 149.175 156.93C149.472 156.908 149.791 156.93 150.088 156.952C149.791 156.996 149.495 157.084 149.198 157.084C148.811 157.084 148.446 157.172 148.081 157.304C147.761 157.414 147.419 157.436 147.1 157.524C146.918 157.568 146.735 157.612 146.575 157.7C146.074 157.964 145.549 158.03 145.002 157.964C144.568 157.92 144.181 157.832 143.77 157.7C143.611 157.656 143.337 157.788 143.154 157.876C142.789 158.074 142.447 158.316 142.128 158.58C141.467 159.064 140.828 158.822 140.326 158.448C140.075 158.272 139.87 158.074 139.619 157.876C139.414 157.7 139.14 157.7 138.867 157.898C138.297 158.294 137.726 158.69 137.133 159.086C136.312 159.614 135.491 160.142 134.693 160.67C134.67 160.67 134.67 160.692 134.647 160.736C135.628 160.802 136.609 160.868 137.567 160.912C137.567 160.934 137.567 160.978 137.567 161C137.316 161 137.042 161 136.791 161C136.267 160.978 135.742 160.978 135.218 160.956C135.012 160.956 134.807 160.912 134.602 160.912C134.419 160.912 134.214 160.934 134.054 161C133.119 161.418 132.184 161.858 131.181 162.1C130.975 162.144 130.747 162.166 130.519 162.21C130.109 162.276 129.995 162.012 130.132 161.616C130.177 161.462 130.268 161.286 130.337 161.11C129.812 161.066 129.425 161.286 129.082 161.616C128.444 162.21 127.942 162.914 127.509 163.64C126.939 164.586 126.437 165.576 125.89 166.544C125.844 166.632 125.798 166.72 125.775 166.808C125.388 166.676 125.365 166.676 125.547 166.324C126.323 164.74 127.121 163.156 127.897 161.572C128.033 161.308 128.17 161.066 128.33 160.824C128.284 160.802 128.261 160.802 128.261 160.802C125.821 160.78 123.358 160.758 120.918 160.758C120.074 160.758 119.207 160.78 118.363 160.802C117.907 160.824 117.451 160.824 116.995 160.868C116.926 160.868 116.835 160.956 116.812 161.022C116.128 162.144 115.467 163.266 114.782 164.366C114.737 164.454 114.668 164.52 114.554 164.564C115.239 163.332 115.946 162.1 116.653 160.868C116.493 160.89 116.379 160.89 116.265 160.89C115.375 160.934 114.486 160.956 113.597 161C113.505 161 113.368 161.088 113.323 161.176C112.661 162.254 112.023 163.354 111.316 164.41C110.518 165.642 109.697 166.852 108.807 168.018C108.146 168.876 107.302 169.58 106.275 170.064C105.751 170.306 105.181 170.46 104.588 170.438C103.493 170.416 102.626 169.932 102.011 169.074C101.395 168.26 101.098 167.336 100.916 166.346C100.756 165.554 100.847 164.784 101.349 164.124C101.737 163.596 102.261 163.222 102.854 162.914C104.291 162.188 105.865 161.748 107.461 161.418C108.282 161.242 109.126 161.088 109.947 160.956C110.518 160.868 111.111 160.846 111.704 160.78C112.137 160.736 112.593 160.714 113.026 160.67C113.095 160.67 113.163 160.604 113.209 160.538C113.551 159.966 113.893 159.416 114.235 158.844C114.897 157.722 115.558 156.6 116.265 155.5C116.744 154.752 117.246 154.026 117.747 153.3C117.907 153.08 118.112 152.882 118.318 152.662C118.5 152.464 118.751 152.354 118.956 152.464C119.116 152.552 119.298 152.772 119.298 152.926C119.344 153.432 119.344 153.96 119.321 154.488C119.253 155.412 118.979 156.292 118.637 157.128C118.272 158.008 117.839 158.888 117.451 159.746C117.36 159.966 117.246 160.186 117.109 160.45C117.588 160.384 118.067 160.604 118.454 160.318C118.865 160.032 119.184 159.636 119.549 159.284C119.777 159.064 119.96 158.8 120.165 158.558C120.347 158.646 120.325 158.624 120.256 158.778C120.051 159.196 119.846 159.636 119.64 160.054C119.618 160.12 119.64 160.274 119.686 160.296C119.754 160.34 119.891 160.318 119.96 160.252C120.302 159.922 120.644 159.592 120.963 159.24C121.168 159.02 121.351 158.756 121.556 158.492C121.625 158.558 121.693 158.602 121.693 158.624C121.488 159.108 121.26 159.57 121.077 160.032C121.032 160.12 121.077 160.23 121.1 160.34C121.237 160.318 121.419 160.362 121.511 160.274C121.83 159.944 122.126 159.614 122.423 159.262C122.605 159.042 122.719 158.778 122.856 158.514C123.153 158.58 123.175 158.602 123.039 158.866C122.902 159.152 122.765 159.46 122.651 159.768C122.628 159.834 122.628 159.922 122.628 160.01C122.628 160.208 122.788 160.318 122.947 160.186C123.267 159.944 123.586 159.658 123.882 159.372C124.088 159.152 124.247 158.866 124.453 158.624C124.498 158.58 124.635 158.536 124.681 158.558C124.749 158.602 124.818 158.712 124.795 158.778C124.726 159.108 124.635 159.438 124.567 159.79C124.544 159.9 124.567 160.01 124.567 160.142C125.023 160.032 125.205 159.68 125.433 159.416C125.707 159.13 125.935 158.822 126.163 158.514C126.254 158.404 126.368 158.338 126.482 158.448C126.551 158.514 126.597 158.646 126.574 158.734C126.482 159.042 126.368 159.35 126.277 159.658C126.232 159.79 126.232 159.922 126.209 160.054C126.232 160.076 126.254 160.098 126.3 160.12C126.597 159.834 126.916 159.526 127.212 159.24C127.372 159.086 127.509 158.91 127.691 158.8C127.805 158.712 128.056 158.624 128.125 158.69C128.261 158.778 128.33 158.976 128.375 159.152C128.421 159.416 128.375 159.68 128.421 159.944C128.444 160.076 128.558 160.186 128.626 160.318C128.718 160.23 128.809 160.12 128.854 160.032C129.333 159.218 129.79 158.404 130.291 157.612C131.021 156.49 131.819 155.39 132.595 154.312C132.914 153.85 133.302 153.432 133.689 153.036C134.511 152.2 135.468 151.584 136.723 151.628C137.498 151.65 138 152.09 138.046 152.904C138.091 153.806 137.726 154.576 137.316 155.346C136.86 156.182 136.244 156.93 135.514 157.568C134.761 158.25 133.963 158.822 133.074 159.284C132.139 159.79 131.249 160.186 130.268 160.648ZM112.912 161.066C112.365 161.11 111.863 161.176 111.339 161.22C110.814 161.264 110.289 161.308 109.788 161.396C108.83 161.572 107.872 161.748 106.937 161.968C105.477 162.298 104.04 162.716 102.74 163.486C102.056 163.882 101.509 164.41 101.304 165.18C101.189 165.686 101.258 166.17 101.395 166.654C101.668 167.644 101.988 168.59 102.809 169.316C103.539 169.932 104.337 170.152 105.295 169.954C106.253 169.734 107.051 169.228 107.689 168.546C108.374 167.864 108.99 167.094 109.537 166.324C110.358 165.136 111.111 163.904 111.909 162.694C112.274 162.166 112.57 161.638 112.912 161.066ZM129.082 160.384C129.082 160.406 129.105 160.428 129.105 160.45C129.333 160.384 129.561 160.34 129.789 160.274C130.77 159.988 131.705 159.57 132.595 159.086C133.826 158.404 134.989 157.612 135.902 156.534C136.746 155.544 137.384 154.444 137.59 153.146C137.658 152.75 137.361 152.244 136.951 152.134C136.267 151.958 135.628 152.178 135.058 152.508C134.442 152.838 133.963 153.322 133.53 153.872C133.005 154.532 132.435 155.17 131.956 155.874C131.318 156.754 130.747 157.656 130.154 158.58C129.789 159.152 129.447 159.768 129.082 160.384ZM113.619 160.67C113.916 160.648 114.144 160.604 114.395 160.604C115.102 160.582 115.786 160.56 116.493 160.56C116.721 160.56 116.835 160.494 116.926 160.296C117.063 159.988 117.246 159.68 117.382 159.35C117.793 158.382 118.249 157.436 118.568 156.446C118.842 155.632 118.979 154.774 119.116 153.916C119.161 153.608 119.07 153.278 119.002 152.97C118.956 152.75 118.819 152.728 118.637 152.86C118.591 152.882 118.546 152.926 118.523 152.97C118.112 153.52 117.656 154.048 117.291 154.62C116.721 155.5 116.174 156.424 115.626 157.326C114.942 158.426 114.304 159.526 113.619 160.67ZM130.497 161.902C131.911 161.572 133.097 161.154 133.347 160.89C132.458 160.89 131.591 160.89 130.793 160.89C130.702 161.22 130.611 161.55 130.497 161.902ZM127.988 160.472C127.942 160.032 127.919 159.614 127.874 159.218C127.463 159.636 127.03 160.054 126.619 160.472C127.075 160.472 127.554 160.472 127.988 160.472ZM129.675 160.802C129.539 160.802 129.402 160.802 129.288 160.802C129.128 160.824 128.9 160.802 128.832 160.89C128.626 161.176 128.467 161.506 128.307 161.814C128.763 161.462 129.105 161 129.675 160.802ZM125.821 159.592C125.547 159.878 125.297 160.142 125 160.428C125.319 160.45 125.593 160.472 125.821 160.494C125.821 160.186 125.821 159.9 125.821 159.592ZM119.344 160.406C119.435 160.098 119.504 159.812 119.572 159.548C119.549 159.526 119.549 159.526 119.526 159.504C119.23 159.834 118.933 160.164 118.682 160.472C118.865 160.45 119.139 160.428 119.344 160.406ZM124.111 159.702C123.882 159.944 123.654 160.164 123.426 160.406C123.7 160.406 123.974 160.406 124.225 160.406C124.179 160.186 124.156 159.944 124.111 159.702ZM120.781 159.944C120.598 160.098 120.439 160.252 120.256 160.406C120.439 160.406 120.598 160.406 120.735 160.406C120.758 160.274 120.781 160.12 120.781 159.944ZM122.263 160.098C122.172 160.186 122.081 160.296 121.967 160.428C122.126 160.428 122.263 160.428 122.377 160.428C122.332 160.296 122.286 160.208 122.263 160.098Z" fill="#172D5F"/>
</g>
<path d="M75.1404 144.893C75.0266 144.722 74.856 144.608 74.6853 144.494L74.7422 144.551C74.9128 144.949 75.0835 145.291 75.2541 145.689C75.311 145.518 75.3679 145.348 75.3679 145.177C75.2541 145.063 75.1972 144.949 75.1404 144.893Z" fill="#CDD6E5"/>
<path d="M77.4725 152.628C77.4725 152.458 77.5294 152.287 77.5294 152.116C77.5294 151.889 77.5294 151.661 77.5294 151.434C77.5863 151.206 77.757 150.865 77.9845 150.751C78.0983 148.476 77.5863 146.03 76.4487 143.755C74.5715 139.944 71.2155 137.156 67.5181 135.848C67.4612 135.905 67.4044 136.019 67.4044 136.132C67.2906 136.417 66.8355 136.303 66.8355 135.962C66.8355 135.848 66.8355 135.734 66.7786 135.62C63.7639 134.71 60.5216 134.767 57.5637 136.019C56.9949 136.246 56.426 136.531 55.9141 136.872C55.9141 137.099 55.971 137.327 55.971 137.555C55.7435 137.498 55.5728 137.384 55.4022 137.213C50.169 140.74 48.4056 147.793 51.591 154.107C52.0461 155.017 52.6149 155.871 53.1837 156.667C53.1837 156.383 53.2406 156.155 53.3544 155.871C53.4113 155.643 53.4682 155.472 53.525 155.302C53.1837 154.79 52.8424 154.221 52.558 153.652C49.3157 147.111 51.7617 139.659 58.0756 136.986C64.3896 134.369 72.1825 137.555 75.4248 144.096C77.7001 148.703 77.1881 153.823 74.4009 157.293C74.4009 157.406 74.4009 157.577 74.4009 157.634C74.4009 157.918 74.4009 158.203 74.4009 158.487C74.4009 158.658 74.4009 158.885 74.4009 159.056C76.0505 157.406 77.1881 155.302 77.7001 152.97H77.6432C77.5294 152.97 77.4725 152.799 77.4725 152.628Z" fill="#CDD6E5"/>
<path d="M69.9642 160.82C64.2759 163.152 57.3932 160.82 53.6958 155.53C53.7527 155.871 53.8096 156.155 53.9233 156.44C53.9802 156.781 53.9233 157.122 53.8096 157.35C55.6867 159.511 58.1326 161.104 60.7492 162.014C60.863 161.9 60.9768 161.787 61.1474 161.73C61.3749 161.673 61.6025 161.673 61.83 161.73C61.8869 161.73 61.9438 161.73 62.0006 161.787C62.0575 161.843 62.1144 161.9 62.1144 161.957C62.2282 162.128 62.2851 162.299 62.3988 162.469C65.0723 163.038 67.9164 162.867 70.4761 161.787C71.8982 161.218 73.1496 160.365 74.1735 159.398C74.1166 158.829 74.1166 158.317 74.1166 157.748C73.0358 159.113 71.6707 160.137 69.9642 160.82Z" fill="#CDD6E5"/>
<path d="M75.3678 146.144C75.2541 146.087 75.1972 145.859 75.1972 145.689C75.0265 145.29 74.8559 144.949 74.6853 144.551L74.6284 144.494C74.6284 144.494 74.6284 144.494 74.5715 144.494C74.4008 144.38 74.2302 144.267 74.1164 144.096C74.0027 143.925 74.0027 143.755 73.8889 143.584C73.7751 143.47 73.5476 143.527 73.4907 143.413C73.3201 143.129 73.3201 142.901 73.5476 142.845C70.0778 138.01 63.7638 135.848 58.5306 138.01C57.2223 138.578 56.0278 139.375 55.1177 140.342C55.1177 140.455 55.1177 140.626 55.0608 140.74C55.0039 141.024 54.8333 141.252 54.6626 141.422C54.2644 141.878 53.98 142.446 53.8663 143.015C53.9232 142.674 53.98 142.048 54.1507 141.422C53.2406 142.617 52.6717 144.039 52.3304 145.518L52.3873 145.575C52.4442 145.632 52.3873 145.746 52.3873 145.802C52.3873 146.03 52.3873 146.257 52.4442 146.428C52.5011 146.542 52.5011 146.599 52.558 146.713C52.6149 146.997 52.3304 147.168 52.1029 147.281C51.9891 149.272 52.3873 151.377 53.4112 153.425C53.4681 153.482 53.525 153.595 53.525 153.652C53.525 153.595 53.525 153.482 53.5819 153.425C53.6387 153.197 53.6956 152.97 53.6956 152.742C53.8663 153.083 53.7525 153.425 53.6387 153.766C53.6387 153.823 53.6387 153.823 53.6387 153.88C55.1746 156.667 57.5636 158.772 60.294 159.909C60.4646 159.909 60.6353 159.909 60.8059 159.966C60.9766 159.966 61.1472 160.023 61.2041 160.194C61.2041 160.251 61.2041 160.251 61.2041 160.307C63.9345 161.218 66.8355 161.218 69.5089 160.137C71.4998 159.34 73.0357 157.975 74.1164 156.383C74.1164 156.212 74.1733 156.041 74.2302 155.871C74.2871 155.871 74.344 155.928 74.4008 156.041C76.1073 153.083 76.5055 149.557 75.3678 146.144ZM59.6114 139.944C61.9436 138.977 64.5033 139.09 66.7786 139.944C66.8355 139.887 66.8924 139.887 66.9492 139.83C67.0061 139.773 67.0061 139.659 67.063 139.602C67.1768 139.432 67.2905 139.261 67.5181 139.261C67.5181 139.488 67.4612 139.716 67.4612 139.944C67.5181 140 67.5749 140.057 67.5749 140.114C67.6318 140.171 67.6318 140.285 67.6318 140.342C68.3713 140.74 69.1108 141.195 69.7934 141.707L65.0721 143.698C65.0721 143.755 65.0152 143.812 64.9584 143.925C64.9015 143.982 64.9015 144.039 64.8446 144.153C64.6739 144.437 64.4464 144.779 64.1051 144.892C63.9345 144.949 63.7069 144.835 63.7069 144.665C63.7069 144.608 63.7069 144.494 63.6501 144.437V144.38V144.323L58.1893 146.599C57.9049 146.94 57.6205 147.338 57.1655 147.281C57.0517 147.281 56.9379 147.224 56.7673 147.224L54.3782 148.191C54.3213 144.608 56.1985 141.366 59.6114 139.944ZM69.7365 157.35C69.7365 157.52 69.6796 157.634 69.6796 157.805C69.6227 158.317 69.5089 158.885 69.1677 159.227C69.1677 158.658 69.2245 158.146 69.2814 157.634C69.0539 157.748 68.8264 157.862 68.5988 157.975C65.2428 159.397 61.261 158.544 58.4169 156.212L64.7877 153.595C64.9584 153.425 65.1859 153.254 65.4134 153.083C65.5272 152.97 65.6978 152.856 65.8116 152.799C66.0391 152.685 66.3804 152.742 66.6648 152.742C66.7217 152.742 66.7217 152.742 66.7786 152.742L70.7035 151.149C70.7035 151.149 70.7035 151.149 70.7035 151.092C70.7604 150.922 70.8172 150.694 70.8172 150.524C70.7604 150.296 70.7035 150.012 70.6466 149.784C70.5897 149.5 70.5328 149.102 70.5328 148.703L61.261 152.571C61.2041 152.628 61.2041 152.628 61.1472 152.685C60.8628 152.913 59.2701 153.937 58.9857 153.538L56.7673 154.449C56.3122 153.88 55.914 153.254 55.5727 152.571C55.2315 151.889 55.0039 151.206 54.8333 150.524L61.3179 147.793C61.4885 147.509 61.6023 147.111 61.8867 146.997C62.0005 147.111 62.0005 147.338 62.0005 147.509L71.6705 143.47C72.1255 144.039 72.5237 144.665 72.865 145.347C73.2063 146.03 73.4338 146.713 73.6045 147.395L71.4998 148.248C71.443 148.931 71.4429 149.614 71.3292 150.296C71.3292 150.353 71.3292 150.41 71.2723 150.524C71.2723 150.524 71.2723 150.524 71.2723 150.581C71.2723 150.581 71.3292 150.694 71.3292 150.637C71.3292 150.637 71.3861 150.694 71.4429 150.751C71.4429 150.751 71.443 150.808 71.4998 150.808L73.8889 149.841C73.832 152.856 72.3531 155.757 69.7365 157.35Z" fill="#CDD6E5"/>
<line x1="108.624" y1="163.512" x2="143.945" y2="163.512" stroke="#172D5F" stroke-width="0.5"/>
<rect x="2" y="2" width="136" height="177.101" rx="8" fill="white" stroke="#172D5F" stroke-width="4"/>
<path d="M98.2569 10.918H118.44C123.963 10.918 128.44 15.3951 128.44 20.918V36.9271" stroke="#172D5F"/>
<line x1="17.9817" y1="33.0371" x2="96.9725" y2="33.0371" stroke="#172D5F" stroke-width="2"/>
<line x1="17.9817" y1="50.376" x2="108.532" y2="50.376" stroke="#172D5F" stroke-width="2"/>
<line x1="17.9817" y1="67.0732" x2="118.165" y2="67.0732" stroke="#172D5F" stroke-width="2"/>
<line x1="17.9817" y1="89.5508" x2="118.165" y2="89.5508" stroke="#172D5F" stroke-width="2"/>
<line x1="17.9817" y1="108.816" x2="118.165" y2="108.816" stroke="#172D5F" stroke-width="2"/>
<line x1="17.9817" y1="126.798" x2="88.6239" y2="126.798" stroke="#172D5F" stroke-width="2"/>
<line x1="17.9817" y1="141.568" x2="88.6239" y2="141.568" stroke="#172D5F" stroke-width="2"/>
<g clip-path="url(#clip4_112_1007)">
<rect width="52" height="22" transform="translate(79 150)" fill="white"/>
<path d="M110.268 160.648C111.089 160.648 111.842 160.648 112.595 160.648C112.8 160.648 112.982 160.67 113.188 160.692C113.963 160.802 114.556 160.406 115.126 160.032C116.267 159.306 117.361 158.536 118.456 157.788C118.616 157.678 118.821 157.59 119.004 157.524C119.346 157.392 119.642 157.48 119.916 157.7C120.167 157.92 120.418 158.118 120.691 158.294C121.284 158.712 121.535 158.624 122.06 158.294C122.47 158.052 122.835 157.722 123.268 157.524C123.497 157.414 123.839 157.436 124.09 157.524C124.911 157.744 125.709 157.898 126.53 157.48C126.735 157.37 126.963 157.348 127.191 157.304C127.511 157.238 127.853 157.15 128.172 157.084C128.514 157.018 128.833 156.952 129.175 156.93C129.472 156.908 129.791 156.93 130.088 156.952C129.791 156.996 129.495 157.084 129.198 157.084C128.811 157.084 128.446 157.172 128.081 157.304C127.761 157.414 127.419 157.436 127.1 157.524C126.918 157.568 126.735 157.612 126.575 157.7C126.074 157.964 125.549 158.03 125.002 157.964C124.568 157.92 124.181 157.832 123.77 157.7C123.611 157.656 123.337 157.788 123.154 157.876C122.789 158.074 122.447 158.316 122.128 158.58C121.467 159.064 120.828 158.822 120.326 158.448C120.075 158.272 119.87 158.074 119.619 157.876C119.414 157.7 119.14 157.7 118.867 157.898C118.297 158.294 117.726 158.69 117.133 159.086C116.312 159.614 115.491 160.142 114.693 160.67C114.67 160.67 114.67 160.692 114.647 160.736C115.628 160.802 116.609 160.868 117.567 160.912C117.567 160.934 117.567 160.978 117.567 161C117.316 161 117.042 161 116.791 161C116.267 160.978 115.742 160.978 115.218 160.956C115.012 160.956 114.807 160.912 114.602 160.912C114.419 160.912 114.214 160.934 114.054 161C113.119 161.418 112.184 161.858 111.181 162.1C110.975 162.144 110.747 162.166 110.519 162.21C110.109 162.276 109.995 162.012 110.132 161.616C110.177 161.462 110.268 161.286 110.337 161.11C109.812 161.066 109.425 161.286 109.082 161.616C108.444 162.21 107.942 162.914 107.509 163.64C106.939 164.586 106.437 165.576 105.89 166.544C105.844 166.632 105.798 166.72 105.775 166.808C105.388 166.676 105.365 166.676 105.547 166.324C106.323 164.74 107.121 163.156 107.897 161.572C108.033 161.308 108.17 161.066 108.33 160.824C108.284 160.802 108.261 160.802 108.261 160.802C105.821 160.78 103.358 160.758 100.918 160.758C100.074 160.758 99.2071 160.78 98.3632 160.802C97.907 160.824 97.4509 160.824 96.9948 160.868C96.9263 160.868 96.8351 160.956 96.8123 161.022C96.1281 162.144 95.4667 163.266 94.7825 164.366C94.7369 164.454 94.6685 164.52 94.5544 164.564C95.2386 163.332 95.9456 162.1 96.6527 160.868C96.493 160.89 96.379 160.89 96.2649 160.89C95.3755 160.934 94.486 160.956 93.5965 161C93.5053 161 93.3684 161.088 93.3228 161.176C92.6614 162.254 92.0228 163.354 91.3158 164.41C90.5176 165.642 89.6965 166.852 88.807 168.018C88.1456 168.876 87.3018 169.58 86.2755 170.064C85.7509 170.306 85.1807 170.46 84.5877 170.438C83.493 170.416 82.6263 169.932 82.0106 169.074C81.3948 168.26 81.0983 167.336 80.9158 166.346C80.7562 165.554 80.8474 164.784 81.3491 164.124C81.7369 163.596 82.2614 163.222 82.8544 162.914C84.2913 162.188 85.8649 161.748 87.4614 161.418C88.2825 161.242 89.1263 161.088 89.9474 160.956C90.5176 160.868 91.1106 160.846 91.7035 160.78C92.1369 160.736 92.593 160.714 93.0263 160.67C93.0948 160.67 93.1632 160.604 93.2088 160.538C93.5509 159.966 93.893 159.416 94.2351 158.844C94.8965 157.722 95.5579 156.6 96.2649 155.5C96.7439 154.752 97.2456 154.026 97.7474 153.3C97.907 153.08 98.1123 152.882 98.3176 152.662C98.5 152.464 98.7509 152.354 98.9562 152.464C99.1158 152.552 99.2983 152.772 99.2983 152.926C99.3439 153.432 99.3439 153.96 99.3211 154.488C99.2527 155.412 98.979 156.292 98.6369 157.128C98.272 158.008 97.8386 158.888 97.4509 159.746C97.3597 159.966 97.2456 160.186 97.1088 160.45C97.5878 160.384 98.0667 160.604 98.4544 160.318C98.8649 160.032 99.1842 159.636 99.5491 159.284C99.7772 159.064 99.9597 158.8 100.165 158.558C100.347 158.646 100.325 158.624 100.256 158.778C100.051 159.196 99.8456 159.636 99.6404 160.054C99.6176 160.12 99.6404 160.274 99.686 160.296C99.7544 160.34 99.8913 160.318 99.9597 160.252C100.302 159.922 100.644 159.592 100.963 159.24C101.168 159.02 101.351 158.756 101.556 158.492C101.625 158.558 101.693 158.602 101.693 158.624C101.488 159.108 101.26 159.57 101.077 160.032C101.032 160.12 101.077 160.23 101.1 160.34C101.237 160.318 101.419 160.362 101.511 160.274C101.83 159.944 102.126 159.614 102.423 159.262C102.605 159.042 102.719 158.778 102.856 158.514C103.153 158.58 103.175 158.602 103.039 158.866C102.902 159.152 102.765 159.46 102.651 159.768C102.628 159.834 102.628 159.922 102.628 160.01C102.628 160.208 102.788 160.318 102.947 160.186C103.267 159.944 103.586 159.658 103.882 159.372C104.088 159.152 104.247 158.866 104.453 158.624C104.498 158.58 104.635 158.536 104.681 158.558C104.749 158.602 104.818 158.712 104.795 158.778C104.726 159.108 104.635 159.438 104.567 159.79C104.544 159.9 104.567 160.01 104.567 160.142C105.023 160.032 105.205 159.68 105.433 159.416C105.707 159.13 105.935 158.822 106.163 158.514C106.254 158.404 106.368 158.338 106.482 158.448C106.551 158.514 106.597 158.646 106.574 158.734C106.482 159.042 106.368 159.35 106.277 159.658C106.232 159.79 106.232 159.922 106.209 160.054C106.232 160.076 106.254 160.098 106.3 160.12C106.597 159.834 106.916 159.526 107.212 159.24C107.372 159.086 107.509 158.91 107.691 158.8C107.805 158.712 108.056 158.624 108.125 158.69C108.261 158.778 108.33 158.976 108.375 159.152C108.421 159.416 108.375 159.68 108.421 159.944C108.444 160.076 108.558 160.186 108.626 160.318C108.718 160.23 108.809 160.12 108.854 160.032C109.333 159.218 109.79 158.404 110.291 157.612C111.021 156.49 111.819 155.39 112.595 154.312C112.914 153.85 113.302 153.432 113.689 153.036C114.511 152.2 115.468 151.584 116.723 151.628C117.498 151.65 118 152.09 118.046 152.904C118.091 153.806 117.726 154.576 117.316 155.346C116.86 156.182 116.244 156.93 115.514 157.568C114.761 158.25 113.963 158.822 113.074 159.284C112.139 159.79 111.249 160.186 110.268 160.648ZM92.9123 161.066C92.3649 161.11 91.8632 161.176 91.3386 161.22C90.8141 161.264 90.2895 161.308 89.7877 161.396C88.8299 161.572 87.872 161.748 86.9369 161.968C85.4772 162.298 84.0404 162.716 82.7404 163.486C82.0562 163.882 81.5088 164.41 81.3035 165.18C81.1895 165.686 81.2579 166.17 81.3948 166.654C81.6684 167.644 81.9878 168.59 82.8088 169.316C83.5386 169.932 84.3369 170.152 85.2948 169.954C86.2527 169.734 87.0509 169.228 87.6895 168.546C88.3737 167.864 88.9895 167.094 89.5369 166.324C90.3579 165.136 91.1105 163.904 91.9088 162.694C92.2737 162.166 92.5702 161.638 92.9123 161.066ZM109.082 160.384C109.082 160.406 109.105 160.428 109.105 160.45C109.333 160.384 109.561 160.34 109.789 160.274C110.77 159.988 111.705 159.57 112.595 159.086C113.826 158.404 114.989 157.612 115.902 156.534C116.746 155.544 117.384 154.444 117.59 153.146C117.658 152.75 117.361 152.244 116.951 152.134C116.267 151.958 115.628 152.178 115.058 152.508C114.442 152.838 113.963 153.322 113.53 153.872C113.005 154.532 112.435 155.17 111.956 155.874C111.318 156.754 110.747 157.656 110.154 158.58C109.789 159.152 109.447 159.768 109.082 160.384ZM93.6193 160.67C93.9158 160.648 94.1439 160.604 94.3948 160.604C95.1018 160.582 95.786 160.56 96.493 160.56C96.7211 160.56 96.8351 160.494 96.9263 160.296C97.0632 159.988 97.2456 159.68 97.3825 159.35C97.793 158.382 98.2491 157.436 98.5684 156.446C98.8421 155.632 98.979 154.774 99.1158 153.916C99.1614 153.608 99.0702 153.278 99.0018 152.97C98.9562 152.75 98.8193 152.728 98.6369 152.86C98.5912 152.882 98.5456 152.926 98.5228 152.97C98.1123 153.52 97.6562 154.048 97.2913 154.62C96.7211 155.5 96.1737 156.424 95.6263 157.326C94.9421 158.426 94.3035 159.526 93.6193 160.67ZM110.497 161.902C111.911 161.572 113.097 161.154 113.347 160.89C112.458 160.89 111.591 160.89 110.793 160.89C110.702 161.22 110.611 161.55 110.497 161.902ZM107.988 160.472C107.942 160.032 107.919 159.614 107.874 159.218C107.463 159.636 107.03 160.054 106.619 160.472C107.075 160.472 107.554 160.472 107.988 160.472ZM109.675 160.802C109.539 160.802 109.402 160.802 109.288 160.802C109.128 160.824 108.9 160.802 108.832 160.89C108.626 161.176 108.467 161.506 108.307 161.814C108.763 161.462 109.105 161 109.675 160.802ZM105.821 159.592C105.547 159.878 105.297 160.142 105 160.428C105.319 160.45 105.593 160.472 105.821 160.494C105.821 160.186 105.821 159.9 105.821 159.592ZM99.3439 160.406C99.4351 160.098 99.5035 159.812 99.572 159.548C99.5492 159.526 99.5491 159.526 99.5263 159.504C99.2299 159.834 98.9334 160.164 98.6825 160.472C98.8649 160.45 99.1386 160.428 99.3439 160.406ZM104.111 159.702C103.882 159.944 103.654 160.164 103.426 160.406C103.7 160.406 103.974 160.406 104.225 160.406C104.179 160.186 104.156 159.944 104.111 159.702ZM100.781 159.944C100.598 160.098 100.439 160.252 100.256 160.406C100.439 160.406 100.598 160.406 100.735 160.406C100.758 160.274 100.781 160.12 100.781 159.944ZM102.263 160.098C102.172 160.186 102.081 160.296 101.967 160.428C102.126 160.428 102.263 160.428 102.377 160.428C102.332 160.296 102.286 160.208 102.263 160.098Z" fill="#172D5F"/>
</g>
<path d="M55.1404 144.893C55.0266 144.722 54.856 144.608 54.6853 144.494L54.7422 144.551C54.9128 144.949 55.0835 145.291 55.2541 145.689C55.311 145.518 55.3679 145.348 55.3679 145.177C55.2541 145.063 55.1972 144.949 55.1404 144.893Z" fill="#CDD6E5"/>
<path d="M57.4725 152.628C57.4725 152.458 57.5294 152.287 57.5294 152.116C57.5294 151.889 57.5294 151.661 57.5294 151.434C57.5863 151.206 57.757 150.865 57.9845 150.751C58.0983 148.476 57.5863 146.03 56.4487 143.755C54.5715 139.944 51.2155 137.156 47.5181 135.848C47.4612 135.905 47.4044 136.019 47.4044 136.132C47.2906 136.417 46.8355 136.303 46.8355 135.962C46.8355 135.848 46.8355 135.734 46.7786 135.62C43.7639 134.71 40.5216 134.767 37.5637 136.019C36.9949 136.246 36.426 136.531 35.9141 136.872C35.9141 137.099 35.971 137.327 35.971 137.555C35.7435 137.498 35.5728 137.384 35.4022 137.213C30.169 140.74 28.4056 147.793 31.591 154.107C32.0461 155.017 32.6149 155.871 33.1837 156.667C33.1837 156.383 33.2406 156.155 33.3544 155.871C33.4113 155.643 33.4682 155.472 33.525 155.302C33.1837 154.79 32.8424 154.221 32.558 153.652C29.3157 147.111 31.7617 139.659 38.0756 136.986C44.3896 134.369 52.1825 137.555 55.4248 144.096C57.7001 148.703 57.1881 153.823 54.4009 157.293C54.4009 157.406 54.4009 157.577 54.4009 157.634C54.4009 157.918 54.4009 158.203 54.4009 158.487C54.4009 158.658 54.4009 158.885 54.4009 159.056C56.0505 157.406 57.1881 155.302 57.7001 152.97H57.6432C57.5294 152.97 57.4725 152.799 57.4725 152.628Z" fill="#CDD6E5"/>
<path d="M49.9642 160.82C44.2759 163.152 37.3932 160.82 33.6958 155.53C33.7527 155.871 33.8096 156.155 33.9233 156.44C33.9802 156.781 33.9233 157.122 33.8096 157.35C35.6867 159.511 38.1326 161.104 40.7492 162.014C40.863 161.9 40.9768 161.787 41.1474 161.73C41.3749 161.673 41.6025 161.673 41.83 161.73C41.8869 161.73 41.9438 161.73 42.0006 161.787C42.0575 161.843 42.1144 161.9 42.1144 161.957C42.2282 162.128 42.2851 162.299 42.3988 162.469C45.0723 163.038 47.9164 162.867 50.4761 161.787C51.8982 161.218 53.1496 160.365 54.1735 159.398C54.1166 158.829 54.1166 158.317 54.1166 157.748C53.0358 159.113 51.6707 160.137 49.9642 160.82Z" fill="#CDD6E5"/>
<path d="M55.3678 146.144C55.2541 146.087 55.1972 145.859 55.1972 145.689C55.0265 145.29 54.8559 144.949 54.6853 144.551L54.6284 144.494C54.6284 144.494 54.6284 144.494 54.5715 144.494C54.4008 144.38 54.2302 144.267 54.1164 144.096C54.0027 143.925 54.0027 143.755 53.8889 143.584C53.7751 143.47 53.5476 143.527 53.4907 143.413C53.3201 143.129 53.3201 142.901 53.5476 142.845C50.0778 138.01 43.7638 135.848 38.5306 138.01C37.2223 138.578 36.0278 139.375 35.1177 140.342C35.1177 140.455 35.1177 140.626 35.0608 140.74C35.0039 141.024 34.8333 141.252 34.6626 141.422C34.2644 141.878 33.98 142.446 33.8663 143.015C33.9232 142.674 33.98 142.048 34.1507 141.422C33.2406 142.617 32.6717 144.039 32.3304 145.518L32.3873 145.575C32.4442 145.632 32.3873 145.746 32.3873 145.802C32.3873 146.03 32.3873 146.257 32.4442 146.428C32.5011 146.542 32.5011 146.599 32.558 146.713C32.6149 146.997 32.3304 147.168 32.1029 147.281C31.9891 149.272 32.3873 151.377 33.4112 153.425C33.4681 153.482 33.525 153.595 33.525 153.652C33.525 153.595 33.525 153.482 33.5819 153.425C33.6387 153.197 33.6956 152.97 33.6956 152.742C33.8663 153.083 33.7525 153.425 33.6387 153.766C33.6387 153.823 33.6387 153.823 33.6387 153.88C35.1746 156.667 37.5636 158.772 40.294 159.909C40.4646 159.909 40.6353 159.909 40.8059 159.966C40.9766 159.966 41.1472 160.023 41.2041 160.194C41.2041 160.251 41.2041 160.251 41.2041 160.307C43.9345 161.218 46.8355 161.218 49.5089 160.137C51.4998 159.34 53.0357 157.975 54.1164 156.383C54.1164 156.212 54.1733 156.041 54.2302 155.871C54.2871 155.871 54.344 155.928 54.4008 156.041C56.1073 153.083 56.5055 149.557 55.3678 146.144ZM39.6114 139.944C41.9436 138.977 44.5033 139.09 46.7786 139.944C46.8355 139.887 46.8924 139.887 46.9492 139.83C47.0061 139.773 47.0061 139.659 47.063 139.602C47.1768 139.432 47.2905 139.261 47.5181 139.261C47.5181 139.488 47.4612 139.716 47.4612 139.944C47.5181 140 47.5749 140.057 47.5749 140.114C47.6318 140.171 47.6318 140.285 47.6318 140.342C48.3713 140.74 49.1108 141.195 49.7934 141.707L45.0721 143.698C45.0721 143.755 45.0152 143.812 44.9584 143.925C44.9015 143.982 44.9015 144.039 44.8446 144.153C44.6739 144.437 44.4464 144.779 44.1051 144.892C43.9345 144.949 43.7069 144.835 43.7069 144.665C43.7069 144.608 43.7069 144.494 43.6501 144.437V144.38V144.323L38.1893 146.599C37.9049 146.94 37.6205 147.338 37.1655 147.281C37.0517 147.281 36.9379 147.224 36.7673 147.224L34.3782 148.191C34.3213 144.608 36.1985 141.366 39.6114 139.944ZM49.7365 157.35C49.7365 157.52 49.6796 157.634 49.6796 157.805C49.6227 158.317 49.5089 158.885 49.1677 159.227C49.1677 158.658 49.2245 158.146 49.2814 157.634C49.0539 157.748 48.8264 157.862 48.5988 157.975C45.2428 159.397 41.261 158.544 38.4169 156.212L44.7877 153.595C44.9584 153.425 45.1859 153.254 45.4134 153.083C45.5272 152.97 45.6978 152.856 45.8116 152.799C46.0391 152.685 46.3804 152.742 46.6648 152.742C46.7217 152.742 46.7217 152.742 46.7786 152.742L50.7035 151.149C50.7035 151.149 50.7035 151.149 50.7035 151.092C50.7604 150.922 50.8172 150.694 50.8172 150.524C50.7604 150.296 50.7035 150.012 50.6466 149.784C50.5897 149.5 50.5328 149.102 50.5328 148.703L41.261 152.571C41.2041 152.628 41.2041 152.628 41.1472 152.685C40.8628 152.913 39.2701 153.937 38.9857 153.538L36.7673 154.449C36.3122 153.88 35.914 153.254 35.5727 152.571C35.2315 151.889 35.0039 151.206 34.8333 150.524L41.3179 147.793C41.4885 147.509 41.6023 147.111 41.8867 146.997C42.0005 147.111 42.0005 147.338 42.0005 147.509L51.6705 143.47C52.1255 144.039 52.5237 144.665 52.865 145.347C53.2063 146.03 53.4338 146.713 53.6045 147.395L51.4998 148.248C51.443 148.931 51.4429 149.614 51.3292 150.296C51.3292 150.353 51.3292 150.41 51.2723 150.524C51.2723 150.524 51.2723 150.524 51.2723 150.581C51.2723 150.581 51.3292 150.694 51.3292 150.637C51.3292 150.637 51.3861 150.694 51.4429 150.751C51.4429 150.751 51.443 150.808 51.4998 150.808L53.8889 149.841C53.832 152.856 52.3531 155.757 49.7365 157.35Z" fill="#CDD6E5"/>
<line x1="88.6238" y1="163.512" x2="123.945" y2="163.512" stroke="#172D5F" stroke-width="0.5"/>
<defs>
<clipPath id="clip0_112_1007">
<rect width="52" height="22" fill="white" transform="translate(185 150)"/>
</clipPath>
<clipPath id="clip1_112_1007">
<rect width="52" height="22" fill="white" transform="translate(165 150)"/>
</clipPath>
<clipPath id="clip2_112_1007">
<rect width="52" height="22" fill="white" transform="translate(119 150)"/>
</clipPath>
<clipPath id="clip3_112_1007">
<rect width="52" height="22" fill="white" transform="translate(99 150)"/>
</clipPath>
<clipPath id="clip4_112_1007">
<rect width="52" height="22" fill="white" transform="translate(79 150)"/>
</clipPath>
</defs>
</svg>
