<svg width="166" height="151" viewBox="0 0 166 151" fill="none" xmlns="http://www.w3.org/2000/svg">
<rect x="52" y="2" width="111.609" height="146" rx="8" fill="#172D5F" stroke="white" stroke-width="4"/>
<path d="M131.139 9.04297H146.063C151.586 9.04297 156.063 13.5201 156.063 19.043V30.5855" stroke="white"/>
<line x1="64.8486" y1="27.1919" x2="130.078" y2="27.1919" stroke="white" stroke-width="2"/>
<line x1="64.8486" y1="41.5532" x2="139.623" y2="41.5532" stroke="white" stroke-width="2"/>
<line x1="64.8486" y1="55.3828" x2="147.578" y2="55.3828" stroke="white" stroke-width="2"/>
<line x1="64.8486" y1="74.0005" x2="147.578" y2="74.0005" stroke="white" stroke-width="2"/>
<line x1="64.8486" y1="89.957" x2="147.578" y2="89.957" stroke="white" stroke-width="2"/>
<line x1="64.8486" y1="104.851" x2="123.184" y2="104.851" stroke="white" stroke-width="2"/>
<line x1="64.8486" y1="117.085" x2="123.184" y2="117.085" stroke="white" stroke-width="2"/>
<g clip-path="url(#clip0_5243_944)">
<path d="M141.057 133.059C141.735 133.059 142.357 133.059 142.978 133.059C143.148 133.059 143.298 133.078 143.468 133.096C144.108 133.187 144.598 132.859 145.069 132.549C146.011 131.948 146.915 131.31 147.819 130.691C147.95 130.6 148.12 130.527 148.271 130.472C148.553 130.363 148.798 130.436 149.024 130.618C149.231 130.8 149.438 130.964 149.664 131.11C150.154 131.456 150.361 131.383 150.794 131.11C151.133 130.909 151.435 130.636 151.792 130.472C151.981 130.381 152.263 130.399 152.47 130.472C153.148 130.654 153.808 130.782 154.486 130.436C154.655 130.344 154.843 130.326 155.032 130.29C155.295 130.235 155.578 130.162 155.842 130.108C156.124 130.053 156.388 129.998 156.67 129.98C156.915 129.962 157.179 129.98 157.424 129.998C157.179 130.035 156.934 130.108 156.689 130.108C156.369 130.108 156.068 130.18 155.766 130.29C155.503 130.381 155.22 130.399 154.956 130.472C154.806 130.508 154.655 130.545 154.523 130.618C154.109 130.836 153.676 130.891 153.224 130.836C152.866 130.8 152.546 130.727 152.207 130.618C152.075 130.581 151.849 130.691 151.698 130.764C151.397 130.928 151.114 131.128 150.851 131.347C150.305 131.748 149.777 131.547 149.363 131.237C149.156 131.092 148.986 130.928 148.779 130.764C148.61 130.618 148.384 130.618 148.158 130.782C147.687 131.11 147.216 131.438 146.726 131.766C146.048 132.203 145.37 132.64 144.711 133.078C144.692 133.078 144.692 133.096 144.673 133.132C145.483 133.187 146.293 133.242 147.084 133.278C147.084 133.296 147.084 133.333 147.084 133.351C146.877 133.351 146.651 133.351 146.444 133.351C146.011 133.333 145.577 133.333 145.144 133.315C144.975 133.315 144.805 133.278 144.636 133.278C144.485 133.278 144.315 133.296 144.184 133.351C143.411 133.697 142.639 134.062 141.811 134.262C141.641 134.299 141.453 134.317 141.264 134.353C140.925 134.408 140.831 134.189 140.944 133.861C140.982 133.734 141.057 133.588 141.114 133.442C140.681 133.406 140.36 133.588 140.078 133.861C139.551 134.353 139.136 134.936 138.778 135.538C138.308 136.321 137.893 137.141 137.441 137.943C137.404 138.016 137.366 138.089 137.347 138.162C137.027 138.052 137.008 138.052 137.159 137.761C137.799 136.449 138.458 135.137 139.099 133.825C139.212 133.606 139.325 133.406 139.456 133.205C139.419 133.187 139.4 133.187 139.4 133.187C137.385 133.169 135.351 133.151 133.336 133.151C132.639 133.151 131.923 133.169 131.226 133.187C130.849 133.205 130.473 133.205 130.096 133.242C130.04 133.242 129.964 133.315 129.945 133.369C129.38 134.299 128.834 135.228 128.269 136.139C128.232 136.212 128.175 136.267 128.081 136.303C128.646 135.283 129.23 134.262 129.814 133.242C129.682 133.26 129.588 133.26 129.493 133.26C128.759 133.296 128.024 133.315 127.29 133.351C127.215 133.351 127.102 133.424 127.064 133.497C126.518 134.39 125.99 135.301 125.407 136.175C124.747 137.196 124.069 138.198 123.335 139.164C122.789 139.874 122.092 140.458 121.244 140.858C120.811 141.059 120.34 141.186 119.851 141.168C118.947 141.15 118.231 140.749 117.723 140.038C117.214 139.364 116.969 138.599 116.818 137.779C116.687 137.123 116.762 136.485 117.176 135.939C117.496 135.501 117.93 135.191 118.419 134.936C119.606 134.335 120.905 133.971 122.224 133.697C122.902 133.551 123.599 133.424 124.277 133.315C124.747 133.242 125.237 133.223 125.727 133.169C126.085 133.132 126.461 133.114 126.819 133.078C126.876 133.078 126.932 133.023 126.97 132.968C127.252 132.495 127.535 132.039 127.817 131.565C128.363 130.636 128.91 129.707 129.493 128.796C129.889 128.176 130.303 127.575 130.718 126.973C130.849 126.791 131.019 126.627 131.189 126.445C131.339 126.281 131.546 126.19 131.716 126.281C131.848 126.354 131.998 126.536 131.998 126.664C132.036 127.083 132.036 127.52 132.017 127.957C131.961 128.723 131.735 129.452 131.452 130.144C131.151 130.873 130.793 131.602 130.473 132.312C130.397 132.495 130.303 132.677 130.19 132.895C130.586 132.841 130.981 133.023 131.301 132.786C131.641 132.549 131.904 132.221 132.206 131.93C132.394 131.748 132.545 131.529 132.714 131.328C132.865 131.401 132.846 131.383 132.789 131.511C132.62 131.857 132.45 132.221 132.281 132.567C132.262 132.622 132.281 132.75 132.319 132.768C132.375 132.804 132.488 132.786 132.545 132.731C132.827 132.458 133.11 132.185 133.373 131.893C133.543 131.711 133.693 131.492 133.863 131.274C133.919 131.328 133.976 131.365 133.976 131.383C133.806 131.784 133.618 132.167 133.467 132.549C133.43 132.622 133.467 132.713 133.486 132.804C133.599 132.786 133.75 132.823 133.825 132.75C134.089 132.476 134.334 132.203 134.579 131.912C134.729 131.729 134.823 131.511 134.936 131.292C135.181 131.347 135.2 131.365 135.087 131.584C134.974 131.82 134.861 132.075 134.767 132.331C134.748 132.385 134.748 132.458 134.748 132.531C134.748 132.695 134.88 132.786 135.012 132.677C135.275 132.476 135.539 132.239 135.784 132.003C135.953 131.82 136.085 131.584 136.255 131.383C136.292 131.347 136.405 131.31 136.443 131.328C136.5 131.365 136.556 131.456 136.537 131.511C136.481 131.784 136.405 132.057 136.349 132.349C136.33 132.44 136.349 132.531 136.349 132.64C136.726 132.549 136.876 132.258 137.065 132.039C137.291 131.802 137.479 131.547 137.667 131.292C137.743 131.201 137.837 131.146 137.931 131.237C137.987 131.292 138.025 131.401 138.006 131.474C137.931 131.729 137.837 131.984 137.761 132.239C137.724 132.349 137.724 132.458 137.705 132.567C137.724 132.586 137.743 132.604 137.78 132.622C138.025 132.385 138.289 132.13 138.534 131.893C138.665 131.766 138.778 131.62 138.929 131.529C139.023 131.456 139.23 131.383 139.287 131.438C139.4 131.511 139.456 131.675 139.494 131.82C139.532 132.039 139.494 132.258 139.532 132.476C139.551 132.586 139.645 132.677 139.701 132.786C139.777 132.713 139.852 132.622 139.89 132.549C140.285 131.875 140.662 131.201 141.076 130.545C141.679 129.616 142.338 128.704 142.978 127.812C143.242 127.429 143.562 127.083 143.882 126.755C144.56 126.062 145.351 125.552 146.387 125.589C147.028 125.607 147.442 125.971 147.48 126.645C147.517 127.392 147.216 128.03 146.877 128.668C146.5 129.36 145.992 129.98 145.389 130.508C144.767 131.073 144.108 131.547 143.374 131.93C142.602 132.349 141.867 132.677 141.057 133.059ZM126.725 133.406C126.273 133.442 125.859 133.497 125.425 133.533C124.992 133.57 124.559 133.606 124.145 133.679C123.354 133.825 122.563 133.971 121.791 134.153C120.585 134.426 119.399 134.772 118.325 135.41C117.76 135.738 117.308 136.175 117.139 136.813C117.044 137.232 117.101 137.633 117.214 138.034C117.44 138.854 117.704 139.638 118.382 140.239C118.984 140.749 119.644 140.931 120.435 140.767C121.226 140.585 121.885 140.166 122.412 139.601C122.977 139.036 123.486 138.398 123.938 137.761C124.616 136.777 125.237 135.756 125.896 134.754C126.198 134.317 126.442 133.879 126.725 133.406ZM140.078 132.841C140.078 132.859 140.097 132.877 140.097 132.895C140.285 132.841 140.473 132.804 140.662 132.75C141.472 132.513 142.244 132.167 142.978 131.766C143.995 131.201 144.956 130.545 145.709 129.652C146.406 128.832 146.933 127.921 147.103 126.846C147.159 126.518 146.915 126.099 146.576 126.008C146.011 125.862 145.483 126.044 145.012 126.317C144.504 126.591 144.108 126.992 143.75 127.447C143.317 127.994 142.846 128.522 142.451 129.105C141.924 129.834 141.453 130.581 140.963 131.347C140.662 131.82 140.379 132.331 140.078 132.841ZM127.309 133.078C127.554 133.059 127.742 133.023 127.949 133.023C128.533 133.005 129.098 132.987 129.682 132.987C129.87 132.987 129.964 132.932 130.04 132.768C130.153 132.513 130.303 132.258 130.416 131.984C130.755 131.183 131.132 130.399 131.396 129.579C131.622 128.905 131.735 128.194 131.848 127.484C131.885 127.228 131.81 126.955 131.754 126.7C131.716 126.518 131.603 126.5 131.452 126.609C131.414 126.627 131.377 126.664 131.358 126.7C131.019 127.156 130.642 127.593 130.341 128.067C129.87 128.796 129.418 129.561 128.966 130.308C128.401 131.219 127.874 132.13 127.309 133.078ZM141.246 134.098C142.413 133.825 143.393 133.479 143.6 133.26C142.865 133.26 142.15 133.26 141.49 133.26C141.415 133.533 141.34 133.807 141.246 134.098ZM139.174 132.914C139.136 132.549 139.117 132.203 139.08 131.875C138.741 132.221 138.383 132.567 138.044 132.914C138.421 132.914 138.816 132.914 139.174 132.914ZM140.568 133.187C140.455 133.187 140.342 133.187 140.247 133.187C140.116 133.205 139.927 133.187 139.871 133.26C139.701 133.497 139.569 133.77 139.438 134.025C139.814 133.734 140.097 133.351 140.568 133.187ZM137.385 132.185C137.159 132.422 136.952 132.64 136.707 132.877C136.97 132.895 137.196 132.914 137.385 132.932C137.385 132.677 137.385 132.44 137.385 132.185ZM132.036 132.859C132.111 132.604 132.168 132.367 132.224 132.148C132.206 132.13 132.206 132.13 132.187 132.112C131.942 132.385 131.697 132.659 131.49 132.914C131.641 132.895 131.867 132.877 132.036 132.859ZM135.972 132.276C135.784 132.476 135.596 132.659 135.407 132.859C135.633 132.859 135.859 132.859 136.066 132.859C136.029 132.677 136.01 132.476 135.972 132.276ZM133.223 132.476C133.072 132.604 132.94 132.731 132.789 132.859C132.94 132.859 133.072 132.859 133.185 132.859C133.204 132.75 133.223 132.622 133.223 132.476ZM134.447 132.604C134.371 132.677 134.296 132.768 134.202 132.877C134.334 132.877 134.447 132.877 134.541 132.877C134.503 132.768 134.466 132.695 134.447 132.604Z" fill="white"/>
</g>
<path d="M95.534 120.009C95.44 119.868 95.2991 119.774 95.1582 119.68L95.2052 119.727C95.3461 120.057 95.487 120.339 95.6279 120.669C95.6749 120.528 95.7219 120.386 95.7219 120.245C95.6279 120.151 95.5809 120.057 95.534 120.009Z" fill="#CDD6E5"/>
<path d="M97.4597 126.417C97.4597 126.276 97.5067 126.134 97.5067 125.993C97.5067 125.805 97.5067 125.616 97.5067 125.428C97.5537 125.239 97.6946 124.957 97.8825 124.862C97.9764 122.978 97.5536 120.952 96.6142 119.067C95.0641 115.911 92.2927 113.602 89.2395 112.519C89.1926 112.566 89.1456 112.66 89.1456 112.754C89.0517 112.99 88.6759 112.895 88.6759 112.613C88.6759 112.519 88.6759 112.424 88.6289 112.33C86.1394 111.576 83.4619 111.623 81.0194 112.66C80.5497 112.848 80.0799 113.084 79.6572 113.367C79.6572 113.555 79.7042 113.744 79.7042 113.932C79.5163 113.885 79.3753 113.791 79.2344 113.649C74.913 116.57 73.4568 122.412 76.0873 127.642C76.4631 128.396 76.9328 129.103 77.4025 129.762C77.4025 129.527 77.4495 129.338 77.5434 129.103C77.5904 128.914 77.6374 128.773 77.6843 128.632C77.4025 128.207 77.1207 127.736 76.8858 127.265C74.2084 121.847 76.2282 115.675 81.4421 113.461C86.6561 111.294 93.0913 113.932 95.7687 119.35C97.6476 123.166 97.2248 127.407 94.9232 130.28C94.9232 130.375 94.9232 130.516 94.9232 130.563C94.9232 130.799 94.9232 131.034 94.9232 131.27C94.9232 131.411 94.9232 131.6 94.9232 131.741C96.2854 130.375 97.2248 128.632 97.6476 126.7H97.6006C97.5067 126.7 97.4597 126.559 97.4597 126.417Z" fill="#CDD6E5"/>
<path d="M91.2583 133.202C86.5611 135.134 80.8774 133.202 77.8242 128.821C77.8712 129.103 77.9182 129.339 78.0121 129.574C78.0591 129.857 78.0121 130.14 77.9182 130.328C79.4682 132.119 81.4881 133.438 83.6488 134.192C83.7427 134.097 83.8367 134.003 83.9776 133.956C84.1655 133.909 84.3534 133.909 84.5413 133.956C84.5882 133.956 84.6352 133.956 84.6822 134.003C84.7292 134.05 84.7761 134.097 84.7761 134.144C84.8701 134.286 84.917 134.427 85.011 134.568C87.2187 135.04 89.5673 134.898 91.6811 134.003C92.8554 133.532 93.8888 132.825 94.7343 132.024C94.6873 131.553 94.6873 131.129 94.6873 130.658C93.7948 131.789 92.6675 132.637 91.2583 133.202Z" fill="#CDD6E5"/>
<path d="M95.7204 121.046C95.6264 120.999 95.5795 120.811 95.5795 120.669C95.4386 120.339 95.2976 120.057 95.1567 119.727L95.1098 119.68C95.1098 119.68 95.1097 119.68 95.0628 119.68C94.9219 119.586 94.7809 119.491 94.687 119.35C94.5931 119.209 94.5931 119.067 94.4991 118.926C94.4052 118.832 94.2173 118.879 94.1703 118.785C94.0294 118.549 94.0294 118.361 94.2173 118.314C91.352 114.309 86.138 112.519 81.8166 114.309C80.7362 114.78 79.7498 115.44 78.9982 116.241C78.9982 116.335 78.9982 116.476 78.9513 116.57C78.9043 116.806 78.7634 116.994 78.6225 117.136C78.2936 117.513 78.0588 117.984 77.9648 118.455C78.0118 118.172 78.0588 117.654 78.1997 117.136C77.4481 118.125 76.9784 119.303 76.6966 120.528L76.7436 120.575C76.7905 120.622 76.7436 120.716 76.7436 120.764C76.7436 120.952 76.7436 121.14 76.7905 121.282C76.8375 121.376 76.8375 121.423 76.8845 121.517C76.9314 121.753 76.6966 121.894 76.5087 121.988C76.4148 123.637 76.7436 125.381 77.5891 127.077C77.636 127.124 77.683 127.218 77.683 127.265C77.683 127.218 77.683 127.124 77.73 127.077C77.777 126.888 77.8239 126.7 77.8239 126.511C77.9648 126.794 77.8709 127.077 77.777 127.359C77.777 127.407 77.777 127.407 77.777 127.454C79.0452 129.762 81.018 131.505 83.2727 132.448C83.4136 132.448 83.5546 132.448 83.6955 132.495C83.8364 132.495 83.9773 132.542 84.0243 132.683C84.0243 132.73 84.0243 132.73 84.0243 132.778C86.2789 133.531 88.6745 133.531 90.8822 132.636C92.5263 131.977 93.7945 130.846 94.687 129.527C94.687 129.385 94.734 129.244 94.7809 129.103C94.8279 129.103 94.8749 129.15 94.9219 129.244C96.331 126.794 96.6598 123.873 95.7204 121.046ZM82.7091 115.911C84.6349 115.11 86.7487 115.204 88.6276 115.911C88.6745 115.864 88.7215 115.864 88.7685 115.817C88.8155 115.769 88.8155 115.675 88.8624 115.628C88.9564 115.487 89.0503 115.345 89.2382 115.345C89.2382 115.534 89.1912 115.722 89.1912 115.911C89.2382 115.958 89.2852 116.005 89.2852 116.052C89.3322 116.099 89.3322 116.193 89.3322 116.241C89.9428 116.57 90.5534 116.947 91.1171 117.371L87.2184 119.02C87.2184 119.067 87.1714 119.115 87.1245 119.209C87.0775 119.256 87.0775 119.303 87.0305 119.397C86.8896 119.633 86.7017 119.915 86.4199 120.01C86.2789 120.057 86.0911 119.963 86.0911 119.821C86.0911 119.774 86.0911 119.68 86.0441 119.633V119.586V119.539L81.5347 121.423C81.2999 121.706 81.065 122.036 80.6892 121.988C80.5953 121.988 80.5014 121.941 80.3604 121.941L78.3876 122.742C78.3406 119.774 79.8907 117.089 82.7091 115.911ZM91.0701 130.328C91.0701 130.469 91.0232 130.563 91.0232 130.705C90.9762 131.129 90.8822 131.6 90.6004 131.882C90.6004 131.411 90.6474 130.987 90.6944 130.563C90.5065 130.657 90.3186 130.752 90.1307 130.846C87.3593 132.024 84.0712 131.317 81.7226 129.385L86.9835 127.218C87.1244 127.077 87.3123 126.935 87.5002 126.794C87.5942 126.7 87.7351 126.606 87.829 126.559C88.0169 126.464 88.2988 126.511 88.5336 126.511C88.5806 126.511 88.5806 126.511 88.6276 126.511L91.8687 125.192C91.8687 125.192 91.8687 125.192 91.8687 125.145C91.9156 125.004 91.9626 124.815 91.9626 124.674C91.9156 124.486 91.8687 124.25 91.8217 124.061C91.7747 123.826 91.7277 123.496 91.7277 123.166L84.0712 126.37C84.0243 126.417 84.0243 126.417 83.9773 126.464C83.7424 126.653 82.4272 127.501 82.1924 127.171L80.3604 127.925C79.9847 127.454 79.6558 126.935 79.374 126.37C79.0922 125.805 78.9043 125.239 78.7634 124.674L84.1182 122.413C84.2591 122.177 84.3531 121.847 84.5879 121.753C84.6819 121.847 84.6819 122.036 84.6819 122.177L92.6672 118.832C93.043 119.303 93.3718 119.821 93.6536 120.387C93.9354 120.952 94.1233 121.517 94.2642 122.083L92.5263 122.789C92.4793 123.355 92.4793 123.92 92.3854 124.486C92.3854 124.533 92.3854 124.58 92.3384 124.674C92.3384 124.674 92.3384 124.674 92.3384 124.721C92.3384 124.721 92.3854 124.815 92.3854 124.768C92.3854 124.768 92.4323 124.815 92.4793 124.862C92.4793 124.862 92.4793 124.91 92.5263 124.91L94.4991 124.109C94.4521 126.606 93.2309 129.008 91.0701 130.328Z" fill="#CDD6E5"/>
<line x1="123.184" y1="135.389" x2="152.351" y2="135.389" stroke="white" stroke-width="0.5"/>
<rect x="27" y="3" width="111.609" height="146" rx="8" fill="#172D5F" stroke="white" stroke-width="4"/>
<path d="M106.139 10.043H121.063C126.586 10.043 131.063 14.5201 131.063 20.043V31.5855" stroke="white"/>
<line x1="39.8486" y1="28.1919" x2="105.078" y2="28.1919" stroke="white" stroke-width="2"/>
<line x1="39.8486" y1="42.5532" x2="114.623" y2="42.5532" stroke="white" stroke-width="2"/>
<line x1="39.8486" y1="56.3828" x2="122.578" y2="56.3828" stroke="white" stroke-width="2"/>
<line x1="39.8486" y1="75.0005" x2="122.578" y2="75.0005" stroke="white" stroke-width="2"/>
<line x1="39.8486" y1="90.957" x2="122.578" y2="90.957" stroke="white" stroke-width="2"/>
<line x1="39.8486" y1="105.851" x2="98.1835" y2="105.851" stroke="white" stroke-width="2"/>
<line x1="39.8486" y1="118.085" x2="98.1835" y2="118.085" stroke="white" stroke-width="2"/>
<g clip-path="url(#clip1_5243_944)">
<path d="M116.057 134.059C116.735 134.059 117.357 134.059 117.978 134.059C118.148 134.059 118.298 134.078 118.468 134.096C119.108 134.187 119.598 133.859 120.069 133.549C121.011 132.948 121.915 132.31 122.819 131.691C122.95 131.6 123.12 131.527 123.271 131.472C123.553 131.363 123.798 131.436 124.024 131.618C124.231 131.8 124.438 131.964 124.664 132.11C125.154 132.456 125.361 132.383 125.794 132.11C126.133 131.909 126.435 131.636 126.792 131.472C126.981 131.381 127.263 131.399 127.47 131.472C128.148 131.654 128.808 131.782 129.486 131.436C129.655 131.344 129.843 131.326 130.032 131.29C130.295 131.235 130.578 131.162 130.842 131.108C131.124 131.053 131.388 130.998 131.67 130.98C131.915 130.962 132.179 130.98 132.424 130.998C132.179 131.035 131.934 131.108 131.689 131.108C131.369 131.108 131.068 131.18 130.766 131.29C130.503 131.381 130.22 131.399 129.956 131.472C129.806 131.508 129.655 131.545 129.523 131.618C129.109 131.836 128.676 131.891 128.224 131.836C127.866 131.8 127.546 131.727 127.207 131.618C127.075 131.581 126.849 131.691 126.698 131.764C126.397 131.928 126.114 132.128 125.851 132.347C125.305 132.748 124.777 132.547 124.363 132.237C124.156 132.092 123.986 131.928 123.779 131.764C123.61 131.618 123.384 131.618 123.158 131.782C122.687 132.11 122.216 132.438 121.726 132.766C121.048 133.203 120.37 133.64 119.711 134.078C119.692 134.078 119.692 134.096 119.673 134.132C120.483 134.187 121.293 134.242 122.084 134.278C122.084 134.296 122.084 134.333 122.084 134.351C121.877 134.351 121.651 134.351 121.444 134.351C121.011 134.333 120.577 134.333 120.144 134.315C119.975 134.315 119.805 134.278 119.636 134.278C119.485 134.278 119.315 134.296 119.184 134.351C118.411 134.697 117.639 135.062 116.811 135.262C116.641 135.299 116.453 135.317 116.264 135.353C115.925 135.408 115.831 135.189 115.944 134.861C115.982 134.734 116.057 134.588 116.114 134.442C115.681 134.406 115.36 134.588 115.078 134.861C114.551 135.353 114.136 135.936 113.778 136.538C113.308 137.321 112.893 138.141 112.441 138.943C112.404 139.016 112.366 139.089 112.347 139.162C112.027 139.052 112.008 139.052 112.159 138.761C112.799 137.449 113.458 136.137 114.099 134.825C114.212 134.606 114.325 134.406 114.456 134.205C114.419 134.187 114.4 134.187 114.4 134.187C112.385 134.169 110.351 134.151 108.336 134.151C107.639 134.151 106.923 134.169 106.226 134.187C105.849 134.205 105.473 134.205 105.096 134.242C105.04 134.242 104.964 134.315 104.945 134.369C104.38 135.299 103.834 136.228 103.269 137.139C103.232 137.212 103.175 137.267 103.081 137.303C103.646 136.283 104.23 135.262 104.814 134.242C104.682 134.26 104.588 134.26 104.493 134.26C103.759 134.296 103.024 134.315 102.29 134.351C102.215 134.351 102.102 134.424 102.064 134.497C101.518 135.39 100.99 136.301 100.407 137.175C99.7474 138.196 99.0694 139.198 98.3349 140.164C97.7887 140.874 97.0919 141.458 96.2444 141.858C95.8112 142.059 95.3404 142.186 94.8507 142.168C93.9467 142.15 93.231 141.749 92.7225 141.038C92.214 140.364 91.9692 139.599 91.8185 138.779C91.6867 138.123 91.762 137.485 92.1763 136.939C92.4965 136.501 92.9297 136.191 93.4193 135.936C94.6059 135.335 95.9054 134.971 97.2237 134.697C97.9017 134.551 98.5986 134.424 99.2766 134.315C99.7474 134.242 100.237 134.223 100.727 134.169C101.085 134.132 101.461 134.114 101.819 134.078C101.876 134.078 101.932 134.023 101.97 133.968C102.252 133.495 102.535 133.039 102.817 132.565C103.363 131.636 103.91 130.707 104.493 129.796C104.889 129.176 105.303 128.575 105.718 127.973C105.849 127.791 106.019 127.627 106.189 127.445C106.339 127.281 106.546 127.19 106.716 127.281C106.848 127.354 106.998 127.536 106.998 127.664C107.036 128.083 107.036 128.52 107.017 128.957C106.961 129.723 106.735 130.452 106.452 131.144C106.151 131.873 105.793 132.602 105.473 133.312C105.397 133.495 105.303 133.677 105.19 133.895C105.586 133.841 105.981 134.023 106.301 133.786C106.641 133.549 106.904 133.221 107.206 132.93C107.394 132.748 107.545 132.529 107.714 132.328C107.865 132.401 107.846 132.383 107.789 132.511C107.62 132.857 107.45 133.221 107.281 133.567C107.262 133.622 107.281 133.75 107.319 133.768C107.375 133.804 107.488 133.786 107.545 133.731C107.827 133.458 108.11 133.185 108.373 132.893C108.543 132.711 108.693 132.492 108.863 132.274C108.919 132.328 108.976 132.365 108.976 132.383C108.806 132.784 108.618 133.167 108.467 133.549C108.43 133.622 108.467 133.713 108.486 133.804C108.599 133.786 108.75 133.823 108.825 133.75C109.089 133.476 109.334 133.203 109.579 132.912C109.729 132.729 109.823 132.511 109.936 132.292C110.181 132.347 110.2 132.365 110.087 132.584C109.974 132.82 109.861 133.075 109.767 133.331C109.748 133.385 109.748 133.458 109.748 133.531C109.748 133.695 109.88 133.786 110.012 133.677C110.275 133.476 110.539 133.239 110.784 133.003C110.953 132.82 111.085 132.584 111.255 132.383C111.292 132.347 111.405 132.31 111.443 132.328C111.5 132.365 111.556 132.456 111.537 132.511C111.481 132.784 111.405 133.057 111.349 133.349C111.33 133.44 111.349 133.531 111.349 133.64C111.726 133.549 111.876 133.258 112.065 133.039C112.291 132.802 112.479 132.547 112.667 132.292C112.743 132.201 112.837 132.146 112.931 132.237C112.987 132.292 113.025 132.401 113.006 132.474C112.931 132.729 112.837 132.984 112.761 133.239C112.724 133.349 112.724 133.458 112.705 133.567C112.724 133.586 112.743 133.604 112.78 133.622C113.025 133.385 113.289 133.13 113.534 132.893C113.665 132.766 113.778 132.62 113.929 132.529C114.023 132.456 114.23 132.383 114.287 132.438C114.4 132.511 114.456 132.675 114.494 132.82C114.532 133.039 114.494 133.258 114.532 133.476C114.551 133.586 114.645 133.677 114.701 133.786C114.777 133.713 114.852 133.622 114.89 133.549C115.285 132.875 115.662 132.201 116.076 131.545C116.679 130.616 117.338 129.704 117.978 128.812C118.242 128.429 118.562 128.083 118.882 127.755C119.56 127.062 120.351 126.552 121.387 126.589C122.028 126.607 122.442 126.971 122.48 127.645C122.517 128.392 122.216 129.03 121.877 129.668C121.5 130.36 120.992 130.98 120.389 131.508C119.767 132.073 119.108 132.547 118.374 132.93C117.602 133.349 116.867 133.677 116.057 134.059ZM101.725 134.406C101.273 134.442 100.859 134.497 100.425 134.533C99.9923 134.57 99.5591 134.606 99.1447 134.679C98.3537 134.825 97.5627 134.971 96.7905 135.153C95.5852 135.426 94.3987 135.772 93.3252 136.41C92.7602 136.738 92.3082 137.175 92.1387 137.813C92.0445 138.232 92.101 138.633 92.214 139.034C92.44 139.854 92.7037 140.638 93.3817 141.239C93.9844 141.749 94.6435 141.931 95.4345 141.767C96.2255 141.585 96.8847 141.166 97.4121 140.601C97.9771 140.036 98.4856 139.398 98.9376 138.761C99.6156 137.777 100.237 136.756 100.896 135.754C101.198 135.317 101.442 134.879 101.725 134.406ZM115.078 133.841C115.078 133.859 115.097 133.877 115.097 133.895C115.285 133.841 115.473 133.804 115.662 133.75C116.472 133.513 117.244 133.167 117.978 132.766C118.995 132.201 119.956 131.545 120.709 130.652C121.406 129.832 121.933 128.921 122.103 127.846C122.159 127.518 121.915 127.099 121.576 127.008C121.011 126.862 120.483 127.044 120.012 127.317C119.504 127.591 119.108 127.992 118.75 128.447C118.317 128.994 117.846 129.522 117.451 130.105C116.924 130.834 116.453 131.581 115.963 132.347C115.662 132.82 115.379 133.331 115.078 133.841ZM102.309 134.078C102.554 134.059 102.742 134.023 102.949 134.023C103.533 134.005 104.098 133.987 104.682 133.987C104.87 133.987 104.964 133.932 105.04 133.768C105.153 133.513 105.303 133.258 105.416 132.984C105.755 132.183 106.132 131.399 106.396 130.579C106.622 129.905 106.735 129.194 106.848 128.484C106.885 128.228 106.81 127.955 106.754 127.7C106.716 127.518 106.603 127.5 106.452 127.609C106.414 127.627 106.377 127.664 106.358 127.7C106.019 128.156 105.642 128.593 105.341 129.067C104.87 129.796 104.418 130.561 103.966 131.308C103.401 132.219 102.874 133.13 102.309 134.078ZM116.246 135.098C117.413 134.825 118.393 134.479 118.6 134.26C117.865 134.26 117.15 134.26 116.49 134.26C116.415 134.533 116.34 134.807 116.246 135.098ZM114.174 133.914C114.136 133.549 114.117 133.203 114.08 132.875C113.741 133.221 113.383 133.567 113.044 133.914C113.421 133.914 113.816 133.914 114.174 133.914ZM115.568 134.187C115.455 134.187 115.342 134.187 115.247 134.187C115.116 134.205 114.927 134.187 114.871 134.26C114.701 134.497 114.569 134.77 114.438 135.025C114.814 134.734 115.097 134.351 115.568 134.187ZM112.385 133.185C112.159 133.422 111.952 133.64 111.707 133.877C111.97 133.895 112.196 133.914 112.385 133.932C112.385 133.677 112.385 133.44 112.385 133.185ZM107.036 133.859C107.111 133.604 107.168 133.367 107.224 133.148C107.206 133.13 107.206 133.13 107.187 133.112C106.942 133.385 106.697 133.659 106.49 133.914C106.641 133.895 106.867 133.877 107.036 133.859ZM110.972 133.276C110.784 133.476 110.596 133.659 110.407 133.859C110.633 133.859 110.859 133.859 111.066 133.859C111.029 133.677 111.01 133.476 110.972 133.276ZM108.223 133.476C108.072 133.604 107.94 133.731 107.789 133.859C107.94 133.859 108.072 133.859 108.185 133.859C108.204 133.75 108.223 133.622 108.223 133.476ZM109.447 133.604C109.371 133.677 109.296 133.768 109.202 133.877C109.334 133.877 109.447 133.877 109.541 133.877C109.503 133.768 109.466 133.695 109.447 133.604Z" fill="white"/>
</g>
<path d="M70.534 121.009C70.44 120.868 70.2991 120.774 70.1582 120.68L70.2052 120.727C70.3461 121.057 70.487 121.339 70.6279 121.669C70.6749 121.528 70.7219 121.386 70.7219 121.245C70.6279 121.151 70.5809 121.057 70.534 121.009Z" fill="#CDD6E5"/>
<path d="M72.4597 127.417C72.4597 127.276 72.5067 127.134 72.5067 126.993C72.5067 126.805 72.5067 126.616 72.5067 126.428C72.5537 126.239 72.6946 125.957 72.8825 125.862C72.9764 123.978 72.5536 121.952 71.6142 120.067C70.0641 116.911 67.2927 114.602 64.2395 113.519C64.1926 113.566 64.1456 113.66 64.1456 113.754C64.0517 113.99 63.6759 113.895 63.6759 113.613C63.6759 113.519 63.6759 113.424 63.6289 113.33C61.1394 112.576 58.4619 112.623 56.0194 113.66C55.5497 113.848 55.0799 114.084 54.6572 114.367C54.6572 114.555 54.7042 114.744 54.7042 114.932C54.5163 114.885 54.3753 114.791 54.2344 114.649C49.913 117.57 48.4568 123.412 51.0873 128.642C51.4631 129.396 51.9328 130.103 52.4025 130.762C52.4025 130.527 52.4495 130.338 52.5434 130.103C52.5904 129.914 52.6374 129.773 52.6843 129.632C52.4025 129.207 52.1207 128.736 51.8858 128.265C49.2084 122.847 51.2282 116.675 56.4421 114.461C61.6561 112.294 68.0913 114.932 70.7687 120.35C72.6476 124.166 72.2248 128.407 69.9232 131.28C69.9232 131.375 69.9232 131.516 69.9232 131.563C69.9232 131.799 69.9232 132.034 69.9232 132.27C69.9232 132.411 69.9232 132.6 69.9232 132.741C71.2854 131.375 72.2248 129.632 72.6476 127.7H72.6006C72.5067 127.7 72.4597 127.559 72.4597 127.417Z" fill="#CDD6E5"/>
<path d="M66.2583 134.202C61.5611 136.134 55.8774 134.202 52.8242 129.821C52.8712 130.103 52.9182 130.339 53.0121 130.574C53.0591 130.857 53.0121 131.14 52.9182 131.328C54.4682 133.119 56.4881 134.438 58.6488 135.192C58.7427 135.097 58.8367 135.003 58.9776 134.956C59.1655 134.909 59.3534 134.909 59.5413 134.956C59.5882 134.956 59.6352 134.956 59.6822 135.003C59.7292 135.05 59.7761 135.097 59.7761 135.144C59.8701 135.286 59.917 135.427 60.011 135.568C62.2187 136.04 64.5673 135.898 66.6811 135.003C67.8554 134.532 68.8888 133.825 69.7343 133.024C69.6873 132.553 69.6873 132.129 69.6873 131.658C68.7948 132.789 67.6675 133.637 66.2583 134.202Z" fill="#CDD6E5"/>
<path d="M70.7204 122.046C70.6264 121.999 70.5795 121.811 70.5795 121.669C70.4386 121.339 70.2976 121.057 70.1567 120.727L70.1098 120.68C70.1098 120.68 70.1097 120.68 70.0628 120.68C69.9219 120.586 69.7809 120.491 69.687 120.35C69.5931 120.209 69.5931 120.067 69.4991 119.926C69.4052 119.832 69.2173 119.879 69.1703 119.785C69.0294 119.549 69.0294 119.361 69.2173 119.314C66.352 115.309 61.138 113.519 56.8166 115.309C55.7362 115.78 54.7498 116.44 53.9982 117.241C53.9982 117.335 53.9982 117.476 53.9513 117.57C53.9043 117.806 53.7634 117.994 53.6225 118.136C53.2936 118.513 53.0588 118.984 52.9648 119.455C53.0118 119.172 53.0588 118.654 53.1997 118.136C52.4481 119.125 51.9784 120.303 51.6966 121.528L51.7436 121.575C51.7905 121.622 51.7436 121.716 51.7436 121.764C51.7436 121.952 51.7436 122.14 51.7905 122.282C51.8375 122.376 51.8375 122.423 51.8845 122.517C51.9314 122.753 51.6966 122.894 51.5087 122.988C51.4148 124.637 51.7436 126.381 52.5891 128.077C52.636 128.124 52.683 128.218 52.683 128.265C52.683 128.218 52.683 128.124 52.73 128.077C52.777 127.888 52.8239 127.7 52.8239 127.511C52.9648 127.794 52.8709 128.077 52.777 128.359C52.777 128.407 52.777 128.407 52.777 128.454C54.0452 130.762 56.018 132.505 58.2727 133.448C58.4136 133.448 58.5546 133.448 58.6955 133.495C58.8364 133.495 58.9773 133.542 59.0243 133.683C59.0243 133.73 59.0243 133.73 59.0243 133.778C61.2789 134.531 63.6745 134.531 65.8822 133.636C67.5263 132.977 68.7945 131.846 69.687 130.527C69.687 130.385 69.734 130.244 69.7809 130.103C69.8279 130.103 69.8749 130.15 69.9219 130.244C71.331 127.794 71.6598 124.873 70.7204 122.046ZM57.7091 116.911C59.6349 116.11 61.7487 116.204 63.6276 116.911C63.6745 116.864 63.7215 116.864 63.7685 116.817C63.8155 116.769 63.8155 116.675 63.8624 116.628C63.9564 116.487 64.0503 116.345 64.2382 116.345C64.2382 116.534 64.1912 116.722 64.1912 116.911C64.2382 116.958 64.2852 117.005 64.2852 117.052C64.3322 117.099 64.3322 117.193 64.3322 117.241C64.9428 117.57 65.5534 117.947 66.1171 118.371L62.2184 120.02C62.2184 120.067 62.1714 120.115 62.1245 120.209C62.0775 120.256 62.0775 120.303 62.0305 120.397C61.8896 120.633 61.7017 120.915 61.4199 121.01C61.2789 121.057 61.0911 120.963 61.0911 120.821C61.0911 120.774 61.0911 120.68 61.0441 120.633V120.586V120.539L56.5347 122.423C56.2999 122.706 56.065 123.036 55.6892 122.988C55.5953 122.988 55.5014 122.941 55.3604 122.941L53.3876 123.742C53.3406 120.774 54.8907 118.089 57.7091 116.911ZM66.0701 131.328C66.0701 131.469 66.0232 131.563 66.0232 131.705C65.9762 132.129 65.8822 132.6 65.6004 132.882C65.6004 132.411 65.6474 131.987 65.6944 131.563C65.5065 131.657 65.3186 131.752 65.1307 131.846C62.3593 133.024 59.0712 132.317 56.7226 130.385L61.9835 128.218C62.1244 128.077 62.3123 127.935 62.5002 127.794C62.5942 127.7 62.7351 127.606 62.829 127.559C63.0169 127.464 63.2988 127.511 63.5336 127.511C63.5806 127.511 63.5806 127.511 63.6276 127.511L66.8687 126.192C66.8687 126.192 66.8687 126.192 66.8687 126.145C66.9156 126.004 66.9626 125.815 66.9626 125.674C66.9156 125.486 66.8687 125.25 66.8217 125.061C66.7747 124.826 66.7277 124.496 66.7277 124.166L59.0712 127.37C59.0243 127.417 59.0243 127.417 58.9773 127.464C58.7424 127.653 57.4272 128.501 57.1924 128.171L55.3604 128.925C54.9847 128.454 54.6558 127.935 54.374 127.37C54.0922 126.805 53.9043 126.239 53.7634 125.674L59.1182 123.413C59.2591 123.177 59.3531 122.847 59.5879 122.753C59.6819 122.847 59.6819 123.036 59.6819 123.177L67.6672 119.832C68.043 120.303 68.3718 120.821 68.6536 121.387C68.9354 121.952 69.1233 122.517 69.2642 123.083L67.5263 123.789C67.4793 124.355 67.4793 124.92 67.3854 125.486C67.3854 125.533 67.3854 125.58 67.3384 125.674C67.3384 125.674 67.3384 125.674 67.3384 125.721C67.3384 125.721 67.3854 125.815 67.3854 125.768C67.3854 125.768 67.4323 125.815 67.4793 125.862C67.4793 125.862 67.4793 125.91 67.5263 125.91L69.4991 125.109C69.4521 127.606 68.2309 130.008 66.0701 131.328Z" fill="#CDD6E5"/>
<line x1="98.1836" y1="136.389" x2="127.351" y2="136.389" stroke="white" stroke-width="0.5"/>
<rect x="2" y="3" width="111.609" height="146" rx="8" fill="#172D5F" stroke="white" stroke-width="4"/>
<path d="M81.1386 10.043H96.0635C101.586 10.043 106.063 14.5201 106.063 20.043V31.5855" stroke="white"/>
<line x1="14.8486" y1="28.1919" x2="80.0776" y2="28.1919" stroke="white" stroke-width="2"/>
<line x1="14.8486" y1="42.5532" x2="89.6233" y2="42.5532" stroke="white" stroke-width="2"/>
<line x1="14.8486" y1="56.3828" x2="97.5781" y2="56.3828" stroke="white" stroke-width="2"/>
<line x1="14.8486" y1="75.0005" x2="97.5781" y2="75.0005" stroke="white" stroke-width="2"/>
<line x1="14.8486" y1="90.957" x2="97.5781" y2="90.957" stroke="white" stroke-width="2"/>
<line x1="14.8486" y1="105.851" x2="73.1835" y2="105.851" stroke="white" stroke-width="2"/>
<line x1="14.8486" y1="118.085" x2="73.1835" y2="118.085" stroke="white" stroke-width="2"/>
<g clip-path="url(#clip2_5243_944)">
<path d="M91.0573 134.059C91.7353 134.059 92.3568 134.059 92.9783 134.059C93.1478 134.059 93.2985 134.078 93.468 134.096C94.1083 134.187 94.598 133.859 95.0688 133.549C96.0105 132.948 96.9145 132.31 97.8185 131.691C97.9504 131.6 98.1199 131.527 98.2705 131.472C98.5531 131.363 98.7979 131.436 99.0239 131.618C99.2311 131.8 99.4382 131.964 99.6642 132.11C100.154 132.456 100.361 132.383 100.794 132.11C101.133 131.909 101.435 131.636 101.792 131.472C101.981 131.381 102.263 131.399 102.47 131.472C103.148 131.654 103.808 131.782 104.486 131.436C104.655 131.344 104.843 131.326 105.032 131.29C105.295 131.235 105.578 131.162 105.842 131.108C106.124 131.053 106.388 130.998 106.67 130.98C106.915 130.962 107.179 130.98 107.424 130.998C107.179 131.035 106.934 131.108 106.689 131.108C106.369 131.108 106.068 131.18 105.766 131.29C105.503 131.381 105.22 131.399 104.956 131.472C104.806 131.508 104.655 131.545 104.523 131.618C104.109 131.836 103.676 131.891 103.224 131.836C102.866 131.8 102.546 131.727 102.207 131.618C102.075 131.581 101.849 131.691 101.698 131.764C101.397 131.928 101.114 132.128 100.851 132.347C100.305 132.748 99.7772 132.547 99.3629 132.237C99.1557 132.092 98.9862 131.928 98.779 131.764C98.6095 131.618 98.3835 131.618 98.1575 131.782C97.6867 132.11 97.2159 132.438 96.7262 132.766C96.0482 133.203 95.3702 133.64 94.711 134.078C94.6922 134.078 94.6922 134.096 94.6733 134.132C95.4832 134.187 96.293 134.242 97.084 134.278C97.084 134.296 97.084 134.333 97.084 134.351C96.8769 134.351 96.6509 134.351 96.4437 134.351C96.0105 134.333 95.5773 134.333 95.1442 134.315C94.9747 134.315 94.8052 134.278 94.6357 134.278C94.485 134.278 94.3155 134.296 94.1837 134.351C93.4115 134.697 92.6393 135.062 91.8106 135.262C91.6411 135.299 91.4528 135.317 91.2645 135.353C90.9255 135.408 90.8313 135.189 90.9443 134.861C90.982 134.734 91.0573 134.588 91.1138 134.442C90.6806 134.406 90.3605 134.588 90.0779 134.861C89.5506 135.353 89.1363 135.936 88.7784 136.538C88.3076 137.321 87.8933 138.141 87.4412 138.943C87.4036 139.016 87.3659 139.089 87.3471 139.162C87.0269 139.052 87.0081 139.052 87.1587 138.761C87.7991 137.449 88.4583 136.137 89.0986 134.825C89.2116 134.606 89.3246 134.406 89.4564 134.205C89.4188 134.187 89.3999 134.187 89.3999 134.187C87.3847 134.169 85.3507 134.151 83.3355 134.151C82.6387 134.151 81.923 134.169 81.2262 134.187C80.8495 134.205 80.4728 134.205 80.0962 134.242C80.0397 134.242 79.9643 134.315 79.9455 134.369C79.3805 135.299 78.8343 136.228 78.2693 137.139C78.2316 137.212 78.1751 137.267 78.081 137.303C78.646 136.283 79.2298 135.262 79.8137 134.242C79.6818 134.26 79.5876 134.26 79.4935 134.26C78.759 134.296 78.0245 134.315 77.29 134.351C77.2146 134.351 77.1016 134.424 77.0639 134.497C76.5178 135.39 75.9904 136.301 75.4066 137.175C74.7474 138.196 74.0694 139.198 73.3349 140.164C72.7887 140.874 72.0919 141.458 71.2444 141.858C70.8112 142.059 70.3404 142.186 69.8507 142.168C68.9467 142.15 68.231 141.749 67.7225 141.038C67.214 140.364 66.9692 139.599 66.8185 138.779C66.6867 138.123 66.762 137.485 67.1763 136.939C67.4965 136.501 67.9297 136.191 68.4193 135.936C69.6059 135.335 70.9054 134.971 72.2237 134.697C72.9017 134.551 73.5986 134.424 74.2766 134.315C74.7474 134.242 75.2371 134.223 75.7268 134.169C76.0846 134.132 76.4613 134.114 76.8191 134.078C76.8756 134.078 76.9321 134.023 76.9698 133.968C77.2523 133.495 77.5348 133.039 77.8173 132.565C78.3635 131.636 78.9096 130.707 79.4935 129.796C79.889 129.176 80.3033 128.575 80.7177 127.973C80.8495 127.791 81.019 127.627 81.1885 127.445C81.3392 127.281 81.5463 127.19 81.7158 127.281C81.8477 127.354 81.9983 127.536 81.9983 127.664C82.036 128.083 82.036 128.52 82.0172 128.957C81.9607 129.723 81.7347 130.452 81.4522 131.144C81.1508 131.873 80.793 132.602 80.4728 133.312C80.3975 133.495 80.3033 133.677 80.1903 133.895C80.5858 133.841 80.9813 134.023 81.3015 133.786C81.6405 133.549 81.9042 133.221 82.2055 132.93C82.3938 132.748 82.5445 132.529 82.714 132.328C82.8647 132.401 82.8459 132.383 82.7894 132.511C82.6199 132.857 82.4503 133.221 82.2808 133.567C82.262 133.622 82.2808 133.75 82.3185 133.768C82.375 133.804 82.488 133.786 82.5445 133.731C82.827 133.458 83.1095 133.185 83.3732 132.893C83.5427 132.711 83.6934 132.492 83.8629 132.274C83.9194 132.328 83.9759 132.365 83.9759 132.383C83.8064 132.784 83.618 133.167 83.4674 133.549C83.4297 133.622 83.4674 133.713 83.4862 133.804C83.5992 133.786 83.7499 133.823 83.8252 133.75C84.0889 133.476 84.3337 133.203 84.5785 132.912C84.7292 132.729 84.8234 132.511 84.9364 132.292C85.1812 132.347 85.2001 132.365 85.0871 132.584C84.9741 132.82 84.861 133.075 84.7669 133.331C84.748 133.385 84.748 133.458 84.748 133.531C84.748 133.695 84.8799 133.786 85.0117 133.677C85.2754 133.476 85.539 133.239 85.7839 133.003C85.9534 132.82 86.0852 132.584 86.2547 132.383C86.2924 132.347 86.4054 132.31 86.4431 132.328C86.4996 132.365 86.5561 132.456 86.5372 132.511C86.4807 132.784 86.4054 133.057 86.3489 133.349C86.3301 133.44 86.3489 133.531 86.3489 133.64C86.7256 133.549 86.8762 133.258 87.0646 133.039C87.2906 132.802 87.4789 132.547 87.6672 132.292C87.7426 132.201 87.8367 132.146 87.9309 132.237C87.9874 132.292 88.0251 132.401 88.0063 132.474C87.9309 132.729 87.8367 132.984 87.7614 133.239C87.7237 133.349 87.7237 133.458 87.7049 133.567C87.7237 133.586 87.7426 133.604 87.7802 133.622C88.0251 133.385 88.2888 133.13 88.5336 132.893C88.6654 132.766 88.7784 132.62 88.9291 132.529C89.0233 132.456 89.2304 132.383 89.2869 132.438C89.3999 132.511 89.4564 132.675 89.4941 132.82C89.5318 133.039 89.4941 133.258 89.5318 133.476C89.5506 133.586 89.6448 133.677 89.7013 133.786C89.7766 133.713 89.8519 133.622 89.8896 133.549C90.2851 132.875 90.6618 132.201 91.0761 131.545C91.6788 130.616 92.338 129.704 92.9783 128.812C93.242 128.429 93.5621 128.083 93.8823 127.755C94.5603 127.062 95.3513 126.552 96.3872 126.589C97.0275 126.607 97.4419 126.971 97.4795 127.645C97.5172 128.392 97.2159 129.03 96.8769 129.668C96.5002 130.36 95.9917 130.98 95.389 131.508C94.7675 132.073 94.1083 132.547 93.3738 132.93C92.6016 133.349 91.8671 133.677 91.0573 134.059ZM76.7249 134.406C76.2729 134.442 75.8586 134.497 75.4254 134.533C74.9923 134.57 74.5591 134.606 74.1447 134.679C73.3537 134.825 72.5627 134.971 71.7905 135.153C70.5852 135.426 69.3987 135.772 68.3252 136.41C67.7602 136.738 67.3082 137.175 67.1387 137.813C67.0445 138.232 67.101 138.633 67.214 139.034C67.44 139.854 67.7037 140.638 68.3817 141.239C68.9844 141.749 69.6435 141.931 70.4345 141.767C71.2255 141.585 71.8847 141.166 72.4121 140.601C72.9771 140.036 73.4856 139.398 73.9376 138.761C74.6156 137.777 75.2371 136.756 75.8963 135.754C76.1976 135.317 76.4424 134.879 76.7249 134.406ZM90.0779 133.841C90.0779 133.859 90.0968 133.877 90.0968 133.895C90.2851 133.841 90.4734 133.804 90.6618 133.75C91.4716 133.513 92.2438 133.167 92.9783 132.766C93.9953 132.201 94.9558 131.545 95.7092 130.652C96.406 129.832 96.9334 128.921 97.1029 127.846C97.1594 127.518 96.9145 127.099 96.5755 127.008C96.0105 126.862 95.4832 127.044 95.0123 127.317C94.5038 127.591 94.1083 127.992 93.7505 128.447C93.3173 128.994 92.8465 129.522 92.451 130.105C91.9236 130.834 91.4528 131.581 90.9631 132.347C90.6618 132.82 90.3793 133.331 90.0779 133.841ZM77.3088 134.078C77.5536 134.059 77.742 134.023 77.9491 134.023C78.533 134.005 79.098 133.987 79.6818 133.987C79.8702 133.987 79.9643 133.932 80.0396 133.768C80.1526 133.513 80.3033 133.258 80.4163 132.984C80.7553 132.183 81.132 131.399 81.3957 130.579C81.6217 129.905 81.7347 129.194 81.8477 128.484C81.8853 128.228 81.81 127.955 81.7535 127.7C81.7158 127.518 81.6028 127.5 81.4522 127.609C81.4145 127.627 81.3768 127.664 81.358 127.7C81.019 128.156 80.6423 128.593 80.341 129.067C79.8702 129.796 79.4181 130.561 78.9661 131.308C78.4011 132.219 77.8738 133.13 77.3088 134.078ZM91.2456 135.098C92.4133 134.825 93.3926 134.479 93.5998 134.26C92.8653 134.26 92.1496 134.26 91.4905 134.26C91.4151 134.533 91.3398 134.807 91.2456 135.098ZM89.1739 133.914C89.1363 133.549 89.1174 133.203 89.0798 132.875C88.7408 133.221 88.3829 133.567 88.0439 133.914C88.4206 133.914 88.8161 133.914 89.1739 133.914ZM90.5676 134.187C90.4546 134.187 90.3416 134.187 90.2474 134.187C90.1156 134.205 89.9273 134.187 89.8708 134.26C89.7013 134.497 89.5694 134.77 89.4376 135.025C89.8143 134.734 90.0968 134.351 90.5676 134.187ZM87.3847 133.185C87.1587 133.422 86.9516 133.64 86.7067 133.877C86.9704 133.895 87.1964 133.914 87.3847 133.932C87.3847 133.677 87.3847 133.44 87.3847 133.185ZM82.036 133.859C82.1113 133.604 82.1678 133.367 82.2243 133.148C82.2055 133.13 82.2055 133.13 82.1867 133.112C81.9418 133.385 81.697 133.659 81.4898 133.914C81.6405 133.895 81.8665 133.877 82.036 133.859ZM85.9722 133.276C85.7839 133.476 85.5955 133.659 85.4072 133.859C85.6332 133.859 85.8592 133.859 86.0664 133.859C86.0287 133.677 86.0099 133.476 85.9722 133.276ZM83.2225 133.476C83.0719 133.604 82.94 133.731 82.7894 133.859C82.94 133.859 83.0719 133.859 83.1849 133.859C83.2037 133.75 83.2225 133.622 83.2225 133.476ZM84.4467 133.604C84.3714 133.677 84.296 133.768 84.2019 133.877C84.3337 133.877 84.4467 133.877 84.5409 133.877C84.5032 133.768 84.4655 133.695 84.4467 133.604Z" fill="white"/>
</g>
<path d="M45.534 121.009C45.44 120.868 45.2991 120.774 45.1582 120.68L45.2052 120.727C45.3461 121.057 45.487 121.339 45.6279 121.669C45.6749 121.528 45.7219 121.386 45.7219 121.245C45.6279 121.151 45.5809 121.057 45.534 121.009Z" fill="#CDD6E5"/>
<path d="M47.4597 127.417C47.4597 127.276 47.5067 127.134 47.5067 126.993C47.5067 126.805 47.5067 126.616 47.5067 126.428C47.5537 126.239 47.6946 125.957 47.8825 125.862C47.9764 123.978 47.5536 121.952 46.6142 120.067C45.0641 116.911 42.2927 114.602 39.2395 113.519C39.1926 113.566 39.1456 113.66 39.1456 113.754C39.0517 113.99 38.6759 113.895 38.6759 113.613C38.6759 113.519 38.6759 113.424 38.6289 113.33C36.1394 112.576 33.4619 112.623 31.0194 113.66C30.5497 113.848 30.0799 114.084 29.6572 114.367C29.6572 114.555 29.7042 114.744 29.7042 114.932C29.5163 114.885 29.3753 114.791 29.2344 114.649C24.913 117.57 23.4568 123.412 26.0873 128.642C26.4631 129.396 26.9328 130.103 27.4025 130.762C27.4025 130.527 27.4495 130.338 27.5434 130.103C27.5904 129.914 27.6374 129.773 27.6843 129.632C27.4025 129.207 27.1207 128.736 26.8858 128.265C24.2084 122.847 26.2282 116.675 31.4421 114.461C36.6561 112.294 43.0913 114.932 45.7687 120.35C47.6476 124.166 47.2248 128.407 44.9232 131.28C44.9232 131.375 44.9232 131.516 44.9232 131.563C44.9232 131.799 44.9232 132.034 44.9232 132.27C44.9232 132.411 44.9232 132.6 44.9232 132.741C46.2854 131.375 47.2248 129.632 47.6476 127.7H47.6006C47.5067 127.7 47.4597 127.559 47.4597 127.417Z" fill="#CDD6E5"/>
<path d="M41.2583 134.202C36.5611 136.134 30.8774 134.202 27.8242 129.821C27.8712 130.103 27.9182 130.339 28.0121 130.574C28.0591 130.857 28.0121 131.14 27.9182 131.328C29.4682 133.119 31.4881 134.438 33.6488 135.192C33.7427 135.097 33.8367 135.003 33.9776 134.956C34.1655 134.909 34.3534 134.909 34.5413 134.956C34.5882 134.956 34.6352 134.956 34.6822 135.003C34.7292 135.05 34.7761 135.097 34.7761 135.144C34.8701 135.286 34.917 135.427 35.011 135.568C37.2187 136.04 39.5673 135.898 41.6811 135.003C42.8554 134.532 43.8888 133.825 44.7343 133.024C44.6873 132.553 44.6873 132.129 44.6873 131.658C43.7948 132.789 42.6675 133.637 41.2583 134.202Z" fill="#CDD6E5"/>
<path d="M45.7204 122.046C45.6264 121.999 45.5795 121.811 45.5795 121.669C45.4386 121.339 45.2976 121.057 45.1567 120.727L45.1098 120.68C45.1098 120.68 45.1097 120.68 45.0628 120.68C44.9219 120.586 44.7809 120.491 44.687 120.35C44.5931 120.209 44.5931 120.067 44.4991 119.926C44.4052 119.832 44.2173 119.879 44.1703 119.785C44.0294 119.549 44.0294 119.361 44.2173 119.314C41.352 115.309 36.138 113.519 31.8166 115.309C30.7362 115.78 29.7498 116.44 28.9982 117.241C28.9982 117.335 28.9982 117.476 28.9513 117.57C28.9043 117.806 28.7634 117.994 28.6225 118.136C28.2936 118.513 28.0588 118.984 27.9648 119.455C28.0118 119.172 28.0588 118.654 28.1997 118.136C27.4481 119.125 26.9784 120.303 26.6966 121.528L26.7436 121.575C26.7905 121.622 26.7436 121.716 26.7436 121.764C26.7436 121.952 26.7436 122.14 26.7905 122.282C26.8375 122.376 26.8375 122.423 26.8845 122.517C26.9314 122.753 26.6966 122.894 26.5087 122.988C26.4148 124.637 26.7436 126.381 27.5891 128.077C27.636 128.124 27.683 128.218 27.683 128.265C27.683 128.218 27.683 128.124 27.73 128.077C27.777 127.888 27.8239 127.7 27.8239 127.511C27.9648 127.794 27.8709 128.077 27.777 128.359C27.777 128.407 27.777 128.407 27.777 128.454C29.0452 130.762 31.018 132.505 33.2727 133.448C33.4136 133.448 33.5546 133.448 33.6955 133.495C33.8364 133.495 33.9773 133.542 34.0243 133.683C34.0243 133.73 34.0243 133.73 34.0243 133.778C36.2789 134.531 38.6745 134.531 40.8822 133.636C42.5263 132.977 43.7945 131.846 44.687 130.527C44.687 130.385 44.734 130.244 44.7809 130.103C44.8279 130.103 44.8749 130.15 44.9219 130.244C46.331 127.794 46.6598 124.873 45.7204 122.046ZM32.7091 116.911C34.6349 116.11 36.7487 116.204 38.6276 116.911C38.6745 116.864 38.7215 116.864 38.7685 116.817C38.8155 116.769 38.8155 116.675 38.8624 116.628C38.9564 116.487 39.0503 116.345 39.2382 116.345C39.2382 116.534 39.1912 116.722 39.1912 116.911C39.2382 116.958 39.2852 117.005 39.2852 117.052C39.3322 117.099 39.3322 117.193 39.3322 117.241C39.9428 117.57 40.5534 117.947 41.1171 118.371L37.2184 120.02C37.2184 120.067 37.1714 120.115 37.1245 120.209C37.0775 120.256 37.0775 120.303 37.0305 120.397C36.8896 120.633 36.7017 120.915 36.4199 121.01C36.2789 121.057 36.0911 120.963 36.0911 120.821C36.0911 120.774 36.0911 120.68 36.0441 120.633V120.586V120.539L31.5347 122.423C31.2999 122.706 31.065 123.036 30.6892 122.988C30.5953 122.988 30.5014 122.941 30.3604 122.941L28.3876 123.742C28.3406 120.774 29.8907 118.089 32.7091 116.911ZM41.0701 131.328C41.0701 131.469 41.0232 131.563 41.0232 131.705C40.9762 132.129 40.8822 132.6 40.6004 132.882C40.6004 132.411 40.6474 131.987 40.6944 131.563C40.5065 131.657 40.3186 131.752 40.1307 131.846C37.3593 133.024 34.0712 132.317 31.7226 130.385L36.9835 128.218C37.1244 128.077 37.3123 127.935 37.5002 127.794C37.5942 127.7 37.7351 127.606 37.829 127.559C38.0169 127.464 38.2988 127.511 38.5336 127.511C38.5806 127.511 38.5806 127.511 38.6276 127.511L41.8687 126.192C41.8687 126.192 41.8687 126.192 41.8687 126.145C41.9156 126.004 41.9626 125.815 41.9626 125.674C41.9156 125.486 41.8687 125.25 41.8217 125.061C41.7747 124.826 41.7277 124.496 41.7277 124.166L34.0712 127.37C34.0243 127.417 34.0243 127.417 33.9773 127.464C33.7424 127.653 32.4272 128.501 32.1924 128.171L30.3604 128.925C29.9847 128.454 29.6558 127.935 29.374 127.37C29.0922 126.805 28.9043 126.239 28.7634 125.674L34.1182 123.413C34.2591 123.177 34.3531 122.847 34.5879 122.753C34.6819 122.847 34.6819 123.036 34.6819 123.177L42.6672 119.832C43.043 120.303 43.3718 120.821 43.6536 121.387C43.9354 121.952 44.1233 122.517 44.2642 123.083L42.5263 123.789C42.4793 124.355 42.4793 124.92 42.3854 125.486C42.3854 125.533 42.3854 125.58 42.3384 125.674C42.3384 125.674 42.3384 125.674 42.3384 125.721C42.3384 125.721 42.3854 125.815 42.3854 125.768C42.3854 125.768 42.4323 125.815 42.4793 125.862C42.4793 125.862 42.4793 125.91 42.5263 125.91L44.4991 125.109C44.4521 127.606 43.2309 130.008 41.0701 131.328Z" fill="#CDD6E5"/>
<line x1="73.1836" y1="136.389" x2="102.351" y2="136.389" stroke="white" stroke-width="0.5"/>
<defs>
<clipPath id="clip0_5243_944">
<rect width="42.9405" height="18.2219" fill="white" transform="translate(115.236 124.24)"/>
</clipPath>
<clipPath id="clip1_5243_944">
<rect width="42.9405" height="18.2219" fill="white" transform="translate(90.2363 125.24)"/>
</clipPath>
<clipPath id="clip2_5243_944">
<rect width="42.9405" height="18.2219" fill="white" transform="translate(65.2363 125.24)"/>
</clipPath>
</defs>
</svg>
