<svg width="123" height="150" viewBox="0 0 123 150" fill="none" xmlns="http://www.w3.org/2000/svg">
<rect x="2" y="2" width="119" height="146" rx="8" fill="#172D5F" stroke="white" stroke-width="4"/>
<path d="M86.3264 9.646H102.845C108.368 9.646 112.845 14.1231 112.845 19.646V32.6247" stroke="white"/>
<line x1="15.7988" y1="29.0713" x2="85.1979" y2="29.0713" stroke="white" stroke-width="2"/>
<line x1="15.7988" y1="44.3901" x2="95.3539" y2="44.3901" stroke="white" stroke-width="2"/>
<line x1="15.7988" y1="59.1416" x2="103.817" y2="59.1416" stroke="white" stroke-width="2"/>
<line x1="15.7988" y1="79.0005" x2="103.817" y2="79.0005" stroke="white" stroke-width="2"/>
<line x1="15.7988" y1="96.021" x2="103.817" y2="96.021" stroke="white" stroke-width="2"/>
<line x1="15.7988" y1="111.908" x2="77.8631" y2="111.908" stroke="white" stroke-width="2"/>
<line x1="15.7988" y1="124.957" x2="77.8631" y2="124.957" stroke="white" stroke-width="2"/>
<g clip-path="url(#clip0_5243_917)">
<path d="M95.8777 135.93C96.5991 135.93 97.2603 135.93 97.9216 135.93C98.1019 135.93 98.2622 135.95 98.4426 135.969C99.1238 136.067 99.6448 135.717 100.146 135.386C101.148 134.745 102.109 134.065 103.071 133.404C103.212 133.307 103.392 133.229 103.552 133.17C103.853 133.054 104.113 133.132 104.354 133.326C104.574 133.52 104.794 133.695 105.035 133.851C105.556 134.22 105.776 134.142 106.237 133.851C106.598 133.637 106.918 133.345 107.299 133.17C107.5 133.073 107.8 133.093 108.021 133.17C108.742 133.365 109.443 133.501 110.165 133.132C110.345 133.034 110.545 133.015 110.746 132.976C111.026 132.918 111.327 132.84 111.607 132.782C111.908 132.723 112.188 132.665 112.489 132.646C112.749 132.626 113.03 132.646 113.29 132.665C113.03 132.704 112.769 132.782 112.509 132.782C112.168 132.782 111.848 132.859 111.527 132.976C111.247 133.073 110.946 133.093 110.665 133.17C110.505 133.209 110.345 133.248 110.205 133.326C109.764 133.559 109.303 133.618 108.822 133.559C108.441 133.52 108.101 133.443 107.74 133.326C107.6 133.287 107.359 133.404 107.199 133.481C106.878 133.656 106.578 133.87 106.297 134.103C105.716 134.531 105.155 134.317 104.714 133.987C104.494 133.831 104.314 133.656 104.093 133.481C103.913 133.326 103.672 133.326 103.432 133.501C102.931 133.851 102.43 134.201 101.909 134.55C101.188 135.017 100.466 135.483 99.765 135.95C99.745 135.95 99.745 135.969 99.725 136.008C100.587 136.067 101.448 136.125 102.29 136.164C102.29 136.183 102.29 136.222 102.29 136.241C102.069 136.241 101.829 136.241 101.608 136.241C101.148 136.222 100.687 136.222 100.226 136.203C100.046 136.203 99.8652 136.164 99.6849 136.164C99.5246 136.164 99.3442 136.183 99.204 136.241C98.3824 136.611 97.5609 136.999 96.6792 137.213C96.4989 137.252 96.2985 137.272 96.0982 137.31C95.7375 137.369 95.6373 137.136 95.7575 136.786C95.7976 136.65 95.8777 136.494 95.9379 136.339C95.477 136.3 95.1364 136.494 94.8358 136.786C94.2747 137.31 93.8339 137.932 93.4532 138.574C92.9523 139.41 92.5114 140.284 92.0305 141.14C91.9905 141.217 91.9504 141.295 91.9303 141.373C91.5897 141.256 91.5697 141.256 91.73 140.945C92.4112 139.546 93.1126 138.146 93.7938 136.747C93.9141 136.514 94.0343 136.3 94.1745 136.086C94.1345 136.067 94.1144 136.067 94.1144 136.067C91.9704 136.047 89.8063 136.028 87.6623 136.028C86.9209 136.028 86.1595 136.047 85.4181 136.067C85.0174 136.086 84.6166 136.086 84.2159 136.125C84.1558 136.125 84.0756 136.203 84.0556 136.261C83.4544 137.252 82.8733 138.243 82.2722 139.215C82.2321 139.293 82.172 139.351 82.0718 139.39C82.673 138.302 83.2941 137.213 83.9153 136.125C83.775 136.144 83.6749 136.144 83.5747 136.144C82.7932 136.183 82.0117 136.203 81.2303 136.241C81.1501 136.241 81.0299 136.319 80.9898 136.397C80.4087 137.349 79.8477 138.321 79.2265 139.254C78.5252 140.343 77.8038 141.412 77.0224 142.442C76.4413 143.2 75.6999 143.822 74.7982 144.249C74.3373 144.463 73.8364 144.599 73.3154 144.58C72.3536 144.56 71.5922 144.133 71.0512 143.375C70.5102 142.656 70.2497 141.839 70.0894 140.965C69.9491 140.265 70.0292 139.585 70.4701 139.001C70.8107 138.535 71.2716 138.205 71.7926 137.932C73.0549 137.291 74.4375 136.902 75.8401 136.611C76.5615 136.455 77.3029 136.319 78.0242 136.203C78.5252 136.125 79.0462 136.105 79.5671 136.047C79.9479 136.008 80.3486 135.989 80.7293 135.95C80.7894 135.95 80.8495 135.892 80.8896 135.833C81.1902 135.328 81.4908 134.842 81.7913 134.337C82.3724 133.345 82.9535 132.354 83.5747 131.382C83.9955 130.721 84.4363 130.08 84.8771 129.439C85.0174 129.244 85.1977 129.069 85.378 128.875C85.5383 128.7 85.7588 128.603 85.9391 128.7C86.0794 128.778 86.2397 128.972 86.2397 129.108C86.2797 129.555 86.2797 130.022 86.2597 130.488C86.1996 131.305 85.9591 132.082 85.6586 132.821C85.338 133.598 84.9573 134.376 84.6166 135.134C84.5365 135.328 84.4363 135.522 84.3161 135.756C84.7368 135.697 85.1576 135.892 85.4983 135.639C85.8589 135.386 86.1395 135.036 86.4601 134.725C86.6604 134.531 86.8207 134.298 87.0011 134.084C87.1614 134.162 87.1414 134.142 87.0812 134.278C86.9009 134.648 86.7206 135.036 86.5402 135.406C86.5202 135.464 86.5402 135.6 86.5803 135.619C86.6404 135.658 86.7606 135.639 86.8208 135.581C87.1213 135.289 87.4219 134.998 87.7024 134.687C87.8827 134.492 88.0431 134.259 88.2234 134.026C88.2835 134.084 88.3436 134.123 88.3436 134.142C88.1633 134.57 87.9629 134.978 87.8026 135.386C87.7625 135.464 87.8026 135.561 87.8226 135.658C87.9429 135.639 88.1032 135.678 88.1833 135.6C88.4638 135.308 88.7243 135.017 88.9848 134.706C89.1451 134.512 89.2453 134.278 89.3655 134.045C89.626 134.103 89.6461 134.123 89.5258 134.356C89.4056 134.609 89.2854 134.881 89.1852 135.153C89.1652 135.211 89.1651 135.289 89.1651 135.367C89.1651 135.542 89.3054 135.639 89.4457 135.522C89.7262 135.308 90.0067 135.056 90.2672 134.803C90.4476 134.609 90.5878 134.356 90.7682 134.142C90.8082 134.103 90.9285 134.065 90.9685 134.084C91.0286 134.123 91.0888 134.22 91.0687 134.278C91.0086 134.57 90.9285 134.861 90.8683 135.172C90.8483 135.27 90.8683 135.367 90.8683 135.483C91.2691 135.386 91.4294 135.075 91.6298 134.842C91.8702 134.589 92.0706 134.317 92.271 134.045C92.3511 133.948 92.4513 133.89 92.5515 133.987C92.6116 134.045 92.6517 134.162 92.6317 134.239C92.5515 134.512 92.4513 134.784 92.3712 135.056C92.3311 135.172 92.3311 135.289 92.3111 135.406C92.3311 135.425 92.3511 135.445 92.3912 135.464C92.6517 135.211 92.9322 134.939 93.1927 134.687C93.333 134.55 93.4532 134.395 93.6135 134.298C93.7137 134.22 93.9341 134.142 93.9942 134.201C94.1144 134.278 94.1745 134.453 94.2146 134.609C94.2547 134.842 94.2146 135.075 94.2547 135.308C94.2747 135.425 94.3749 135.522 94.435 135.639C94.5152 135.561 94.5953 135.464 94.6354 135.386C95.0562 134.667 95.457 133.948 95.8978 133.248C96.539 132.257 97.2403 131.285 97.9216 130.333C98.2021 129.925 98.5427 129.555 98.8834 129.205C99.6047 128.467 100.446 127.923 101.548 127.961C102.23 127.981 102.67 128.37 102.711 129.089C102.751 129.886 102.43 130.566 102.069 131.246C101.669 131.985 101.128 132.646 100.486 133.209C99.8251 133.812 99.1238 134.317 98.3424 134.725C97.5208 135.172 96.7394 135.522 95.8777 135.93ZM80.6291 136.3C80.1482 136.339 79.7074 136.397 79.2465 136.436C78.7857 136.475 78.3248 136.514 77.884 136.591C77.0424 136.747 76.2008 136.902 75.3793 137.097C74.0969 137.388 72.8345 137.758 71.6924 138.438C71.0912 138.788 70.6103 139.254 70.43 139.934C70.3298 140.381 70.3899 140.809 70.5102 141.237C70.7506 142.111 71.0311 142.947 71.7525 143.589C72.3937 144.133 73.095 144.327 73.9366 144.152C74.7782 143.958 75.4795 143.511 76.0405 142.908C76.6417 142.306 77.1827 141.625 77.6636 140.945C78.3849 139.896 79.0462 138.807 79.7475 137.738C80.0681 137.272 80.3286 136.805 80.6291 136.3ZM94.8358 135.697C94.8358 135.717 94.8558 135.736 94.8558 135.756C95.0562 135.697 95.2566 135.658 95.457 135.6C96.3186 135.347 97.1401 134.978 97.9216 134.55C99.0036 133.948 100.026 133.248 100.827 132.296C101.568 131.421 102.129 130.449 102.31 129.303C102.37 128.953 102.109 128.506 101.749 128.408C101.148 128.253 100.587 128.447 100.086 128.739C99.5446 129.03 99.1238 129.458 98.7431 129.944C98.2823 130.527 97.7813 131.091 97.3605 131.713C96.7995 132.49 96.2985 133.287 95.7776 134.103C95.4569 134.609 95.1564 135.153 94.8358 135.697ZM81.2503 135.95C81.5108 135.93 81.7112 135.892 81.9316 135.892C82.5527 135.872 83.1539 135.853 83.775 135.853C83.9754 135.853 84.0756 135.794 84.1557 135.619C84.276 135.347 84.4363 135.075 84.5565 134.784C84.9172 133.928 85.3179 133.093 85.5985 132.218C85.8389 131.499 85.9591 130.741 86.0794 129.983C86.1194 129.711 86.0393 129.419 85.9792 129.147C85.9391 128.953 85.8189 128.933 85.6586 129.05C85.6185 129.069 85.5784 129.108 85.5584 129.147C85.1977 129.633 84.797 130.099 84.4764 130.605C83.9754 131.382 83.4945 132.199 83.0136 132.996C82.4125 133.967 81.8514 134.939 81.2503 135.95ZM96.0781 137.038C97.3204 136.747 98.3624 136.378 98.5828 136.144C97.8013 136.144 97.0399 136.144 96.3386 136.144C96.2585 136.436 96.1783 136.727 96.0781 137.038ZM93.874 135.775C93.8339 135.386 93.8139 135.017 93.7738 134.667C93.4131 135.036 93.0324 135.406 92.6717 135.775C93.0725 135.775 93.4933 135.775 93.874 135.775ZM95.3568 136.067C95.2365 136.067 95.1163 136.067 95.0161 136.067C94.8759 136.086 94.6755 136.067 94.6154 136.144C94.435 136.397 94.2948 136.689 94.1545 136.961C94.5553 136.65 94.8558 136.241 95.3568 136.067ZM91.9704 134.998C91.73 135.25 91.5095 135.483 91.2491 135.736C91.5296 135.756 91.77 135.775 91.9704 135.794C91.9704 135.522 91.9704 135.27 91.9704 134.998ZM86.2797 135.717C86.3599 135.445 86.42 135.192 86.4801 134.959C86.4601 134.939 86.4601 134.939 86.44 134.92C86.1795 135.211 85.9191 135.503 85.6986 135.775C85.8589 135.756 86.0994 135.736 86.2797 135.717ZM90.4676 135.095C90.2672 135.308 90.0668 135.503 89.8665 135.717C90.1069 135.717 90.3474 135.717 90.5678 135.717C90.5277 135.522 90.5077 135.308 90.4676 135.095ZM87.5421 135.308C87.3818 135.445 87.2415 135.581 87.0812 135.717C87.2415 135.717 87.3818 135.717 87.502 135.717C87.5221 135.6 87.5421 135.464 87.5421 135.308ZM88.8445 135.445C88.7644 135.522 88.6842 135.619 88.5841 135.736C88.7243 135.736 88.8445 135.736 88.9447 135.736C88.9047 135.619 88.8646 135.542 88.8445 135.445Z" fill="white"/>
</g>
<path d="M48.4447 128.01C48.3448 127.859 48.1948 127.759 48.0449 127.658L48.0949 127.708C48.2448 128.06 48.3947 128.362 48.5447 128.714C48.5947 128.563 48.6446 128.412 48.6446 128.261C48.5447 128.161 48.4947 128.06 48.4447 128.01Z" fill="#CDD6E5"/>
<path d="M50.493 134.845C50.493 134.694 50.543 134.543 50.543 134.393C50.543 134.192 50.543 133.991 50.543 133.79C50.593 133.589 50.7429 133.287 50.9428 133.186C51.0428 131.176 50.593 129.015 49.5935 127.005C47.9443 123.638 44.9958 121.176 41.7474 120.02C41.6974 120.07 41.6474 120.171 41.6474 120.271C41.5475 120.522 41.1477 120.422 41.1477 120.12C41.1477 120.02 41.1477 119.919 41.0977 119.819C38.449 119.015 35.6004 119.065 33.0017 120.17C32.5019 120.372 32.0022 120.623 31.5524 120.924C31.5524 121.125 31.6024 121.326 31.6024 121.527C31.4025 121.477 31.2526 121.377 31.1026 121.226C26.5049 124.342 24.9557 130.573 27.7543 136.152C28.1541 136.956 28.6538 137.709 29.1536 138.413C29.1536 138.162 29.2036 137.961 29.3035 137.709C29.3535 137.508 29.4035 137.358 29.4534 137.207C29.1536 136.755 28.8537 136.252 28.6039 135.749C25.7553 129.97 27.9042 123.387 33.4515 121.025C38.9987 118.713 45.8453 121.527 48.6939 127.307C50.6929 131.377 50.2432 135.9 47.7944 138.966C47.7944 139.066 47.7944 139.217 47.7944 139.267C47.7944 139.519 47.7944 139.77 47.7944 140.021C47.7944 140.172 47.7944 140.373 47.7944 140.524C49.2437 139.066 50.2432 137.207 50.6929 135.146H50.643C50.543 135.146 50.493 134.996 50.493 134.845Z" fill="#CDD6E5"/>
<path d="M43.8955 142.082C38.8979 144.142 32.8509 142.082 29.6025 137.408C29.6525 137.71 29.7025 137.961 29.8024 138.212C29.8524 138.514 29.8024 138.815 29.7025 139.016C31.3517 140.926 33.5006 142.333 35.7995 143.137C35.8994 143.037 35.9994 142.936 36.1493 142.886C36.3492 142.836 36.5491 142.836 36.749 142.886C36.799 142.886 36.849 142.886 36.8989 142.936C36.9489 142.986 36.9989 143.037 36.9989 143.087C37.0988 143.238 37.1488 143.389 37.2488 143.539C39.5976 144.042 42.0964 143.891 44.3453 142.936C45.5946 142.434 46.6941 141.68 47.5936 140.826C47.5437 140.323 47.5437 139.871 47.5437 139.368C46.5941 140.574 45.3947 141.479 43.8955 142.082Z" fill="#CDD6E5"/>
<path d="M48.6439 129.116C48.544 129.065 48.494 128.864 48.494 128.714C48.3441 128.362 48.1941 128.06 48.0442 127.708L47.9942 127.658C47.9942 127.658 47.9942 127.658 47.9443 127.658C47.7943 127.558 47.6444 127.457 47.5445 127.306C47.4445 127.156 47.4445 127.005 47.3446 126.854C47.2446 126.754 47.0447 126.804 46.9947 126.703C46.8448 126.452 46.8448 126.251 47.0447 126.201C43.9962 121.929 38.449 120.02 33.8512 121.929C32.7018 122.432 31.6523 123.135 30.8527 123.99C30.8527 124.09 30.8527 124.241 30.8027 124.341C30.7528 124.593 30.6028 124.794 30.4529 124.944C30.1031 125.347 29.8532 125.849 29.7533 126.352C29.8032 126.05 29.8532 125.497 30.0031 124.944C29.2035 126 28.7038 127.256 28.4039 128.563L28.4539 128.613C28.5039 128.663 28.4539 128.764 28.4539 128.814C28.4539 129.015 28.4539 129.216 28.5039 129.367C28.5539 129.467 28.5539 129.518 28.6038 129.618C28.6538 129.869 28.4039 130.02 28.204 130.121C28.1041 131.88 28.4539 133.739 29.3535 135.548C29.4034 135.598 29.4534 135.699 29.4534 135.749C29.4534 135.699 29.4534 135.598 29.5034 135.548C29.5534 135.347 29.6033 135.146 29.6033 134.945C29.7533 135.247 29.6533 135.548 29.5534 135.85C29.5534 135.9 29.5534 135.9 29.5534 135.95C30.9027 138.413 33.0017 140.272 35.4005 141.277C35.5504 141.277 35.7003 141.277 35.8502 141.328C36.0002 141.328 36.1501 141.378 36.2001 141.529C36.2001 141.579 36.2001 141.579 36.2001 141.629C38.5989 142.433 41.1476 142.433 43.4965 141.478C45.2456 140.775 46.5949 139.569 47.5445 138.161C47.5445 138.011 47.5944 137.86 47.6444 137.709C47.6944 137.709 47.7444 137.759 47.7943 137.86C49.2936 135.247 49.6434 132.131 48.6439 129.116ZM34.8008 123.638C36.8498 122.784 39.0986 122.884 41.0977 123.638C41.1476 123.588 41.1976 123.588 41.2476 123.537C41.2976 123.487 41.2976 123.387 41.3475 123.336C41.4475 123.186 41.5474 123.035 41.7473 123.035C41.7473 123.236 41.6974 123.437 41.6974 123.638C41.7473 123.688 41.7973 123.738 41.7973 123.789C41.8473 123.839 41.8473 123.939 41.8473 123.99C42.497 124.341 43.1466 124.743 43.7463 125.196L39.5984 126.955C39.5984 127.005 39.5484 127.055 39.4984 127.156C39.4485 127.206 39.4485 127.256 39.3985 127.357C39.2486 127.608 39.0487 127.91 38.7488 128.01C38.5989 128.06 38.399 127.96 38.399 127.809C38.399 127.759 38.399 127.658 38.349 127.608V127.558V127.507L33.5514 129.518C33.3015 129.819 33.0516 130.171 32.6518 130.121C32.5519 130.121 32.4519 130.07 32.302 130.07L30.203 130.925C30.1531 127.759 31.8023 124.894 34.8008 123.638ZM43.6964 139.016C43.6964 139.167 43.6464 139.267 43.6464 139.418C43.5964 139.87 43.4965 140.373 43.1966 140.674C43.1966 140.172 43.2466 139.719 43.2966 139.267C43.0967 139.368 42.8968 139.468 42.6969 139.569C39.7483 140.825 36.25 140.071 33.7513 138.011L39.3485 135.699C39.4984 135.548 39.6983 135.397 39.8982 135.247C39.9982 135.146 40.1481 135.046 40.2481 134.995C40.448 134.895 40.7478 134.945 40.9977 134.945C41.0477 134.945 41.0477 134.945 41.0977 134.945L44.546 133.538C44.546 133.538 44.546 133.538 44.546 133.488C44.5959 133.337 44.6459 133.136 44.6459 132.985C44.5959 132.784 44.5459 132.533 44.496 132.332C44.446 132.081 44.396 131.729 44.396 131.377L36.25 134.794C36.2001 134.845 36.2001 134.845 36.1501 134.895C35.9002 135.096 34.5009 136.001 34.251 135.649L32.302 136.453C31.9022 135.95 31.5524 135.397 31.2525 134.794C30.9527 134.191 30.7528 133.588 30.6028 132.985L36.3 130.573C36.45 130.322 36.5499 129.97 36.7998 129.869C36.8997 129.97 36.8997 130.171 36.8997 130.322L45.3955 126.754C45.7953 127.256 46.1452 127.809 46.445 128.412C46.7449 129.015 46.9448 129.618 47.0947 130.221L45.2456 130.975C45.1956 131.578 45.1956 132.181 45.0957 132.784C45.0957 132.834 45.0957 132.885 45.0457 132.985C45.0457 132.985 45.0457 132.985 45.0457 133.036C45.0457 133.036 45.0957 133.136 45.0957 133.086C45.0957 133.086 45.1456 133.136 45.1956 133.186C45.1956 133.186 45.1956 133.237 45.2456 133.237L47.3446 132.382C47.2946 135.046 45.9952 137.609 43.6964 139.016Z" fill="#CDD6E5"/>
<line x1="76.8623" y1="138.431" x2="107.894" y2="138.431" stroke="white" stroke-width="0.5"/>
<defs>
<clipPath id="clip0_5243_917">
<rect width="46" height="18" fill="white" transform="translate(68 127)"/>
</clipPath>
</defs>
</svg>
