<svg width="140" height="182" viewBox="0 0 140 182" fill="none" xmlns="http://www.w3.org/2000/svg">
<rect x="2" y="2" width="136" height="177.101" rx="8" fill="white" stroke="#172D5F" stroke-width="4"/>
<path d="M98.2569 10.918H118.44C123.963 10.918 128.44 15.3951 128.44 20.918V36.9271" stroke="#172D5F"/>
<line x1="17.9817" y1="33.0371" x2="96.9725" y2="33.0371" stroke="#172D5F" stroke-width="2"/>
<line x1="17.9817" y1="50.376" x2="108.532" y2="50.376" stroke="#172D5F" stroke-width="2"/>
<line x1="17.9817" y1="67.0732" x2="118.165" y2="67.0732" stroke="#172D5F" stroke-width="2"/>
<line x1="17.9817" y1="89.5508" x2="118.165" y2="89.5508" stroke="#172D5F" stroke-width="2"/>
<line x1="17.9817" y1="108.816" x2="118.165" y2="108.816" stroke="#172D5F" stroke-width="2"/>
<line x1="17.9817" y1="126.798" x2="88.6239" y2="126.798" stroke="#172D5F" stroke-width="2"/>
<line x1="17.9817" y1="141.568" x2="88.6239" y2="141.568" stroke="#172D5F" stroke-width="2"/>
<g clip-path="url(#clip0_112_910)">
<rect width="52" height="22" transform="translate(79 150)" fill="white"/>
<path d="M110.268 160.648C111.089 160.648 111.842 160.648 112.595 160.648C112.8 160.648 112.982 160.67 113.188 160.692C113.963 160.802 114.556 160.406 115.126 160.032C116.267 159.306 117.361 158.536 118.456 157.788C118.616 157.678 118.821 157.59 119.004 157.524C119.346 157.392 119.642 157.48 119.916 157.7C120.167 157.92 120.418 158.118 120.691 158.294C121.284 158.712 121.535 158.624 122.06 158.294C122.47 158.052 122.835 157.722 123.268 157.524C123.496 157.414 123.839 157.436 124.089 157.524C124.911 157.744 125.709 157.898 126.53 157.48C126.735 157.37 126.963 157.348 127.191 157.304C127.511 157.238 127.853 157.15 128.172 157.084C128.514 157.018 128.833 156.952 129.175 156.93C129.472 156.908 129.791 156.93 130.088 156.952C129.791 156.996 129.495 157.084 129.198 157.084C128.811 157.084 128.446 157.172 128.081 157.304C127.761 157.414 127.419 157.436 127.1 157.524C126.918 157.568 126.735 157.612 126.575 157.7C126.074 157.964 125.549 158.03 125.002 157.964C124.568 157.92 124.181 157.832 123.77 157.7C123.611 157.656 123.337 157.788 123.154 157.876C122.789 158.074 122.447 158.316 122.128 158.58C121.467 159.064 120.828 158.822 120.326 158.448C120.075 158.272 119.87 158.074 119.619 157.876C119.414 157.7 119.14 157.7 118.867 157.898C118.296 158.294 117.726 158.69 117.133 159.086C116.312 159.614 115.491 160.142 114.693 160.67C114.67 160.67 114.67 160.692 114.647 160.736C115.628 160.802 116.609 160.868 117.567 160.912C117.567 160.934 117.567 160.978 117.567 161C117.316 161 117.042 161 116.791 161C116.267 160.978 115.742 160.978 115.218 160.956C115.012 160.956 114.807 160.912 114.602 160.912C114.419 160.912 114.214 160.934 114.054 161C113.119 161.418 112.184 161.858 111.181 162.1C110.975 162.144 110.747 162.166 110.519 162.21C110.109 162.276 109.995 162.012 110.132 161.616C110.177 161.462 110.268 161.286 110.337 161.11C109.812 161.066 109.425 161.286 109.082 161.616C108.444 162.21 107.942 162.914 107.509 163.64C106.939 164.586 106.437 165.576 105.889 166.544C105.844 166.632 105.798 166.72 105.775 166.808C105.388 166.676 105.365 166.676 105.547 166.324C106.323 164.74 107.121 163.156 107.896 161.572C108.033 161.308 108.17 161.066 108.33 160.824C108.284 160.802 108.261 160.802 108.261 160.802C105.821 160.78 103.358 160.758 100.918 160.758C100.074 160.758 99.207 160.78 98.3632 160.802C97.907 160.824 97.4509 160.824 96.9947 160.868C96.9263 160.868 96.8351 160.956 96.8123 161.022C96.1281 162.144 95.4667 163.266 94.7825 164.366C94.7368 164.454 94.6684 164.52 94.5544 164.564C95.2386 163.332 95.9456 162.1 96.6526 160.868C96.493 160.89 96.3789 160.89 96.2649 160.89C95.3754 160.934 94.486 160.956 93.5965 161C93.5053 161 93.3684 161.088 93.3228 161.176C92.6614 162.254 92.0228 163.354 91.3158 164.41C90.5175 165.642 89.6965 166.852 88.807 168.018C88.1456 168.876 87.3018 169.58 86.2754 170.064C85.7509 170.306 85.1807 170.46 84.5877 170.438C83.493 170.416 82.6263 169.932 82.0105 169.074C81.3947 168.26 81.0982 167.336 80.9158 166.346C80.7561 165.554 80.8474 164.784 81.3491 164.124C81.7368 163.596 82.2614 163.222 82.8544 162.914C84.2912 162.188 85.8649 161.748 87.4614 161.418C88.2824 161.242 89.1263 161.088 89.9474 160.956C90.5175 160.868 91.1105 160.846 91.7035 160.78C92.1368 160.736 92.593 160.714 93.0263 160.67C93.0947 160.67 93.1632 160.604 93.2088 160.538C93.5509 159.966 93.893 159.416 94.2351 158.844C94.8965 157.722 95.5579 156.6 96.2649 155.5C96.7439 154.752 97.2456 154.026 97.7474 153.3C97.907 153.08 98.1123 152.882 98.3175 152.662C98.5 152.464 98.7509 152.354 98.9561 152.464C99.1158 152.552 99.2982 152.772 99.2982 152.926C99.3439 153.432 99.3438 153.96 99.321 154.488C99.2526 155.412 98.9789 156.292 98.6368 157.128C98.2719 158.008 97.8386 158.888 97.4509 159.746C97.3597 159.966 97.2456 160.186 97.1088 160.45C97.5877 160.384 98.0667 160.604 98.4544 160.318C98.8649 160.032 99.1842 159.636 99.5491 159.284C99.7772 159.064 99.9596 158.8 100.165 158.558C100.347 158.646 100.325 158.624 100.256 158.778C100.051 159.196 99.8456 159.636 99.6403 160.054C99.6175 160.12 99.6404 160.274 99.686 160.296C99.7544 160.34 99.8912 160.318 99.9597 160.252C100.302 159.922 100.644 159.592 100.963 159.24C101.168 159.02 101.351 158.756 101.556 158.492C101.625 158.558 101.693 158.602 101.693 158.624C101.488 159.108 101.26 159.57 101.077 160.032C101.032 160.12 101.077 160.23 101.1 160.34C101.237 160.318 101.419 160.362 101.511 160.274C101.83 159.944 102.126 159.614 102.423 159.262C102.605 159.042 102.719 158.778 102.856 158.514C103.153 158.58 103.175 158.602 103.039 158.866C102.902 159.152 102.765 159.46 102.651 159.768C102.628 159.834 102.628 159.922 102.628 160.01C102.628 160.208 102.788 160.318 102.947 160.186C103.267 159.944 103.586 159.658 103.882 159.372C104.088 159.152 104.247 158.866 104.453 158.624C104.498 158.58 104.635 158.536 104.681 158.558C104.749 158.602 104.818 158.712 104.795 158.778C104.726 159.108 104.635 159.438 104.567 159.79C104.544 159.9 104.567 160.01 104.567 160.142C105.023 160.032 105.205 159.68 105.433 159.416C105.707 159.13 105.935 158.822 106.163 158.514C106.254 158.404 106.368 158.338 106.482 158.448C106.551 158.514 106.596 158.646 106.574 158.734C106.482 159.042 106.368 159.35 106.277 159.658C106.232 159.79 106.232 159.922 106.209 160.054C106.232 160.076 106.254 160.098 106.3 160.12C106.596 159.834 106.916 159.526 107.212 159.24C107.372 159.086 107.509 158.91 107.691 158.8C107.805 158.712 108.056 158.624 108.125 158.69C108.261 158.778 108.33 158.976 108.375 159.152C108.421 159.416 108.375 159.68 108.421 159.944C108.444 160.076 108.558 160.186 108.626 160.318C108.718 160.23 108.809 160.12 108.854 160.032C109.333 159.218 109.789 158.404 110.291 157.612C111.021 156.49 111.819 155.39 112.595 154.312C112.914 153.85 113.302 153.432 113.689 153.036C114.511 152.2 115.468 151.584 116.723 151.628C117.498 151.65 118 152.09 118.046 152.904C118.091 153.806 117.726 154.576 117.316 155.346C116.86 156.182 116.244 156.93 115.514 157.568C114.761 158.25 113.963 158.822 113.074 159.284C112.139 159.79 111.249 160.186 110.268 160.648ZM92.9123 161.066C92.3649 161.11 91.8631 161.176 91.3386 161.22C90.814 161.264 90.2895 161.308 89.7877 161.396C88.8298 161.572 87.8719 161.748 86.9368 161.968C85.4772 162.298 84.0404 162.716 82.7404 163.486C82.0561 163.882 81.5088 164.41 81.3035 165.18C81.1895 165.686 81.2579 166.17 81.3947 166.654C81.6684 167.644 81.9877 168.59 82.8088 169.316C83.5386 169.932 84.3368 170.152 85.2947 169.954C86.2526 169.734 87.0509 169.228 87.6895 168.546C88.3737 167.864 88.9895 167.094 89.5368 166.324C90.3579 165.136 91.1105 163.904 91.9088 162.694C92.2737 162.166 92.5702 161.638 92.9123 161.066ZM109.082 160.384C109.082 160.406 109.105 160.428 109.105 160.45C109.333 160.384 109.561 160.34 109.789 160.274C110.77 159.988 111.705 159.57 112.595 159.086C113.826 158.404 114.989 157.612 115.902 156.534C116.746 155.544 117.384 154.444 117.589 153.146C117.658 152.75 117.361 152.244 116.951 152.134C116.267 151.958 115.628 152.178 115.058 152.508C114.442 152.838 113.963 153.322 113.53 153.872C113.005 154.532 112.435 155.17 111.956 155.874C111.318 156.754 110.747 157.656 110.154 158.58C109.789 159.152 109.447 159.768 109.082 160.384ZM93.6193 160.67C93.9158 160.648 94.1439 160.604 94.3947 160.604C95.1018 160.582 95.786 160.56 96.493 160.56C96.7211 160.56 96.8351 160.494 96.9263 160.296C97.0631 159.988 97.2456 159.68 97.3824 159.35C97.793 158.382 98.2491 157.436 98.5684 156.446C98.8421 155.632 98.9789 154.774 99.1158 153.916C99.1614 153.608 99.0702 153.278 99.0018 152.97C98.9561 152.75 98.8193 152.728 98.6368 152.86C98.5912 152.882 98.5456 152.926 98.5228 152.97C98.1123 153.52 97.6561 154.048 97.2912 154.62C96.7211 155.5 96.1737 156.424 95.6263 157.326C94.9421 158.426 94.3035 159.526 93.6193 160.67ZM110.496 161.902C111.911 161.572 113.096 161.154 113.347 160.89C112.458 160.89 111.591 160.89 110.793 160.89C110.702 161.22 110.611 161.55 110.496 161.902ZM107.988 160.472C107.942 160.032 107.919 159.614 107.874 159.218C107.463 159.636 107.03 160.054 106.619 160.472C107.075 160.472 107.554 160.472 107.988 160.472ZM109.675 160.802C109.539 160.802 109.402 160.802 109.288 160.802C109.128 160.824 108.9 160.802 108.832 160.89C108.626 161.176 108.467 161.506 108.307 161.814C108.763 161.462 109.105 161 109.675 160.802ZM105.821 159.592C105.547 159.878 105.296 160.142 105 160.428C105.319 160.45 105.593 160.472 105.821 160.494C105.821 160.186 105.821 159.9 105.821 159.592ZM99.3439 160.406C99.4351 160.098 99.5035 159.812 99.5719 159.548C99.5491 159.526 99.5491 159.526 99.5263 159.504C99.2298 159.834 98.9333 160.164 98.6824 160.472C98.8649 160.45 99.1386 160.428 99.3439 160.406ZM104.111 159.702C103.882 159.944 103.654 160.164 103.426 160.406C103.7 160.406 103.974 160.406 104.225 160.406C104.179 160.186 104.156 159.944 104.111 159.702ZM100.781 159.944C100.598 160.098 100.439 160.252 100.256 160.406C100.439 160.406 100.598 160.406 100.735 160.406C100.758 160.274 100.781 160.12 100.781 159.944ZM102.263 160.098C102.172 160.186 102.081 160.296 101.967 160.428C102.126 160.428 102.263 160.428 102.377 160.428C102.332 160.296 102.286 160.208 102.263 160.098Z" fill="#172D5F"/>
</g>
<path d="M55.1403 144.893C55.0266 144.722 54.8559 144.608 54.6853 144.494L54.7421 144.551C54.9128 144.949 55.0834 145.291 55.2541 145.689C55.311 145.518 55.3679 145.348 55.3679 145.177C55.2541 145.063 55.1972 144.949 55.1403 144.893Z" fill="#CDD6E5"/>
<path d="M57.4725 152.628C57.4725 152.458 57.5294 152.287 57.5294 152.116C57.5294 151.889 57.5294 151.661 57.5294 151.434C57.5863 151.206 57.757 150.865 57.9845 150.751C58.0983 148.476 57.5863 146.03 56.4487 143.755C54.5715 139.944 51.2155 137.156 47.5181 135.848C47.4612 135.905 47.4044 136.019 47.4044 136.132C47.2906 136.417 46.8355 136.303 46.8355 135.962C46.8355 135.848 46.8355 135.734 46.7786 135.62C43.7639 134.71 40.5216 134.767 37.5637 136.019C36.9949 136.246 36.426 136.531 35.9141 136.872C35.9141 137.099 35.971 137.327 35.971 137.555C35.7435 137.498 35.5728 137.384 35.4022 137.213C30.169 140.74 28.4056 147.793 31.591 154.107C32.0461 155.017 32.6149 155.871 33.1837 156.667C33.1837 156.383 33.2406 156.155 33.3544 155.871C33.4113 155.643 33.4682 155.472 33.525 155.302C33.1837 154.79 32.8424 154.221 32.558 153.652C29.3157 147.111 31.7617 139.659 38.0756 136.986C44.3896 134.369 52.1825 137.555 55.4248 144.096C57.7001 148.703 57.1881 153.823 54.4009 157.293C54.4009 157.406 54.4009 157.577 54.4009 157.634C54.4009 157.918 54.4009 158.203 54.4009 158.487C54.4009 158.658 54.4009 158.885 54.4009 159.056C56.0505 157.406 57.1881 155.302 57.7001 152.97H57.6432C57.5294 152.97 57.4725 152.799 57.4725 152.628Z" fill="#CDD6E5"/>
<path d="M49.9642 160.82C44.2759 163.152 37.3931 160.82 33.6958 155.53C33.7527 155.871 33.8095 156.155 33.9233 156.44C33.9802 156.781 33.9233 157.122 33.8095 157.35C35.6867 159.511 38.1326 161.104 40.7492 162.014C40.863 161.9 40.9767 161.787 41.1474 161.73C41.3749 161.673 41.6024 161.673 41.83 161.73C41.8868 161.73 41.9437 161.73 42.0006 161.787C42.0575 161.843 42.1144 161.9 42.1144 161.957C42.2281 162.128 42.285 162.299 42.3988 162.469C45.0723 163.038 47.9164 162.867 50.4761 161.787C51.8982 161.218 53.1496 160.365 54.1735 159.398C54.1166 158.829 54.1166 158.317 54.1166 157.748C53.0358 159.113 51.6706 160.137 49.9642 160.82Z" fill="#CDD6E5"/>
<path d="M55.3679 146.144C55.2541 146.087 55.1972 145.859 55.1972 145.689C55.0266 145.29 54.8559 144.949 54.6853 144.551L54.6284 144.494C54.6284 144.494 54.6284 144.494 54.5715 144.494C54.4009 144.38 54.2302 144.267 54.1165 144.096C54.0027 143.925 54.0027 143.755 53.8889 143.584C53.7752 143.47 53.5476 143.527 53.4907 143.413C53.3201 143.129 53.3201 142.901 53.5476 142.845C50.0778 138.01 43.7638 135.848 38.5307 138.01C37.2224 138.578 36.0278 139.375 35.1177 140.342C35.1177 140.455 35.1177 140.626 35.0608 140.74C35.004 141.024 34.8333 141.252 34.6627 141.422C34.2645 141.878 33.9801 142.446 33.8663 143.015C33.9232 142.674 33.9801 142.048 34.1507 141.422C33.2406 142.617 32.6718 144.039 32.3305 145.518L32.3874 145.575C32.4442 145.632 32.3874 145.746 32.3874 145.802C32.3874 146.03 32.3874 146.257 32.4442 146.428C32.5011 146.542 32.5011 146.599 32.558 146.713C32.6149 146.997 32.3305 147.168 32.1029 147.281C31.9892 149.272 32.3874 151.377 33.4112 153.425C33.4681 153.482 33.525 153.595 33.525 153.652C33.525 153.595 33.525 153.482 33.5819 153.425C33.6388 153.197 33.6957 152.97 33.6957 152.742C33.8663 153.083 33.7525 153.425 33.6388 153.766C33.6388 153.823 33.6388 153.823 33.6388 153.88C35.1746 156.667 37.5637 158.772 40.294 159.909C40.4647 159.909 40.6353 159.909 40.806 159.966C40.9766 159.966 41.1473 160.023 41.2041 160.194C41.2041 160.251 41.2041 160.251 41.2041 160.307C43.9345 161.218 46.8355 161.218 49.509 160.137C51.4999 159.34 53.0357 157.975 54.1165 156.383C54.1165 156.212 54.1733 156.041 54.2302 155.871C54.2871 155.871 54.344 155.928 54.4009 156.041C56.1073 153.083 56.5055 149.557 55.3679 146.144ZM39.6114 139.944C41.9436 138.977 44.5033 139.09 46.7786 139.944C46.8355 139.887 46.8924 139.887 46.9493 139.83C47.0062 139.773 47.0061 139.659 47.063 139.602C47.1768 139.432 47.2906 139.261 47.5181 139.261C47.5181 139.488 47.4612 139.716 47.4612 139.944C47.5181 140 47.575 140.057 47.575 140.114C47.6319 140.171 47.6319 140.285 47.6319 140.342C48.3713 140.74 49.1108 141.195 49.7934 141.707L45.0721 143.698C45.0721 143.755 45.0153 143.812 44.9584 143.925C44.9015 143.982 44.9015 144.039 44.8446 144.153C44.674 144.437 44.4464 144.779 44.1051 144.892C43.9345 144.949 43.707 144.835 43.707 144.665C43.707 144.608 43.707 144.494 43.6501 144.437V144.38V144.323L38.1894 146.599C37.905 146.94 37.6205 147.338 37.1655 147.281C37.0517 147.281 36.938 147.224 36.7673 147.224L34.3782 148.191C34.3214 144.608 36.1985 141.366 39.6114 139.944ZM49.7365 157.35C49.7365 157.52 49.6796 157.634 49.6796 157.805C49.6227 158.317 49.509 158.885 49.1677 159.227C49.1677 158.658 49.2246 158.146 49.2815 157.634C49.0539 157.748 48.8264 157.862 48.5989 157.975C45.2428 159.397 41.261 158.544 38.4169 156.212L44.7877 153.595C44.9584 153.425 45.1859 153.254 45.4134 153.083C45.5272 152.97 45.6979 152.856 45.8116 152.799C46.0391 152.685 46.3804 152.742 46.6649 152.742C46.7217 152.742 46.7217 152.742 46.7786 152.742L50.7035 151.149C50.7035 151.149 50.7035 151.149 50.7035 151.092C50.7604 150.922 50.8173 150.694 50.8173 150.524C50.7604 150.296 50.7035 150.012 50.6466 149.784C50.5897 149.5 50.5329 149.102 50.5329 148.703L41.261 152.571C41.2041 152.628 41.2041 152.628 41.1473 152.685C40.8628 152.913 39.2701 153.937 38.9857 153.538L36.7673 154.449C36.3123 153.88 35.9141 153.254 35.5728 152.571C35.2315 151.889 35.004 151.206 34.8333 150.524L41.3179 147.793C41.4886 147.509 41.6023 147.111 41.8867 146.997C42.0005 147.111 42.0005 147.338 42.0005 147.509L51.6705 143.47C52.1256 144.039 52.5237 144.665 52.865 145.347C53.2063 146.03 53.4339 146.713 53.6045 147.395L51.4999 148.248C51.443 148.931 51.443 149.614 51.3292 150.296C51.3292 150.353 51.3292 150.41 51.2723 150.524C51.2723 150.524 51.2723 150.524 51.2723 150.581C51.2723 150.581 51.3292 150.694 51.3292 150.637C51.3292 150.637 51.3861 150.694 51.443 150.751C51.443 150.751 51.443 150.808 51.4999 150.808L53.8889 149.841C53.832 152.856 52.3531 155.757 49.7365 157.35Z" fill="#CDD6E5"/>
<line x1="88.6238" y1="163.512" x2="123.945" y2="163.512" stroke="#172D5F" stroke-width="0.5"/>
<defs>
<clipPath id="clip0_112_910">
<rect width="52" height="22" fill="white" transform="translate(79 150)"/>
</clipPath>
</defs>
</svg>
